<svg xmlns="http://www.w3.org/2000/svg" viewBox="0 0 238.18 32.15"><defs><style>.cls-1{fill:#fefefe;}.cls-1,.cls-2{fill-rule:evenodd;}.cls-2{fill:#76c04e;}.cls-3{fill:#373435;}.cls-4{fill:none;stroke:#fefefe;stroke-miterlimit:2.61;}</style></defs><title>Asset 1</title><g id="Layer_2" data-name="Layer 2"><g id="Layer_1-2" data-name="Layer 1"><path class="cls-1" d="M181.79,8.33,174,23.12a2.75,2.75,0,0,0-.37,1c0,.64.67,1.09,1.64,1.09a1.69,1.69,0,0,0,1.65-.91l7.19-14.41,7.19,14.41a1.69,1.69,0,0,0,1.65.91c1,0,1.64-.45,1.64-1.09a2.75,2.75,0,0,0-.37-1L186.49,8.33a2.64,2.64,0,0,0-4.7,0"/><path class="cls-1" d="M212.94,8.22V20.7L200.63,8.07a2.76,2.76,0,0,0-2.28-1.19c-1.06,0-1.57.48-1.57,1.46V23.89c0,.81.67,1.34,1.71,1.34s1.7-.53,1.7-1.34V11.41L212.5,24c.86.9,1.31,1.2,2.28,1.2s1.57-.48,1.57-1.47V8.22c0-.81-.67-1.34-1.71-1.34s-1.7.53-1.7,1.34"/><path class="cls-1" d="M234,7.6l-10.35,6.77V8.22c0-.81-.67-1.34-1.7-1.34s-1.71.53-1.71,1.34V23.89c0,.81.67,1.34,1.71,1.34s1.7-.53,1.7-1.34V16.81l11.29,7.92a2.55,2.55,0,0,0,1.6.5c.92,0,1.67-.51,1.67-1.14,0-.42-.2-.71-.71-1l-10.89-7.51,9.95-6.4A1.23,1.23,0,0,0,237.24,8c0-.66-.62-1.12-1.5-1.12A3.21,3.21,0,0,0,234,7.6"/><path class="cls-2" d="M49.1,8.33,41.34,23.12a2.75,2.75,0,0,0-.37,1c0,.64.67,1.09,1.63,1.09a1.7,1.7,0,0,0,1.66-.91L51.45,9.92l7.19,14.41a1.69,1.69,0,0,0,1.65.91c1,0,1.64-.45,1.64-1.09a2.94,2.94,0,0,0-.37-1L53.79,8.33a2.63,2.63,0,0,0-4.69,0"/><path class="cls-2" d="M141.48,8.33l-7.76,14.79a2.75,2.75,0,0,0-.37,1c0,.64.67,1.09,1.63,1.09h0a1.68,1.68,0,0,0,1.65-.91s7-13.95,7.2-14.41L151,24.33a1.69,1.69,0,0,0,1.65.91c1,0,1.64-.45,1.64-1.09a2.94,2.94,0,0,0-.37-1L146.17,8.33a2.63,2.63,0,0,0-4.69,0"/><path class="cls-2" d="M82.42,8.13S78,18.9,77.26,20.78L72.09,8.13C71.72,7.25,71,6.88,69.7,6.88a2.36,2.36,0,0,0-2.57,1.8L63.75,22.9a4.9,4.9,0,0,0-.18,1c0,.81.6,1.29,1.6,1.29.7,0,1.64-.11,1.81-1.09h0l2.8-13.79,5.75,13.87a2,2,0,0,0,3.45,0s4.82-11.61,5.75-13.87l2.8,13.79c.18,1,1.12,1.08,1.81,1.08,1,0,1.6-.48,1.6-1.29a4.9,4.9,0,0,0-.18-1L87.38,8.68a2.35,2.35,0,0,0-2.57-1.8c-1.3,0-2,.37-2.39,1.25"/><path class="cls-2" d="M95.61,7c-1.14,0-1.81.51-1.81,1.36V23.71c0,.86.67,1.37,1.81,1.37h8.8c1,0,1.67-.45,1.67-1.19s-.62-1.2-1.67-1.2h-7.2V17.25h6.54c1,0,1.67-.45,1.67-1.2s-.62-1.19-1.67-1.19H97.21V9.41h7.2c1,0,1.67-.44,1.67-1.19S105.46,7,104.41,7Z"/><path class="cls-2" d="M127.67,8.22V23.89c0,.81.67,1.34,1.71,1.34s1.7-.53,1.7-1.34V8.22c0-.81-.67-1.34-1.7-1.34s-1.71.53-1.71,1.34"/><path class="cls-2" d="M124.43,23.08l-7.52-5.89.84,0c4.47-.12,6.92-2,6.92-5.19S120.73,7,116.91,7h-5.67c-1.14,0-1.81.51-1.81,1.36v15.5c0,.81.67,1.34,1.7,1.34s1.71-.53,1.71-1.34V17.5c.52.42,9.19,7.2,9.19,7.2a2.32,2.32,0,0,0,1.5.53c.87,0,1.56-.45,1.56-1a1.33,1.33,0,0,0-.66-1.13m-11.59-7.87v-6h3.93c2.61,0,4.49,1.21,4.49,2.86,0,2.17-1.32,3.09-4.42,3.09Z"/><path class="cls-1" d="M167.56,15.28a4.07,4.07,0,0,0,2.93-3.85c0-2.13-2.4-4.4-6.85-4.4h-5.4c-1.13,0-1.81.51-1.81,1.36V23.71c0,.86.68,1.37,1.81,1.37h5.88c5.69,0,8.29-2.77,8.29-5.35,0-2.18-2-4-4.85-4.45m-7.72-6h3.41c2.44,0,3.83.94,3.83,2.57s-1.58,2.68-3.93,2.68h-3.31ZM164,22.84h-4.14V16.65h4.28c2.92,0,4.88,1.24,4.88,3.08S166.94,22.84,164,22.84Z"/><rect class="cls-3" x="0.5" y="0.5" width="31.15" height="31.15" rx="1.96"/><rect class="cls-4" x="0.5" y="0.5" width="31.15" height="31.15" rx="1.96"/><path class="cls-2" d="M26.19,23.13,18.42,8.33A2.42,2.42,0,0,0,16.07,6.9a2.4,2.4,0,0,0-2.34,1.44L6,23.13a2.94,2.94,0,0,0-.37,1c0,.64.68,1.09,1.64,1.09a1.69,1.69,0,0,0,1.65-.92s7-13.95,7.19-14.4c.23.45,7.19,14.4,7.19,14.4a1.69,1.69,0,0,0,1.66.92c1,0,1.63-.45,1.63-1.09a2.89,2.89,0,0,0-.36-1"/></g></g></svg>