<?xml version="1.0" encoding="utf-8"?>
<!-- Generator: Adobe Illustrator 23.0.3, SVG Export Plug-In . SVG Version: 6.00 Build 0)  -->
<svg version="1.1" id="Layer_1" xmlns="http://www.w3.org/2000/svg" xmlns:xlink="http://www.w3.org/1999/xlink" x="0px" y="0px"
	 viewBox="0 0 270 102.2" style="enable-background:new 0 0 270 102.2;" xml:space="preserve">
<style type="text/css">
	.st0{fill-rule:evenodd;clip-rule:evenodd;fill:#00A8BC;}
	.st1{display:none;fill-rule:evenodd;clip-rule:evenodd;fill:#00A8BC;}
	.st2{display:none;}
	.st3{display:inline;fill-rule:evenodd;clip-rule:evenodd;fill:#FFFFFF;}
	.st4{display:inline;fill:#FFFFFF;}
	.st5{fill-rule:evenodd;clip-rule:evenodd;fill:#FEFEFE;}
	.st6{fill-rule:evenodd;clip-rule:evenodd;fill:#76C04E;}
	.st7{fill:none;stroke:#FEFEFE;stroke-width:0.9998;stroke-miterlimit:2.6131;}
	.st8{fill:#FFFFFF;}
	.st9{fill:#EE464A;}
	.st10{fill:#FAB844;}
	.st11{fill:#2E855F;}
	.st12{fill:#3D83BE;}
	.st13{fill-rule:evenodd;clip-rule:evenodd;fill:#F7981D;}
	.st14{fill:#6D6E70;}
	.st15{fill-rule:evenodd;clip-rule:evenodd;fill:#7784B4;}
	.st16{fill-rule:evenodd;clip-rule:evenodd;fill:#F3C131;}
	.st17{fill-rule:evenodd;clip-rule:evenodd;fill:#85CADD;}
	.st18{fill-rule:evenodd;clip-rule:evenodd;fill:#E7792B;}
	.st19{fill-rule:evenodd;clip-rule:evenodd;fill:#FFFFFE;}
	.st20{fill-rule:evenodd;clip-rule:evenodd;fill:#7EBC59;}
	.st21{fill-rule:evenodd;clip-rule:evenodd;fill:#E590A7;}
	.st22{opacity:0.47;fill:#5690FF;enable-background:new    ;}
	.st23{fill:url(#SVGID_1_);}
	.st24{fill:#D4DAE8;}
	.st25{clip-path:url(#SVGID_3_);fill:url(#SVGID_4_);}
	.st26{clip-path:url(#SVGID_6_);fill:url(#SVGID_7_);}
	.st27{clip-path:url(#SVGID_9_);fill:url(#SVGID_10_);}
	.st28{clip-path:url(#SVGID_12_);fill:url(#SVGID_13_);}
</style>
<rect x="-738.8" y="449.7" class="st0" width="11.3" height="36.4"/>
<polygon class="st0" points="-682.1,449.7 -720.2,449.7 -720.2,459.2 -706.7,459.2 -706.7,486.1 -695.5,486.1 -695.5,459.2 
	-682.1,459.2 "/>
<rect x="-620.3" y="449.7" class="st0" width="11.3" height="36.4"/>
<path class="st0" d="M-568.6,449.7v20.8l-22.3-18.8c-4.5-4.1-10.7-1.6-10.7,4.8v29.6h10.2v-21.4l22.3,19.4
	c4.4,4.2,10.7,1.5,10.7-4.9v-29.5H-568.6z"/>
<path class="st0" d="M-820.8,460.9c-1.1-2.3-2.6-4.2-4.6-5.9c-1.9-1.7-4.2-2.9-6.9-3.9c-2.7-0.9-5.6-1.4-8.8-1.4H-866v27.7v8.6h24.9
	c3.2,0,6.1-0.4,8.8-1.3c2.7-0.8,5-2.1,6.9-3.6s3.5-3.5,4.6-5.7c1.1-2.2,1.7-4.6,1.7-7.3C-819.2,465.6-819.7,463.2-820.8,460.9
	L-820.8,460.9z M-831.2,471.3c-0.5,1.1-1.3,2-2.3,2.8c-1,0.8-2.1,1.4-3.4,1.8c-1.3,0.4-2.7,0.7-4.2,0.7h-13.8v-17.6h13.8
	c1.6,0,3,0.2,4.3,0.6c1.3,0.4,2.4,1,3.4,1.8c1,0.8,1.7,1.7,2.2,2.7c0.5,1.1,0.8,2.3,0.8,3.6C-830.4,469.1-830.6,470.3-831.2,471.3z"
	/>
<path class="st0" d="M-664.3,453.8l-23.3,32.3h13.3l17.1-24.1l6,8.6h-7.1l-6.6,9.3h20.2l4.3,6.2h13.4l-22.7-32.3
	C-653.7,448.2-660.3,448.4-664.3,453.8z"/>
<path class="st0" d="M-757.4,466.6v10.1h-13.8c-1.6,0-3-0.2-4.3-0.6c-1.3-0.4-2.4-1-3.4-1.8c-1-0.8-1.7-1.7-2.2-2.7
	c-0.5-1.1-0.8-2.3-0.8-3.6s0.3-2.5,0.8-3.6c0.5-1.1,1.3-2,2.3-2.8c1-0.8,2.1-1.4,3.4-1.8c1.3-0.4,2.7-0.7,4.2-0.7h11.4v0h13.5v-9.5
	h-24.9c-3.2,0-6.1,0.4-8.8,1.3c-2.7,0.8-5,2.1-6.9,3.6c-1.9,1.6-3.5,3.5-4.6,5.7c-1.1,2.2-1.7,4.6-1.7,7.3c0,2.6,0.6,5.1,1.7,7.4
	s2.6,4.2,4.6,5.9c1.9,1.7,4.2,2.9,6.9,3.9c2.7,0.9,5.6,1.4,8.8,1.4h24.9v-19.5H-757.4z"/>
<rect x="-811.7" y="449.7" class="st0" width="11.3" height="36.4"/>
<path class="st0" d="M-908.4,440.8c1.7,1.9,3.4,3.8,4.8,5.9c0.8,1.2,1.1,2.3,2.6,2.7c1.1,0.3,6.6,0.6,7.4-0.8c1-1.8-4.2-5.9-5.2-6.7
	c-1.3-1.1-2.8-2.5-4.4-3c-0.9-0.3-2.4-0.5-3.3-0.4c-1.2,0.2-0.6,0.3-0.9,0.5c-0.6,0.5-1.8-0.1-1.7,0.7
	C-909,440.2-908.7,440.5-908.4,440.8L-908.4,440.8z M-924.8,500.8c-1.7-1.2-3.2-2.4-5.2-2.8c-0.8-0.2-2.4,0.2-2.8-0.9
	c-0.4-1.3,1.9-1.1,2.8-1.2c1.6-0.2,2.2,0.1,1.7-1.6c-0.3-1.1-1.8-2.4-2.9-2.6c-1.4-0.3-2.9,0.4-4.4,0.1c-1.9-0.4-3.3-1.5-4.9-2.5
	c-1.3-0.8-4.3-2.1-3.6,0.6c0.3,1.1,1.8,2.3,2.5,3C-937,497.2-930.8,499.5-924.8,500.8L-924.8,500.8z M-948.9,482.8
	c-2-3.9-3.2-8.1-3.6-12.5c0.3,0.9,1,4.4,2.1,4.6c1.6,0.2,3.3-5.2,4.2-6.4c4.2-5.9,11.1-1.5,14.2,3.2c2.7,4.1,3.8,13.7-1.8,16.4
	c-2.7,1.3-6.3-0.6-8.5-2.1C-944.2,484.8-946.5,482.2-948.9,482.8L-948.9,482.8z M-951.9,467.8c0.8,3,1.8,1.6,2.7-0.3
	c0.6-1.3,0.9-2.8,1.6-4c0.8-1.2,1.8-1.5,3-2.2c2.2-1.3,4.3-4.7,0.1-5c-1.2-0.1-6.4,3-6.5,1.6C-952.2,461.1-952.8,464.5-951.9,467.8
	L-951.9,467.8z M-950.1,455.3c3.2-1.2,3.9-2.9,5.3-5.9c0.7-1.5,4.2-5.4,3.8-6.7C-944.9,446.2-948.3,450.5-950.1,455.3L-950.1,455.3z
	 M-933.8,439.5c-2.3,0.2-0.8-1.3,0.1-1.7c2.5-1.3,5.7-1.9,8.3-2.5c3.8-0.9,7.7-0.8,11.6-0.1c1,0.2,6.2,0.9,6.6,2.1
	c0.2,0.6-5.4,0.7-5.7,0.7c-2.4,0-4.7,0.2-7.1,0.6C-924.7,439.5-929.1,439.5-933.8,439.5L-933.8,439.5z M-937.1,453.9
	c-7.9,2.9-6.1-6.1-3-9.8c3.1-3.8,7.7-2.8,12.2-2.2c4.2,0.6,7.8-0.6,11.9-1.1c4.3-0.5,6.2,2.2,8,5.7c0.4,0.8,1.7,2.6,1.5,3.6
	c-0.4,1.3-3.4,1.5-4.4,1.8c-4.2,1-8.6,1.8-12.9,1.6C-928.4,453.3-932.7,452.1-937.1,453.9L-937.1,453.9z M-919.6,501
	c-1.2-0.2-7-1.1-7-2.8c0-1.8,7.3,0.6,8.4,0.8c4,0.8,8-0.5,11.8-1.7c2.7-0.9,3.7-1.4,6-2.8c0.8-0.5,1.5-0.8,1.8-0.7
	c0.1,0-0.5,0.5-1.3,1.1c-2.8,2.1-5.7,3.5-9,4.7C-912.3,500.8-915.9,501.7-919.6,501L-919.6,501z M-925.1,494c-2.1-2.8-3.3-9.6,2-9.8
	c3.4-0.2,6.5,2.4,8.2,5.1c1.1,1.8,1.7,4,3.2,5.6c1.2,1.3,3.2,1.4,1,2.4C-914.7,499.2-922.4,497.6-925.1,494L-925.1,494z
	 M-889.3,468.5c-1,2.6-2.7,3.7-4.7,5.4c-1.6,1.4-1.4,3.7-1.6,5.7c-0.6,4.6-2,8.9-4.1,13.1c0.4,1.6,4.6-2.2,5-2.7
	c1.5-1.9,3.1-3.8,4.4-5.9c1.9-3.3,3.2-7,3.7-10.8c0.1-0.8,0.9-10.8-0.4-10.9C-888,462.2-889.2,468-889.3,468.5L-889.3,468.5z
	 M-927.3,475.8c-3.8-8.3,11.6-4.4,15.3-2.5c1.4,0.7,2.8,1.6,4.2,2.2c2.3,1,3.8,0.2,6.2,0.4c3.6,0.3,1.8,6.9,1.4,9.3
	c-0.5,3.1-1.2,9.7-5.3,9.7c-4.3-0.1-4.6-4.4-5.9-7.4C-914.2,481.2-924.6,481.7-927.3,475.8L-927.3,475.8z M-934.5,457.6
	c-5.1,1.4-0.6,5.8,2,7.4c2.6,1.6,5.9,1.6,8.9,1.3c3.8-0.4,6.5-1.1,10.2,0.8c3.2,1.6,5.9,3.8,9.6,4c5.2,0.2,11.7-1.6,13.6-6.8
	c0.5-1.3,0.6-2.6,1-3.9c0.2-0.9,1.1-1.6,1.3-2.5c0.1-0.5-2.5-7.1-3.5-6.7c0.1,0,0,1.3-0.3,1.6c-0.4,0.4-2.6,0.6-3.1,0.7
	c-1.6,0.1-3.1,0-4.8,0.3c-4,0.7-8,1.8-12,2.6c-3.5,0.7-7.3,2-10.9,1.8C-925.7,457.9-930.9,456.6-934.5,457.6z"/>
<rect x="-228.5" y="356.7" class="st1" width="841.9" height="297.6"/>
<g class="st2">
	<rect x="213.9" y="482.2" class="st3" width="14.5" height="46.7"/>
	<polygon class="st3" points="286.7,482.2 237.8,482.2 237.8,494.3 255,494.3 255,528.9 269.5,528.9 269.5,494.3 286.7,494.3 	"/>
	<rect x="366" y="482.2" class="st3" width="14.5" height="46.7"/>
	<path class="st3" d="M432.4,482.2v26.7l-28.6-24.2c-5.8-5.3-13.7-2-13.7,6.2v38h13.1v-27.4l28.6,24.9c5.6,5.4,13.8,2,13.8-6.3
		v-37.9L432.4,482.2L432.4,482.2z"/>
	<path class="st3" d="M108.5,496.5c-1.4-2.9-3.4-5.4-5.9-7.5s-5.5-3.8-8.9-5c-3.4-1.2-7.2-1.8-11.2-1.8h-32v35.6v11.1h32
		c4,0,7.8-0.5,11.2-1.6c3.4-1.1,6.4-2.6,8.9-4.7s4.4-4.4,5.9-7.3c1.4-2.8,2.1-5.9,2.1-9.3C110.7,502.6,110,499.4,108.5,496.5
		L108.5,496.5z M95.2,509.9c-0.7,1.4-1.7,2.6-2.9,3.6c-1.2,1-2.7,1.8-4.4,2.4c-1.7,0.6-3.5,0.8-5.4,0.8H64.9v-22.5h17.7
		c2,0,3.8,0.3,5.5,0.8s3.1,1.3,4.4,2.3c1.2,1,2.2,2.1,2.9,3.5c0.7,1.4,1,2.9,1,4.6C96.3,507,95.9,508.5,95.2,509.9z"/>
	<path class="st3" d="M309.6,487.4l-29.9,41.5h17.1l21.9-31l7.7,11.1h-9.2l-8.5,12h26l5.5,7.9h17.2l-29.2-41.5
		C323.2,480.2,314.6,480.4,309.6,487.4z"/>
	<path class="st3" d="M190,503.8v13h-17.7c-2,0-3.8-0.3-5.5-0.8c-1.7-0.5-3.1-1.3-4.4-2.3c-1.2-1-2.2-2.1-2.9-3.5
		c-0.7-1.4-1-2.9-1-4.6s0.4-3.2,1-4.6c0.7-1.4,1.7-2.6,2.9-3.6c1.2-1,2.7-1.8,4.4-2.4c1.7-0.6,3.5-0.8,5.4-0.8H187v0h17.4v-12.1h-32
		c-4,0-7.8,0.5-11.2,1.6c-3.4,1.1-6.4,2.6-8.9,4.7c-2.5,2-4.4,4.4-5.9,7.3c-1.4,2.8-2.1,5.9-2.1,9.3s0.7,6.5,2.1,9.5
		c1.4,2.9,3.4,5.4,5.9,7.5s5.5,3.8,8.9,5c3.4,1.2,7.2,1.8,11.2,1.8h32v-25L190,503.8L190,503.8z"/>
	<rect x="120.2" y="482.2" class="st3" width="14.5" height="46.7"/>
	<path class="st3" d="M-3.9,470.7c2.1,2.5,4.4,4.9,6.2,7.6c1,1.5,1.5,2.9,3.4,3.5c1.5,0.4,8.5,0.7,9.5-1c1.3-2.4-5.4-7.5-6.7-8.6
		c-1.7-1.5-3.6-3.2-5.7-3.9c-1.2-0.4-3-0.7-4.3-0.5c-1.5,0.3-0.8,0.3-1.2,0.6c-0.7,0.6-2.3-0.2-2.1,0.9
		C-4.7,469.9-4.3,470.3-3.9,470.7L-3.9,470.7z M-24.9,547.8c-2.2-1.5-4.1-3-6.7-3.6c-1-0.2-3.1,0.2-3.6-1.2
		c-0.6-1.7,2.4-1.4,3.6-1.5c2-0.3,2.9,0.1,2.1-2.1c-0.4-1.4-2.3-3.1-3.7-3.4c-1.8-0.3-3.7,0.5-5.7,0.1c-2.4-0.5-4.3-2-6.3-3.3
		c-1.7-1-5.5-2.7-4.6,0.8c0.4,1.4,2.3,3,3.2,3.9C-40.7,543.1-32.7,546.1-24.9,547.8L-24.9,547.8z M-56,524.7
		c-2.6-5.1-4.1-10.4-4.7-16.1c0.3,1.2,1.3,5.7,2.7,5.9c2,0.3,4.3-6.7,5.3-8.2c5.4-7.6,14.2-1.9,18.2,4.1c3.5,5.3,4.9,17.6-2.3,21
		c-3.4,1.6-8.1-0.8-10.9-2.7C-49.9,527.2-52.9,523.9-56,524.7L-56,524.7z M-59.9,505.4c1,3.9,2.3,2.1,3.4-0.4
		c0.7-1.6,1.1-3.6,2.1-5.1c1-1.6,2.3-2,3.9-2.9c2.9-1.6,5.6-6.1,0.1-6.4c-1.6-0.1-8.2,3.9-8.3,2C-60.2,496.8-60.9,501.2-59.9,505.4
		L-59.9,505.4z M-57.5,489.4c4.1-1.6,5.1-3.8,6.8-7.5c0.9-1.9,5.4-7,4.9-8.6C-50.8,477.6-55.2,483.2-57.5,489.4L-57.5,489.4z
		 M-36.6,469c-3,0.3-1-1.6,0.2-2.2c3.2-1.6,7.3-2.4,10.7-3.2c4.9-1.1,9.9-1.1,14.9-0.1c1.2,0.2,7.9,1.2,8.5,2.7
		c0.3,0.8-6.9,0.9-7.4,0.9c-3.1,0-6,0.3-9.1,0.8C-24.9,469-30.5,469-36.6,469L-36.6,469z M-40.8,487.5c-10.1,3.8-7.8-7.8-3.9-12.6
		c4-4.9,9.9-3.6,15.6-2.9c5.3,0.7,10-0.8,15.3-1.4c5.5-0.6,8,2.8,10.3,7.3c0.5,1,2.2,3.4,1.9,4.6c-0.5,1.6-4.4,2-5.6,2.3
		c-5.4,1.2-11.1,2.3-16.6,2.1C-29.6,486.7-35.1,485.3-40.8,487.5L-40.8,487.5z M-18.3,548c-1.5-0.3-9-1.4-9-3.6
		c0-2.3,9.4,0.8,10.8,1c5.1,1,10.3-0.7,15.1-2.2c3.5-1.1,4.7-1.8,7.7-3.6c1-0.6,1.9-1,2.3-0.9c0.1,0-0.7,0.7-1.6,1.4
		c-3.6,2.7-7.4,4.5-11.6,6C-8.9,547.7-13.6,548.9-18.3,548L-18.3,548z M-25.4,539c-2.7-3.6-4.2-12.3,2.6-12.6
		c4.4-0.2,8.4,3,10.5,6.6c1.4,2.4,2.2,5.2,4.1,7.2c1.6,1.7,4.1,1.8,1.3,3.1C-12.1,545.7-22,543.6-25.4,539L-25.4,539z M20.6,506.3
		c-1.3,3.4-3.5,4.8-6,6.9c-2.1,1.8-1.8,4.7-2.1,7.3c-0.8,5.9-2.5,11.5-5.2,16.8c0.5,2,5.9-2.8,6.4-3.5c2-2.4,4-4.9,5.6-7.6
		c2.4-4.2,4.2-9,4.7-13.8c0.1-1.1,1.2-13.8-0.5-14C22.3,498.2,20.8,505.6,20.6,506.3L20.6,506.3z M-28.2,515.6
		c-4.9-10.6,14.9-5.6,19.6-3.1c1.8,0.9,3.6,2.1,5.4,2.9c2.9,1.3,4.9,0.2,7.9,0.5c4.7,0.4,2.3,8.8,1.8,12c-0.6,4-1.5,12.5-6.8,12.4
		c-5.5-0.1-5.9-5.7-7.6-9.5C-11.5,522.6-24.7,523.2-28.2,515.6L-28.2,515.6z M-37.5,492.2c-6.5,1.8-0.7,7.5,2.6,9.5
		c3.3,2,7.6,2,11.4,1.7c4.9-0.5,8.3-1.4,13,1c4.1,2.1,7.6,4.9,12.4,5.1c6.7,0.3,15-2,17.4-8.8c0.6-1.7,0.8-3.4,1.3-5
		c0.3-1.2,1.4-2.1,1.7-3.2c0.2-0.7-3.2-9.1-4.5-8.6c0.1,0,0,1.6-0.4,2c-0.5,0.5-3.3,0.8-4,0.9c-2.1,0.1-4,0-6.2,0.4
		c-5.2,0.9-10.3,2.3-15.4,3.3c-4.5,1-9.4,2.5-14,2.3C-26.1,492.6-32.9,490.9-37.5,492.2z"/>
</g>
<g class="st2">
	<path class="st4" d="M162,550.5h3.3v18H162V550.5z"/>
	<path class="st4" d="M175,548.3c0.7,0,1.4,0.1,1.9,0.2s1,0.3,1.3,0.4l-0.6,2.6c-0.3-0.1-0.6-0.3-1-0.3c-0.4-0.1-0.8-0.1-1.3-0.1
		c-0.5,0-0.9,0.1-1.3,0.2c-0.4,0.2-0.6,0.4-0.8,0.6c-0.2,0.3-0.4,0.6-0.4,1c-0.1,0.4-0.1,0.8-0.1,1.2v0.9h4.9v2.6h-4.9v11h-3.1
		v-14.6c0-1.8,0.5-3.1,1.4-4.1C171.7,548.8,173.1,548.3,175,548.3z"/>
	<path class="st4" d="M189.4,550.9c0,0.6-0.2,1.1-0.6,1.4c-0.4,0.3-0.8,0.5-1.4,0.5c-0.5,0-1-0.2-1.4-0.5s-0.6-0.8-0.6-1.4
		c0-0.6,0.2-1.1,0.6-1.4c0.4-0.4,0.8-0.5,1.4-0.5c0.5,0,1,0.2,1.4,0.5S189.4,550.3,189.4,550.9z M189.1,568.5h-3.1v-13.6h3.1V568.5z
		"/>
	<path class="st4" d="M192.9,551.3l3.1-0.5v4.1h4.8v2.6H196v5.5c0,1.1,0.2,1.9,0.5,2.3c0.4,0.5,0.9,0.7,1.8,0.7
		c0.6,0,1.1-0.1,1.5-0.2s0.8-0.2,1-0.3l0.5,2.5c-0.4,0.2-0.8,0.3-1.4,0.5c-0.6,0.2-1.3,0.3-2.1,0.3c-1,0-1.8-0.1-2.4-0.4
		s-1.2-0.6-1.5-1.1c-0.4-0.5-0.6-1.1-0.8-1.8s-0.2-1.5-0.2-2.4L192.9,551.3L192.9,551.3z"/>
	<path class="st4" d="M206.9,548.8c0,0.2,0,0.4,0,0.6c0,0.2,0,0.4,0,0.5c0,1-0.2,2-0.6,3c-0.4,1-0.8,1.8-1.4,2.6l-2.3-0.6
		c0.4-0.8,0.6-1.6,0.8-2.4c0.2-0.8,0.3-1.7,0.3-2.4c0-0.1,0-0.3,0-0.6s0-0.5-0.1-0.7L206.9,548.8L206.9,548.8z"/>
	<path class="st4" d="M213.9,566.2c0.8,0,1.4-0.1,1.8-0.3c0.4-0.2,0.6-0.5,0.6-1c0-0.5-0.2-0.8-0.6-1.1c-0.4-0.3-1.1-0.6-2-1
		c-0.6-0.2-1.1-0.4-1.6-0.7c-0.5-0.2-0.9-0.5-1.2-0.8c-0.4-0.3-0.6-0.7-0.8-1.1s-0.3-1-0.3-1.6c0-1.3,0.5-2.2,1.4-3
		c0.9-0.7,2.2-1.1,3.7-1.1c0.8,0,1.6,0.1,2.3,0.2c0.7,0.2,1.3,0.3,1.6,0.4l-0.6,2.5c-0.4-0.2-0.8-0.3-1.3-0.4
		c-0.5-0.1-1.2-0.2-1.9-0.2c-0.6,0-1.2,0.1-1.6,0.3c-0.4,0.2-0.6,0.5-0.6,1c0,0.2,0,0.4,0.1,0.6c0.1,0.2,0.2,0.3,0.4,0.5
		s0.4,0.3,0.8,0.4c0.3,0.1,0.7,0.3,1.1,0.5c0.8,0.3,1.4,0.5,1.9,0.8s1,0.6,1.3,0.9c0.3,0.3,0.6,0.7,0.7,1.2c0.2,0.4,0.2,1,0.2,1.6
		c0,1.3-0.5,2.3-1.4,3c-1,0.7-2.3,1-4.1,1c-1.2,0-2.2-0.1-2.9-0.3s-1.2-0.4-1.5-0.5l0.5-2.6c0.5,0.2,1,0.4,1.7,0.5
		C212.3,566.2,213,566.2,213.9,566.2z"/>
	<path class="st4" d="M231.9,550.9c0,0.6-0.2,1.1-0.6,1.4c-0.4,0.4-0.8,0.5-1.4,0.5c-0.5,0-1-0.2-1.4-0.5s-0.6-0.8-0.6-1.4
		c0-0.6,0.2-1.1,0.6-1.4c0.4-0.4,0.8-0.5,1.4-0.5c0.5,0,1,0.2,1.4,0.5S231.9,550.3,231.9,550.9z M231.6,568.5h-3.1v-13.6h3.1V568.5z
		"/>
	<path class="st4" d="M244.2,553c-1.9,0-3.3,0.6-4.3,1.7c-1,1.1-1.5,2.8-1.5,4.8c0,1,0.1,1.9,0.4,2.7s0.6,1.5,1,2.1s1,1,1.7,1.3
		c0.7,0.3,1.5,0.5,2.4,0.5c0.6,0,1.1,0,1.5-0.1c0.4,0,0.7-0.1,1-0.2v-6.5h3.3v8.7c-0.5,0.2-1.2,0.4-2.3,0.6
		c-1.1,0.2-2.3,0.3-3.7,0.3c-1.3,0-2.5-0.2-3.6-0.6c-1.1-0.4-2-1-2.7-1.8s-1.3-1.8-1.8-2.9c-0.4-1.2-0.6-2.5-0.6-4s0.2-2.8,0.7-4
		c0.5-1.2,1.1-2.1,1.9-3c0.8-0.8,1.7-1.4,2.8-1.8c1.1-0.4,2.2-0.6,3.4-0.6c0.8,0,1.6,0.1,2.2,0.2c0.6,0.1,1.2,0.2,1.7,0.4
		s0.9,0.3,1.2,0.4c0.3,0.1,0.5,0.3,0.6,0.3l-1,2.7c-0.5-0.3-1.2-0.6-1.9-0.8C245.8,553.1,245,553,244.2,553z"/>
	<path class="st4" d="M265.5,568.5c-0.2-0.7-0.5-1.4-0.8-2.1c-0.3-0.7-0.5-1.4-0.8-2.1h-7.6c-0.2,0.7-0.5,1.4-0.7,2.1
		c-0.3,0.7-0.5,1.4-0.7,2.1h-3.4c0.7-1.9,1.3-3.7,1.9-5.3c0.6-1.6,1.2-3.2,1.8-4.6c0.6-1.5,1.2-2.8,1.7-4.2s1.2-2.6,1.8-3.9h3.1
		c0.6,1.3,1.2,2.6,1.8,3.9c0.6,1.3,1.1,2.7,1.7,4.2c0.6,1.5,1.2,3,1.8,4.6c0.6,1.6,1.3,3.4,1.9,5.3H265.5z M260.2,554
		c-0.4,0.9-0.9,2-1.4,3.4c-0.5,1.3-1,2.8-1.6,4.3h5.9c-0.5-1.5-1.1-3-1.6-4.3C261,556,260.6,554.9,260.2,554z"/>
	<path class="st4" d="M275.2,550.5c0.4,0.7,0.8,1.5,1.3,2.4c0.5,1,0.9,2,1.4,3c0.5,1,1,2.1,1.4,3.2c0.5,1.1,0.9,2.1,1.3,3
		c0.4-0.9,0.8-1.9,1.3-3c0.5-1.1,0.9-2.1,1.4-3.2c0.5-1,1-2,1.4-3s0.9-1.8,1.3-2.4h3c0.2,1.3,0.3,2.7,0.5,4.2c0.1,1.5,0.3,3,0.4,4.5
		s0.2,3.1,0.3,4.7c0.1,1.6,0.2,3.1,0.3,4.6h-3.2c-0.1-2.1-0.2-4.3-0.3-6.5c-0.1-2.2-0.2-4.4-0.4-6.5c-0.2,0.4-0.4,0.9-0.7,1.4
		s-0.5,1.2-0.8,1.8c-0.3,0.6-0.6,1.3-0.9,2c-0.3,0.7-0.6,1.4-0.9,2c-0.3,0.7-0.5,1.3-0.8,1.8c-0.2,0.6-0.5,1-0.6,1.4h-2.4
		c-0.2-0.4-0.4-0.9-0.6-1.5c-0.2-0.6-0.5-1.2-0.8-1.8c-0.3-0.6-0.6-1.3-0.9-2c-0.3-0.7-0.6-1.4-0.9-2c-0.3-0.6-0.6-1.2-0.8-1.8
		s-0.5-1-0.7-1.4c-0.2,2.1-0.3,4.2-0.4,6.5c-0.1,2.2-0.2,4.4-0.3,6.5h-3.2c0.1-1.5,0.1-3,0.3-4.6c0.1-1.6,0.2-3.2,0.3-4.8
		c0.1-1.6,0.2-3.1,0.4-4.6c0.1-1.5,0.3-2.8,0.5-4.1H275.2z"/>
	<path class="st4" d="M294.3,550.5h3.3v18h-3.3V550.5z"/>
	<path class="st4" d="M314,568.5c-0.6-1-1.3-2-2-3.2c-0.7-1.1-1.5-2.3-2.3-3.4c-0.8-1.2-1.6-2.3-2.4-3.4c-0.8-1.1-1.6-2.1-2.3-2.9
		v12.9h-3.2v-18h2.7c0.7,0.7,1.4,1.6,2.2,2.6s1.6,2,2.4,3.1c0.8,1.1,1.6,2.2,2.3,3.2c0.8,1.1,1.4,2.1,2,3v-12h3.3v18L314,568.5
		L314,568.5z"/>
	<path class="st4" d="M329.5,553c-1.8,0-3.3,0.6-4.3,1.7c-1,1.1-1.5,2.8-1.5,4.8c0,1,0.1,1.9,0.3,2.7s0.6,1.5,1,2.1s1,1,1.7,1.3
		c0.7,0.3,1.5,0.5,2.4,0.5c0.6,0,1.1,0,1.5-0.1c0.4,0,0.7-0.1,1-0.2v-6.5h3.3v8.7c-0.5,0.2-1.2,0.4-2.3,0.6
		c-1.1,0.2-2.3,0.3-3.7,0.3c-1.3,0-2.5-0.2-3.6-0.6c-1.1-0.4-2-1-2.7-1.8s-1.3-1.8-1.8-2.9c-0.4-1.2-0.6-2.5-0.6-4s0.2-2.8,0.7-4
		c0.5-1.2,1.1-2.1,1.9-3c0.8-0.8,1.7-1.4,2.8-1.8c1.1-0.4,2.2-0.6,3.4-0.6c0.8,0,1.6,0.1,2.2,0.2c0.7,0.1,1.2,0.2,1.7,0.4
		s0.8,0.3,1.2,0.4c0.3,0.1,0.5,0.3,0.6,0.3l-1,2.7c-0.5-0.3-1.2-0.6-1.9-0.8C331.2,553.1,330.4,553,329.5,553z"/>
	<path class="st4" d="M342,565.1c0,0.3,0,0.5,0,0.6c0,0.1,0,0.3,0,0.4c0,1.1-0.2,2.2-0.5,3.3c-0.3,1.1-0.8,2.2-1.4,3.3l-2.5-0.7
		c0.4-1,0.7-2,0.8-3s0.2-1.8,0.2-2.5c0-0.2,0-0.5,0-0.8s0-0.5,0-0.7H342z"/>
	<path class="st4" d="M359.9,560c-0.4,1.5-0.8,3-1.3,4.5c-0.5,1.5-0.9,2.8-1.4,4.1h-2.6c-0.3-0.8-0.7-1.7-1.1-2.7
		c-0.4-1-0.8-2.1-1.2-3.3c-0.4-1.2-0.8-2.4-1.2-3.7c-0.4-1.3-0.8-2.6-1.1-3.9h3.3c0.2,0.7,0.3,1.5,0.5,2.4c0.2,0.8,0.4,1.7,0.7,2.6
		s0.5,1.7,0.7,2.6c0.2,0.8,0.5,1.6,0.7,2.3c0.3-0.8,0.5-1.6,0.8-2.5c0.3-0.9,0.5-1.7,0.7-2.5c0.2-0.9,0.4-1.7,0.6-2.5
		c0.2-0.8,0.4-1.6,0.5-2.3h2.4c0.2,0.7,0.3,1.5,0.5,2.3s0.4,1.6,0.6,2.5c0.2,0.8,0.5,1.7,0.7,2.5s0.5,1.7,0.8,2.5
		c0.2-0.7,0.5-1.5,0.7-2.3c0.2-0.8,0.5-1.7,0.7-2.6s0.5-1.7,0.7-2.6c0.2-0.8,0.4-1.6,0.5-2.4h3.3c-0.4,1.3-0.7,2.6-1.1,3.9
		c-0.4,1.3-0.8,2.5-1.2,3.7c-0.4,1.2-0.8,2.3-1.2,3.3c-0.4,1-0.8,1.9-1.1,2.7h-2.6c-0.5-1.3-0.9-2.7-1.4-4.1
		C360.7,563,360.3,561.5,359.9,560z"/>
	<path class="st4" d="M371.3,561.8c0-1.2,0.2-2.2,0.5-3.1c0.3-0.9,0.8-1.7,1.4-2.3c0.6-0.6,1.3-1,2-1.4c0.8-0.3,1.5-0.5,2.3-0.5
		c1.9,0,3.3,0.6,4.4,1.7c1,1.2,1.6,2.9,1.6,5.2c0,0.2,0,0.4,0,0.6c0,0.2,0,0.4,0,0.6h-9c0.1,1.1,0.5,1.9,1.2,2.5
		c0.7,0.6,1.7,0.9,3,0.9c0.8,0,1.5-0.1,2.1-0.2s1.1-0.3,1.5-0.4l0.4,2.6c-0.2,0.1-0.4,0.2-0.7,0.3c-0.3,0.1-0.7,0.2-1,0.3
		c-0.4,0.1-0.8,0.1-1.3,0.2c-0.5,0-0.9,0.1-1.4,0.1c-1.2,0-2.2-0.2-3.1-0.5c-0.9-0.4-1.6-0.9-2.2-1.5s-1-1.4-1.3-2.2
		C371.4,563.7,371.3,562.8,371.3,561.8z M380.4,560.4c0-0.4-0.1-0.8-0.2-1.2s-0.3-0.7-0.5-1c-0.2-0.3-0.5-0.5-0.9-0.7
		c-0.3-0.2-0.7-0.3-1.2-0.3c-0.5,0-0.9,0.1-1.3,0.3c-0.4,0.2-0.7,0.4-0.9,0.7c-0.3,0.3-0.5,0.6-0.6,1c-0.1,0.4-0.2,0.8-0.3,1.2
		L380.4,560.4L380.4,560.4z"/>
	<path class="st4" d="M404.4,568.1c-0.6,0.2-1.4,0.4-2.3,0.5c-0.9,0.2-1.9,0.2-3,0.2c-1.1,0-2-0.2-2.9-0.5c-0.8-0.3-1.6-0.8-2.2-1.4
		s-1.1-1.4-1.4-2.2s-0.5-1.9-0.5-3c0-1.1,0.1-2,0.4-2.9s0.7-1.6,1.2-2.3s1.2-1.1,1.9-1.4c0.8-0.3,1.6-0.5,2.6-0.5
		c0.7,0,1.2,0.1,1.7,0.2s0.9,0.3,1.3,0.5v-6.5l3.2-0.5L404.4,568.1L404.4,568.1z M395.4,561.7c0,1.4,0.3,2.5,1,3.3
		c0.7,0.8,1.6,1.2,2.7,1.2c0.5,0,0.9,0,1.3-0.1c0.4,0,0.7-0.1,0.9-0.1v-7.8c-0.3-0.2-0.7-0.4-1.1-0.5c-0.5-0.2-1-0.3-1.5-0.3
		c-1.1,0-2,0.4-2.5,1.2C395.6,559.3,395.4,560.3,395.4,561.7z"/>
	<path class="st4" d="M420.7,561.7c0,1.1-0.2,2-0.5,2.9c-0.3,0.9-0.8,1.6-1.3,2.3s-1.3,1.1-2.1,1.5c-0.8,0.4-1.7,0.5-2.7,0.5
		s-1.9-0.2-2.7-0.5c-0.8-0.3-1.5-0.8-2-1.5c-0.6-0.6-1-1.4-1.3-2.3s-0.5-1.9-0.5-2.9c0-1.1,0.2-2,0.5-2.9c0.3-0.9,0.8-1.6,1.3-2.3
		c0.6-0.6,1.3-1.1,2.1-1.4c0.8-0.3,1.7-0.5,2.6-0.5c1,0,1.8,0.2,2.6,0.5c0.8,0.3,1.5,0.8,2.1,1.4s1,1.4,1.3,2.3
		C420.5,559.7,420.7,560.6,420.7,561.7z M417.5,561.7c0-1.4-0.3-2.4-0.9-3.2s-1.4-1.2-2.4-1.2s-1.8,0.4-2.4,1.2
		c-0.6,0.8-0.9,1.9-0.9,3.2c0,1.4,0.3,2.5,0.9,3.3s1.4,1.2,2.4,1.2s1.8-0.4,2.4-1.2C417.2,564.2,417.5,563.1,417.5,561.7z"/>
	<path class="st4" d="M433.5,550.9c0,0.6-0.2,1.1-0.6,1.4c-0.4,0.4-0.8,0.5-1.3,0.5c-0.5,0-1-0.2-1.4-0.5s-0.6-0.8-0.6-1.4
		c0-0.6,0.2-1.1,0.6-1.4c0.4-0.4,0.8-0.5,1.4-0.5c0.5,0,1,0.2,1.3,0.5S433.5,550.3,433.5,550.9z M433.2,568.5H430v-13.6h3.2V568.5z"
		/>
	<path class="st4" d="M437,551.3l3.2-0.5v4.1h4.8v2.6h-4.8v5.5c0,1.1,0.2,1.9,0.5,2.3c0.3,0.5,0.9,0.7,1.8,0.7
		c0.6,0,1.1-0.1,1.5-0.2s0.8-0.2,1-0.3l0.5,2.5c-0.4,0.2-0.8,0.3-1.4,0.5c-0.6,0.2-1.3,0.3-2.1,0.3c-1,0-1.8-0.1-2.4-0.4
		c-0.7-0.3-1.2-0.6-1.5-1.1s-0.7-1.1-0.8-1.8s-0.2-1.5-0.2-2.4L437,551.3L437,551.3z"/>
</g>
<path class="st5" d="M559.1-85.7l-12.8,24.4c-0.3,0.6-0.6,1.3-0.6,1.7c0,1.1,1.1,1.8,2.7,1.8c1.3,0,2.2-0.5,2.7-1.5
	c0,0,11.5-23.1,11.9-23.8c0.4,0.8,11.9,23.8,11.9,23.8c0.5,1,1.4,1.5,2.7,1.5c1.6,0,2.7-0.7,2.7-1.8c0-0.4-0.3-1.1-0.6-1.7
	l-12.8-24.5c-0.8-1.6-2.1-2.4-3.9-2.4C561.2-88.1,559.9-87.3,559.1-85.7"/>
<path class="st5" d="M610.6-85.9c0,0,0,19.5,0,20.6c-0.7-0.7-20.3-20.9-20.3-20.9c-1.4-1.5-2.2-2-3.8-2c-1.7,0-2.6,0.8-2.6,2.4
	l0,25.7c0,1.3,1.1,2.2,2.8,2.2c1.7,0,2.8-0.9,2.8-2.2c0,0,0-19.5,0-20.6c0.7,0.7,20.3,20.9,20.3,20.9c1.4,1.5,2.2,2,3.8,2
	c1.7,0,2.6-0.8,2.6-2.4v-25.7c0-1.3-1.1-2.2-2.8-2.2C611.7-88.1,610.6-87.3,610.6-85.9"/>
<path class="st5" d="M645.4-86.9c0,0-14.5,9.5-17.1,11.2c0-1,0-10.2,0-10.2c0-1.3-1.1-2.2-2.8-2.2c-1.7,0-2.8,0.9-2.8,2.2V-60
	c0,1.3,1.1,2.2,2.8,2.2c1.7,0,2.8-0.9,2.8-2.2c0,0,0-10.7,0-11.7c0.9,0.6,18.7,13.1,18.7,13.1c1.1,0.8,1.9,0.8,2.6,0.8
	c1.5,0,2.8-0.8,2.8-1.9c0-0.7-0.3-1.2-1.2-1.7c0,0-15.6-10.7-18-12.4c0.7-0.4,16.4-10.6,16.4-10.6c0.5-0.4,1.2-0.7,1.2-1.9
	c0-1.1-1-1.8-2.5-1.8C647.2-88.1,646.3-87.5,645.4-86.9"/>
<path class="st6" d="M339.8-85.7L327-61.3c-0.3,0.6-0.6,1.3-0.6,1.7c0,1.1,1.1,1.8,2.7,1.8c1.3,0,2.2-0.5,2.7-1.5
	c0,0,11.5-23.1,11.9-23.8c0.4,0.8,11.9,23.8,11.9,23.8c0.5,1,1.4,1.5,2.7,1.5c1.6,0,2.7-0.7,2.7-1.8c0-0.4-0.3-1.1-0.6-1.7
	l-12.8-24.5c-0.8-1.6-2.1-2.4-3.9-2.4C341.9-88.1,340.6-87.3,339.8-85.7"/>
<path class="st6" d="M492.5-85.7l-12.8,24.4c-0.3,0.6-0.6,1.3-0.6,1.7c0,1.1,1.1,1.8,2.7,1.8h0c1.3,0,2.2-0.5,2.7-1.5
	c0,0,11.5-23.1,11.9-23.8c0.4,0.8,11.9,23.8,11.9,23.8c0.5,1,1.4,1.5,2.7,1.5c1.6,0,2.7-0.7,2.7-1.8c0-0.4-0.3-1.1-0.6-1.7
	l-12.8-24.5c-0.8-1.6-2.1-2.4-3.9-2.4C494.6-88.1,493.3-87.3,492.5-85.7"/>
<path class="st6" d="M394.9-86.1c0,0-7.3,17.8-8.5,20.9c-0.4-1-8.5-20.9-8.5-20.9c-0.6-1.5-1.8-2.1-3.9-2.1c-2.3,0-3.8,1-4.2,3
	c0,0-5.6,23.5-5.6,23.5c-0.2,0.8-0.3,1.3-0.3,1.7c0,1.3,1,2.1,2.6,2.1c1.1,0,2.7-0.2,3-1.8l0,0c0,0,4.4-21.4,4.6-22.8
	c0.5,1.3,9.5,22.9,9.5,22.9c0.6,1.5,1.9,1.7,2.9,1.7c1,0,2.2-0.2,2.9-1.7c0,0,8-19.2,9.5-22.9c0.3,1.4,4.6,22.8,4.6,22.8
	c0.3,1.6,1.8,1.8,3,1.8c1.7,0,2.6-0.8,2.6-2.1c0-0.4-0.1-1-0.3-1.7l-5.6-23.5c-0.5-1.9-2-3-4.2-3C396.7-88.1,395.5-87.5,394.9-86.1"
	/>
<path class="st6" d="M416.7-87.9c-1.9,0-3,0.8-3,2.3v25.3c0,1.4,1.1,2.3,3,2.3h14.6c1.7,0,2.8-0.7,2.8-2c0-1.2-1-2-2.8-2
	c0,0-11.4,0-11.9,0c0-0.5,0-8.5,0-9c0.5,0,10.8,0,10.8,0c1.7,0,2.8-0.7,2.8-2c0-1.2-1-2-2.8-2c0,0-10.3,0-10.8,0c0-0.5,0-8.5,0-9
	c0.5,0,11.9,0,11.9,0c1.7,0,2.8-0.7,2.8-2c0-1.2-1-2-2.8-2H416.7z"/>
<path class="st6" d="M469.7-85.9V-60c0,1.3,1.1,2.2,2.8,2.2c1.7,0,2.8-0.9,2.8-2.2v-25.9c0-1.3-1.1-2.2-2.8-2.2
	C470.8-88.1,469.7-87.3,469.7-85.9"/>
<path class="st6" d="M464.3-61.3c0,0-11.3-8.8-12.4-9.7c0.6,0,1.4,0,1.4,0c7.4-0.2,11.4-3.2,11.4-8.6c0-5.1-6.5-8.2-12.8-8.2h-9.4
	c-1.9,0-3,0.8-3,2.3V-60c0,1.3,1.1,2.2,2.8,2.2c1.7,0,2.8-0.9,2.8-2.2c0,0,0-9.5,0-10.6c0.9,0.7,15.2,11.9,15.2,11.9
	c0.5,0.4,1.3,0.9,2.5,0.9c1.5,0,2.6-0.7,2.6-1.7C465.4-60.2,465.1-60.7,464.3-61.3 M445.2-74.4v-9.8c0.5,0,6.5,0,6.5,0
	c4.3,0,7.4,2,7.4,4.7c0,3.6-2.2,5.1-7.3,5.1C451.8-74.4,445.7-74.4,445.2-74.4z"/>
<path class="st5" d="M535.6-74.2c3-1,4.8-3.4,4.8-6.4c0-3.5-4-7.3-11.3-7.3h-8.9c-1.9,0-3,0.8-3,2.3l0,25.3c0,1.4,1.1,2.3,3,2.3h9.7
	c9.4,0,13.7-4.6,13.7-8.8C543.6-70.5,540.3-73.5,535.6-74.2 M522.9-84.2c0.5,0,5.6,0,5.6,0c4,0,6.3,1.5,6.3,4.2
	c0,2.7-2.6,4.4-6.5,4.4c0,0-5,0-5.5,0L522.9-84.2z M529.7-61.7c0,0-6.3,0-6.9,0l0-10.2c0.5,0,7.1,0,7.1,0c4.8,0,8.1,2,8.1,5.1
	C538-63.8,534.6-61.7,529.7-61.7z"/>
<path class="st7" d="M311-50.4c0,1.8-1.5,3.2-3.2,3.2h-45c-1.8,0-3.2-1.5-3.2-3.2v-45c0-1.8,1.5-3.2,3.2-3.2h45
	c1.8,0,3.2,1.5,3.2,3.2V-50.4z"/>
<path class="st6" d="M301.9-61.3l-12.8-24.5c-0.8-1.6-2.1-2.4-3.9-2.4c-1.8,0-3.1,0.8-3.9,2.4l-12.8,24.4c-0.3,0.6-0.6,1.3-0.6,1.7
	c0,1.1,1.1,1.8,2.7,1.8c1.3,0,2.2-0.5,2.7-1.5c0,0,11.5-23.1,11.9-23.8c0.4,0.8,11.9,23.8,11.9,23.8c0.5,1,1.4,1.5,2.7,1.5
	c1.6,0,2.7-0.7,2.7-1.8C302.5-60,302.3-60.6,301.9-61.3"/>
<g>
	<path class="st8" d="M570.9-176.9c-7.2,0-14.4,0-21.6,0c-0.2,0-0.3,0-0.5,0c-0.4-0.1-0.6-0.2-0.6-0.7c0-0.1,0-0.3,0.1-0.4
		c0.3-1.3,0.6-2.7,1-4c0.2-0.9,0.5-1.9,0.7-2.8c0.7-2.8,1.3-5.7,2-8.5c0.7-2.8,1.4-5.5,2-8.3c0.5-2,0.9-4.1,1.4-6.1
		c0.7-2.7,1.3-5.5,2-8.2c0.5-1.9,0.9-3.9,1.4-5.8c0.2-0.8,0.4-1.6,0.6-2.3c0.1-0.5,0.3-0.6,0.8-0.7c0.3,0,0.6,0,0.9,0
		c14,0,28.1,0,42.1,0c1.2,0,1.3,0.2,1,1.3c-0.3,1.2-0.6,2.4-0.8,3.5c-0.5,2-0.9,4.1-1.4,6.1c-0.3,1.4-0.4,1.3-1.8,1.3
		c-4.9,0-9.8,0-14.7,0c-3.4,0-6.8,0-10.3,0c-0.3,0-0.5,0-0.8,0c-0.7,0-1,0.2-1.2,1c-0.2,0.9-0.4,1.8-0.7,2.7
		c-0.1,0.5-0.2,0.9-0.3,1.4c-0.2,0.7,0,0.9,0.7,0.9c0.1,0,0.2,0,0.3,0c7.8,0,15.7,0,23.5,0c0.1,0,0.1,0,0.2,0c1.1,0,1.2,0.1,0.9,1.2
		c-0.3,1-0.5,2-0.7,3c-0.5,2-0.9,4-1.4,6.1c-0.2,0.9-0.5,1.1-1.4,1.1c-8,0-16,0-24,0c-0.2,0-0.4,0-0.5,0c-0.4,0.1-0.6,0.2-0.7,0.6
		c-0.4,1.5-0.7,2.9-1.1,4.4c-0.2,0.6,0,0.9,0.7,0.9c0.4,0,0.7,0,1.1,0c8.6,0,17.1,0,25.7,0c0.2,0,0.3,0,0.5,0c0.3,0,0.5,0.2,0.5,0.6
		c0,0.2,0,0.4-0.1,0.5c-0.7,2.8-1.4,5.6-2,8.4c-0.1,0.6-0.2,1.2-0.4,1.8c-0.2,0.9-0.4,1-1.3,1C585.3-176.9,578.1-176.9,570.9-176.9
		C570.9-176.9,570.9-176.9,570.9-176.9z"/>
	<path class="st8" d="M456.1-224.7c2.3,0,4.6,0,6.9,0c0.2,0,0.4,0,0.6,0c0.6,0,0.8,0.3,0.6,0.9c-0.7,3.1-1.5,6.3-2.2,9.4
		c-0.7,2.7-1.3,5.5-2,8.2c-0.5,2.1-1,4.1-1.4,6.2c-0.3,1.5-0.8,3-1,4.6c-0.2,1.1-0.2,2.2-0.1,3.3c0.2,2,1.3,3.2,3.1,3.9
		c1.4,0.5,2.9,0.5,4.4,0.3c2.4-0.3,4.4-1.4,5.9-3.3c0.9-1.1,1.5-2.4,2-3.8c0.8-2.3,1.3-4.6,1.8-6.9c0.5-2,1-3.9,1.4-5.9
		c0.5-2,0.9-3.9,1.4-5.9c0.5-2,1-3.9,1.4-5.9c0.3-1.3,0.6-2.5,0.9-3.8c0.1-0.3,0.1-0.5,0.2-0.8c0.2-0.6,0.4-0.8,1-0.8
		c0.4,0,0.8,0,1.2,0c4.5,0,8.9,0,13.4,0c0.1,0,0.3,0,0.4,0c0.9,0,1,0.2,0.8,1c-0.5,2.3-1.1,4.5-1.6,6.8c-0.7,2.8-1.4,5.6-2,8.4
		c-0.3,1.1-0.5,2.3-0.8,3.4c-0.2,1.1-0.5,2.1-0.7,3.2c-0.5,2.3-1.1,4.6-1.6,7c-0.5,1.9-0.9,3.8-1.6,5.6c-1.5,3.6-3.9,6.7-7.2,8.9
		c-2,1.3-4.1,2.4-6.3,3.1c-2,0.6-4,1.1-6.1,1.3c-2,0.2-4.1,0.4-6.1,0.4c-2.4,0-4.8-0.2-7.2-0.6c-3.1-0.5-6.1-1.3-8.8-2.9
		c-2.3-1.3-4.2-3.1-5.5-5.5c-1.3-2.5-1.7-5.2-1.1-8.1c0.7-3.1,1.4-6.2,2.1-9.2c0.8-3.3,1.5-6.5,2.3-9.7c0.7-2.8,1.4-5.6,2-8.5
		c0.3-1.1,0.5-2.3,0.8-3.4c0.2-1,0.5-1.1,1.4-1.1C451.3-224.7,453.7-224.7,456.1-224.7C456.1-224.7,456.1-224.7,456.1-224.7z"/>
	<path class="st8" d="M394.5-192.9c2.3,0,4.6,0,6.8,0c0.2,0,0.3,0,0.5,0c0.6,0,0.8,0.2,0.8,0.9c0,0.9,0.2,1.7,0.6,2.6
		c0.7,1.5,1.8,2.5,3.5,2.8c2.2,0.4,4.4,0.5,6.6,0.1c1.2-0.2,2.2-0.7,3.2-1.4c0.7-0.5,1.2-1.2,1.5-2c0.4-1.1,0.2-2.1-0.6-2.9
		c-0.5-0.4-1-0.8-1.6-1.1c-1.7-0.8-3.5-1.3-5.3-1.7c-1.7-0.4-3.3-0.8-4.9-1.3c-1.5-0.5-3.1-0.9-4.6-1.5c-2.3-1-4.5-2.2-6.2-4.1
		c-1.7-1.9-2.5-4.2-2.7-6.7c-0.2-4.8,1.7-8.5,5.5-11.4c2.7-2,5.8-3.3,9.1-4.1c3.7-0.9,7.4-1.2,11.2-0.9c3,0.2,6,0.6,8.9,1.7
		c2.8,1.1,5.4,2.5,7.2,4.9c1.8,2.4,2.6,5.1,2.6,8.1c0,0.7-0.2,0.8-0.9,0.9c-1.8,0-3.6,0-5.4,0c-2.7,0-5.4,0-8.1,0
		c-0.9,0-1-0.1-1.1-1c-0.2-1.5-1-2.5-2.3-3.2c-1.1-0.6-2.3-0.8-3.5-0.8c-1.1,0-2.1,0-3.2,0.2c-0.8,0.1-1.5,0.4-2.3,0.7
		c-0.6,0.2-1.1,0.7-1.5,1.3c-0.8,1.3-0.5,2.6,0.7,3.6c0.8,0.6,1.8,1,2.7,1.2c1.7,0.4,3.4,0.8,5.1,1.2c1.9,0.5,3.9,0.9,5.8,1.6
		c2.2,0.8,4.3,1.7,6.2,3c2.2,1.5,3.8,3.5,4.6,6.1c0.3,1.1,0.5,2.2,0.5,3.4c0.1,4.6-1.8,8.3-5.2,11.2c-2.3,2-5,3.3-7.8,4.2
		c-2.2,0.7-4.5,1.2-6.9,1.5c-2.2,0.3-4.4,0.3-6.6,0.2c-2.5-0.1-5.1-0.4-7.5-1.1c-2.3-0.7-4.6-1.5-6.6-2.8c-3.1-1.9-5.3-4.5-6.3-8.1
		c-0.4-1.4-0.6-2.8-0.6-4.3c0-0.7,0.2-0.9,1-0.9c1.6,0,3.3,0,4.9,0C393-192.9,393.8-192.9,394.5-192.9
		C394.5-192.9,394.5-192.9,394.5-192.9z"/>
	<path class="st8" d="M456.2-150.6c-0.1,0.3-0.2,0.6-0.2,0.9c-0.5,2.5-1,5.1-1.6,7.6c-0.3,1.4-0.5,2.7-0.8,4.1
		c-0.4,1.7-0.7,3.4-1.1,5.1c-0.1,0.3-0.1,0.6-0.1,0.8c-0.1,0.7-0.4,0.9-1.1,0.9c-0.2,0-0.5,0-0.7,0c-2.6,0-5.2,0-7.8,0
		c-0.1,0-0.3,0-0.4,0c-0.6,0-0.7-0.2-0.6-0.8c0.2-1,0.4-2,0.6-3c0.5-2.7,1.1-5.3,1.6-8c0.5-2.2,1-4.4,1.4-6.6
		c0.5-2.2,0.9-4.5,1.4-6.7c0.5-2.3,1-4.6,1.4-6.8c0.2-1,0.4-2,0.6-3c0.2-0.9,0.4-0.9,1.2-0.9c2.9,0,5.8,0,8.6,0
		c1.2,0,1.3,0.1,1.7,1.3c0.5,1.5,1,2.9,1.5,4.3c0.4,1.3,0.9,2.5,1.3,3.8c0.5,1.5,1,2.9,1.5,4.4c0.5,1.4,0.9,2.8,1.4,4.2
		c0.1,0.3,0.1,0.8,0.6,0.8c0.5,0,0.4-0.5,0.5-0.8c0.5-2.6,1-5.2,1.6-7.8c0.2-1.1,0.5-2.3,0.7-3.4c0.4-2,0.8-4,1.2-6
		c0.1-0.6,0.3-0.7,0.9-0.8c0.4,0,0.7,0,1.1,0c2.5,0,4.9,0,7.4,0c0.1,0,0.2,0,0.2,0c0.9,0,1.1,0.2,0.9,1.1c-0.5,2.4-1,4.7-1.5,7.1
		c-0.7,3.1-1.4,6.2-2,9.3c-0.5,2.2-0.9,4.3-1.3,6.5c-0.5,2.2-0.9,4.4-1.4,6.6c-0.3,1.3-0.5,2.6-0.8,4c0,0.2-0.1,0.4-0.1,0.5
		c-0.2,0.5-0.4,0.7-0.9,0.8c-0.2,0-0.4,0-0.6,0c-2.7,0-5.5,0-8.2,0c-0.2,0-0.5,0-0.7,0c-0.4,0-0.6-0.3-0.8-0.6
		c-0.8-2.4-1.6-4.8-2.4-7.2c-0.7-2-1.4-4.1-2-6.1c-0.5-1.5-0.9-2.9-1.4-4.4C456.8-149.9,456.8-150.3,456.2-150.6z"/>
	<path class="st8" d="M418-150.5c-0.1,0.3-0.2,0.5-0.3,0.8c-0.5,2.6-1.1,5.3-1.6,7.9c-0.5,2.3-0.9,4.6-1.4,6.9
		c-0.2,1-0.4,1.9-0.6,2.9c-0.2,0.7-0.4,0.9-1.1,0.9c-2.9,0-5.9,0-8.8,0c-0.7,0-0.9-0.2-0.7-0.9c0.1-0.7,0.3-1.5,0.5-2.2
		c0.5-2.2,0.9-4.4,1.4-6.6c0.3-1.5,0.6-3,0.9-4.5c0.5-2.3,1-4.5,1.4-6.8c0.2-0.9,0.4-1.8,0.6-2.7c0.3-1.4,0.5-2.7,0.8-4.1
		c0.5-2.4,1-4.8,1.5-7.1c0.2-0.8,0.3-0.9,1.1-0.9c2.7,0,5.3,0,8,0c0.3,0,0.7,0,1,0c0.7,0,1,0.2,1.3,0.9c0.4,1.2,0.8,2.4,1.2,3.6
		c0.5,1.5,1,2.9,1.5,4.4c0.7,1.9,1.3,3.9,2,5.8c0.4,1.2,0.8,2.4,1.2,3.6c0,0.1,0.1,0.3,0.2,0.3c0.1,0.1,0.3,0.2,0.4,0.2
		c0.1,0,0.2-0.2,0.3-0.3c0.1-0.1,0.1-0.2,0.1-0.4c0.2-0.9,0.3-1.8,0.5-2.7c0.5-2.3,0.9-4.7,1.4-7c0.5-2.3,1-4.5,1.4-6.8
		c0.1-0.3,0.1-0.7,0.2-1c0.1-0.5,0.3-0.6,0.8-0.7c0.2,0,0.3,0,0.5,0c2.7,0,5.4,0,8.2,0c0.1,0,0.3,0,0.4,0c0.7,0.1,0.8,0.3,0.7,0.9
		c-0.8,3.7-1.6,7.4-2.4,11.1c-0.5,2.2-0.9,4.5-1.4,6.7c-0.5,2.2-1,4.4-1.4,6.6c-0.3,1.2-0.5,2.5-0.8,3.7c-0.3,1.4-0.6,2.8-0.9,4.2
		c-0.1,0.6-0.2,1.2-0.4,1.8c-0.1,0.7-0.3,0.9-1.1,0.9c-1.4,0-2.8,0-4.2,0c-1.6,0-3.1,0-4.7,0c-1.1,0-1.2-0.1-1.5-1.1
		c-0.7-2.1-1.4-4.1-2.1-6.2c-0.5-1.5-0.9-2.9-1.4-4.4c-0.6-1.8-1.2-3.7-1.8-5.5c-0.2-0.5-0.3-1-0.5-1.5
		C418.6-150.1,418.5-150.4,418-150.5z"/>
	<path class="st8" d="M628.9-131.1c-4.6,0-9.2,0-13.8,0c-0.1,0-0.3,0-0.4,0c-0.6,0-0.7-0.2-0.7-0.8c0-0.1,0-0.2,0-0.3
		c0.4-2,0.9-4.1,1.3-6.1c0.3-1.5,0.6-3,0.9-4.6c0.3-1.4,0.6-2.7,0.9-4.1c0.3-1.4,0.6-2.9,0.9-4.3c0.5-2.2,0.9-4.4,1.4-6.6
		c0.3-1.4,0.6-2.7,0.8-4.1c0.3-1.4,0.6-2.7,0.9-4.1c0.2-0.8,0.3-0.9,1.2-0.9c3.2,0,6.4,0,9.6,0c5.9,0,11.9,0,17.8,0
		c1.2,0,1.3,0.2,1,1.3c-0.3,1.4-0.6,2.9-0.9,4.3c-0.2,0.9-0.4,1.8-0.5,2.7c-0.1,0.5-0.3,0.7-0.8,0.8c-0.3,0-0.5,0-0.8,0
		c-5.4,0-10.8,0-16.2,0c-0.8,0-0.9,0.1-1.1,0.8c-0.2,1-0.4,1.9-0.6,2.9c-0.1,0.5,0,0.7,0.5,0.7c0.2,0,0.4,0,0.6,0
		c4.9,0,9.8,0,14.7,0c0.1,0,0.3,0,0.4,0c0.6,0.1,0.8,0.3,0.7,0.9c-0.4,1.8-0.7,3.5-1.1,5.3c-0.1,0.5-0.2,1.1-0.3,1.6
		c-0.1,0.6-0.3,0.7-0.9,0.8c-0.3,0-0.7,0-1,0c-4.8,0-9.5,0-14.3,0c-1.3,0-1.3,0-1.5,1.2c-0.2,0.8-0.4,1.5-0.5,2.3
		c-0.1,0.8,0,0.9,0.8,0.9c1.5,0,3,0,4.4,0c4.1,0,8.2,0,12.3,0c1.1,0,1.4,0.2,1,1.3c-0.3,1-0.5,2-0.7,3c-0.3,1.2-0.5,2.5-0.7,3.7
		c0,0.2-0.1,0.4-0.1,0.5c-0.1,0.4-0.3,0.6-0.7,0.6c-0.2,0-0.4,0-0.5,0C638.2-131.1,633.5-131.1,628.9-131.1
		C628.9-131.1,628.9-131.1,628.9-131.1z"/>
	<path class="st8" d="M354.3-163.5c0,2.9-0.4,5.3-1,7.8c-0.6,2.2-1.4,4.3-2.4,6.4c-1.6,3.1-3.8,5.8-6.5,8.1c-2.1,1.8-4.5,3.1-7,4.3
		c-0.5,0.3-0.8,0.2-1.2-0.5c-0.4-0.7-0.8-1.4-1.3-2.1c-0.2-0.3-0.4-0.6-0.6-0.9c-0.3-0.5-0.2-0.7,0.3-1c0.5-0.3,1-0.5,1.4-0.8
		c1.5-0.8,2.5-2,3.3-3.5c0.9-1.8,1.5-3.7,1.9-5.6c0.3-1.6,0.5-3.3,0.7-4.9c0.1-1,0.1-2.1-0.2-3.1c-0.3-1.2-1-2.1-1.9-3
		c-1.3-1.2-2.8-2.2-4.5-2.9c-2.2-1-4.4-1.7-6.7-2.4c-1.3-0.4-2.4-1.1-3.4-1.9c-3-2.3-5.5-5.1-7.3-8.5c-1.6-3-2.7-6.3-2.6-9.8
		c0-1.3,0-2.6,0-3.9c0-0.1,0-0.3,0-0.4c0.1-0.5,0.4-0.7,0.8-0.4c0.7,0.5,1.4,1,2.1,1.5c1.3,0.9,2.8,1.6,4.3,2.2
		c2.5,1,5.2,1.7,7.8,2.4c1.5,0.4,2.9,0.9,4.4,1.4c1.2,0.4,2.4,0.9,3.7,1.3c2.1,0.8,4.1,1.8,6,2.9c2.1,1.2,4,2.8,5.6,4.6
		c1.4,1.7,2.5,3.5,3.3,5.6C354.1-168.1,354.4-165.7,354.3-163.5z M345.9-152.8c0.1,0,0.2,0.1,0.2,0.1c0.2-0.2,0.5-0.5,0.7-0.8
		c2.1-3.2,3.2-6.7,3-10.6c-0.1-2.1-0.5-4.2-1.4-6.1c-1-2.1-2.6-3.7-4.4-5.1c-2.1-1.6-4.3-2.8-6.8-3.8c-2.8-1.1-5.6-2-8.4-2.9
		c-2.2-0.7-4.5-1.3-6.8-1.9c-0.1,0-0.2-0.1-0.4-0.1c-0.4-0.1-0.6,0.1-0.6,0.6c0,0.2,0,0.3,0.1,0.5c0.5,1.5,1.1,2.9,1.9,4.3
		c1.2,2,2.8,3.6,4.5,5.1c0.8,0.8,1.8,1.2,2.9,1.6c2.6,0.8,5,1.7,7.4,2.9c2.3,1.1,4.3,2.5,5.9,4.4c1.2,1.4,2,3,2.3,4.8
		c0.3,2.1,0.3,4.2-0.2,6.3C345.9-153.2,345.9-153,345.9-152.8z"/>
	<path class="st8" d="M601.7-167c4.7,0,9.5,0,14.2,0c1.1,0,1.4,0.1,1.1,1.4c-0.5,2.2-0.9,4.4-1.4,6.6c-0.2,1-0.4,1.2-1.4,1.2
		c-2.6,0-5.3,0-7.9,0c-0.7,0-0.8,0.1-1,0.7c-0.1,0.3-0.2,0.7-0.3,1.1c-0.6,2.8-1.2,5.5-1.7,8.3c-0.5,2.3-0.9,4.6-1.4,6.9
		c-0.6,2.8-1.2,5.7-1.8,8.5c0,0.1,0,0.2-0.1,0.3c-0.2,0.8-0.4,0.9-1.3,0.9c-2.8,0-5.6,0-8.5,0c-0.3,0-0.5,0-0.8,0
		c-0.5,0-0.6-0.2-0.6-0.7c0-0.1,0-0.2,0-0.3c0.5-2.2,1-4.4,1.4-6.6c0.2-1.1,0.4-2.1,0.7-3.2c0.4-1.8,0.8-3.6,1.1-5.4
		c0.5-2.2,0.9-4.4,1.3-6.6c0.2-0.8,0.4-1.7,0.5-2.5c0-0.2,0.1-0.5,0.1-0.7c0-0.4-0.1-0.6-0.6-0.7c-0.2,0-0.4,0-0.5,0
		c-2.5,0-4.9,0-7.4,0c-1.2,0-1.3-0.2-1-1.3c0.3-1.3,0.5-2.5,0.8-3.8c0.2-1.1,0.4-2.2,0.7-3.3c0.1-0.6,0.3-0.7,0.9-0.8
		c0.4,0,0.8,0,1.2,0C592.8-167,597.3-167,601.7-167C601.7-167,601.7-167,601.7-167z"/>
	<path class="st8" d="M540.5-167c4.8,0,9.6,0,14.4,0c0.1,0,0.2,0,0.3,0c0.6,0,0.8,0.2,0.7,0.8c0,0.4-0.1,0.8-0.2,1.1
		c-0.4,1.9-0.8,3.8-1.2,5.7c-0.1,0.3-0.1,0.5-0.2,0.8c-0.2,0.6-0.4,0.7-1,0.8c-0.3,0-0.6,0-0.9,0c-2.4,0-4.8,0-7.2,0
		c-0.8,0-1.1,0.2-1.3,1c-0.2,0.9-0.3,1.7-0.5,2.6c-0.3,1.3-0.5,2.7-0.8,4c-0.5,2.3-1,4.5-1.4,6.8c-0.2,1-0.4,2.1-0.6,3.1
		c-0.5,2.3-0.9,4.6-1.4,6.9c-0.1,0.5-0.2,1-0.4,1.5c-0.2,0.7-0.3,0.8-1,0.8c-0.4,0-0.8,0-1.2,0c-2.6,0-5.2,0-7.8,0
		c-0.9,0-1.1-0.2-0.9-1.1c0.3-1.6,0.7-3.2,1-4.9c0.4-2.1,0.9-4.3,1.3-6.4c0.5-2.3,1-4.7,1.5-7c0.2-1,0.4-2,0.6-3
		c0.2-1.1,0.5-2.2,0.7-3.3c0.2-0.8,0-1-0.9-1c-2.6,0-5.2,0-7.8,0c-0.9,0-1-0.2-0.9-1c0.5-2.5,1-4.9,1.6-7.4c0.1-0.7,0.3-0.8,1-0.8
		c0.5,0,1,0,1.6,0C531.8-167,536.2-167,540.5-167C540.5-167,540.5-167,540.5-167z"/>
	<path class="st8" d="M347.1-227c7.6,0,15.3,0,22.9,0c0.3,0,0.5,0,0.8,0c0.4,0.1,0.6,0.3,0.3,0.7c-0.7,1.2-1.5,2.4-2.2,3.6
		c-1.8,3-3.7,6-5.5,9c-2.6,4.2-5.2,8.4-7.7,12.6c-2.2,3.5-4.4,7.1-6.5,10.7c-0.1,0.1-0.1,0.2-0.2,0.3c-0.4,0.6-0.6,0.6-1.2,0.3
		c-0.7-0.4-1.5-0.8-2.2-1.3c-0.7-0.4-0.7-0.6-0.3-1.3c0.9-1.9,1.9-3.7,2.7-5.7c1.2-3,2-6.1,2.2-9.3c0.1-2.4-0.2-4.7-1.3-6.8
		c-0.6-1.2-1.5-2.2-2.5-3.1c-1.9-1.7-4.1-2.7-6.5-3.4c-4.5-1.3-9-1.5-13.6-1.3c-0.2,0-0.4,0-0.5,0c-0.5,0-0.8-0.2-1-0.6
		c-0.5-1.2-1.1-2.3-1.6-3.4c-0.3-0.6-0.1-0.9,0.6-0.9c0.2,0,0.5,0,0.7,0C331.9-227,339.5-227,347.1-227z M348.4-222
		c0.2,0.2,0.3,0.4,0.4,0.5c0.8,0.8,1.8,1.6,2.5,2.5c1.3,1.5,2.3,3.3,2.7,5.2c0.1,0.3,0.2,0.6,0.3,0.9c0.1,0.2,0.1,0.3,0.1,0.5
		c0.1,0.9,0.2,1.9,0.3,2.8c0,0.1,0.1,0.2,0.2,0.3c0.2-0.3,0.4-0.5,0.5-0.7c0.5-0.8,1-1.7,1.5-2.5c0.8-1.3,1.6-2.6,2.4-3.9
		c1-1.5,1.9-3.1,2.9-4.6c0.2-0.3,0.3-0.6,0.5-1.1C358-222,353.3-222,348.4-222z"/>
	<path class="st8" d="M291.2-129.9c-7.7,0-15.5,0-23.2,0c-0.2,0-0.4,0-0.5,0c-0.5,0-0.6-0.3-0.4-0.7c0.6-1,1.2-2,1.9-3
		c1.5-2.4,2.9-4.8,4.4-7.2c1.4-2.2,2.7-4.5,4.1-6.7c1.7-2.7,3.3-5.5,5-8.2c2.1-3.4,4.2-6.9,6.3-10.3c0.3-0.5,0.6-0.6,1.2-0.4
		c0.8,0.3,1.5,0.5,2.3,0.8c0.7,0.3,0.7,0.5,0.4,1.1c-1.1,1.8-2,3.8-2.8,5.8c-0.5,1.3-0.9,2.5-1.3,3.8c-0.7,2.5-1.1,5-0.8,7.5
		c0.4,4.1,2.4,7.2,6,9.4c2,1.2,4.2,1.9,6.5,2.4c4.2,0.8,8.5,1,12.8,0.7c0.7-0.1,1,0.1,1.3,0.7c0.4,1.2,0.9,2.3,1.3,3.5
		c0.2,0.5,0,0.7-0.5,0.7c-0.2,0-0.3,0-0.5,0C306.7-129.9,299-129.9,291.2-129.9z M289-134.7c-0.2-0.2-0.4-0.3-0.5-0.4
		c-0.4-0.3-0.8-0.4-1.1-0.8c-1.2-1.4-2.4-2.8-3.1-4.5c-0.5-1.1-0.9-2.3-1.3-3.5c-0.1-0.1,0-0.3,0-0.5c0-0.9-0.1-1.7-0.2-2.6
		c0-0.1-0.2-0.3-0.3-0.4c-0.1,0.1-0.3,0.1-0.4,0.3c-0.3,0.5-0.6,1-0.9,1.5c-0.4,0.6-0.6,1.3-1,1.9c-1.3,1.6-2.1,3.6-3.3,5.3
		c-0.7,0.9-1.1,1.9-1.7,2.8c-0.2,0.3-0.4,0.6-0.3,1c0.7,0,1.3,0.1,1.9,0c1-0.2,2,0,3,0c1.4,0,2.8,0.2,4.2-0.2c0.7-0.2,1.4-0.1,2.2,0
		c0.6,0,1.2,0.1,1.8,0.2C288.2-134.4,288.5-134.4,289-134.7z"/>
	<path class="st8" d="M310.2-173.6c-0.3-0.1-0.5-0.1-0.7-0.2c-1.5-0.6-3.1-1.2-4.6-1.9c-3.2-1.5-6.2-3.2-9.1-5.2
		c-3.2-2.3-6.1-5-8.5-8.2c-1.6-2.2-2.9-4.6-3.6-7.3c-0.6-2.4-0.8-4.8-0.4-7.3c0.7-3.9,2.5-7.2,5-10.2c2.1-2.5,4.6-4.6,7.4-6.4
		c2.6-1.7,5.3-3,8.1-4.1c0.7-0.3,1-0.2,1.3,0.5c0.6,1.2,1.1,2.5,1.7,3.8c0.3,0.7,0.2,0.9-0.5,1.2c-3.2,1.1-5.9,3-8.2,5.4
		c-1.2,1.2-2.1,2.6-2.6,4.2c-0.6,2-0.2,3.8,1,5.5c1.1,1.7,2.6,3,4.3,4.1c0.3,0.2,0.6,0.4,0.9,0.6c0.5,0.3,0.6,0.8,0.5,1.3
		c-0.5,2-0.7,4.1-0.8,6.2c-0.1,2.4,0.3,4.8,1.5,6.9c1,1.8,2,3.6,3,5.4c1,1.7,2.4,3.1,3.8,4.6C309.9-174.4,310.3-174.2,310.2-173.6z
		 M298.2-184.5c0-0.3,0-0.5-0.1-0.6c-0.2-0.9-0.5-1.8-0.6-2.8c-0.1-1-0.3-2.1-0.5-3.1c0-0.2,0-0.3,0-0.5c0.2-1.1,0.4-2.3,0.6-3.4
		c0-0.3,0.1-0.5,0.2-0.7c0.1-0.3,0.1-0.6-0.1-0.8c-0.2-0.2-0.3-0.4-0.6-0.5c-1.2-0.9-2.3-2-3.4-3.1c-1.3-1.4-2.5-2.9-3.1-4.7
		c-0.3-1-0.6-2-0.3-3c0.1-0.2,0-0.5,0.1-0.8c-0.1,0-0.1,0-0.2-0.1c-0.2,0.2-0.3,0.4-0.4,0.7c-0.3,0.6-0.5,1.2-0.8,1.8
		c-0.5,1.1-0.8,2.2-1,3.4c-0.4,2.4-0.4,4.9,0.3,7.3c0.6,2,1.7,3.8,3,5.4c0.7,0.9,1.6,1.6,2.4,2.4c0.8,0.7,1.6,1.5,2.5,2.2
		C296.9-185.2,297.5-184.9,298.2-184.5z"/>
	<path class="st8" d="M657.4-208.5c0-2.6,0-5.2,0-7.8c0-0.7-0.1-1.3-0.4-1.9c-1.2-2.2-3-3.8-5.3-4.7c-2.5-1.1-5.2-1.5-7.9-1.7
		c-1.3-0.1-2.6-0.1-4-0.1c-3.5,0-7.1,0-10.6,0c0,0,0,0,0,0c-5,0-9.9,0-14.9,0c-0.2,0-0.4,0-0.6,0c-0.4,0-0.6,0.2-0.7,0.6
		c-0.2,0.8-0.4,1.6-0.6,2.3c-0.3,1.1-0.5,2.2-0.8,3.3c-0.5,2-1,4-1.4,6c-0.5,2.1-1,4.3-1.5,6.4c-0.4,1.8-0.9,3.7-1.3,5.5
		c-0.5,2-0.9,4-1.4,6.1c-0.7,2.8-1.3,5.5-2,8.3c-0.6,2.4-1.1,4.8-1.7,7.2c-0.1,0.5-0.2,1-0.3,1.4c-0.1,0.5,0.1,0.7,0.6,0.8
		c0.2,0,0.3,0,0.5,0c4.7,0,9.4,0,14.1,0c0.9,0,1.1-0.2,1.3-1c0.3-1,0.5-2,0.7-3c0.3-1.2,0.5-2.3,0.8-3.5c0.7-2.8,1.3-5.5,2-8.3
		c0.2-0.8,0.3-0.9,1.1-0.9c2.3,0,4.6,0,6.9,0c1.2,0,2.4,0.2,3.5,0.7c1.9,0.8,2.9,2.3,2.7,4.4c-0.1,1.2-0.2,2.3-0.4,3.5
		c-0.3,1.7-0.5,3.5-0.3,5.3c0.1,0.7,0.2,1.4,0.4,2.1c0.2,0.6,0.4,0.7,1,0.8c0.2,0,0.4,0,0.5,0c4.5,0,9.1,0,13.6,0c0.1,0,0.3,0,0.4,0
		c0.3,0,0.5-0.2,0.5-0.6c0-0.2-0.1-0.4-0.1-0.5c-0.1-0.8-0.4-1.7-0.4-2.5c-0.1-1.1-0.1-2.3-0.1-3.4c0-2.2,0-4.3,0.1-6.5
		c0-1.2-0.2-2.4-0.5-3.5c-0.6-2.2-1.8-3.7-4-4.5c-0.2-0.1-0.3-0.2-0.4-0.4c0.2-0.1,0.3-0.3,0.5-0.4c0.1,0,0.1,0,0.2-0.1
		c1.5-0.3,2.8-0.8,4.2-1.4c2.4-1.2,4.3-3,5.7-5.4C657.2-206.8,657.4-207.6,657.4-208.5z M641.1-207.4c-0.6,1.3-1.6,2.2-3,2.8
		c-1.5,0.6-3,0.8-4.5,0.8c-1.2,0-2.3,0-3.5,0c0,0,0,0,0,0c-1.4,0-2.8,0-4.3,0c-0.1,0-0.3,0-0.4,0c-0.7,0-0.8-0.2-0.7-0.9
		c0.1-0.5,0.2-1.1,0.3-1.6c0.3-1.2,0.6-2.5,0.9-3.7c0.2-0.9,0.4-1.8,0.6-2.6c0.1-0.5,0.3-0.6,0.8-0.7c0.1,0,0.3,0,0.4,0
		c2.8,0,5.6,0,8.5,0c1.3,0,2.5,0.3,3.5,1C641.3-211.2,641.9-209.1,641.1-207.4z"/>
	<path class="st8" d="M548.3-215.5c-0.7-2.2-1.9-4.1-3.7-5.6c-2.5-2.2-5.6-3.1-8.8-3.5c-1.3-0.2-2.6-0.1-3.9-0.2c-3.5,0-7,0-10.6,0
		c-4.6,0-9.2,0-13.8,0c-0.3,0-0.6,0-0.9,0c-0.6,0-0.8,0.2-1,0.8c-0.4,1.5-0.7,3-1.1,4.5c-0.6,2.8-1.3,5.5-1.9,8.3
		c-0.8,3.3-1.5,6.5-2.3,9.7c-0.2,0.9-0.4,1.8-0.6,2.7c-0.5,2.2-1,4.3-1.6,6.5c-0.4,1.8-0.9,3.7-1.3,5.5c-0.5,2-1,4-1.4,6
		c-0.2,0.9-0.4,1.8-0.6,2.7c-0.2,0.8,0,1.1,0.8,1.1c4.8,0,9.6,0,14.5,0c0.9,0,1.1-0.2,1.3-1c0.2-1.1,0.5-2.1,0.7-3.2
		c0.7-3.1,1.5-6.2,2.2-9.3c0.2-0.7,0.4-0.9,1.1-0.9c0.2,0,0.4,0,0.6,0c3.9,0,7.9,0,11.8-0.1c3.6-0.1,7-0.9,10.3-2.4
		c3.4-1.5,6.2-3.7,8.4-6.7c1.3-1.8,2.2-3.8,2.5-6C549.4-209.5,549.2-212.6,548.3-215.5z M529.1-203.5c-1.6,0.6-3.3,0.7-5,0.8
		c-0.7,0-1.5,0-2.3,0c0,0,0,0,0,0c-1.1,0-2.1,0-3.2,0c-0.2,0-0.5,0-0.7,0c-0.4-0.1-0.6-0.3-0.5-0.7c0-0.2,0.1-0.3,0.1-0.5
		c0.6-2.5,1.2-5.1,1.8-7.6c0.2-0.6,0.4-0.9,1.1-0.9c2.6,0,5.2-0.1,7.8,0.3c0.8,0.1,1.6,0.4,2.3,0.7c1.1,0.6,1.8,1.5,1.9,2.9
		C532.7-206,531.3-204.3,529.1-203.5z"/>
	<path class="st8" d="M518.8-153.6c-0.2-2.9-0.8-5.7-2.4-8.2c-1.4-2.2-3.4-3.7-5.9-4.6c-2.5-0.9-5-1.4-7.4-1.3
		c-3.7-0.1-7.1,0.6-10.2,2.3c-2.5,1.4-4.6,3.2-6.2,5.5c-2.4,3.3-3.7,6.9-4.1,10.9c-0.4,3.6-0.1,7.2,1.3,10.6
		c1.6,3.8,4.6,6.1,8.4,7.2c1.9,0.6,3.8,0.8,5.8,0.8c4.8,0.1,9.2-1.2,12.9-4.2c3.6-2.9,5.8-6.7,7-11.1
		C518.8-148.2,519-150.9,518.8-153.6z M507.7-149.6c-0.2,1.3-0.5,2.6-0.9,3.8c-0.7,2.1-1.7,3.9-3.6,5.2c-1.8,1.3-3.9,1.7-6.1,1.1
		c-1.4-0.4-2.3-1.3-2.9-2.6c-0.4-0.8-0.6-1.7-0.6-2.6c0-0.5,0-1-0.1-1.4c0-3,0.6-5.7,1.9-8.2c0.9-1.7,2.1-3.2,4-4
		c1.7-0.7,3.4-0.9,5.2-0.3c1.5,0.5,2.4,1.6,2.9,3C508-153.5,508-151.6,507.7-149.6z"/>
	<path class="st8" d="M581.4-132.5c-0.4-2.5-0.8-5-1.2-7.4c-0.2-1.5-0.5-3-0.7-4.5c-0.3-1.8-0.6-3.7-0.9-5.5
		c-0.3-1.6-0.5-3.3-0.8-4.9c-0.3-1.7-0.6-3.3-0.8-5c-0.3-2-0.6-3.9-0.9-5.9c0-0.2-0.1-0.3-0.1-0.5c-0.2-0.6-0.4-0.8-1-0.8
		c-0.4,0-0.9,0-1.3,0c-2.6,0-5.1,0-7.7,0c-0.7,0-1.1,0.2-1.4,0.8c0,0.1-0.1,0.2-0.2,0.3c-1.7,3-3.4,5.9-5.2,8.9c-2,3.5-4,6.9-6,10.4
		c-2.5,4.4-5.1,8.8-7.7,13.2c-0.3,0.5-0.6,1.1-0.9,1.6c-0.3,0.5-0.1,0.7,0.4,0.8c0.2,0,0.3,0,0.5,0c1.5,0,3,0,4.4,0
		c1.6,0,3.1,0,4.7,0c0.5,0,0.9-0.2,1.2-0.7c0.6-1.2,1.4-2.4,2-3.7c0.3-0.6,0.8-0.8,1.4-0.8c3.2,0,6.5,0,9.7,0c0.9,0,1,0.1,1.1,1.1
		c0.1,1.1,0.3,2.2,0.4,3.3c0.1,0.6,0.2,0.7,0.9,0.8c0.2,0,0.4,0,0.5,0c2.7,0,5.5,0,8.2,0C581.5-131.1,581.6-131.2,581.4-132.5z
		 M568.3-143.9c-0.8,0-1.7,0-2.5,0c0,0,0,0,0,0c-0.8,0-1.6,0-2.4,0c-0.7,0-0.9-0.4-0.6-1c1.5-2.8,2.9-5.6,4.4-8.4
		c0.2-0.3,0.3-0.8,0.7-0.7c0.5,0.1,0.3,0.6,0.3,0.9c0.2,1.9,0.4,3.9,0.6,5.8c0.1,0.8,0.2,1.6,0.3,2.4
		C569.2-144.2,569-143.9,568.3-143.9z"/>
	<path class="st8" d="M400.9-131.9c-0.2-1.2-0.4-2.3-0.5-3.5c-0.5-3-1-6-1.4-9c-0.5-3-0.9-6-1.4-9.1c-0.6-3.6-1.1-7.2-1.7-10.8
		c-0.1-0.7-0.2-1.4-0.4-2.1c-0.1-0.4-0.3-0.6-0.7-0.7c-0.2,0-0.4,0-0.5,0c-2.8,0-5.6,0-8.5,0c-0.9,0-1.4,0.3-1.8,1
		c-1.4,2.4-2.8,4.8-4.1,7.2c-2,3.4-4,6.9-6,10.3c-2,3.5-4,7-6.1,10.5c-1.1,2-2.3,3.9-3.4,5.9c-0.4,0.7-0.2,0.9,0.5,0.9
		c3.1,0,6.3,0,9.4,0c0.6,0,1-0.2,1.3-0.8c0.6-1.2,1.2-2.3,1.8-3.4c0.3-0.7,0.8-1,1.6-1c1.6,0.1,3.1,0,4.7,0c1.7,0,3.4,0,5.1,0
		c0.8,0,0.9,0.2,1,0.9c0.1,1.1,0.3,2.2,0.4,3.3c0.1,0.8,0.3,0.9,1.1,0.9c2.9,0,5.8,0,8.6,0c0.2,0,0.3,0,0.5,0
		C400.8-131.2,401-131.4,400.9-131.9z M387.8-143.9c-0.8,0-1.7,0-2.5,0c0,0,0,0,0,0c-0.8,0-1.6,0-2.4,0c-0.8,0-1-0.3-0.7-1
		c1.2-2.3,2.5-4.7,3.7-7c0.3-0.6,0.6-1.2,0.9-1.7c0.1-0.2,0.3-0.4,0.4-0.4c0.3,0,0.3,0.3,0.4,0.5c0.1,1.1,0.2,2.2,0.4,3.3
		c0.2,1.7,0.4,3.3,0.6,5c0,0.2,0,0.4,0,0.5C388.6-144.1,388.4-143.9,387.8-143.9z"/>
	<path class="st9" d="M345.9-152.8c0-0.2,0-0.4,0.1-0.7c0.5-2.1,0.6-4.2,0.2-6.3c-0.3-1.8-1.1-3.4-2.3-4.8c-1.6-1.9-3.7-3.3-5.9-4.4
		c-2.4-1.2-4.9-2.1-7.4-2.9c-1.1-0.3-2.1-0.8-2.9-1.6c-1.7-1.5-3.3-3.1-4.5-5.1c-0.8-1.3-1.4-2.8-1.9-4.3c-0.1-0.1-0.1-0.3-0.1-0.5
		c0-0.4,0.2-0.6,0.6-0.6c0.1,0,0.2,0.1,0.4,0.1c2.3,0.6,4.6,1.2,6.8,1.9c2.8,0.9,5.6,1.8,8.4,2.9c2.4,0.9,4.7,2.2,6.8,3.8
		c1.8,1.4,3.3,3,4.4,5.1c0.9,1.9,1.4,3.9,1.4,6.1c0.1,3.9-0.9,7.4-3,10.6c-0.2,0.3-0.5,0.5-0.7,0.8C346-152.7,346-152.7,345.9-152.8
		z"/>
	<path class="st10" d="M348.4-222c4.9,0,9.6,0,14.4,0c-0.2,0.4-0.4,0.8-0.5,1.1c-1,1.5-1.9,3.1-2.9,4.6c-0.8,1.3-1.6,2.6-2.4,3.9
		c-0.5,0.8-1,1.7-1.5,2.5c-0.1,0.2-0.3,0.4-0.5,0.7c-0.1-0.2-0.2-0.3-0.2-0.3c-0.1-0.9-0.2-1.9-0.3-2.8c0-0.2-0.1-0.3-0.1-0.5
		c-0.1-0.3-0.2-0.6-0.3-0.9c-0.4-2-1.4-3.7-2.7-5.2c-0.8-0.9-1.7-1.7-2.5-2.5C348.7-221.6,348.6-221.7,348.4-222z"/>
	<path class="st11" d="M289.2-134.4c-5,0-9.9,0-14.9,0c0.2-0.5,0.4-0.8,0.6-1.1c1-1.6,2-3.2,3-4.8c0.8-1.3,1.7-2.7,2.5-4
		c0.5-0.9,1-1.7,1.5-2.6c0.1-0.2,0.3-0.4,0.5-0.7c0.1,0.2,0.2,0.3,0.2,0.3c0.1,1,0.2,2,0.3,2.9c0,0.2,0.1,0.4,0.1,0.5
		c0.1,0.3,0.2,0.6,0.3,0.9c0.5,2.1,1.5,3.8,2.8,5.4c0.8,0.9,1.7,1.7,2.6,2.6C288.9-134.7,289-134.6,289.2-134.4z"/>
	<path class="st12" d="M298.2-184.5c-0.7-0.4-1.3-0.7-1.9-1.1c-0.9-0.7-1.7-1.4-2.5-2.2c-0.8-0.8-1.7-1.5-2.4-2.4
		c-1.3-1.6-2.4-3.4-3-5.4c-0.7-2.4-0.7-4.9-0.3-7.3c0.2-1.2,0.5-2.3,1-3.4c0.3-0.6,0.5-1.2,0.8-1.8c0.1-0.2,0.3-0.5,0.4-0.7
		c0.1,0,0.1,0,0.2,0.1c0,0.3,0,0.6-0.1,0.8c-0.4,1.1-0.1,2.1,0.3,3c0.6,1.8,1.8,3.3,3.1,4.7c1.1,1.1,2.1,2.2,3.4,3.1
		c0.2,0.1,0.4,0.3,0.6,0.5c0.2,0.2,0.3,0.5,0.1,0.8c-0.1,0.2-0.1,0.5-0.2,0.7c-0.2,1.1-0.4,2.3-0.6,3.4c0,0.2,0,0.3,0,0.5
		c0.2,1,0.4,2.1,0.5,3.1c0.1,1,0.4,1.9,0.6,2.8C298.2-185,298.2-184.8,298.2-184.5z"/>
</g>
<g>
	<g>
		<path class="st13" d="M99.8,38.9c1,3.9,1.5,8.1,1.5,12.3c0,26.1-19.9,47.5-45.3,49.9c0.2,0,0.4,0,0.6-0.1c0-9.6-0.1-21.7-0.1-30
			h33.1l-4.3-16.9H56.5c0-2.3,0.1-4.6,0.1-6.9c0.1-3.9,1.1-7.5,6-7.9C74.2,38.4,87.9,38.8,99.8,38.9 M51.2,1.1
			c26.1,0,40,19.9,39.8,19.6c-11.7-0.2-33.9-1.8-42.1,1.8c-9.2,4.1-9.4,9.8-9.5,20.2c-0.1,6.3,0,13,0,16.9c0.1,13.9,0,32.2,0,40.4
			c0.3,0.1,0.6,0.1,0.9,0.2c-22.5-5-39.2-25-39.2-49C1,23.5,23.5,1.1,51.2,1.1z"/>
	</g>
	<g>
		<g>
			<path class="st8" d="M142.8,24.8h-16.5v7.4h15.2v7.5h-15.2v16.9h-9.8V17.3h26.3V24.8z"/>
			<path class="st8" d="M174.1,56.5h-26.2V17.3h9.9V49h16.3V56.5z"/>
			<path class="st8" d="M194.7,57.3c-5.3,0-9.3-1.3-12.2-3.8c-2.8-2.5-4.3-6.3-4.3-11.2V17.3h9.9v24.5c0,2.7,0.5,4.8,1.5,6.1
				c1,1.3,2.7,2,5,2c2.3,0,3.9-0.6,5-1.9c1.1-1.3,1.6-3.3,1.6-6.2V17.3h9.9v25c0,4.8-1.4,8.5-4.2,11.1
				C204.2,56,200.1,57.3,194.7,57.3z"/>
			<path class="st8" d="M251.9,56.5h-11.4L233,44l-7.7,12.5h-10.9l12.7-19.8l-12.2-19.5h11.4l7.1,11.8l7.2-11.8h10.9l-12.3,19.1
				L251.9,56.5z"/>
		</g>
		<g>
			<g>
				<path class="st14" d="M123.6,64.5v1.8h-2.4v14.1H119V66.3h-2.4v-1.8H123.6z"/>
			</g>
			<g>
				<path class="st14" d="M133.9,76.7c-0.1,2.6-1.1,3.8-3.2,3.8c-2.3,0-3.4-1.8-3.4-5.4c0-3.9,1.2-5.8,3.5-5.8
					c0.9,0,1.6,0.3,2.2,0.9c0.8,0.8,1.1,1.9,1.1,4.3v0.8h-4.6c0,2.8,0.3,3.6,1.4,3.6c0.9,0,1.2-0.6,1.2-2.2H133.9z M132,73.7
					c0-2.2-0.3-3-1.2-3c-1,0-1.3,0.7-1.3,3H132z"/>
			</g>
			<g>
				<path class="st14" d="M145.2,80c-0.8,0.4-1.2,0.5-1.8,0.5c-2.2,0-3.2-1.7-3.2-5.7c0-2.3,0.4-3.8,1.2-4.6c0.6-0.6,1.3-0.9,2-0.9
					c0.5,0,0.9,0.1,1.8,0.4v1.7c-0.6-0.3-0.8-0.3-1.1-0.3c-1.2,0-1.7,1.2-1.7,4c0,2.5,0.5,3.7,1.6,3.7c0.4,0,0.7-0.1,1.3-0.4V80z"/>
			</g>
			<g>
				<path class="st14" d="M153.2,63.9v6.4c0.8-0.8,1.5-1.1,2.2-1.1c1.5,0,2.3,0.8,2.3,2.5v8.5h-2v-7.9c0-1-0.4-1.6-1.3-1.6
					c-0.9,0-1.3,0.6-1.3,1.7v7.7h-2.1V63.9H153.2z"/>
			</g>
			<g>
				<path class="st14" d="M166.2,70.5L166.2,70.5c0.5-0.8,1.4-1.2,2.2-1.2c1.6,0,2.4,0.9,2.4,2.6v8.5h-2v-7.9c0-1-0.5-1.6-1.3-1.6
					c-0.8,0-1.3,0.6-1.3,1.6v7.9h-2V69.4h2.1V70.5z"/>
			</g>
			<g>
				<path class="st14" d="M182.7,70.1c0.9,0.9,1.3,2.2,1.3,4.9c0,1.9-0.2,3.2-0.8,4.1c-0.6,0.9-1.5,1.4-2.6,1.4
					c-2.4,0-3.5-1.8-3.5-5.5c0-2.9,0.4-4.3,1.6-5.1c0.5-0.4,1.2-0.6,1.9-0.6h0.1C181.5,69.3,182.2,69.5,182.7,70.1z M179.2,74.1
					c0,2.2,0.1,3.5,0.3,4c0.2,0.5,0.5,0.7,1,0.7c1,0,1.3-0.8,1.3-3.3c0-3.7-0.3-4.6-1.3-4.6C179.6,71,179.2,71.7,179.2,74.1z"/>
			</g>
			<g>
				<path class="st14" d="M192.4,63.9v16.4h-2V63.9H192.4z"/>
			</g>
			<g>
				<path class="st14" d="M204.3,70.1c0.9,0.9,1.3,2.2,1.3,4.9c0,1.9-0.2,3.2-0.8,4.1c-0.6,0.9-1.5,1.4-2.6,1.4
					c-2.4,0-3.5-1.8-3.5-5.5c0-2.9,0.4-4.3,1.6-5.1c0.5-0.4,1.2-0.6,1.9-0.6h0.1C203.1,69.3,203.8,69.5,204.3,70.1z M200.9,74.1
					c0,2.2,0.1,3.5,0.3,4c0.2,0.5,0.5,0.7,1,0.7c1,0,1.3-0.8,1.3-3.3c0-3.7-0.3-4.6-1.3-4.6C201.2,71,200.9,71.7,200.9,74.1z"/>
			</g>
			<g>
				<path class="st14" d="M216.1,78.9L216.1,78.9c-0.4,1-1.2,1.6-2.2,1.6c-0.8,0-1.5-0.5-1.9-1.3c-0.4-0.8-0.6-2.1-0.6-4.5
					c0-2.7,0.2-4,0.9-4.7c0.4-0.5,0.9-0.7,1.6-0.7c1,0,1.4,0.3,2.1,1.3h0.1v-1.1h2v12.3c0,2.2-1,3.2-3.3,3.2c-1.8,0-2.7-0.5-3.1-1.4
					c-0.2-0.5-0.3-0.8-0.3-1.8h2c0.1,1.3,0.5,1.8,1.4,1.8c0.8,0,1.3-0.5,1.3-1.3V78.9z M213.5,74.3c0,3.4,0.3,4.3,1.3,4.3
					c0.9,0,1.2-0.9,1.2-3.4c0-3.5-0.2-4.3-1.2-4.3C213.9,70.9,213.5,71.9,213.5,74.3z"/>
			</g>
			<g>
				<path class="st14" d="M226.8,66.1c0,0.6-0.5,1.1-1.1,1.1c-0.6,0-1.1-0.5-1.1-1.1c0-0.6,0.5-1.1,1.1-1.1S226.8,65.5,226.8,66.1z
					 M226.7,69.4v10.9h-2V69.4H226.7z"/>
			</g>
			<g>
				<path class="st14" d="M239.7,76.7c-0.1,2.6-1.1,3.8-3.2,3.8c-2.3,0-3.4-1.8-3.4-5.4c0-3.9,1.2-5.8,3.5-5.8
					c0.9,0,1.6,0.3,2.2,0.9c0.8,0.8,1.1,1.9,1.1,4.3v0.8h-4.6c0,2.8,0.3,3.6,1.4,3.6c0.9,0,1.2-0.6,1.2-2.2H239.7z M237.7,73.7
					c0-2.2-0.3-3-1.2-3c-1,0-1.3,0.7-1.3,3H237.7z"/>
			</g>
			<g>
				<path class="st14" d="M247,78.3c1,0.4,1.3,0.5,1.9,0.5c0.8,0,1.3-0.5,1.3-1.2c0-0.6-0.4-1.1-1.8-2.3c-0.2-0.1-0.3-0.2-0.5-0.4
					c-0.9-0.9-1.3-1.6-1.3-2.7c0-1.7,1.3-3,3-3c0.5,0,1.1,0.1,2,0.4v1.7l-0.1-0.1c-0.7-0.2-1.1-0.3-1.5-0.3c-0.9,0-1.4,0.5-1.4,1.2
					c0,0.6,0.4,1.1,1.5,2c0.4,0.4,0.6,0.5,0.9,0.8c0.8,0.9,1.2,1.6,1.2,2.5c0,1.7-1.3,3-3.1,3c-0.7,0-1.1-0.1-2-0.5V78.3z"/>
			</g>
		</g>
	</g>
</g>
<g id="Page-1">
	<g id="Artboard">
		<path id="Fill-1" class="st15" d="M-804.9,528.2h40.9c4.7,0,8.5,3.8,8.5,8.5v40.9c0,4.7-3.8,8.5-8.5,8.5h-40.9
			c-4.7,0-8.5-3.8-8.5-8.5v-40.9C-813.4,532-809.5,528.2-804.9,528.2"/>
		<path id="Fill-2" class="st16" d="M-737.4,528.2h40.9c4.7,0,8.5,3.8,8.5,8.5v40.9c0,4.7-3.8,8.5-8.5,8.5h-40.9
			c-4.7,0-8.5-3.8-8.5-8.5v-40.9C-745.9,532-742,528.2-737.4,528.2"/>
		<path id="Fill-3" class="st17" d="M-669.1,528.2h40.9c4.7,0,8.5,3.8,8.5,8.5v40.9c0,4.7-3.8,8.5-8.5,8.5h-40.9
			c-4.7,0-8.5-3.8-8.5-8.5v-40.9C-677.6,532-673.8,528.2-669.1,528.2"/>
		<path id="Fill-4" class="st18" d="M-601.3,528.2h40.9c4.7,0,8.5,3.8,8.5,8.5v40.9c0,4.7-3.8,8.5-8.5,8.5h-40.9
			c-4.7,0-8.5-3.8-8.5-8.5v-40.9C-609.7,532-605.9,528.2-601.3,528.2"/>
		<path id="Fill-5" class="st19" d="M-761.7,571.3c0,0.2-0.1,0.4-0.2,0.6c-0.1,0.2-0.3,0.3-0.6,0.4c-0.3,0.1-0.7,0.2-1.2,0.2
			c-0.5,0.1-1.2,0.1-2,0.1c-0.8,0-1.5,0-2-0.1c-0.5-0.1-0.9-0.1-1.2-0.2c-0.3-0.1-0.5-0.2-0.6-0.4c-0.1-0.2-0.2-0.3-0.2-0.6v-17
			c0-1-0.1-1.8-0.3-2.6c-0.2-0.8-0.5-1.5-0.8-2c-0.4-0.6-0.8-1-1.4-1.3c-0.6-0.3-1.2-0.5-2-0.5c-1,0-1.9,0.4-2.9,1.1
			c-1,0.8-2,1.8-3.2,3.3v19c0,0.2-0.1,0.4-0.2,0.6c-0.1,0.2-0.4,0.3-0.7,0.4c-0.3,0.1-0.7,0.2-1.2,0.2c-0.5,0.1-1.1,0.1-1.9,0.1
			c-0.8,0-1.4,0-1.9-0.1c-0.5-0.1-0.9-0.1-1.2-0.2c-0.3-0.1-0.5-0.2-0.7-0.4c-0.1-0.2-0.2-0.3-0.2-0.6v-17c0-1-0.1-1.8-0.3-2.6
			c-0.2-0.8-0.4-1.5-0.8-2c-0.4-0.6-0.8-1-1.4-1.3c-0.6-0.3-1.3-0.5-2-0.5c-1,0-2,0.4-3,1.1c-1,0.8-2,1.8-3.2,3.3v19
			c0,0.2-0.1,0.4-0.2,0.6c-0.1,0.2-0.4,0.3-0.7,0.4c-0.3,0.1-0.7,0.2-1.2,0.2c-0.5,0.1-1.2,0.1-2,0.1c-0.8,0-1.4,0-1.9-0.1
			c-0.5-0.1-0.9-0.1-1.2-0.2c-0.3-0.1-0.5-0.2-0.7-0.4c-0.1-0.2-0.2-0.3-0.2-0.6v-28.6c0-0.2,0.1-0.4,0.2-0.6
			c0.1-0.2,0.3-0.3,0.6-0.4c0.3-0.1,0.6-0.2,1.1-0.2c0.4-0.1,1-0.1,1.7-0.1c0.7,0,1.2,0,1.7,0.1c0.4,0.1,0.8,0.1,1,0.2
			c0.3,0.1,0.4,0.2,0.5,0.4c0.1,0.2,0.2,0.4,0.2,0.6v3.3c1.6-1.7,3.2-3,4.7-3.9c1.6-0.9,3.2-1.3,4.9-1.3c1.2,0,2.2,0.1,3.2,0.4
			c0.9,0.2,1.8,0.6,2.5,1.1c0.7,0.5,1.4,1,1.9,1.7c0.5,0.6,1,1.4,1.3,2.2c0.9-0.9,1.7-1.7,2.5-2.4c0.8-0.7,1.6-1.2,2.4-1.6
			c0.8-0.4,1.6-0.7,2.4-0.9c0.8-0.2,1.6-0.3,2.5-0.3c1.9,0,3.5,0.3,4.8,1c1.3,0.6,2.4,1.5,3.2,2.6c0.8,1.1,1.4,2.4,1.7,3.9
			c0.3,1.5,0.5,3,0.5,4.7V571.3"/>
		<path id="Fill-6" class="st19" d="M-708.5,554.8c0-1.2-0.1-2.4-0.3-3.5c-0.2-1.1-0.5-2.1-0.9-3c-0.4-0.9-1-1.6-1.7-2.1
			c-0.7-0.5-1.6-0.8-2.7-0.8c-0.5,0-1.1,0.1-1.6,0.2c-0.5,0.2-1.1,0.4-1.6,0.8c-0.5,0.4-1.1,0.8-1.7,1.4c-0.6,0.6-1.2,1.3-1.8,2.1
			v9.4c1.1,1.4,2.2,2.5,3.2,3.3c1,0.8,2.1,1.2,3.2,1.2c1.1,0,2-0.3,2.7-0.8c0.7-0.5,1.3-1.2,1.8-2.1c0.5-0.9,0.8-1.8,1.1-2.9
			C-708.6,557-708.5,555.9-708.5,554.8z M-700.1,554.3c0,2.5-0.3,4.8-0.8,6.9c-0.5,2-1.3,3.8-2.4,5.2c-1.1,1.4-2.4,2.5-3.9,3.3
			c-1.6,0.8-3.3,1.1-5.4,1.1c-0.8,0-1.6-0.1-2.3-0.2c-0.7-0.2-1.4-0.4-2-0.7c-0.6-0.3-1.3-0.7-1.9-1.2c-0.6-0.5-1.3-1.1-2-1.7v13.5
			c0,0.2-0.1,0.4-0.2,0.6c-0.1,0.2-0.3,0.3-0.7,0.4c-0.3,0.1-0.7,0.2-1.2,0.3c-0.5,0.1-1.2,0.1-2,0.1c-0.8,0-1.4,0-1.9-0.1
			c-0.5-0.1-0.9-0.2-1.2-0.3c-0.3-0.1-0.5-0.3-0.7-0.4c-0.1-0.2-0.2-0.4-0.2-0.6v-40c0-0.2,0.1-0.4,0.2-0.6c0.1-0.2,0.3-0.3,0.6-0.4
			c0.3-0.1,0.6-0.2,1.1-0.2c0.4-0.1,1-0.1,1.7-0.1c0.6,0,1.2,0,1.6,0.1c0.4,0.1,0.8,0.1,1,0.2c0.3,0.1,0.5,0.2,0.6,0.4
			c0.1,0.2,0.2,0.4,0.2,0.6v3.4c0.8-0.9,1.7-1.6,2.5-2.3c0.8-0.6,1.6-1.2,2.5-1.6c0.8-0.4,1.7-0.8,2.6-1c0.9-0.2,1.8-0.3,2.8-0.3
			c2.1,0,3.9,0.4,5.4,1.2c1.5,0.8,2.7,1.9,3.6,3.4c0.9,1.4,1.6,3.1,2,5C-700.3,550.1-700.1,552.1-700.1,554.3z"/>
		<path id="Fill-7" class="st19" d="M-644.6,578.3c0,0.2-0.1,0.4-0.2,0.6c-0.1,0.2-0.3,0.3-0.7,0.4c-0.3,0.1-0.7,0.2-1.2,0.2
			c-0.5,0.1-1.2,0.1-2,0.1c-0.8,0-1.4,0-1.9-0.1c-0.5-0.1-0.9-0.1-1.2-0.2c-0.3-0.1-0.5-0.2-0.7-0.4c-0.1-0.2-0.2-0.4-0.2-0.6v-42.2
			c0-0.2,0.1-0.4,0.2-0.6c0.1-0.2,0.3-0.3,0.7-0.4c0.3-0.1,0.7-0.2,1.2-0.3c0.5-0.1,1.2-0.1,1.9-0.1c0.8,0,1.4,0,2,0.1
			c0.5,0.1,0.9,0.2,1.2,0.3c0.3,0.1,0.5,0.3,0.7,0.4c0.1,0.2,0.2,0.4,0.2,0.6V578.3"/>
		<path id="Fill-8" class="st19" d="M-575.7,570.1l-3.5,10.1c-0.2,0.5-0.7,0.9-1.6,1.2c-0.9,0.2-2.1,0.3-3.8,0.3c-0.9,0-1.5,0-2-0.1
			c-0.5-0.1-0.9-0.2-1.2-0.4c-0.3-0.2-0.4-0.4-0.4-0.6c0-0.3,0-0.6,0.2-0.9l3.8-9.6c-0.3-0.1-0.5-0.3-0.8-0.6
			c-0.2-0.3-0.4-0.6-0.5-0.9l-9.8-26.3c-0.3-0.8-0.4-1.3-0.4-1.7c0-0.4,0.1-0.7,0.4-0.9c0.3-0.2,0.7-0.4,1.3-0.5
			c0.6-0.1,1.4-0.1,2.4-0.1c0.9,0,1.7,0,2.2,0c0.5,0,1,0.1,1.2,0.2c0.3,0.1,0.5,0.3,0.7,0.6c0.2,0.3,0.3,0.7,0.5,1.1l6.7,19.2h0.1
			l6.2-19.5c0.1-0.5,0.3-0.9,0.5-1.1c0.2-0.2,0.5-0.3,1-0.4c0.5-0.1,1.3-0.1,2.5-0.1c0.9,0,1.7,0,2.3,0.1c0.6,0.1,1.1,0.2,1.3,0.5
			c0.3,0.2,0.4,0.5,0.4,0.9c0,0.4-0.1,0.9-0.3,1.4L-575.7,570.1"/>
		<path id="Fill-9" class="st20" d="M-940,528.2h40.9c4.7,0,8.5,3.8,8.5,8.5v40.9c0,4.7-3.8,8.5-8.5,8.5H-940
			c-4.7,0-8.5-3.8-8.5-8.5v-40.9C-948.5,532-944.7,528.2-940,528.2"/>
		<path id="Fill-10" class="st19" d="M-907.5,563.3c0,1.6-0.3,3.1-0.9,4.3c-0.6,1.2-1.5,2.3-2.6,3.1c-1.1,0.8-2.4,1.5-4,1.9
			c-1.5,0.4-3.2,0.6-4.9,0.6c-1.1,0-2.1-0.1-3.1-0.2c-1-0.2-1.8-0.4-2.6-0.6c-0.8-0.3-1.4-0.5-1.9-0.8c-0.5-0.3-0.9-0.5-1.1-0.7
			c-0.2-0.2-0.4-0.6-0.5-1.1c-0.1-0.5-0.2-1.2-0.2-2.1c0-0.6,0-1.1,0.1-1.5c0-0.4,0.1-0.7,0.2-0.9c0.1-0.2,0.2-0.4,0.3-0.4
			c0.1-0.1,0.3-0.1,0.5-0.1c0.2,0,0.6,0.1,1,0.4c0.5,0.3,1,0.6,1.7,0.9c0.7,0.3,1.5,0.6,2.4,0.9c0.9,0.3,1.9,0.4,3.1,0.4
			c0.7,0,1.4-0.1,1.9-0.2c0.6-0.2,1.1-0.4,1.5-0.6c0.4-0.3,0.7-0.6,1-1.1c0.2-0.4,0.3-0.9,0.3-1.5c0-0.6-0.2-1.2-0.6-1.7
			c-0.4-0.5-0.9-0.9-1.6-1.2c-0.6-0.3-1.4-0.7-2.2-1c-0.8-0.3-1.7-0.6-2.5-1c-0.9-0.4-1.7-0.8-2.5-1.2c-0.8-0.5-1.6-1.1-2.2-1.7
			c-0.6-0.7-1.2-1.5-1.6-2.5c-0.4-1-0.6-2.1-0.6-3.5c0-1.4,0.3-2.6,0.8-3.8c0.5-1.1,1.3-2.1,2.3-2.9c1-0.8,2.2-1.4,3.7-1.9
			c1.4-0.5,3.1-0.7,4.9-0.7c0.9,0,1.8,0.1,2.6,0.2c0.8,0.1,1.6,0.3,2.3,0.5c0.7,0.2,1.3,0.4,1.7,0.6c0.5,0.2,0.8,0.4,1,0.6
			c0.2,0.2,0.3,0.3,0.4,0.5c0.1,0.2,0.2,0.4,0.2,0.6c0,0.2,0.1,0.5,0.1,0.8c0,0.3,0.1,0.7,0.1,1.2c0,0.6,0,1.1-0.1,1.4
			c0,0.4-0.1,0.7-0.2,0.9c-0.1,0.2-0.2,0.4-0.3,0.4c-0.1,0.1-0.3,0.1-0.4,0.1c-0.2,0-0.5-0.1-0.9-0.3c-0.4-0.2-0.9-0.5-1.5-0.7
			c-0.6-0.3-1.3-0.5-2.1-0.7c-0.8-0.2-1.7-0.3-2.7-0.3c-0.7,0-1.4,0.1-1.9,0.2c-0.5,0.2-1,0.4-1.3,0.6c-0.4,0.3-0.6,0.6-0.8,1
			c-0.2,0.4-0.2,0.8-0.2,1.2c0,0.7,0.2,1.2,0.6,1.7c0.4,0.4,0.9,0.8,1.6,1.2c0.7,0.3,1.4,0.7,2.3,1c0.8,0.3,1.7,0.6,2.6,1
			c0.9,0.4,1.7,0.8,2.6,1.2c0.8,0.5,1.6,1,2.3,1.7c0.7,0.7,1.2,1.5,1.6,2.5C-907.7,560.9-907.5,562-907.5,563.3"/>
		<path id="Fill-11" class="st21" d="M-873.1,528.2h40.9c4.7,0,8.5,3.8,8.5,8.5v40.9c0,4.7-3.8,8.5-8.5,8.5h-40.9
			c-4.7,0-8.5-3.8-8.5-8.5v-40.9C-881.6,532-877.8,528.2-873.1,528.2"/>
		<path id="Fill-12" class="st19" d="M-848,537.2c0,1.6-0.3,2.7-1,3.4c-0.7,0.6-1.9,0.9-3.7,0.9c-1.8,0-3-0.3-3.7-0.9
			c-0.6-0.6-1-1.7-1-3.2c0-1.6,0.3-2.7,1-3.4c0.6-0.6,1.9-1,3.7-1c1.8,0,3,0.3,3.7,0.9C-848.3,534.5-848,535.6-848,537.2z
			 M-848.6,571.7c0,0.2-0.1,0.4-0.2,0.6c-0.1,0.2-0.3,0.3-0.7,0.4c-0.3,0.1-0.7,0.2-1.2,0.2c-0.5,0.1-1.2,0.1-2,0.1
			c-0.8,0-1.4,0-1.9-0.1c-0.5-0.1-0.9-0.1-1.2-0.2c-0.3-0.1-0.5-0.2-0.7-0.4c-0.1-0.2-0.2-0.4-0.2-0.6v-24.8c0-0.2,0.1-0.4,0.2-0.6
			c0.1-0.2,0.3-0.3,0.7-0.4c0.3-0.1,0.7-0.2,1.2-0.3c0.5-0.1,1.2-0.1,1.9-0.1c0.8,0,1.4,0,2,0.1c0.5,0.1,0.9,0.2,1.2,0.3
			c0.3,0.1,0.5,0.3,0.7,0.4c0.1,0.2,0.2,0.3,0.2,0.6V571.7z"/>
	</g>
</g>
<path class="st22" d="M-849.5,370.6l-16-10.5l-43.7-26.9c3.3,3.7,5.9,8,7.6,12.6c1.2,3,2,6.1,2.4,9.3l32.8,20.5
	c1.2,0.8,1.5,2.5,0.7,3.7c0,0,0,0,0,0l-0.1,0.2l0,0l-0.1,0.1l-0.1,0.1h-0.1l-0.2,0.2l-31.7,19.3c-0.9,0.6-2,0.4-2.6-0.5c0,0,0,0,0,0
	c-0.2-0.3-0.3-0.7-0.3-1.1v-44c-0.4-2.7-1.2-5.4-2.1-8c-2.3-6.4-6.3-12-11.5-16.3l-1-0.7v82.8c0,4.5,3.7,8.1,8.1,8.1
	c1.6,0,3.1-0.5,4.4-1.3l53.7-33.5c4-2.6,5.1-7.9,2.5-11.9C-847.7,372-848.5,371.2-849.5,370.6z"/>
<linearGradient id="SVGID_1_" gradientUnits="userSpaceOnUse" x1="-915.7274" y1="1266.2572" x2="-845.6191" y2="1266.2572" gradientTransform="matrix(1 0 0 1 0 -892)">
	<stop  offset="0" style="stop-color:#5690FF;stop-opacity:0.99"/>
	<stop  offset="1" style="stop-color:#0052E0"/>
</linearGradient>
<path class="st23" d="M-849.5,370.6l-16-10.5c5.3,4.3,6.1,12.1,1.8,17.5c0,0,0,0-0.1,0.1c-0.6,0.8-1.3,1.4-2.1,2l0,0l-0.1,0.1
	l-0.1,0.1l0,0l-0.2,0.2l-22.8,13.4l0,0l-8.8,5.9c-0.8,0.6-2,0.5-2.7-0.3c0-0.1-0.1-0.1-0.1-0.2c-0.2-0.3-0.3-0.7-0.3-1.1v-44.1
	c-0.5-2.7-1.2-5.4-2.2-8c-2.3-6.4-6.3-12-11.5-16.3l-1-0.7v82.8c0,4.5,3.7,8.1,8.1,8.1c1.6,0,3.1-0.5,4.4-1.3l53.7-33.5
	c4-2.6,5.1-7.9,2.5-11.9C-847.7,372-848.5,371.2-849.5,370.6z"/>
<path class="st24" d="M-800.3,391.2h-7.7c-0.6,0-0.8-0.5-1-1l-6.8-12.7h-0.6c-1.1,0-2.6-0.1-3.5-0.1v12.8c0,0.5-0.5,1-1,1h-6.6
	c-0.5,0-1-0.5-1-1v-33.7c0-1.8,0.7-2.2,2.3-2.4c3.4-0.4,6.8-0.7,10.2-0.7c8.6,0,15.1,2.9,15.1,11.8v0.6c0.3,4.4-2.4,8.5-6.5,10.1
	l7.6,14.2c0.1,0.2,0.1,0.4,0.2,0.6C-799.6,390.9-799.8,391.2-800.3,391.2z M-809.4,365.1c0-3.1-2.4-4.5-6.6-4.5
	c-0.7,0-3.3,0.1-3.9,0.2v9.7l3.5,0.1c5.3,0,7-1.3,7-4.8V365.1z"/>
<path class="st24" d="M-771.4,379.3h-16v0.1c0,2.9,1.2,5.5,5.3,5.5c3.2,0,7.6-0.2,9.7-0.5h0.2c0.6,0,0.9,0.2,0.9,0.8v3.8
	c0,0.8-0.2,1.2-1.1,1.3c-3.4,0.9-6.8,1.3-10.3,1.2c-6.1,0-12.6-3.2-12.6-12.9v-3.5c0-8.1,4.7-13.2,12.7-13.2c8,0,12.5,5.6,12.5,13.2
	v2.9C-770.4,378.9-770.8,379.3-771.4,379.3z M-778.3,374.1c0-3.7-1.8-5.6-4.5-5.6c-2.8,0-4.6,1.9-4.6,5.6v0.2h9.2V374.1z"/>
<path class="st24" d="M-741.6,391.2h-6.2c-0.6,0-1-0.5-1-1.1v-17.7c0-2.2-0.4-3.8-3-3.8h-2.5c-2.6,0-3,1.6-3,3.8v17.7
	c0,0.6-0.4,1-1,1.1h-6.2c-0.5,0-1-0.5-0.9-1.1v-17.7c0-7,3.9-10.5,11.1-10.5h2.5c7.2,0,11.1,3.5,11.1,10.5v17.7
	C-740.6,390.7-741,391.1-741.6,391.2z"/>
<path class="st24" d="M-712.4,390.3c-3.5,0.8-7.1,1.3-10.7,1.3c-8.2,0-12.6-4.7-12.6-12.9v-3.9c0-7.9,4.1-12.9,12.6-12.9
	c1.4,0,2.8,0.2,4.1,0.4v-8.8c0-0.5,0.5-1,1-1h6c0.6,0,1,0.4,1.1,1v35.2C-710.9,389.7-711.1,390-712.4,390.3z M-719,369
	c-1.4-0.2-2.7-0.2-4.1-0.2c-3.5,0-4.5,2.6-4.5,6.1v3.9c0,3.5,1,6.2,4.5,6.2c1.4,0,2.8-0.1,4.1-0.3V369z"/>
<path class="st24" d="M-681.5,379.3h-16v0.1c0,2.9,1.2,5.5,5.3,5.5c3.2,0,7.6-0.2,9.7-0.5l0,0c0.6,0,0.9,0.2,0.9,0.8v3.8
	c0,0.8-0.2,1.2-1.1,1.3c-3.4,0.9-6.8,1.3-10.3,1.2c-6.1,0-12.6-3.2-12.6-12.9v-3.5c0-8.1,4.7-13.2,12.7-13.2c8,0,12.4,5.6,12.4,13.2
	v2.9C-680.5,378.9-680.8,379.3-681.5,379.3z M-688.4,374.1c0-3.7-1.8-5.6-4.5-5.6c-2.8,0-4.6,1.9-4.6,5.6v0.2h9.2V374.1z"/>
<path class="st24" d="M-662.5,368.8c-1.5,0-3,0.1-4.5,0.3v21.1c0,0.6-0.4,1-1,1.1h-6.1c-0.6,0-1-0.5-1.1-1.1V365
	c0-0.7,0.4-1.2,1.6-1.6c3.6-1.1,7.4-1.6,11.1-1.5c0.6,0,1.3,0.2,1.3,0.9v4.9C-661.2,368.3-661.5,368.8-662.5,368.8z"/>
<path class="st24" d="M-642.1,368.5h-6.8v21.7c0,0.6-0.5,1-1.1,1.1h-6.1c-0.6,0-1-0.5-1.1-1.1v-29.8c0-7,4.7-8.5,9.8-8.5
	c1.8,0,3.7,0.2,5.5,0.5c0.6,0.1,0.8,0.3,0.8,0.6v4.2c0,0.6-0.2,0.8-0.7,0.8h-5.3c-1.6,0-1.9,0.9-1.9,2.4v2h6.8c0.5,0,1,0.5,1,1v4
	C-641.1,367.9-641.5,368.4-642.1,368.5C-642.1,368.5-642.1,368.5-642.1,368.5L-642.1,368.5z"/>
<path class="st24" d="M-625,391.6c-8.2,0-12.6-5.1-12.6-13.1V375c0-8,4.5-13.1,12.6-13.1c8.2,0,12.6,5.1,12.6,13.1v3.5
	C-612.4,386.6-616.8,391.6-625,391.6z M-620.5,375c0-4.1-1.6-6.1-4.5-6.1s-4.5,2.1-4.5,6.1v3.5c0,4.1,1.6,6.2,4.5,6.2
	s4.5-2.1,4.5-6.2V375z"/>
<path class="st24" d="M-594.5,368.8c-1.5,0-3,0.1-4.5,0.3v21.1c0,0.6-0.4,1-1,1.1h-6.1c-0.6,0-1-0.5-1.1-1.1V365
	c0-0.7,0.4-1.2,1.6-1.6c3.6-1.1,7.4-1.6,11.1-1.5c0.6,0,1.3,0.2,1.3,0.9v4.9C-593.1,368.3-593.6,368.8-594.5,368.8z"/>
<path class="st24" d="M-565.7,379.3h-16v0.1c0,2.9,1.2,5.5,5.3,5.5c3.2,0,7.6-0.2,9.7-0.5h0.2c0.6,0,0.9,0.2,0.9,0.8v3.8
	c0,0.8-0.2,1.2-1.1,1.3c-3.4,0.9-6.8,1.3-10.3,1.2c-6.1,0-12.6-3.2-12.6-12.9v-3.5c0-8.1,4.7-13.2,12.7-13.2c8,0,12.4,5.6,12.4,13.2
	v2.9C-564.5,378.8-565,379.3-565.7,379.3z M-572.5,374.1c0-3.7-1.8-5.6-4.5-5.6s-4.6,1.9-4.6,5.6v0.2h9.2V374.1z"/>
<path class="st24" d="M-549.9,391.6c-3.1,0-6.2-0.4-9.2-1.1c-0.6-0.1-1-0.6-0.9-1.2v-4.1c0-0.5,0.4-0.9,0.9-0.9c0,0,0,0,0,0h0.2
	c2.7,0.4,7,0.7,8.6,0.7c2.4,0,3-0.6,3-2c0-0.8-0.5-1.3-1.9-2.1l-6.5-3.8c-2.8-1.4-4.5-4.3-4.5-7.4c0-5.1,3.4-7.8,10.3-7.8
	c3,0,6,0.4,9,1.2c0.6,0.1,1,0.6,0.9,1.2v4.1c0,0.6-0.3,0.9-0.8,0.9h-0.2c-2.8-0.4-5.6-0.6-8.3-0.6c-2,0-2.7,0.3-2.7,1.5
	c0,0.8,0.6,1.2,1.6,1.8l6.2,3.5c4.2,2.4,5.1,5,5.1,7.7C-539.2,387.9-542.6,391.6-549.9,391.6z"/>
<path class="st24" d="M-519.1,368.5h-6.9v14.9c0,1.8,0.8,2.1,3,2.1h3.8c0.6,0,1.1,0.3,1.1,0.9v3.9c0,0.6-0.4,0.9-1,1
	c-2,0.3-4,0.5-6,0.5c-5.6,0-9-1.8-9-8.3v-25.2c0-0.5,0.5-1,1-1l6.1-1.1h0.2c0.5,0.1,0.9,0.5,0.9,1v5.3h6.9c0.5,0,1,0.5,1,1v4.1
	C-518.1,367.9-518.5,368.4-519.1,368.5C-519.1,368.5-519.1,368.5-519.1,368.5L-519.1,368.5z"/>
<image style="overflow:visible;" width="888" height="150" xlink:href="DataArt_s_Logo_white.png"  transform="matrix(0.4469 0 0 0.4469 -915.3304 231.738)">
</image>
<g>
	<g>
		<defs>
			<path id="SVGID_2_" d="M-700.5,691.2c16.7,18.4,67.6,36.9,51.4-13.7l-4.9-2.1c-13.1-2.3-23.2-3.4-30.9-3.4
				C-708.6,672.1-709.1,681.5-700.5,691.2"/>
		</defs>
		<clipPath id="SVGID_3_">
			<use xlink:href="#SVGID_2_"  style="overflow:visible;"/>
		</clipPath>
		
			<linearGradient id="SVGID_4_" gradientUnits="userSpaceOnUse" x1="-138.1111" y1="523.5997" x2="-136.9534" y2="523.5997" gradientTransform="matrix(40.0524 -21.2962 21.2962 40.0524 -6309.9756 -23202.0469)">
			<stop  offset="0" style="stop-color:#00AEE6"/>
			<stop  offset="5.618000e-03" style="stop-color:#00AADE"/>
			<stop  offset="8.349428e-02" style="stop-color:#62A5D5"/>
			<stop  offset="0.2564" style="stop-color:#C391BF"/>
			<stop  offset="0.3483" style="stop-color:#EE83B2"/>
			<stop  offset="0.5843" style="stop-color:#EF9578"/>
			<stop  offset="0.6725" style="stop-color:#EE9476"/>
			<stop  offset="0.7508" style="stop-color:#EB9270"/>
			<stop  offset="0.8253" style="stop-color:#E68F65"/>
			<stop  offset="0.8974" style="stop-color:#E08B54"/>
			<stop  offset="0.9673" style="stop-color:#D9873D"/>
			<stop  offset="1" style="stop-color:#D58431"/>
		</linearGradient>
		<polygon class="st25" points="-732.4,684.3 -649.6,640.4 -609.7,715.7 -692.4,759.7 		"/>
	</g>
</g>
<g>
	<g>
		<defs>
			<path id="SVGID_5_" d="M-653.1,676l3.8,1.4c17-24-7.8-49.3-19.2-49.3C-676.7,628.1-678.1,640.9-653.1,676"/>
		</defs>
		<clipPath id="SVGID_6_">
			<use xlink:href="#SVGID_5_"  style="overflow:visible;"/>
		</clipPath>
		
			<linearGradient id="SVGID_7_" gradientUnits="userSpaceOnUse" x1="-120.5582" y1="544.9555" x2="-119.4006" y2="544.9555" gradientTransform="matrix(32.9743 20.6046 -20.6046 32.9743 14525.8701 -14846.9648)">
			<stop  offset="0" style="stop-color:#7E97C4"/>
			<stop  offset="0.3989" style="stop-color:#EF9347"/>
			<stop  offset="0.6968" style="stop-color:#ED9245"/>
			<stop  offset="0.8418" style="stop-color:#E68E3F"/>
			<stop  offset="0.9533" style="stop-color:#DB8836"/>
			<stop  offset="1" style="stop-color:#D58431"/>
		</linearGradient>
		<polygon class="st26" points="-665.3,607.5 -610.1,642 -645.1,698.1 -700.4,663.6 		"/>
	</g>
</g>
<g>
	<g>
		<defs>
			<path id="SVGID_8_" d="M-638.2,677.7l3.8-1.4c25.1-35.1,23.6-47.9,15.5-47.9C-630.4,628.4-655.2,653.6-638.2,677.7"/>
		</defs>
		<clipPath id="SVGID_9_">
			<use xlink:href="#SVGID_8_"  style="overflow:visible;"/>
		</clipPath>
		
			<linearGradient id="SVGID_10_" gradientUnits="userSpaceOnUse" x1="-84.6297" y1="522.5051" x2="-83.4721" y2="522.5051" gradientTransform="matrix(-32.9746 20.6048 20.6048 32.9746 -14166.166 -14846.8564)">
			<stop  offset="0" style="stop-color:#7E97C4"/>
			<stop  offset="0.3989" style="stop-color:#EF9347"/>
			<stop  offset="0.6968" style="stop-color:#ED9245"/>
			<stop  offset="0.8418" style="stop-color:#E68E3F"/>
			<stop  offset="0.9533" style="stop-color:#DB8836"/>
			<stop  offset="1" style="stop-color:#D58431"/>
		</linearGradient>
		<polygon class="st27" points="-622.2,607.8 -677.3,642.2 -642.4,698.3 -587.1,663.8 		"/>
	</g>
</g>
<g>
	<g>
		<defs>
			<path id="SVGID_11_" d="M-633.7,675.4l-4.9,2.1c-16.2,50.6,34.7,32.1,51.4,13.7c8.7-9.5,8.1-19.1-15.6-19.1
				C-610.5,672.1-620.6,673.1-633.7,675.4"/>
		</defs>
		<clipPath id="SVGID_12_">
			<use xlink:href="#SVGID_11_"  style="overflow:visible;"/>
		</clipPath>
		
			<linearGradient id="SVGID_13_" gradientUnits="userSpaceOnUse" x1="-106.0464" y1="540.6501" x2="-104.8888" y2="540.6501" gradientTransform="matrix(-40.05 -21.295 -21.295 40.05 6669.2568 -23200.6719)">
			<stop  offset="0" style="stop-color:#00AEE6"/>
			<stop  offset="5.618000e-03" style="stop-color:#00AADE"/>
			<stop  offset="8.349428e-02" style="stop-color:#62A5D5"/>
			<stop  offset="0.2564" style="stop-color:#C391BF"/>
			<stop  offset="0.3483" style="stop-color:#EE83B2"/>
			<stop  offset="0.5843" style="stop-color:#EF9578"/>
			<stop  offset="0.6725" style="stop-color:#EE9476"/>
			<stop  offset="0.7508" style="stop-color:#EB9270"/>
			<stop  offset="0.8253" style="stop-color:#E68F65"/>
			<stop  offset="0.8974" style="stop-color:#E08B54"/>
			<stop  offset="0.9673" style="stop-color:#D9873D"/>
			<stop  offset="1" style="stop-color:#D58431"/>
		</linearGradient>
		<polygon class="st28" points="-555.3,684.3 -638.1,640.4 -678,715.7 -595.4,759.7 		"/>
	</g>
</g>
<path class="st8" d="M-907.9,661.5c0,2.3-2.4,3.6-7.2,3.6h-11.5c-3,0-5.2-0.7-6.5-2.1l-8.1-9l-8.5,9.4c-1.2,1.4-3.4,2.1-6.5,2.1
	h-11.5c-4.7,0-7.1-1.2-7.1-3.6v-29.4c0-1.2,0.7-2,2.1-2.7c1.4-0.6,3.1-0.9,5-0.9c2,0,3.6,0.3,5,0.9c1.4,0.6,2.1,1.5,2.1,2.7V658
	l13-14.2c1.6-1.9,3.8-2.7,6.5-2.7s4.9,0.9,6.5,2.7l12.5,13.9v-25.6c0-1,0.7-2,2.2-2.7c1.3-0.6,2.9-0.9,4.9-0.9c1.9,0,3.6,0.3,5,0.9
	c1.4,0.6,2.1,1.5,2.1,2.5V661.5z"/>
<path class="st8" d="M-855.9,665.2h-19.8c-6.6,0-12.5-0.8-17.7-2.4c-5.7-1.7-8.7-3.9-9.1-6.5v-18.5c0-2.2,2-4.2,6-5.9
	c5-2.1,11.8-3.1,20.6-3.1h19.9c2.2,0,4.1,0.3,5.3,1.2c1.2,0.7,1.7,1.5,1.7,2.4s-0.6,1.7-1.7,2.4c-1.4,0.7-3.1,1-5.3,1h-19.7
	c-3.9,0-7.1,0.2-9.3,0.8c-2.3,0.6-3.5,1.2-3.5,2v16.8c0.3,0.9,2,1.6,4.7,2.1c2.3,0.5,5,0.7,7.9,0.7h19.8c2.2,0,4.1,0.3,5.3,1
	c1.2,0.7,1.7,1.5,1.7,2.4s-0.6,1.7-1.7,2.4C-851.9,664.9-853.6,665.2-855.9,665.2 M-867.5,646.8h-13.1c-2.2,0-3.9-0.3-5.2-1
	s-1.9-1.5-1.9-2.4s0.6-1.9,1.9-2.5c1.3-0.7,3-1,5.2-1h13.1c2.3,0,4.1,0.3,5.3,1c1.3,0.7,1.9,1.5,1.9,2.5c0,0.9-0.6,1.7-1.9,2.4
	S-865.2,646.8-867.5,646.8"/>
<path class="st8" d="M-790.1,655.4c0.1,2.2-2,4.2-6.1,6.1c-5.2,2.4-12,3.7-20.5,3.7h-19.9c-4.7,0-7.1-1.2-7.1-3.5v-29.4
	c0-2.3,2.3-3.6,7.1-3.6h19.9c6.6,0,12.4,0.7,17.5,2.1c5.6,1.5,8.7,3.6,9.3,6c0-0.1,0-0.1,0-0.2c0.2,0.5,0.3,1,0.3,1.6
	c0,2.1-1.7,3.9-5.2,5.6c2.9,1.4,4.5,3,4.9,4.9v6.7H-790.1z M-804.2,638.1l-0.1-0.3c-0.1-0.9-1.6-1.5-4.5-1.7
	c-0.9-0.1-3.6-0.1-8.1-0.1h-12.7v22.2h12.4c3.8,0,7.1-0.5,9.5-1.4c2.3-0.8,3.5-1.9,3.5-3v-3.9c-0.2-1.3-2-2.1-5.2-2.4
	c-1.4-0.2-5.4-0.3-12.3-0.3c-2.2,0-4.1-0.3-5.3-1.2c-1.2-0.6-1.9-1.4-1.9-2.4c0-0.9,0.6-1.7,1.9-2.4c1.3-0.7,3-1,5.2-1.2
	c3.5,0,7.5,0,12.3,0C-805.5,639.6-803.7,639.1-804.2,638.1"/>
<path class="st8" d="M-728.6,655.4c0.1,2.2-2,4.2-6.1,6.1c-5.2,2.4-12,3.7-20.5,3.7h-19.9c-4.7,0-7.1-1.2-7.1-3.5v-29.4
	c0-2.3,2.3-3.6,7.1-3.6h19.8c6.6,0,12.4,0.7,17.5,2.1c5.6,1.5,8.7,3.6,9.3,6c0-0.1,0-0.1,0-0.2c0.2,0.5,0.3,1,0.3,1.6
	c0,2.1-1.7,3.9-5.2,5.6c2.9,1.4,4.5,3,4.9,4.9V655.4z M-742.7,638.1l-0.1-0.3c-0.1-0.9-1.6-1.5-4.5-1.7c-0.9-0.1-3.6-0.1-8.1-0.1
	h-12.7v22.2h12.4c3.8,0,7.1-0.5,9.5-1.4c2.3-0.8,3.5-1.9,3.5-3v-3.9c-0.2-1.3-2-2.1-5.2-2.4c-1.4-0.2-5.4-0.3-12.3-0.3
	c-2.2,0-4.1-0.3-5.3-1.2c-1.2-0.6-1.9-1.4-1.9-2.4c0-0.9,0.6-1.7,1.9-2.4c1.3-0.7,3-1,5.2-1.2c3.5,0,7.5,0,12.3,0
	C-744,639.6-742.3,639.1-742.7,638.1"/>
<path class="st8" d="M-948.9,684.3h-10.8c-2.1,0-3.8,0.2-5.1,0.7c-1.3,0.5-1.9,1-1.9,1.6v19.7c0,0.9-0.3,1.6-1.2,2.2
	c-0.8,0.6-1.6,0.8-2.8,0.8c-1,0-2-0.2-2.7-0.8c-0.8-0.6-1.2-1.3-1.2-2.2v-20.3c0-1.9,1.2-3.6,3.4-5c2.7-1.9,6.5-2.7,11.3-2.7h10.8
	c1.2,0,2.2,0.3,2.9,0.9c0.6,0.6,0.9,1.3,0.9,2.1s-0.3,1.5-0.9,2.1C-946.7,684-947.6,684.3-948.9,684.3 M-955.3,693.7h-7.2
	c-1.2,0-2.2-0.3-2.9-0.9s-1-1.3-1-2.1c0-0.8,0.3-1.5,1-2.1s1.6-0.9,2.9-0.9h7.2c1.3,0,2.2,0.3,2.9,0.9c0.7,0.6,1,1.3,1,2.1
	c0,0.8-0.3,1.5-1,2.1C-952.9,693.5-954,693.7-955.3,693.7"/>
<path class="st8" d="M-913.1,701.8c0,1.9-1.2,3.6-3.4,5.1c-2.7,1.7-6.5,2.7-11.3,2.7c-3.6,0-6.8-0.6-9.6-2c-3.1-1.5-4.7-3.4-5-5.7
	v-16.1c0-2,1.2-3.7,3.4-5.2c2.7-1.7,6.4-2.5,11.2-2.7c3.6,0,6.9,0.7,10,2.2s4.6,3.4,4.9,5.6v16.1H-913.1z M-920.9,701.1v-14.4
	c-0.1-0.9-0.9-1.6-2.4-2.1c-1.3-0.3-2.8-0.6-4.5-0.6c-4.6,0.1-6.8,0.9-6.8,2.4v14.6c0.2,0.8,1,1.4,2.5,1.9c1.3,0.3,2.7,0.6,4.3,0.6
	c2.2,0,3.8-0.2,5.1-0.7C-921.5,702.4-920.9,701.8-920.9,701.1"/>
<path class="st8" d="M-886.8,693.9c0.2,0.5,0.3,0.9,0.3,1.4c0,0.8-0.3,1.5-1.2,2.1c-0.8,0.6-1.7,0.8-2.8,0.8c-1.5,0-2.7-0.6-3.4-1.7
	l-6.9-11.6v21.5c0,0.9-0.3,1.6-1.2,2.2c-0.8,0.6-1.6,0.8-2.7,0.8c-1,0-2-0.2-2.7-0.8c-0.8-0.6-1.2-1.3-1.2-2.3v-25c0-2,1.3-3,3.8-3
	h6.3c1.6,0,2.8,0.6,3.5,1.7L-886.8,693.9z M-878.5,706.4c0,0.9-0.3,1.6-1.2,2.2c-0.8,0.6-1.6,0.8-2.7,0.8c-1,0-2-0.2-2.7-0.8
	c-0.8-0.6-1.2-1.3-1.2-2.2v-25.1c0-0.9,0.3-1.6,1.2-2.2c0.8-0.6,1.6-0.8,2.7-0.8c1,0,2,0.2,2.7,0.8c0.8,0.6,1.2,1.3,1.2,2.2V706.4z"
	/>
<path class="st8" d="M-849.5,684.4h-21.6c-1.2,0-2.2-0.3-2.9-0.9s-1-1.3-1-2.1s0.3-1.5,1-2.1s1.6-0.9,2.9-0.9h21.6
	c1.2,0,2.2,0.3,2.9,0.9c0.6,0.6,0.9,1.3,0.9,2.1s-0.3,1.5-0.9,2.1C-847.3,684.1-848.2,684.4-849.5,684.4 M-856.6,709.7
	c-2.7,0-5-0.6-7.2-1.5c-2.3-1.2-3.6-2.5-3.8-4.2v-16.2c0-0.9,0.3-1.7,1.2-2.3c0.7-0.5,1.6-0.8,2.7-0.8c1,0,2,0.2,2.7,0.8
	c0.8,0.6,1.2,1.3,1.2,2.2v14.7c0.1,0.3,0.6,0.6,1.3,0.8c0.7,0.2,1.4,0.3,2,0.3c1.2,0,2.2,0.3,2.8,0.9c0.7,0.6,1,1.3,1,2.1
	c0,0.8-0.3,1.5-1,2.1C-854.4,709.3-855.4,709.7-856.6,709.7"/>
<path class="st8" d="M-813,706.3c0,0.9-0.3,1.7-1.2,2.3c-0.8,0.6-1.6,0.8-2.7,0.8c-1,0-2-0.2-2.8-0.8c-0.8-0.6-1.2-1.3-1.2-2.3
	v-20.4c0-1.3-2.2-2-6.7-1.9c-4.6,0-6.9,0.6-6.9,1.6v20.6c0,0.9-0.3,1.7-1.2,2.3s-1.6,0.8-2.8,0.8c-1,0-2-0.2-2.7-0.8
	c-0.8-0.6-1.2-1.3-1.2-2.3v-20.6c0-1.9,1-3.5,3.2-5c2.7-1.7,6.4-2.7,11.2-2.8c3.6-0.1,6.7,0.6,9.6,2c3.1,1.5,4.7,3.4,5,5.6v20.8
	H-813z M-825.1,693.8h-5.1c-1.2,0-2.2-0.3-2.9-0.9s-1-1.3-1-2.1c0-0.8,0.3-1.5,1-2.1s1.6-0.9,2.9-0.9h5.1c1.2,0,2.2,0.3,2.9,0.9
	c0.6,0.6,0.9,1.3,0.9,2.1c0,0.8-0.3,1.5-0.9,2.1C-822.9,693.5-824,693.8-825.1,693.8"/>
<path class="st8" d="M-798.5,706.4c0,1-0.3,1.9-1.2,2.4s-1.7,0.9-2.8,0.9c-1,0-2-0.2-2.7-0.8c-0.7-0.6-1.2-1.4-1.2-2.4v-25.2
	c0-0.9,0.3-1.7,1.2-2.3s1.6-0.8,2.7-0.8c1,0,2,0.2,2.8,0.8c0.7,0.6,1.2,1.3,1.2,2.3V706.4z"/>
<path class="st8" d="M-769.9,693.9c0.2,0.5,0.3,0.9,0.3,1.4c0,0.8-0.3,1.5-1.2,2.1c-0.8,0.6-1.7,0.8-2.8,0.8c-1.5,0-2.7-0.6-3.4-1.7
	l-6.9-11.6v21.5c0,0.9-0.3,1.6-1.2,2.2s-1.6,0.8-2.7,0.8c-1,0-2-0.2-2.7-0.8c-0.8-0.6-1.2-1.3-1.2-2.3v-25c0-2,1.3-3,3.8-3h6.3
	c1.6,0,2.8,0.6,3.5,1.7L-769.9,693.9z M-761.5,706.4c0,0.9-0.3,1.6-1.2,2.2c-0.8,0.6-1.6,0.8-2.7,0.8c-1,0-2-0.2-2.7-0.8
	c-0.8-0.6-1.2-1.3-1.2-2.2v-25.1c0-0.9,0.3-1.6,1.2-2.2c0.8-0.6,1.6-0.8,2.7-0.8s2,0.2,2.7,0.8c0.8,0.6,1.2,1.3,1.2,2.2V706.4z"/>
<path class="st8" d="M-732.1,709.4h-10.8c-3.6,0-6.8-0.7-9.6-2.1c-3.1-1.5-4.7-3.4-5-5.6v-15.7c0-1.9,1.2-3.6,3.4-5
	c2.7-1.9,6.5-2.7,11.2-2.7h10.9c1.2,0,2.2,0.3,2.9,0.9c0.6,0.6,0.9,1.3,0.9,2.1s-0.3,1.5-0.9,2.1c-0.7,0.6-1.7,0.9-2.9,0.9h-10.8
	c-2.1,0-3.8,0.2-5.1,0.7c-1.3,0.5-1.9,1-1.9,1.6V701c0.2,0.8,1,1.4,2.5,1.7c1.3,0.3,2.7,0.6,4.3,0.6h10.8c1.2,0,2.2,0.3,2.9,0.9
	c0.6,0.6,0.9,1.3,0.9,2.1c0,0.8-0.3,1.5-0.9,2.1C-730,709.1-730.9,709.4-732.1,709.4 M-738.4,693.7h-7.2c-1.2,0-2.2-0.3-2.8-0.9
	c-0.7-0.6-1-1.3-1-2.1c0-0.8,0.3-1.5,1-2.1c0.7-0.6,1.6-0.9,2.8-0.9h7.2c1.3,0,2.2,0.3,2.9,0.9s1,1.3,1,2.1c0,0.8-0.3,1.5-1,2.1
	C-736.2,693.5-737.2,693.7-738.4,693.7"/>
</svg>
