<?xml version="1.0" encoding="utf-8"?>
<!-- Generator: Adobe Illustrator 23.0.3, SVG Export Plug-In . SVG Version: 6.00 Build 0)  -->
<svg version="1.1" id="Layer_1" xmlns="http://www.w3.org/2000/svg" xmlns:xlink="http://www.w3.org/1999/xlink" x="0px" y="0px"
	 viewBox="0 0 543.7 272.4" style="enable-background:new 0 0 543.7 272.4;" xml:space="preserve">
<style type="text/css">
	.st0{fill-rule:evenodd;clip-rule:evenodd;fill:#F8991D;}
	.st1{fill:#FFFFFF;}
	.st2{fill:#6D6E70;}
</style>
<g>
	<g>
		<path class="st0" d="M222.6,113.9c1.8,7.3,2.8,14.9,2.8,22.7c0,48-36.6,87.5-83.5,92c0.4,0,0.7-0.1,1.1-0.1
			c0-17.6-0.1-39.9-0.2-55.3h61l-7.9-31.2h-53c0.1-4.3,0.1-8.5,0.2-12.7c0.2-7.2,2-13.8,11.1-14.5
			C175.4,112.9,200.7,113.6,222.6,113.9 M133,44.2c48.1,0,73.7,36.7,73.3,36.2c-21.6-0.4-62.4-3.3-77.5,3.4
			c-16.9,7.5-17.2,18.1-17.5,37.2c-0.2,11.6,0,23.9,0.1,31.1c0.2,25.7,0,59.3-0.1,74.4c0.5,0.1,1.1,0.3,1.6,0.4
			c-41.4-9.2-72.3-46.1-72.3-90.2C40.6,85.5,82,44.2,133,44.2z"/>
	</g>
	<g>
		<g>
			<path class="st1" d="M301.9,87.8h-30.3v13.6h27.9v13.8h-27.9v31.1h-18.1V74h48.4V87.8z"/>
			<path class="st1" d="M359.5,146.3h-48.3V74h18.2v58.5h30.1V146.3z"/>
			<path class="st1" d="M397.4,147.8c-9.7,0-17.2-2.3-22.4-7c-5.2-4.7-7.8-11.6-7.8-20.6V74h18.2v45.1c0,5,0.9,8.8,2.8,11.2
				c1.9,2.5,5,3.7,9.3,3.7c4.2,0,7.2-1.2,9.2-3.5c2-2.4,2.9-6.1,2.9-11.4V74h18.2v46.1c0,8.9-2.5,15.7-7.6,20.5
				C414.9,145.4,407.4,147.8,397.4,147.8z"/>
			<path class="st1" d="M502.8,146.3h-21.1l-13.9-23.1l-14.2,23.1h-20.1l23.5-36.4L434.5,74h21l13,21.8L481.9,74H502l-22.7,35.2
				L502.8,146.3z"/>
		</g>
		<g>
			<g>
				<path class="st2" d="M266.3,160.9v3.3h-4.5v25.9h-3.9v-25.9h-4.5v-3.3H266.3z"/>
			</g>
			<g>
				<path class="st2" d="M285.4,183.4c-0.1,4.8-2,7-6,7c-4.2,0-6.3-3.3-6.3-9.9c0-7.2,2.2-10.8,6.5-10.8c1.6,0,2.9,0.5,4,1.6
					c1.5,1.6,2,3.5,2,7.9v1.5h-8.5c0,5.1,0.6,6.6,2.6,6.6c1.6,0,2.2-1,2.2-4H285.4z M281.8,177.9c0-4.1-0.6-5.6-2.2-5.6
					c-1.8,0-2.4,1.4-2.4,5.6H281.8z"/>
			</g>
			<g>
				<path class="st2" d="M306.3,189.6c-1.5,0.7-2.3,0.9-3.4,0.9c-4.1,0-5.9-3.2-5.9-10.5c0-4.3,0.7-6.9,2.3-8.5
					c1-1.1,2.4-1.7,3.8-1.7c0.8,0,1.7,0.2,3.2,0.7v3.2c-1-0.5-1.5-0.6-2.1-0.6c-2.2,0-3.1,2.3-3.1,7.3c0,4.6,0.9,6.8,3,6.8
					c0.7,0,1.2-0.2,2.3-0.7V189.6z"/>
			</g>
			<g>
				<path class="st2" d="M320.9,159.9v11.8c1.4-1.4,2.7-2,4.1-2c2.8,0,4.3,1.6,4.3,4.6v15.7h-3.7v-14.6c0-1.9-0.8-2.9-2.3-2.9
					c-1.6,0-2.4,1-2.4,3.2v14.2h-3.8v-30.2H320.9z"/>
			</g>
			<g>
				<path class="st2" d="M344.9,172L344.9,172c1-1.4,2.5-2.2,4-2.2c2.9,0,4.4,1.6,4.4,4.7v15.7h-3.7v-14.6c0-1.9-0.8-3-2.3-3
					c-1.5,0-2.4,1.1-2.4,3v14.6h-3.8v-20.1h3.8V172z"/>
			</g>
			<g>
				<path class="st2" d="M375.3,171.3c1.7,1.7,2.4,4.1,2.4,9.1c0,3.6-0.4,5.9-1.5,7.5c-1,1.6-2.8,2.5-4.8,2.5
					c-4.4,0-6.5-3.2-6.5-10.2c0-5.3,0.8-7.8,2.9-9.4c0.9-0.7,2.3-1.1,3.5-1.1h0.1C373.1,169.8,374.3,170.3,375.3,171.3z
					 M368.9,178.6c0,4,0.2,6.5,0.6,7.4s1,1.4,1.9,1.4c1.8,0,2.3-1.5,2.3-6.1c0-6.8-0.5-8.5-2.4-8.5
					C369.5,172.9,368.9,174.3,368.9,178.6z"/>
			</g>
			<g>
				<path class="st2" d="M393.2,159.9v30.3h-3.8v-30.3H393.2z"/>
			</g>
			<g>
				<path class="st2" d="M415.1,171.3c1.7,1.7,2.4,4.1,2.4,9.1c0,3.6-0.4,5.9-1.5,7.5c-1,1.6-2.8,2.5-4.8,2.5
					c-4.4,0-6.5-3.2-6.5-10.2c0-5.3,0.8-7.8,2.9-9.4c0.9-0.7,2.3-1.1,3.5-1.1h0.1C412.9,169.8,414.1,170.3,415.1,171.3z
					 M408.7,178.6c0,4,0.2,6.5,0.6,7.4s1,1.4,1.9,1.4c1.8,0,2.3-1.5,2.3-6.1c0-6.8-0.5-8.5-2.4-8.5
					C409.3,172.9,408.7,174.3,408.7,178.6z"/>
			</g>
			<g>
				<path class="st2" d="M436.7,187.5L436.7,187.5c-0.8,1.9-2.2,3-4,3c-1.6,0-2.8-0.8-3.6-2.4c-0.8-1.5-1-3.9-1-8.3
					c0-5,0.4-7.3,1.6-8.6c0.8-0.9,1.7-1.3,3-1.3c1.8,0,2.6,0.5,3.9,2.3h0.1v-2h3.7v22.6c0,4.1-1.8,6-6.1,6c-3.2,0-5-0.8-5.7-2.6
					c-0.4-0.9-0.5-1.6-0.5-3.4h3.6c0.1,2.3,0.9,3.3,2.5,3.3c1.6,0,2.4-0.9,2.4-2.4V187.5z M432.1,179c0,6.3,0.5,7.9,2.4,7.9
					c1.7,0,2.3-1.6,2.3-6.3c0-6.4-0.4-7.9-2.3-7.9C432.8,172.8,432.1,174.6,432.1,179z"/>
			</g>
			<g>
				<path class="st2" d="M456.5,164c0,1.1-0.9,2.1-2.1,2.1c-1.2,0-2.1-0.9-2.1-2.1s0.9-2.1,2.1-2.1S456.5,162.9,456.5,164z
					 M456.2,170.1v20.1h-3.7v-20.1H456.2z"/>
			</g>
			<g>
				<path class="st2" d="M480.2,183.4c-0.1,4.8-2,7-6,7c-4.2,0-6.3-3.3-6.3-9.9c0-7.2,2.2-10.8,6.5-10.8c1.6,0,2.9,0.5,4,1.6
					c1.5,1.6,2,3.5,2,7.9v1.5H472c0,5.1,0.6,6.6,2.6,6.6c1.6,0,2.2-1,2.2-4H480.2z M476.6,177.9c0-4.1-0.6-5.6-2.2-5.6
					c-1.8,0-2.4,1.4-2.4,5.6H476.6z"/>
			</g>
			<g>
				<path class="st2" d="M493.8,186.5c1.8,0.7,2.4,0.8,3.5,0.8c1.5,0,2.3-0.8,2.3-2.2c0-1.2-0.7-2.1-3.2-4.3
					c-0.3-0.2-0.5-0.4-0.8-0.7c-1.7-1.7-2.4-3-2.4-4.9c0-3.1,2.3-5.5,5.5-5.5c0.9,0,2.1,0.2,3.6,0.8v3.1l-0.2-0.1
					c-1.2-0.4-2-0.6-2.7-0.6c-1.6,0-2.6,0.8-2.6,2.2c0,1.1,0.7,2,2.7,3.7c0.8,0.7,1,0.9,1.6,1.5c1.6,1.6,2.2,3,2.2,4.7
					c0,3.2-2.4,5.5-5.7,5.5c-1.3,0-2-0.2-3.8-0.8V186.5z"/>
			</g>
		</g>
	</g>
</g>
</svg>
