<?xml version="1.0" encoding="utf-8"?>
<!-- Generator: Adobe Illustrator 23.0.3, SVG Export Plug-In . SVG Version: 6.00 Build 0)  -->
<svg version="1.1" id="Layer_1" xmlns="http://www.w3.org/2000/svg" xmlns:xlink="http://www.w3.org/1999/xlink" x="0px" y="0px"
	 viewBox="0 0 400 102.2" style="enable-background:new 0 0 400 102.2;" xml:space="preserve">
<style type="text/css">
	.st0{fill-rule:evenodd;clip-rule:evenodd;fill:#00A8BC;}
	.st1{display:none;fill-rule:evenodd;clip-rule:evenodd;fill:#00A8BC;}
	.st2{display:none;}
	.st3{display:inline;fill-rule:evenodd;clip-rule:evenodd;fill:#FFFFFF;}
	.st4{display:inline;fill:#FFFFFF;}
	.st5{fill-rule:evenodd;clip-rule:evenodd;fill:#FEFEFE;}
	.st6{fill-rule:evenodd;clip-rule:evenodd;fill:#76C04E;}
	.st7{fill:none;stroke:#FEFEFE;stroke-width:0.9998;stroke-miterlimit:2.6131;}
	.st8{fill:#FFFFFF;}
	.st9{fill:#EE464A;}
	.st10{fill:#FAB844;}
	.st11{fill:#2E855F;}
	.st12{fill:#3D83BE;}
	.st13{fill-rule:evenodd;clip-rule:evenodd;fill:#F7981D;}
	.st14{fill:#6D6E70;}
	.st15{fill-rule:evenodd;clip-rule:evenodd;fill:#7784B4;}
	.st16{fill-rule:evenodd;clip-rule:evenodd;fill:#F3C131;}
	.st17{fill-rule:evenodd;clip-rule:evenodd;fill:#85CADD;}
	.st18{fill-rule:evenodd;clip-rule:evenodd;fill:#E7792B;}
	.st19{fill-rule:evenodd;clip-rule:evenodd;fill:#FFFFFE;}
	.st20{fill-rule:evenodd;clip-rule:evenodd;fill:#7EBC59;}
	.st21{fill-rule:evenodd;clip-rule:evenodd;fill:#E590A7;}
	.st22{opacity:0.47;fill:#5690FF;enable-background:new    ;}
	.st23{fill:url(#SVGID_1_);}
	.st24{fill:#D4DAE8;}
</style>
<rect x="-541.9" y="310.4" class="st0" width="11.3" height="36.4"/>
<polygon class="st0" points="-485.1,310.4 -523.2,310.4 -523.2,319.9 -509.8,319.9 -509.8,346.8 -498.6,346.8 -498.6,319.9 
	-485.1,319.9 "/>
<rect x="-423.4" y="310.4" class="st0" width="11.3" height="36.4"/>
<path class="st0" d="M-371.7,310.4v20.8l-22.3-18.8c-4.5-4.1-10.7-1.6-10.7,4.8v29.6h10.2v-21.4l22.3,19.4
	c4.4,4.2,10.7,1.5,10.7-4.9v-29.5H-371.7z"/>
<path class="st0" d="M-623.9,321.6c-1.1-2.3-2.6-4.2-4.6-5.9c-1.9-1.7-4.2-2.9-6.9-3.9c-2.7-0.9-5.6-1.4-8.8-1.4h-24.9v27.7v8.6
	h24.9c3.2,0,6.1-0.4,8.8-1.3c2.7-0.8,5-2.1,6.9-3.6s3.5-3.5,4.6-5.7c1.1-2.2,1.7-4.6,1.7-7.3C-622.2,326.3-622.8,323.8-623.9,321.6
	L-623.9,321.6z M-634.2,332c-0.5,1.1-1.3,2-2.3,2.8c-1,0.8-2.1,1.4-3.4,1.8c-1.3,0.4-2.7,0.7-4.2,0.7h-13.8v-17.6h13.8
	c1.6,0,3,0.2,4.3,0.6c1.3,0.4,2.4,1,3.4,1.8c1,0.8,1.7,1.7,2.2,2.7c0.5,1.1,0.8,2.3,0.8,3.6C-633.4,329.8-633.7,331-634.2,332z"/>
<path class="st0" d="M-467.3,314.5l-23.3,32.3h13.3l17.1-24.1l6,8.6h-7.1l-6.6,9.3h20.2l4.3,6.2h13.4l-22.7-32.3
	C-456.7,308.9-463.4,309.1-467.3,314.5z"/>
<path class="st0" d="M-560.5,327.3v10.1h-13.8c-1.6,0-3-0.2-4.3-0.6c-1.3-0.4-2.4-1-3.4-1.8c-1-0.8-1.7-1.7-2.2-2.7
	c-0.5-1.1-0.8-2.3-0.8-3.6s0.3-2.5,0.8-3.6c0.5-1.1,1.3-2,2.3-2.8c1-0.8,2.1-1.4,3.4-1.8c1.3-0.4,2.7-0.7,4.2-0.7h11.4v0h13.5v-9.5
	h-24.9c-3.2,0-6.1,0.4-8.8,1.3c-2.7,0.8-5,2.1-6.9,3.6c-1.9,1.6-3.5,3.5-4.6,5.7c-1.1,2.2-1.7,4.6-1.7,7.3c0,2.6,0.6,5.1,1.7,7.4
	s2.6,4.2,4.6,5.9c1.9,1.7,4.2,2.9,6.9,3.9c2.7,0.9,5.6,1.4,8.8,1.4h24.9v-19.5H-560.5z"/>
<rect x="-614.8" y="310.4" class="st0" width="11.3" height="36.4"/>
<path class="st0" d="M-711.5,301.5c1.7,1.9,3.4,3.8,4.8,5.9c0.8,1.2,1.1,2.3,2.6,2.7c1.1,0.3,6.6,0.6,7.4-0.8c1-1.8-4.2-5.9-5.2-6.7
	c-1.3-1.1-2.8-2.5-4.4-3c-0.9-0.3-2.4-0.5-3.3-0.4c-1.2,0.2-0.6,0.3-0.9,0.5c-0.6,0.5-1.8-0.1-1.7,0.7
	C-712.1,300.9-711.8,301.1-711.5,301.5L-711.5,301.5z M-727.8,361.5c-1.7-1.2-3.2-2.4-5.2-2.8c-0.8-0.2-2.4,0.2-2.8-0.9
	c-0.4-1.3,1.9-1.1,2.8-1.2c1.6-0.2,2.2,0.1,1.7-1.6c-0.3-1.1-1.8-2.4-2.9-2.6c-1.4-0.3-2.9,0.4-4.4,0.1c-1.9-0.4-3.3-1.5-4.9-2.5
	c-1.3-0.8-4.3-2.1-3.6,0.6c0.3,1.1,1.8,2.3,2.5,3C-740.1,357.9-733.8,360.2-727.8,361.5L-727.8,361.5z M-752,343.5
	c-2-3.9-3.2-8.1-3.6-12.5c0.3,0.9,1,4.4,2.1,4.6c1.6,0.2,3.3-5.2,4.2-6.4c4.2-5.9,11.1-1.5,14.2,3.2c2.7,4.1,3.8,13.7-1.8,16.4
	c-2.7,1.3-6.3-0.6-8.5-2.1C-747.2,345.5-749.6,342.9-752,343.5L-752,343.5z M-755,328.5c0.8,3,1.8,1.6,2.7-0.3
	c0.6-1.3,0.9-2.8,1.6-4c0.8-1.2,1.8-1.5,3-2.2c2.2-1.3,4.3-4.7,0.1-5c-1.2-0.1-6.4,3-6.5,1.6C-755.3,321.8-755.8,325.2-755,328.5
	L-755,328.5z M-753.2,316c3.2-1.2,3.9-2.9,5.3-5.9c0.7-1.5,4.2-5.4,3.8-6.7C-747.9,306.8-751.4,311.2-753.2,316L-753.2,316z
	 M-736.9,300.1c-2.3,0.2-0.8-1.3,0.1-1.7c2.5-1.3,5.7-1.9,8.3-2.5c3.8-0.9,7.7-0.8,11.6-0.1c1,0.2,6.2,0.9,6.6,2.1
	c0.2,0.6-5.4,0.7-5.7,0.7c-2.4,0-4.7,0.2-7.1,0.6C-727.8,300.1-732.2,300.2-736.9,300.1L-736.9,300.1z M-740.1,314.6
	c-7.9,2.9-6.1-6.1-3-9.8c3.1-3.8,7.7-2.8,12.2-2.2c4.2,0.6,7.8-0.6,11.9-1.1c4.3-0.5,6.2,2.2,8,5.7c0.4,0.8,1.7,2.6,1.5,3.6
	c-0.4,1.3-3.4,1.5-4.4,1.8c-4.2,1-8.6,1.8-12.9,1.6C-731.5,314-735.7,312.8-740.1,314.6L-740.1,314.6z M-722.6,361.7
	c-1.2-0.2-7-1.1-7-2.8c0-1.8,7.3,0.6,8.4,0.8c4,0.8,8-0.5,11.8-1.7c2.7-0.9,3.7-1.4,6-2.8c0.8-0.5,1.5-0.8,1.8-0.7
	c0.1,0-0.5,0.5-1.3,1.1c-2.8,2.1-5.7,3.5-9,4.7C-715.4,361.5-719,362.4-722.6,361.7L-722.6,361.7z M-728.2,354.7
	c-2.1-2.8-3.3-9.6,2-9.8c3.4-0.2,6.5,2.4,8.2,5.1c1.1,1.8,1.7,4,3.2,5.6c1.2,1.3,3.2,1.4,1,2.4
	C-717.8,359.9-725.5,358.3-728.2,354.7L-728.2,354.7z M-692.4,329.2c-1,2.6-2.7,3.7-4.7,5.4c-1.6,1.4-1.4,3.7-1.6,5.7
	c-0.6,4.6-2,8.9-4.1,13.1c0.4,1.6,4.6-2.2,5-2.7c1.5-1.9,3.1-3.8,4.4-5.9c1.9-3.3,3.2-7,3.7-10.8c0.1-0.8,0.9-10.8-0.4-10.9
	C-691,322.9-692.2,328.7-692.4,329.2L-692.4,329.2z M-730.3,336.5c-3.8-8.3,11.6-4.4,15.3-2.5c1.4,0.7,2.8,1.6,4.2,2.2
	c2.3,1,3.8,0.2,6.2,0.4c3.6,0.3,1.8,6.9,1.4,9.3c-0.5,3.1-1.2,9.7-5.3,9.7c-4.3-0.1-4.6-4.4-5.9-7.4
	C-717.3,341.9-727.6,342.4-730.3,336.5L-730.3,336.5z M-737.6,318.3c-5.1,1.4-0.6,5.8,2,7.4c2.6,1.6,5.9,1.6,8.9,1.3
	c3.8-0.4,6.5-1.1,10.2,0.8c3.2,1.6,5.9,3.8,9.6,4c5.2,0.2,11.7-1.6,13.6-6.8c0.5-1.3,0.6-2.6,1-3.9c0.2-0.9,1.1-1.6,1.3-2.5
	c0.1-0.5-2.5-7.1-3.5-6.7c0.1,0,0,1.3-0.3,1.6c-0.4,0.4-2.6,0.6-3.1,0.7c-1.6,0.1-3.1,0-4.8,0.3c-4,0.7-8,1.8-12,2.6
	c-3.5,0.7-7.3,2-10.9,1.8C-728.7,318.6-734,317.2-737.6,318.3z"/>
<rect x="-31.6" y="217.4" class="st1" width="841.9" height="297.6"/>
<g class="st2">
	<rect x="410.8" y="342.9" class="st3" width="14.5" height="46.7"/>
	<polygon class="st3" points="483.6,342.9 434.7,342.9 434.7,355 452,355 452,389.6 466.4,389.6 466.4,355 483.6,355 	"/>
	<rect x="563" y="342.9" class="st3" width="14.5" height="46.7"/>
	<path class="st3" d="M629.3,342.9v26.7l-28.6-24.2c-5.8-5.3-13.7-2-13.7,6.2v38h13.1v-27.4l28.6,24.9c5.6,5.4,13.8,2,13.8-6.3
		v-37.9L629.3,342.9L629.3,342.9z"/>
	<path class="st3" d="M305.5,357.2c-1.4-2.9-3.4-5.4-5.9-7.5s-5.5-3.8-8.9-5c-3.4-1.2-7.2-1.8-11.2-1.8h-32v35.6v11.1h32
		c4,0,7.8-0.5,11.2-1.6c3.4-1.1,6.4-2.6,8.9-4.7c2.5-2,4.4-4.4,5.9-7.3c1.4-2.8,2.1-5.9,2.1-9.3
		C307.6,363.3,306.9,360.1,305.5,357.2L305.5,357.2z M292.2,370.6c-0.7,1.4-1.7,2.6-2.9,3.6c-1.2,1-2.7,1.8-4.4,2.4
		c-1.7,0.6-3.5,0.8-5.4,0.8h-17.7v-22.5h17.7c2,0,3.8,0.3,5.5,0.8s3.1,1.3,4.4,2.3c1.2,1,2.2,2.1,2.9,3.5c0.7,1.4,1,2.9,1,4.6
		C293.2,367.7,292.9,369.2,292.2,370.6z"/>
	<path class="st3" d="M506.5,348.1l-29.9,41.5h17.1l21.9-31l7.7,11.1h-9.2l-8.5,12h26l5.5,7.9h17.2l-29.2-41.5
		C520.1,340.9,511.5,341.1,506.5,348.1z"/>
	<path class="st3" d="M386.9,364.5v13h-17.7c-2,0-3.8-0.3-5.5-0.8s-3.1-1.3-4.4-2.3c-1.2-1-2.2-2.1-2.9-3.5c-0.7-1.4-1-2.9-1-4.6
		s0.4-3.2,1-4.6c0.7-1.4,1.7-2.6,2.9-3.6c1.2-1,2.7-1.8,4.4-2.4c1.7-0.6,3.5-0.8,5.4-0.8h14.7v0h17.4v-12.1h-32
		c-4,0-7.8,0.5-11.2,1.6c-3.4,1.1-6.4,2.6-8.9,4.7c-2.5,2-4.4,4.4-5.9,7.3c-1.4,2.8-2.1,5.9-2.1,9.3s0.7,6.5,2.1,9.5
		s3.4,5.4,5.9,7.5s5.5,3.8,8.9,5c3.4,1.2,7.2,1.8,11.2,1.8h32v-25L386.9,364.5L386.9,364.5z"/>
	<rect x="317.1" y="342.9" class="st3" width="14.5" height="46.7"/>
	<path class="st3" d="M193,331.4c2.1,2.5,4.4,4.9,6.2,7.6c1,1.5,1.5,2.9,3.4,3.5c1.5,0.4,8.5,0.7,9.5-1c1.3-2.4-5.4-7.5-6.7-8.6
		c-1.7-1.5-3.6-3.2-5.7-3.9c-1.2-0.4-3-0.7-4.3-0.5c-1.5,0.3-0.8,0.3-1.2,0.6c-0.7,0.6-2.3-0.2-2.1,0.9
		C192.2,330.6,192.6,330.9,193,331.4L193,331.4z M172,408.4c-2.2-1.5-4.1-3-6.7-3.6c-1-0.2-3.1,0.2-3.6-1.2
		c-0.6-1.7,2.4-1.4,3.6-1.5c2-0.3,2.9,0.1,2.1-2.1c-0.4-1.4-2.3-3.1-3.7-3.4c-1.8-0.4-3.7,0.5-5.7,0.1c-2.4-0.5-4.3-2-6.3-3.3
		c-1.7-1-5.5-2.7-4.6,0.8c0.4,1.4,2.3,3,3.2,3.9C156.2,403.8,164.3,406.7,172,408.4L172,408.4z M140.9,385.4
		c-2.6-5.1-4.1-10.4-4.7-16.1c0.3,1.2,1.3,5.7,2.7,5.9c2,0.3,4.3-6.7,5.3-8.2c5.4-7.6,14.2-1.9,18.2,4.1c3.5,5.3,4.9,17.6-2.3,21
		c-3.4,1.6-8.1-0.8-10.9-2.7C147.1,387.9,144,384.6,140.9,385.4L140.9,385.4z M137.1,366.1c1,3.9,2.3,2.1,3.4-0.4
		c0.7-1.6,1.1-3.6,2.1-5.1c1-1.6,2.3-2,3.9-2.9c2.9-1.6,5.6-6.1,0.1-6.4c-1.6-0.1-8.2,3.9-8.3,2C136.7,357.4,136,361.8,137.1,366.1
		L137.1,366.1z M139.4,350c4.1-1.6,5.1-3.8,6.8-7.5c0.9-1.9,5.4-7,4.9-8.6C146.2,338.3,141.8,343.9,139.4,350L139.4,350z
		 M160.3,329.6c-3,0.3-1-1.6,0.2-2.2c3.2-1.6,7.3-2.4,10.7-3.2c4.9-1.1,9.9-1.1,14.9-0.1c1.2,0.2,7.9,1.2,8.5,2.7
		c0.3,0.8-6.9,0.9-7.4,0.9c-3.1,0-6,0.3-9.1,0.8C172,329.7,166.4,329.7,160.3,329.6L160.3,329.6z M156.2,348.2
		c-10.1,3.8-7.8-7.8-3.9-12.6c4-4.9,9.9-3.6,15.6-2.9c5.3,0.7,10-0.8,15.3-1.4c5.5-0.6,8,2.8,10.3,7.3c0.5,1,2.2,3.4,1.9,4.6
		c-0.5,1.6-4.4,2-5.6,2.3c-5.4,1.2-11.1,2.3-16.6,2.1C167.3,347.4,161.8,345.9,156.2,348.2L156.2,348.2z M178.7,408.7
		c-1.5-0.3-9-1.4-9-3.6c0-2.4,9.4,0.8,10.8,1c5.1,1,10.3-0.6,15.1-2.2c3.5-1.1,4.7-1.8,7.7-3.6c1-0.6,1.9-1,2.3-0.9
		c0.1,0-0.7,0.7-1.6,1.4c-3.6,2.7-7.4,4.5-11.6,6C188,408.4,183.3,409.6,178.7,408.7L178.7,408.7z M171.5,399.7
		c-2.7-3.6-4.2-12.3,2.6-12.6c4.4-0.2,8.4,3,10.5,6.6c1.4,2.4,2.2,5.2,4.1,7.2c1.6,1.7,4.1,1.8,1.3,3.1
		C184.9,406.4,174.9,404.3,171.5,399.7L171.5,399.7z M217.5,367c-1.3,3.4-3.5,4.8-6,6.9c-2.1,1.8-1.8,4.7-2.1,7.3
		c-0.8,5.9-2.5,11.5-5.2,16.8c0.5,2,5.9-2.8,6.4-3.5c2-2.4,4-4.9,5.6-7.6c2.4-4.2,4.2-9,4.7-13.9c0.1-1.1,1.2-13.8-0.5-14
		C219.2,358.9,217.7,366.3,217.5,367L217.5,367z M168.8,376.3c-4.9-10.6,14.9-5.6,19.6-3.1c1.8,0.9,3.6,2.1,5.4,2.9
		c2.9,1.3,4.9,0.2,7.9,0.5c4.7,0.4,2.3,8.8,1.8,12c-0.6,4-1.5,12.5-6.8,12.4c-5.5-0.1-5.9-5.7-7.6-9.5
		C185.5,383.3,172.2,383.9,168.8,376.3L168.8,376.3z M159.4,352.9c-6.5,1.8-0.7,7.5,2.6,9.5c3.3,2,7.6,2,11.4,1.7
		c4.9-0.5,8.3-1.4,13,1c4.1,2.1,7.6,4.9,12.4,5.1c6.7,0.3,15-2,17.4-8.8c0.6-1.7,0.8-3.4,1.3-5c0.3-1.2,1.4-2.1,1.7-3.2
		c0.2-0.7-3.2-9.1-4.5-8.6c0.1,0,0,1.6-0.4,2c-0.5,0.5-3.3,0.8-4,0.9c-2.1,0.1-4,0-6.2,0.4c-5.2,0.9-10.3,2.3-15.4,3.3
		c-4.5,1-9.4,2.5-14,2.3C170.8,353.3,164,351.6,159.4,352.9z"/>
</g>
<g class="st2">
	<path class="st4" d="M358.9,411.2h3.3v18h-3.3V411.2z"/>
	<path class="st4" d="M371.9,409c0.7,0,1.4,0.1,1.9,0.2s1,0.3,1.3,0.4l-0.6,2.6c-0.3-0.1-0.6-0.3-1-0.3s-0.8-0.1-1.3-0.1
		c-0.5,0-0.9,0.1-1.3,0.2c-0.4,0.1-0.6,0.4-0.8,0.6s-0.4,0.6-0.4,1c-0.1,0.4-0.1,0.8-0.1,1.2v0.9h4.9v2.6h-4.9v11h-3.1v-14.6
		c0-1.8,0.5-3.1,1.4-4.1C368.6,409.5,370,409,371.9,409z"/>
	<path class="st4" d="M386.3,411.6c0,0.6-0.2,1.1-0.6,1.4s-0.8,0.5-1.4,0.5c-0.5,0-1-0.2-1.4-0.5c-0.4-0.4-0.6-0.8-0.6-1.4
		c0-0.6,0.2-1.1,0.6-1.4s0.8-0.5,1.4-0.5c0.5,0,1,0.2,1.4,0.5S386.3,411,386.3,411.6z M386,429.2h-3.1v-13.6h3.1V429.2z"/>
	<path class="st4" d="M389.8,412l3.1-0.5v4.1h4.8v2.6H393v5.5c0,1.1,0.2,1.9,0.5,2.3c0.4,0.5,0.9,0.7,1.8,0.7c0.6,0,1.1-0.1,1.5-0.2
		s0.8-0.2,1-0.3l0.5,2.5c-0.4,0.2-0.8,0.3-1.4,0.5c-0.6,0.2-1.3,0.3-2.1,0.3c-1,0-1.8-0.1-2.4-0.4s-1.2-0.6-1.5-1.1
		c-0.4-0.5-0.6-1.1-0.8-1.8s-0.2-1.5-0.2-2.4L389.8,412L389.8,412z"/>
	<path class="st4" d="M403.9,409.5c0,0.2,0,0.4,0,0.6c0,0.2,0,0.4,0,0.5c0,1-0.2,2-0.6,3s-0.8,1.8-1.4,2.6l-2.3-0.6
		c0.4-0.8,0.6-1.6,0.8-2.4s0.3-1.7,0.3-2.4c0-0.1,0-0.3,0-0.6s0-0.5-0.1-0.7L403.9,409.5L403.9,409.5z"/>
	<path class="st4" d="M410.8,426.9c0.8,0,1.4-0.1,1.8-0.3c0.4-0.2,0.6-0.5,0.6-1c0-0.5-0.2-0.8-0.6-1.1c-0.4-0.3-1.1-0.6-2-1
		c-0.6-0.2-1.1-0.4-1.6-0.7c-0.5-0.2-0.9-0.5-1.2-0.8c-0.4-0.3-0.6-0.7-0.8-1.1s-0.3-1-0.3-1.6c0-1.3,0.5-2.2,1.4-3s2.2-1.1,3.7-1.1
		c0.8,0,1.6,0.1,2.3,0.2s1.3,0.3,1.6,0.4l-0.6,2.5c-0.4-0.2-0.8-0.3-1.3-0.4c-0.5-0.1-1.2-0.2-1.9-0.2c-0.6,0-1.2,0.1-1.6,0.3
		s-0.6,0.5-0.6,1c0,0.2,0,0.4,0.1,0.6c0.1,0.2,0.2,0.3,0.4,0.5s0.4,0.3,0.8,0.4s0.7,0.3,1.1,0.5c0.8,0.3,1.4,0.5,1.9,0.8
		c0.5,0.3,1,0.6,1.3,0.9s0.6,0.7,0.7,1.2c0.2,0.4,0.2,1,0.2,1.6c0,1.3-0.5,2.3-1.4,3s-2.3,1-4.1,1c-1.2,0-2.2-0.1-2.9-0.3
		c-0.7-0.2-1.2-0.4-1.5-0.5l0.5-2.6c0.5,0.2,1,0.4,1.7,0.5C409.2,426.8,410,426.9,410.8,426.9z"/>
	<path class="st4" d="M428.9,411.6c0,0.6-0.2,1.1-0.6,1.4c-0.4,0.4-0.8,0.5-1.4,0.5c-0.5,0-1-0.2-1.4-0.5c-0.4-0.4-0.6-0.8-0.6-1.4
		c0-0.6,0.2-1.1,0.6-1.4s0.8-0.5,1.4-0.5c0.5,0,1,0.2,1.4,0.5C428.7,410.5,428.9,411,428.9,411.6z M428.5,429.2h-3.1v-13.6h3.1
		V429.2z"/>
	<path class="st4" d="M441.1,413.6c-1.9,0-3.3,0.6-4.3,1.7c-1,1.1-1.5,2.8-1.5,4.8c0,1,0.1,1.9,0.4,2.7c0.2,0.8,0.6,1.5,1,2.1
		s1,1,1.7,1.3c0.7,0.3,1.5,0.5,2.4,0.5c0.6,0,1.1,0,1.5-0.1s0.7-0.1,1-0.2V420h3.3v8.7c-0.5,0.2-1.2,0.4-2.3,0.6
		c-1.1,0.2-2.3,0.3-3.7,0.3c-1.3,0-2.5-0.2-3.6-0.6c-1.1-0.4-2-1-2.7-1.8c-0.8-0.8-1.3-1.8-1.8-2.9c-0.4-1.2-0.6-2.5-0.6-4
		s0.2-2.8,0.7-4s1.1-2.1,1.9-3c0.8-0.8,1.7-1.4,2.8-1.8c1.1-0.4,2.2-0.6,3.4-0.6c0.8,0,1.6,0.1,2.2,0.2c0.6,0.1,1.2,0.2,1.7,0.4
		s0.9,0.3,1.2,0.4s0.5,0.3,0.6,0.3l-1,2.7c-0.5-0.3-1.2-0.6-1.9-0.8C442.8,413.8,441.9,413.6,441.1,413.6z"/>
	<path class="st4" d="M462.4,429.2c-0.2-0.7-0.5-1.4-0.8-2.1c-0.3-0.7-0.5-1.4-0.8-2.1h-7.6c-0.2,0.7-0.5,1.4-0.7,2.1
		c-0.3,0.7-0.5,1.4-0.7,2.1h-3.4c0.7-1.9,1.3-3.7,1.9-5.3c0.6-1.6,1.2-3.2,1.8-4.6s1.2-2.8,1.7-4.2s1.2-2.6,1.8-3.9h3.1
		c0.6,1.3,1.2,2.6,1.8,3.9c0.6,1.3,1.1,2.7,1.7,4.2s1.2,3,1.8,4.6c0.6,1.6,1.3,3.4,1.9,5.3H462.4z M457.1,414.7
		c-0.4,0.9-0.9,2-1.4,3.4c-0.5,1.3-1,2.8-1.6,4.3h5.9c-0.5-1.5-1.1-3-1.6-4.3C457.9,416.7,457.5,415.5,457.1,414.7z"/>
	<path class="st4" d="M472.2,411.2c0.4,0.7,0.8,1.5,1.3,2.4c0.5,1,0.9,2,1.4,3c0.5,1,1,2.1,1.4,3.2c0.5,1.1,0.9,2.1,1.3,3
		c0.4-0.9,0.8-1.9,1.3-3s0.9-2.1,1.4-3.2c0.5-1,1-2,1.4-3s0.9-1.8,1.3-2.4h3c0.2,1.3,0.3,2.7,0.5,4.2s0.3,3,0.4,4.5s0.2,3.1,0.3,4.7
		c0.1,1.6,0.2,3.1,0.3,4.6h-3.2c-0.1-2.1-0.2-4.3-0.3-6.5c-0.1-2.2-0.2-4.4-0.4-6.5c-0.2,0.4-0.4,0.9-0.7,1.4s-0.5,1.2-0.8,1.8
		c-0.3,0.6-0.6,1.3-0.9,2c-0.3,0.7-0.6,1.4-0.9,2c-0.3,0.6-0.5,1.3-0.8,1.8c-0.2,0.6-0.5,1-0.6,1.4h-2.4c-0.2-0.4-0.4-0.9-0.6-1.5
		c-0.2-0.6-0.5-1.2-0.8-1.8c-0.3-0.6-0.6-1.3-0.9-2c-0.3-0.7-0.6-1.4-0.9-2c-0.3-0.6-0.6-1.2-0.8-1.8s-0.5-1-0.7-1.4
		c-0.2,2.1-0.3,4.2-0.4,6.5s-0.2,4.4-0.3,6.5h-3.2c0.1-1.5,0.1-3,0.3-4.6c0.1-1.6,0.2-3.2,0.3-4.8c0.1-1.6,0.2-3.1,0.4-4.6
		s0.3-2.8,0.5-4.1H472.2z"/>
	<path class="st4" d="M491.2,411.2h3.3v18h-3.3V411.2z"/>
	<path class="st4" d="M510.9,429.2c-0.6-1-1.3-2-2-3.2c-0.7-1.1-1.5-2.3-2.3-3.4s-1.6-2.3-2.4-3.4c-0.8-1.1-1.6-2.1-2.3-2.9v12.9
		h-3.2v-18h2.7c0.7,0.7,1.4,1.6,2.2,2.6s1.6,2,2.4,3.1c0.8,1.1,1.6,2.1,2.3,3.2s1.4,2.1,2,3v-12h3.3v18L510.9,429.2L510.9,429.2z"/>
	<path class="st4" d="M526.5,413.6c-1.8,0-3.3,0.6-4.3,1.7c-1,1.1-1.5,2.8-1.5,4.8c0,1,0.1,1.9,0.3,2.7c0.2,0.8,0.6,1.5,1,2.1
		s1,1,1.7,1.3c0.7,0.3,1.5,0.5,2.4,0.5c0.6,0,1.1,0,1.5-0.1s0.7-0.1,1-0.2V420h3.3v8.7c-0.5,0.2-1.2,0.4-2.3,0.6
		c-1.1,0.2-2.3,0.3-3.7,0.3c-1.3,0-2.5-0.2-3.6-0.6c-1.1-0.4-2-1-2.7-1.8c-0.8-0.8-1.3-1.8-1.8-2.9c-0.4-1.2-0.6-2.5-0.6-4
		s0.2-2.8,0.7-4s1.1-2.1,1.9-3c0.8-0.8,1.7-1.4,2.8-1.8c1.1-0.4,2.2-0.6,3.4-0.6c0.8,0,1.6,0.1,2.2,0.2c0.7,0.1,1.2,0.2,1.7,0.4
		s0.8,0.3,1.2,0.4s0.5,0.3,0.6,0.3l-1,2.7c-0.5-0.3-1.2-0.6-1.9-0.8C528.1,413.8,527.3,413.6,526.5,413.6z"/>
	<path class="st4" d="M538.9,425.7c0,0.3,0,0.5,0,0.6c0,0.1,0,0.3,0,0.4c0,1.1-0.2,2.2-0.5,3.3c-0.3,1.1-0.8,2.2-1.4,3.3l-2.5-0.7
		c0.4-1,0.7-2,0.8-3s0.2-1.8,0.2-2.5c0-0.2,0-0.5,0-0.8s0-0.5,0-0.7H538.9z"/>
	<path class="st4" d="M556.8,420.6c-0.4,1.5-0.8,3-1.3,4.5c-0.5,1.5-0.9,2.8-1.4,4.1h-2.6c-0.3-0.8-0.7-1.7-1.1-2.7
		c-0.4-1-0.8-2.1-1.2-3.3s-0.8-2.4-1.2-3.7c-0.4-1.3-0.8-2.6-1.1-3.9h3.3c0.2,0.7,0.3,1.5,0.5,2.4s0.4,1.7,0.7,2.6s0.5,1.7,0.7,2.6
		c0.2,0.8,0.5,1.6,0.7,2.3c0.3-0.8,0.5-1.6,0.8-2.5s0.5-1.7,0.7-2.5c0.2-0.9,0.4-1.7,0.6-2.5c0.2-0.8,0.4-1.6,0.5-2.3h2.4
		c0.2,0.7,0.3,1.5,0.5,2.3s0.4,1.6,0.6,2.5s0.5,1.7,0.7,2.5s0.5,1.7,0.8,2.5c0.2-0.7,0.5-1.5,0.7-2.3c0.2-0.8,0.5-1.7,0.7-2.6
		s0.5-1.7,0.7-2.6s0.4-1.6,0.5-2.4h3.3c-0.4,1.3-0.7,2.6-1.1,3.9c-0.4,1.3-0.8,2.5-1.2,3.7s-0.8,2.3-1.2,3.3c-0.4,1-0.8,1.9-1.1,2.7
		h-2.6c-0.5-1.3-0.9-2.6-1.4-4.1C557.6,423.6,557.2,422.2,556.8,420.6z"/>
	<path class="st4" d="M568.2,422.5c0-1.2,0.2-2.2,0.5-3.1c0.3-0.9,0.8-1.6,1.4-2.3c0.6-0.6,1.3-1,2-1.4c0.8-0.3,1.5-0.5,2.3-0.5
		c1.9,0,3.3,0.6,4.4,1.7s1.6,2.9,1.6,5.2c0,0.2,0,0.4,0,0.6s0,0.4,0,0.6h-9c0.1,1.1,0.5,1.9,1.2,2.5c0.7,0.6,1.7,0.9,3,0.9
		c0.8,0,1.5-0.1,2.1-0.2c0.6-0.1,1.1-0.3,1.5-0.4l0.4,2.6c-0.2,0.1-0.4,0.2-0.7,0.3c-0.3,0.1-0.7,0.2-1,0.3
		c-0.4,0.1-0.8,0.1-1.3,0.2c-0.5,0-0.9,0.1-1.4,0.1c-1.2,0-2.2-0.2-3.1-0.5s-1.6-0.9-2.2-1.5s-1-1.4-1.3-2.2
		C568.3,424.4,568.2,423.5,568.2,422.5z M577.3,421.1c0-0.4-0.1-0.8-0.2-1.2s-0.3-0.7-0.5-1c-0.2-0.3-0.5-0.5-0.9-0.7
		c-0.3-0.2-0.7-0.3-1.2-0.3c-0.5,0-0.9,0.1-1.3,0.3c-0.4,0.2-0.7,0.4-0.9,0.7c-0.3,0.3-0.5,0.6-0.6,1c-0.1,0.4-0.2,0.8-0.3,1.2
		L577.3,421.1L577.3,421.1z"/>
	<path class="st4" d="M601.3,428.8c-0.6,0.2-1.4,0.4-2.3,0.5s-1.9,0.2-3,0.2c-1.1,0-2-0.2-2.9-0.5c-0.8-0.3-1.6-0.8-2.2-1.4
		c-0.6-0.6-1.1-1.4-1.4-2.2s-0.5-1.9-0.5-3c0-1.1,0.1-2,0.4-2.9s0.7-1.6,1.2-2.3s1.2-1.1,1.9-1.4s1.6-0.5,2.6-0.5
		c0.7,0,1.2,0.1,1.7,0.2s0.9,0.3,1.3,0.5v-6.5l3.2-0.5L601.3,428.8L601.3,428.8z M592.3,422.4c0,1.4,0.3,2.5,1,3.3s1.6,1.2,2.7,1.2
		c0.5,0,0.9,0,1.3-0.1s0.7-0.1,0.9-0.1v-7.8c-0.3-0.2-0.7-0.4-1.1-0.5c-0.5-0.2-1-0.3-1.5-0.3c-1.1,0-2,0.4-2.5,1.2
		C592.6,420,592.3,421,592.3,422.4z"/>
	<path class="st4" d="M617.6,422.4c0,1.1-0.2,2-0.5,2.9c-0.3,0.9-0.8,1.6-1.3,2.3s-1.3,1.1-2.1,1.5s-1.7,0.5-2.7,0.5
		s-1.9-0.2-2.7-0.5c-0.8-0.4-1.5-0.8-2-1.5c-0.6-0.6-1-1.4-1.3-2.3s-0.5-1.9-0.5-2.9c0-1.1,0.2-2,0.5-2.9c0.3-0.9,0.8-1.6,1.3-2.3
		c0.6-0.6,1.3-1.1,2.1-1.4s1.7-0.5,2.6-0.5c1,0,1.8,0.2,2.6,0.5s1.5,0.8,2.1,1.4s1,1.4,1.3,2.3C617.5,420.3,617.6,421.3,617.6,422.4
		z M614.4,422.4c0-1.4-0.3-2.4-0.9-3.2c-0.6-0.8-1.4-1.2-2.4-1.2s-1.8,0.4-2.4,1.2c-0.6,0.8-0.9,1.9-0.9,3.2c0,1.4,0.3,2.5,0.9,3.3
		s1.4,1.2,2.4,1.2s1.8-0.4,2.4-1.2C614.1,424.8,614.4,423.7,614.4,422.4z"/>
	<path class="st4" d="M630.5,411.6c0,0.6-0.2,1.1-0.6,1.4c-0.4,0.4-0.8,0.5-1.3,0.5c-0.5,0-1-0.2-1.4-0.5c-0.4-0.4-0.6-0.8-0.6-1.4
		c0-0.6,0.2-1.1,0.6-1.4s0.8-0.5,1.4-0.5c0.5,0,1,0.2,1.3,0.5C630.3,410.5,630.5,411,630.5,411.6z M630.1,429.2H627v-13.6h3.2V429.2
		z"/>
	<path class="st4" d="M634,412l3.2-0.5v4.1h4.8v2.6h-4.8v5.5c0,1.1,0.2,1.9,0.5,2.3c0.3,0.5,0.9,0.7,1.8,0.7c0.6,0,1.1-0.1,1.5-0.2
		s0.8-0.2,1-0.3l0.5,2.5c-0.4,0.2-0.8,0.3-1.4,0.5c-0.6,0.2-1.3,0.3-2.1,0.3c-1,0-1.8-0.1-2.4-0.4c-0.7-0.3-1.2-0.6-1.5-1.1
		s-0.7-1.1-0.8-1.8s-0.2-1.5-0.2-2.4L634,412L634,412z"/>
</g>
<path class="st5" d="M756.1-225.1l-12.8,24.4c-0.3,0.6-0.6,1.3-0.6,1.7c0,1.1,1.1,1.8,2.7,1.8c1.3,0,2.2-0.5,2.7-1.5
	c0,0,11.5-23.1,11.9-23.8c0.4,0.8,11.9,23.8,11.9,23.8c0.5,1,1.4,1.5,2.7,1.5c1.6,0,2.7-0.7,2.7-1.8c0-0.4-0.3-1.1-0.6-1.7
	l-12.8-24.5c-0.8-1.6-2.1-2.4-3.9-2.4C758.1-227.4,756.9-226.7,756.1-225.1"/>
<path class="st5" d="M807.6-225.2c0,0,0,19.5,0,20.6c-0.7-0.7-20.3-20.9-20.3-20.9c-1.4-1.5-2.2-2-3.8-2c-1.7,0-2.6,0.8-2.6,2.4
	l0,25.7c0,1.3,1.1,2.2,2.8,2.2c1.7,0,2.8-0.9,2.8-2.2c0,0,0-19.5,0-20.6c0.7,0.7,20.3,20.9,20.3,20.9c1.4,1.5,2.2,2,3.8,2
	c1.7,0,2.6-0.8,2.6-2.4v-25.7c0-1.3-1.1-2.2-2.8-2.2C808.7-227.5,807.6-226.6,807.6-225.2"/>
<path class="st5" d="M842.3-226.2c0,0-14.5,9.5-17.1,11.2c0-1,0-10.2,0-10.2c0-1.3-1.1-2.2-2.8-2.2c-1.7,0-2.8,0.9-2.8,2.2v25.9
	c0,1.3,1.1,2.2,2.8,2.2c1.7,0,2.8-0.9,2.8-2.2c0,0,0-10.7,0-11.7c0.9,0.6,18.7,13.1,18.7,13.1c1.1,0.8,1.9,0.8,2.6,0.8
	c1.5,0,2.8-0.8,2.8-1.9c0-0.7-0.3-1.2-1.2-1.7c0,0-15.6-10.7-18-12.4c0.7-0.4,16.4-10.6,16.4-10.6c0.5-0.4,1.2-0.7,1.2-1.9
	c0-1.1-1-1.8-2.5-1.8C844.1-227.5,843.3-226.9,842.3-226.2"/>
<path class="st6" d="M536.7-225.1l-12.8,24.4c-0.3,0.6-0.6,1.3-0.6,1.7c0,1.1,1.1,1.8,2.7,1.8c1.3,0,2.2-0.5,2.7-1.5
	c0,0,11.5-23.1,11.9-23.8c0.4,0.8,11.9,23.8,11.9,23.8c0.5,1,1.4,1.5,2.7,1.5c1.6,0,2.7-0.7,2.7-1.8c0-0.4-0.3-1.1-0.6-1.7
	l-12.8-24.5c-0.8-1.6-2.1-2.4-3.9-2.4C538.8-227.4,537.5-226.7,536.7-225.1"/>
<path class="st6" d="M689.4-225.1l-12.8,24.4c-0.3,0.6-0.6,1.3-0.6,1.7c0,1.1,1.1,1.8,2.7,1.8h0c1.3,0,2.2-0.5,2.7-1.5
	c0,0,11.5-23.1,11.9-23.8c0.4,0.8,11.9,23.8,11.9,23.8c0.5,1,1.4,1.5,2.7,1.5c1.6,0,2.7-0.7,2.7-1.8c0-0.4-0.3-1.1-0.6-1.7
	l-12.8-24.5c-0.8-1.6-2.1-2.4-3.9-2.4C691.5-227.4,690.2-226.7,689.4-225.1"/>
<path class="st6" d="M591.8-225.4c0,0-7.3,17.8-8.5,20.9c-0.4-1-8.5-20.9-8.5-20.9c-0.6-1.5-1.8-2.1-3.9-2.1c-2.3,0-3.8,1-4.2,3
	c0,0-5.6,23.5-5.6,23.5c-0.2,0.8-0.3,1.3-0.3,1.7c0,1.3,1,2.1,2.6,2.1c1.1,0,2.7-0.2,3-1.8l0,0c0,0,4.4-21.4,4.6-22.8
	c0.5,1.3,9.5,22.9,9.5,22.9c0.6,1.5,1.9,1.7,2.9,1.7c1,0,2.2-0.2,2.9-1.7c0,0,8-19.2,9.5-22.9c0.3,1.4,4.6,22.8,4.6,22.8
	c0.3,1.6,1.8,1.8,3,1.8c1.7,0,2.6-0.8,2.6-2.1c0-0.4-0.1-1-0.3-1.7l-5.6-23.5c-0.5-1.9-2-3-4.2-3
	C593.6-227.5,592.4-226.8,591.8-225.4"/>
<path class="st6" d="M613.6-227.2c-1.9,0-3,0.8-3,2.3v25.3c0,1.4,1.1,2.3,3,2.3h14.6c1.7,0,2.8-0.7,2.8-2c0-1.2-1-2-2.8-2
	c0,0-11.4,0-11.9,0c0-0.5,0-8.5,0-9c0.5,0,10.8,0,10.8,0c1.7,0,2.8-0.7,2.8-2c0-1.2-1-2-2.8-2c0,0-10.3,0-10.8,0c0-0.5,0-8.5,0-9
	c0.5,0,11.9,0,11.9,0c1.7,0,2.8-0.7,2.8-2c0-1.2-1-2-2.8-2H613.6z"/>
<path class="st6" d="M666.6-225.2v25.9c0,1.3,1.1,2.2,2.8,2.2c1.7,0,2.8-0.9,2.8-2.2v-25.9c0-1.3-1.1-2.2-2.8-2.2
	C667.7-227.5,666.6-226.6,666.6-225.2"/>
<path class="st6" d="M661.3-200.7c0,0-11.3-8.8-12.4-9.7c0.6,0,1.4,0,1.4,0c7.4-0.2,11.4-3.2,11.4-8.6c0-5.1-6.5-8.2-12.8-8.2h-9.4
	c-1.9,0-3,0.8-3,2.3v25.6c0,1.3,1.1,2.2,2.8,2.2c1.7,0,2.8-0.9,2.8-2.2c0,0,0-9.5,0-10.6c0.9,0.7,15.2,11.9,15.2,11.9
	c0.5,0.4,1.3,0.9,2.5,0.9c1.5,0,2.6-0.7,2.6-1.7C662.4-199.5,662.1-200.1,661.3-200.7 M642.1-213.7v-9.8c0.5,0,6.5,0,6.5,0
	c4.3,0,7.4,2,7.4,4.7c0,3.6-2.2,5.1-7.3,5.1C648.7-213.7,642.6-213.7,642.1-213.7z"/>
<path class="st5" d="M732.6-213.6c3-1,4.8-3.4,4.8-6.4c0-3.5-4-7.3-11.3-7.3h-8.9c-1.9,0-3,0.8-3,2.3l0,25.3c0,1.4,1.1,2.3,3,2.3
	h9.7c9.4,0,13.7-4.6,13.7-8.8C740.6-209.8,737.2-212.8,732.6-213.6 M719.8-223.5c0.5,0,5.6,0,5.6,0c4,0,6.3,1.5,6.3,4.2
	c0,2.7-2.6,4.4-6.5,4.4c0,0-5,0-5.5,0L719.8-223.5z M726.6-201.1c0,0-6.3,0-6.9,0l0-10.2c0.5,0,7.1,0,7.1,0c4.8,0,8.1,2,8.1,5.1
	C734.9-203.2,731.5-201.1,726.6-201.1z"/>
<path class="st7" d="M507.9-189.8c0,1.8-1.5,3.2-3.2,3.2h-45c-1.8,0-3.2-1.5-3.2-3.2v-45c0-1.8,1.5-3.2,3.2-3.2h45
	c1.8,0,3.2,1.5,3.2,3.2V-189.8z"/>
<path class="st6" d="M498.9-200.6L486-225c-0.8-1.6-2.1-2.4-3.9-2.4c-1.8,0-3.1,0.8-3.9,2.4l-12.8,24.4c-0.3,0.6-0.6,1.3-0.6,1.7
	c0,1.1,1.1,1.8,2.7,1.8c1.3,0,2.2-0.5,2.7-1.5c0,0,11.5-23.1,11.9-23.8c0.4,0.8,11.9,23.8,11.9,23.8c0.5,1,1.4,1.5,2.7,1.5
	c1.6,0,2.7-0.7,2.7-1.8C499.5-199.3,499.2-200,498.9-200.6"/>
<g>
	<path class="st8" d="M767.9-316.2c-7.2,0-14.4,0-21.6,0c-0.2,0-0.3,0-0.5,0c-0.4-0.1-0.6-0.2-0.6-0.7c0-0.1,0-0.3,0.1-0.4
		c0.3-1.3,0.6-2.7,1-4c0.2-0.9,0.5-1.9,0.7-2.8c0.7-2.8,1.3-5.7,2-8.5c0.7-2.8,1.4-5.5,2-8.3c0.5-2,0.9-4.1,1.4-6.1
		c0.7-2.7,1.3-5.5,2-8.2c0.5-1.9,0.9-3.9,1.4-5.8c0.2-0.8,0.4-1.6,0.6-2.3c0.1-0.5,0.3-0.6,0.8-0.7c0.3,0,0.6,0,0.9,0
		c14,0,28.1,0,42.1,0c1.2,0,1.3,0.2,1,1.3c-0.3,1.2-0.6,2.4-0.8,3.5c-0.5,2-0.9,4.1-1.4,6.1c-0.3,1.4-0.4,1.3-1.8,1.3
		c-4.9,0-9.8,0-14.7,0c-3.4,0-6.8,0-10.3,0c-0.3,0-0.5,0-0.8,0c-0.7,0-1,0.2-1.2,1c-0.2,0.9-0.4,1.8-0.7,2.7
		c-0.1,0.5-0.2,0.9-0.3,1.4c-0.2,0.7,0,0.9,0.7,0.9c0.1,0,0.2,0,0.3,0c7.8,0,15.7,0,23.5,0c0.1,0,0.1,0,0.2,0c1.1,0,1.2,0.1,0.9,1.2
		c-0.3,1-0.5,2-0.7,3c-0.5,2-0.9,4-1.4,6.1c-0.2,0.9-0.5,1.1-1.4,1.1c-8,0-16,0-24,0c-0.2,0-0.4,0-0.5,0c-0.4,0.1-0.6,0.2-0.7,0.6
		c-0.4,1.5-0.7,2.9-1.1,4.4c-0.2,0.6,0,0.9,0.7,0.9c0.4,0,0.7,0,1.1,0c8.6,0,17.1,0,25.7,0c0.2,0,0.3,0,0.5,0c0.3,0,0.5,0.2,0.5,0.6
		c0,0.2,0,0.4-0.1,0.5c-0.7,2.8-1.4,5.6-2,8.4c-0.1,0.6-0.2,1.2-0.4,1.8c-0.2,0.9-0.4,1-1.3,1C782.3-316.2,775.1-316.2,767.9-316.2
		C767.9-316.2,767.9-316.2,767.9-316.2z"/>
	<path class="st8" d="M653-364c2.3,0,4.6,0,6.9,0c0.2,0,0.4,0,0.6,0c0.6,0,0.8,0.3,0.6,0.9c-0.7,3.1-1.5,6.3-2.2,9.4
		c-0.7,2.7-1.3,5.5-2,8.2c-0.5,2.1-1,4.1-1.4,6.2c-0.3,1.5-0.8,3-1,4.6c-0.2,1.1-0.2,2.2-0.1,3.3c0.2,2,1.3,3.2,3.1,3.9
		c1.4,0.5,2.9,0.5,4.4,0.3c2.4-0.3,4.4-1.4,5.9-3.3c0.9-1.1,1.5-2.4,2-3.8c0.8-2.3,1.3-4.6,1.8-6.9c0.5-2,1-3.9,1.4-5.9
		c0.5-2,0.9-3.9,1.4-5.9c0.5-2,1-3.9,1.4-5.9c0.3-1.3,0.6-2.5,0.9-3.8c0.1-0.3,0.1-0.5,0.2-0.8c0.2-0.6,0.4-0.8,1-0.8
		c0.4,0,0.8,0,1.2,0c4.5,0,8.9,0,13.4,0c0.1,0,0.3,0,0.4,0c0.9,0,1,0.2,0.8,1c-0.5,2.3-1.1,4.5-1.6,6.8c-0.7,2.8-1.4,5.6-2,8.4
		c-0.3,1.1-0.5,2.3-0.8,3.4c-0.2,1.1-0.5,2.1-0.7,3.2c-0.5,2.3-1.1,4.6-1.6,7c-0.5,1.9-0.9,3.8-1.6,5.6c-1.5,3.6-3.9,6.7-7.2,8.9
		c-2,1.3-4.1,2.4-6.3,3.1c-2,0.6-4,1.1-6.1,1.3c-2,0.2-4.1,0.4-6.1,0.4c-2.4,0-4.8-0.2-7.2-0.6c-3.1-0.5-6.1-1.3-8.8-2.9
		c-2.3-1.3-4.2-3.1-5.5-5.5c-1.3-2.5-1.7-5.2-1.1-8.1c0.7-3.1,1.4-6.2,2.1-9.2c0.8-3.3,1.5-6.5,2.3-9.7c0.7-2.8,1.4-5.6,2-8.5
		c0.3-1.1,0.5-2.3,0.8-3.4c0.2-1,0.5-1.1,1.4-1.1C648.2-364,650.6-364,653-364C653-364,653-364,653-364z"/>
	<path class="st8" d="M591.5-332.2c2.3,0,4.6,0,6.8,0c0.2,0,0.3,0,0.5,0c0.6,0,0.8,0.2,0.8,0.9c0,0.9,0.2,1.7,0.6,2.6
		c0.7,1.5,1.8,2.5,3.5,2.8c2.2,0.4,4.4,0.5,6.6,0.1c1.2-0.2,2.2-0.7,3.2-1.4c0.7-0.5,1.2-1.2,1.5-2c0.4-1.1,0.2-2.1-0.6-2.9
		c-0.5-0.4-1-0.8-1.6-1.1c-1.7-0.8-3.5-1.3-5.3-1.7c-1.7-0.4-3.3-0.8-4.9-1.3c-1.5-0.5-3.1-0.9-4.6-1.5c-2.3-1-4.5-2.2-6.2-4.1
		c-1.7-1.9-2.5-4.2-2.7-6.7c-0.2-4.8,1.7-8.5,5.5-11.4c2.7-2,5.8-3.3,9.1-4.1c3.7-0.9,7.4-1.2,11.2-0.9c3,0.2,6,0.6,8.9,1.7
		c2.8,1.1,5.4,2.5,7.2,4.9c1.8,2.4,2.6,5.1,2.6,8.1c0,0.7-0.2,0.8-0.9,0.9c-1.8,0-3.6,0-5.4,0c-2.7,0-5.4,0-8.1,0
		c-0.9,0-1-0.1-1.1-1c-0.2-1.5-1-2.5-2.3-3.2c-1.1-0.6-2.3-0.8-3.5-0.8c-1.1,0-2.1,0-3.2,0.2c-0.8,0.1-1.5,0.4-2.3,0.7
		c-0.6,0.2-1.1,0.7-1.5,1.3c-0.8,1.3-0.5,2.6,0.7,3.6c0.8,0.6,1.8,1,2.7,1.2c1.7,0.4,3.4,0.8,5.1,1.2c1.9,0.5,3.9,0.9,5.8,1.6
		c2.2,0.8,4.3,1.7,6.2,3c2.2,1.5,3.8,3.5,4.6,6.1c0.3,1.1,0.5,2.2,0.5,3.4c0.1,4.6-1.8,8.3-5.2,11.2c-2.3,2-5,3.3-7.8,4.2
		c-2.2,0.7-4.5,1.2-6.9,1.5c-2.2,0.3-4.4,0.3-6.6,0.2c-2.5-0.1-5.1-0.4-7.5-1.1c-2.3-0.7-4.6-1.5-6.6-2.8c-3.1-1.9-5.3-4.5-6.3-8.1
		c-0.4-1.4-0.6-2.8-0.6-4.3c0-0.7,0.2-0.9,1-0.9c1.6,0,3.3,0,4.9,0C589.9-332.2,590.7-332.2,591.5-332.2
		C591.5-332.2,591.5-332.2,591.5-332.2z"/>
	<path class="st8" d="M653.1-289.9c-0.1,0.3-0.2,0.6-0.2,0.9c-0.5,2.5-1,5.1-1.6,7.6c-0.3,1.4-0.5,2.7-0.8,4.1
		c-0.4,1.7-0.7,3.4-1.1,5.1c-0.1,0.3-0.1,0.6-0.1,0.8c-0.1,0.7-0.4,0.9-1.1,0.9c-0.2,0-0.5,0-0.7,0c-2.6,0-5.2,0-7.8,0
		c-0.1,0-0.3,0-0.4,0c-0.6,0-0.7-0.2-0.6-0.8c0.2-1,0.4-2,0.6-3c0.5-2.7,1.1-5.3,1.6-8c0.5-2.2,1-4.4,1.4-6.6
		c0.5-2.2,0.9-4.5,1.4-6.7c0.5-2.3,1-4.6,1.4-6.8c0.2-1,0.4-2,0.6-3c0.2-0.9,0.4-0.9,1.2-0.9c2.9,0,5.8,0,8.6,0
		c1.2,0,1.3,0.1,1.7,1.3c0.5,1.5,1,2.9,1.5,4.3c0.4,1.3,0.9,2.5,1.3,3.8c0.5,1.5,1,2.9,1.5,4.4c0.5,1.4,0.9,2.8,1.4,4.2
		c0.1,0.3,0.1,0.8,0.6,0.8c0.5,0,0.4-0.5,0.5-0.8c0.5-2.6,1-5.2,1.6-7.8c0.2-1.1,0.5-2.3,0.7-3.4c0.4-2,0.8-4,1.2-6
		c0.1-0.6,0.3-0.7,0.9-0.8c0.4,0,0.7,0,1.1,0c2.5,0,4.9,0,7.4,0c0.1,0,0.2,0,0.2,0c0.9,0,1.1,0.2,0.9,1.1c-0.5,2.4-1,4.7-1.5,7.1
		c-0.7,3.1-1.4,6.2-2,9.3c-0.5,2.2-0.9,4.3-1.3,6.5c-0.5,2.2-0.9,4.4-1.4,6.6c-0.3,1.3-0.5,2.6-0.8,4c0,0.2-0.1,0.4-0.1,0.5
		c-0.2,0.5-0.4,0.7-0.9,0.8c-0.2,0-0.4,0-0.6,0c-2.7,0-5.5,0-8.2,0c-0.2,0-0.5,0-0.7,0c-0.4,0-0.6-0.3-0.8-0.6
		c-0.8-2.4-1.6-4.8-2.4-7.2c-0.7-2-1.4-4.1-2-6.1c-0.5-1.5-0.9-2.9-1.4-4.4C653.8-289.2,653.7-289.6,653.1-289.9z"/>
	<path class="st8" d="M614.9-289.8c-0.1,0.3-0.2,0.5-0.3,0.8c-0.5,2.6-1.1,5.3-1.6,7.9c-0.5,2.3-0.9,4.6-1.4,6.9
		c-0.2,1-0.4,1.9-0.6,2.9c-0.2,0.7-0.4,0.9-1.1,0.9c-2.9,0-5.9,0-8.8,0c-0.7,0-0.9-0.2-0.7-0.9c0.1-0.7,0.3-1.5,0.5-2.2
		c0.5-2.2,0.9-4.4,1.4-6.6c0.3-1.5,0.6-3,0.9-4.5c0.5-2.3,1-4.5,1.4-6.8c0.2-0.9,0.4-1.8,0.6-2.7c0.3-1.4,0.5-2.7,0.8-4.1
		c0.5-2.4,1-4.8,1.5-7.1c0.2-0.8,0.3-0.9,1.1-0.9c2.7,0,5.3,0,8,0c0.3,0,0.7,0,1,0c0.7,0,1,0.2,1.3,0.9c0.4,1.2,0.8,2.4,1.2,3.6
		c0.5,1.5,1,2.9,1.5,4.4c0.7,1.9,1.3,3.9,2,5.8c0.4,1.2,0.8,2.4,1.2,3.6c0,0.1,0.1,0.3,0.2,0.3c0.1,0.1,0.3,0.2,0.4,0.2
		c0.1,0,0.2-0.2,0.3-0.3c0.1-0.1,0.1-0.2,0.1-0.4c0.2-0.9,0.3-1.8,0.5-2.7c0.5-2.3,0.9-4.7,1.4-7c0.5-2.3,1-4.5,1.4-6.8
		c0.1-0.3,0.1-0.7,0.2-1c0.1-0.5,0.3-0.6,0.8-0.7c0.2,0,0.3,0,0.5,0c2.7,0,5.4,0,8.2,0c0.1,0,0.3,0,0.4,0c0.7,0.1,0.8,0.3,0.7,0.9
		c-0.8,3.7-1.6,7.4-2.4,11.1c-0.5,2.2-0.9,4.5-1.4,6.7c-0.5,2.2-1,4.4-1.4,6.6c-0.3,1.2-0.5,2.5-0.8,3.7c-0.3,1.4-0.6,2.8-0.9,4.2
		c-0.1,0.6-0.2,1.2-0.4,1.8c-0.1,0.7-0.3,0.9-1.1,0.9c-1.4,0-2.8,0-4.2,0c-1.6,0-3.1,0-4.7,0c-1.1,0-1.2-0.1-1.5-1.1
		c-0.7-2.1-1.4-4.1-2.1-6.2c-0.5-1.5-0.9-2.9-1.4-4.4c-0.6-1.8-1.2-3.7-1.8-5.5c-0.2-0.5-0.3-1-0.5-1.5
		C615.5-289.4,615.4-289.7,614.9-289.8z"/>
	<path class="st8" d="M825.8-270.4c-4.6,0-9.2,0-13.8,0c-0.1,0-0.3,0-0.4,0c-0.6,0-0.7-0.2-0.7-0.8c0-0.1,0-0.2,0-0.3
		c0.4-2,0.9-4.1,1.3-6.1c0.3-1.5,0.6-3,0.9-4.6c0.3-1.4,0.6-2.7,0.9-4.1c0.3-1.4,0.6-2.9,0.9-4.3c0.5-2.2,0.9-4.4,1.4-6.6
		c0.3-1.4,0.6-2.7,0.8-4.1c0.3-1.4,0.6-2.7,0.9-4.1c0.2-0.8,0.3-0.9,1.2-0.9c3.2,0,6.4,0,9.6,0c5.9,0,11.9,0,17.8,0
		c1.2,0,1.3,0.2,1,1.3c-0.3,1.4-0.6,2.9-0.9,4.3c-0.2,0.9-0.4,1.8-0.5,2.7c-0.1,0.5-0.3,0.7-0.8,0.8c-0.3,0-0.5,0-0.8,0
		c-5.4,0-10.8,0-16.2,0c-0.8,0-0.9,0.1-1.1,0.8c-0.2,1-0.4,1.9-0.6,2.9c-0.1,0.5,0,0.7,0.5,0.7c0.2,0,0.4,0,0.6,0
		c4.9,0,9.8,0,14.7,0c0.1,0,0.3,0,0.4,0c0.6,0.1,0.8,0.3,0.7,0.9c-0.4,1.8-0.7,3.5-1.1,5.3c-0.1,0.5-0.2,1.1-0.3,1.6
		c-0.1,0.6-0.3,0.7-0.9,0.8c-0.3,0-0.7,0-1,0c-4.8,0-9.5,0-14.3,0c-1.3,0-1.3,0-1.5,1.2c-0.2,0.8-0.4,1.5-0.5,2.3
		c-0.1,0.8,0,0.9,0.8,0.9c1.5,0,3,0,4.4,0c4.1,0,8.2,0,12.3,0c1.1,0,1.4,0.2,1,1.3c-0.3,1-0.5,2-0.7,3c-0.3,1.2-0.5,2.5-0.7,3.7
		c0,0.2-0.1,0.4-0.1,0.5c-0.1,0.4-0.3,0.6-0.7,0.6c-0.2,0-0.4,0-0.5,0C835.1-270.4,830.5-270.4,825.8-270.4
		C825.8-270.4,825.8-270.4,825.8-270.4z"/>
	<path class="st8" d="M551.3-302.8c0,2.9-0.4,5.3-1,7.8c-0.6,2.2-1.4,4.3-2.4,6.4c-1.6,3.1-3.8,5.8-6.5,8.1c-2.1,1.8-4.5,3.1-7,4.3
		c-0.5,0.3-0.8,0.2-1.2-0.5c-0.4-0.7-0.8-1.4-1.3-2.1c-0.2-0.3-0.4-0.6-0.6-0.9c-0.3-0.5-0.2-0.7,0.3-1c0.5-0.3,1-0.5,1.4-0.8
		c1.5-0.8,2.5-2,3.3-3.5c0.9-1.8,1.5-3.7,1.9-5.6c0.3-1.6,0.5-3.3,0.7-4.9c0.1-1,0.1-2.1-0.2-3.1c-0.3-1.2-1-2.1-1.9-3
		c-1.3-1.2-2.8-2.2-4.5-2.9c-2.2-1-4.4-1.7-6.7-2.4c-1.3-0.4-2.4-1.1-3.4-1.9c-3-2.3-5.5-5.1-7.3-8.5c-1.6-3-2.7-6.3-2.6-9.8
		c0-1.3,0-2.6,0-3.9c0-0.1,0-0.3,0-0.4c0.1-0.5,0.4-0.7,0.8-0.4c0.7,0.5,1.4,1,2.1,1.5c1.3,0.9,2.8,1.6,4.3,2.2
		c2.5,1,5.2,1.7,7.8,2.4c1.5,0.4,2.9,0.9,4.4,1.4c1.2,0.4,2.4,0.9,3.7,1.3c2.1,0.8,4.1,1.8,6,2.9c2.1,1.2,4,2.8,5.6,4.6
		c1.4,1.7,2.5,3.5,3.3,5.6C551-307.5,551.3-305,551.3-302.8z M542.8-292.1c0.1,0,0.2,0.1,0.2,0.1c0.2-0.2,0.5-0.5,0.7-0.8
		c2.1-3.2,3.2-6.7,3-10.6c-0.1-2.1-0.5-4.2-1.4-6.1c-1-2.1-2.6-3.7-4.4-5.1c-2.1-1.6-4.3-2.8-6.8-3.8c-2.8-1.1-5.6-2-8.4-2.9
		c-2.2-0.7-4.5-1.3-6.8-1.9c-0.1,0-0.2-0.1-0.4-0.1c-0.4-0.1-0.6,0.1-0.6,0.6c0,0.2,0,0.3,0.1,0.5c0.5,1.5,1.1,2.9,1.9,4.3
		c1.2,2,2.8,3.6,4.5,5.1c0.8,0.8,1.8,1.2,2.9,1.6c2.6,0.8,5,1.7,7.4,2.9c2.3,1.1,4.3,2.5,5.9,4.4c1.2,1.4,2,3,2.3,4.8
		c0.3,2.1,0.3,4.2-0.2,6.3C542.8-292.5,542.8-292.3,542.8-292.1z"/>
	<path class="st8" d="M798.7-306.3c4.7,0,9.5,0,14.2,0c1.1,0,1.4,0.1,1.1,1.4c-0.5,2.2-0.9,4.4-1.4,6.6c-0.2,1-0.4,1.2-1.4,1.2
		c-2.6,0-5.3,0-7.9,0c-0.7,0-0.8,0.1-1,0.7c-0.1,0.3-0.2,0.7-0.3,1.1c-0.6,2.8-1.2,5.5-1.7,8.3c-0.5,2.3-0.9,4.6-1.4,6.9
		c-0.6,2.8-1.2,5.7-1.8,8.5c0,0.1,0,0.2-0.1,0.3c-0.2,0.8-0.4,0.9-1.3,0.9c-2.8,0-5.6,0-8.5,0c-0.3,0-0.5,0-0.8,0
		c-0.5,0-0.6-0.2-0.6-0.7c0-0.1,0-0.2,0-0.3c0.5-2.2,1-4.4,1.4-6.6c0.2-1.1,0.4-2.1,0.7-3.2c0.4-1.8,0.8-3.6,1.1-5.4
		c0.5-2.2,0.9-4.4,1.3-6.6c0.2-0.8,0.4-1.7,0.5-2.5c0-0.2,0.1-0.5,0.1-0.7c0-0.4-0.1-0.6-0.6-0.7c-0.2,0-0.4,0-0.5,0
		c-2.5,0-4.9,0-7.4,0c-1.2,0-1.3-0.2-1-1.3c0.3-1.3,0.5-2.5,0.8-3.8c0.2-1.1,0.4-2.2,0.7-3.3c0.1-0.6,0.3-0.7,0.9-0.8
		c0.4,0,0.8,0,1.2,0C789.7-306.3,794.2-306.3,798.7-306.3C798.7-306.3,798.7-306.3,798.7-306.3z"/>
	<path class="st8" d="M737.4-306.3c4.8,0,9.6,0,14.4,0c0.1,0,0.2,0,0.3,0c0.6,0,0.8,0.2,0.7,0.8c0,0.4-0.1,0.8-0.2,1.1
		c-0.4,1.9-0.8,3.8-1.2,5.7c-0.1,0.3-0.1,0.5-0.2,0.8c-0.2,0.6-0.4,0.7-1,0.8c-0.3,0-0.6,0-0.9,0c-2.4,0-4.8,0-7.2,0
		c-0.8,0-1.1,0.2-1.3,1c-0.2,0.9-0.3,1.7-0.5,2.6c-0.3,1.3-0.5,2.7-0.8,4c-0.5,2.3-1,4.5-1.4,6.8c-0.2,1-0.4,2.1-0.6,3.1
		c-0.5,2.3-0.9,4.6-1.4,6.9c-0.1,0.5-0.2,1-0.4,1.5c-0.2,0.7-0.3,0.8-1,0.8c-0.4,0-0.8,0-1.2,0c-2.6,0-5.2,0-7.8,0
		c-0.9,0-1.1-0.2-0.9-1.1c0.3-1.6,0.7-3.2,1-4.9c0.4-2.1,0.9-4.3,1.3-6.4c0.5-2.3,1-4.7,1.5-7c0.2-1,0.4-2,0.6-3
		c0.2-1.1,0.5-2.2,0.7-3.3c0.2-0.8,0-1-0.9-1c-2.6,0-5.2,0-7.8,0c-0.9,0-1-0.2-0.9-1c0.5-2.5,1-4.9,1.6-7.4c0.1-0.7,0.3-0.8,1-0.8
		c0.5,0,1,0,1.6,0C728.8-306.3,733.1-306.3,737.4-306.3C737.4-306.3,737.4-306.3,737.4-306.3z"/>
	<path class="st8" d="M544-366.4c7.6,0,15.3,0,22.9,0c0.3,0,0.5,0,0.8,0c0.4,0.1,0.6,0.3,0.3,0.7c-0.7,1.2-1.5,2.4-2.2,3.6
		c-1.8,3-3.7,6-5.5,9c-2.6,4.2-5.2,8.4-7.7,12.6c-2.2,3.5-4.4,7.1-6.5,10.7c-0.1,0.1-0.1,0.2-0.2,0.3c-0.4,0.6-0.6,0.6-1.2,0.3
		c-0.7-0.4-1.5-0.8-2.2-1.3c-0.7-0.4-0.7-0.6-0.3-1.3c0.9-1.9,1.9-3.7,2.7-5.7c1.2-3,2-6.1,2.2-9.3c0.1-2.4-0.2-4.7-1.3-6.8
		c-0.6-1.2-1.5-2.2-2.5-3.1c-1.9-1.7-4.1-2.7-6.5-3.4c-4.5-1.3-9-1.5-13.6-1.3c-0.2,0-0.4,0-0.5,0c-0.5,0-0.8-0.2-1-0.6
		c-0.5-1.2-1.1-2.3-1.6-3.4c-0.3-0.6-0.1-0.9,0.6-0.9c0.2,0,0.5,0,0.7,0C528.8-366.4,536.4-366.4,544-366.4z M545.3-361.3
		c0.2,0.2,0.3,0.4,0.4,0.5c0.8,0.8,1.8,1.6,2.5,2.5c1.3,1.5,2.3,3.3,2.7,5.2c0.1,0.3,0.2,0.6,0.3,0.9c0.1,0.2,0.1,0.3,0.1,0.5
		c0.1,0.9,0.2,1.9,0.3,2.8c0,0.1,0.1,0.2,0.2,0.3c0.2-0.3,0.4-0.5,0.5-0.7c0.5-0.8,1-1.7,1.5-2.5c0.8-1.3,1.6-2.6,2.4-3.9
		c1-1.5,1.9-3.1,2.9-4.6c0.2-0.3,0.3-0.6,0.5-1.1C554.9-361.3,550.2-361.3,545.3-361.3z"/>
	<path class="st8" d="M488.2-269.2c-7.7,0-15.5,0-23.2,0c-0.2,0-0.4,0-0.5,0c-0.5,0-0.6-0.3-0.4-0.7c0.6-1,1.2-2,1.9-3
		c1.5-2.4,2.9-4.8,4.4-7.2c1.4-2.2,2.7-4.5,4.1-6.7c1.7-2.7,3.3-5.5,5-8.2c2.1-3.4,4.2-6.9,6.3-10.3c0.3-0.5,0.6-0.6,1.2-0.4
		c0.8,0.3,1.5,0.5,2.3,0.8c0.7,0.3,0.7,0.5,0.4,1.1c-1.1,1.8-2,3.8-2.8,5.8c-0.5,1.3-0.9,2.5-1.3,3.8c-0.7,2.5-1.1,5-0.8,7.5
		c0.4,4.1,2.4,7.2,6,9.4c2,1.2,4.2,1.9,6.5,2.4c4.2,0.8,8.5,1,12.8,0.7c0.7-0.1,1,0.1,1.3,0.7c0.4,1.2,0.9,2.3,1.3,3.5
		c0.2,0.5,0,0.7-0.5,0.7c-0.2,0-0.3,0-0.5,0C503.6-269.2,495.9-269.2,488.2-269.2z M485.9-274c-0.2-0.2-0.4-0.3-0.5-0.4
		c-0.4-0.3-0.8-0.4-1.1-0.8c-1.2-1.4-2.4-2.8-3.1-4.5c-0.5-1.1-0.9-2.3-1.3-3.5c-0.1-0.1,0-0.3,0-0.5c0-0.9-0.1-1.7-0.2-2.6
		c0-0.1-0.2-0.3-0.3-0.4c-0.1,0.1-0.3,0.1-0.4,0.3c-0.3,0.5-0.6,1-0.9,1.5c-0.4,0.6-0.6,1.3-1,1.9c-1.3,1.6-2.1,3.6-3.3,5.3
		c-0.7,0.9-1.1,1.9-1.7,2.8c-0.2,0.3-0.4,0.6-0.3,1c0.7,0,1.3,0.1,1.9,0c1-0.2,2,0,3,0c1.4,0,2.8,0.2,4.2-0.2c0.7-0.2,1.4-0.1,2.2,0
		c0.6,0,1.2,0.1,1.8,0.2C485.1-273.8,485.4-273.7,485.9-274z"/>
	<path class="st8" d="M507.1-312.9c-0.3-0.1-0.5-0.1-0.7-0.2c-1.5-0.6-3.1-1.2-4.6-1.9c-3.2-1.5-6.2-3.2-9.1-5.2
		c-3.2-2.3-6.1-5-8.5-8.2c-1.6-2.2-2.9-4.6-3.6-7.3c-0.6-2.4-0.8-4.8-0.4-7.3c0.7-3.9,2.5-7.2,5-10.2c2.1-2.5,4.6-4.6,7.4-6.4
		c2.6-1.7,5.3-3,8.1-4.1c0.7-0.3,1-0.2,1.3,0.5c0.6,1.2,1.1,2.5,1.7,3.8c0.3,0.7,0.2,0.9-0.5,1.2c-3.2,1.1-5.9,3-8.2,5.4
		c-1.2,1.2-2.1,2.6-2.6,4.2c-0.6,2-0.2,3.8,1,5.5c1.1,1.7,2.6,3,4.3,4.1c0.3,0.2,0.6,0.4,0.9,0.6c0.5,0.3,0.6,0.8,0.5,1.3
		c-0.5,2-0.7,4.1-0.8,6.2c-0.1,2.4,0.3,4.8,1.5,6.9c1,1.8,2,3.6,3,5.4c1,1.7,2.4,3.1,3.8,4.6C506.9-313.7,507.2-313.5,507.1-312.9z
		 M495.1-323.9c0-0.3,0-0.5-0.1-0.6c-0.2-0.9-0.5-1.8-0.6-2.8c-0.1-1-0.3-2.1-0.5-3.1c0-0.2,0-0.3,0-0.5c0.2-1.1,0.4-2.3,0.6-3.4
		c0-0.3,0.1-0.5,0.2-0.7c0.1-0.3,0.1-0.6-0.1-0.8c-0.2-0.2-0.3-0.4-0.6-0.5c-1.2-0.9-2.3-2-3.4-3.1c-1.3-1.4-2.5-2.9-3.1-4.7
		c-0.3-1-0.6-2-0.3-3c0.1-0.2,0-0.5,0.1-0.8c-0.1,0-0.1,0-0.2-0.1c-0.2,0.2-0.3,0.4-0.4,0.7c-0.3,0.6-0.5,1.2-0.8,1.8
		c-0.5,1.1-0.8,2.2-1,3.4c-0.4,2.4-0.4,4.9,0.3,7.3c0.6,2,1.7,3.8,3,5.4c0.7,0.9,1.6,1.6,2.4,2.4c0.8,0.7,1.6,1.5,2.5,2.2
		C493.8-324.6,494.5-324.3,495.1-323.9z"/>
	<path class="st8" d="M854.3-347.9c0-2.6,0-5.2,0-7.8c0-0.7-0.1-1.3-0.4-1.9c-1.2-2.2-3-3.8-5.3-4.7c-2.5-1.1-5.2-1.5-7.9-1.7
		c-1.3-0.1-2.6-0.1-4-0.1c-3.5,0-7.1,0-10.6,0c0,0,0,0,0,0c-5,0-9.9,0-14.9,0c-0.2,0-0.4,0-0.6,0c-0.4,0-0.6,0.2-0.7,0.6
		c-0.2,0.8-0.4,1.6-0.6,2.3c-0.3,1.1-0.5,2.2-0.8,3.3c-0.5,2-1,4-1.4,6c-0.5,2.1-1,4.3-1.5,6.4c-0.4,1.8-0.9,3.7-1.3,5.5
		c-0.5,2-0.9,4-1.4,6.1c-0.7,2.8-1.3,5.5-2,8.3c-0.6,2.4-1.1,4.8-1.7,7.2c-0.1,0.5-0.2,1-0.3,1.4c-0.1,0.5,0.1,0.7,0.6,0.8
		c0.2,0,0.3,0,0.5,0c4.7,0,9.4,0,14.1,0c0.9,0,1.1-0.2,1.3-1c0.3-1,0.5-2,0.7-3c0.3-1.2,0.5-2.3,0.8-3.5c0.7-2.8,1.3-5.5,2-8.3
		c0.2-0.8,0.3-0.9,1.1-0.9c2.3,0,4.6,0,6.9,0c1.2,0,2.4,0.2,3.5,0.7c1.9,0.8,2.9,2.3,2.7,4.4c-0.1,1.2-0.2,2.3-0.4,3.5
		c-0.3,1.7-0.5,3.5-0.3,5.3c0.1,0.7,0.2,1.4,0.4,2.1c0.2,0.6,0.4,0.7,1,0.8c0.2,0,0.4,0,0.5,0c4.5,0,9.1,0,13.6,0c0.1,0,0.3,0,0.4,0
		c0.3,0,0.5-0.2,0.5-0.6c0-0.2-0.1-0.4-0.1-0.5c-0.1-0.8-0.4-1.7-0.4-2.5c-0.1-1.1-0.1-2.3-0.1-3.4c0-2.2,0-4.3,0.1-6.5
		c0-1.2-0.2-2.4-0.5-3.5c-0.6-2.2-1.8-3.7-4-4.5c-0.2-0.1-0.3-0.2-0.4-0.4c0.2-0.1,0.3-0.3,0.5-0.4c0.1,0,0.1,0,0.2-0.1
		c1.5-0.3,2.8-0.8,4.2-1.4c2.4-1.2,4.3-3,5.7-5.4C854.2-346.2,854.3-347,854.3-347.9z M838.1-346.8c-0.6,1.3-1.6,2.2-3,2.8
		c-1.5,0.6-3,0.8-4.5,0.8c-1.2,0-2.3,0-3.5,0c0,0,0,0,0,0c-1.4,0-2.8,0-4.3,0c-0.1,0-0.3,0-0.4,0c-0.7,0-0.8-0.2-0.7-0.9
		c0.1-0.5,0.2-1.1,0.3-1.6c0.3-1.2,0.6-2.5,0.9-3.7c0.2-0.9,0.4-1.8,0.6-2.6c0.1-0.5,0.3-0.6,0.8-0.7c0.1,0,0.3,0,0.4,0
		c2.8,0,5.6,0,8.5,0c1.3,0,2.5,0.3,3.5,1C838.3-350.5,838.9-348.5,838.1-346.8z"/>
	<path class="st8" d="M745.2-354.8c-0.7-2.2-1.9-4.1-3.7-5.6c-2.5-2.2-5.6-3.1-8.8-3.5c-1.3-0.2-2.6-0.1-3.9-0.2c-3.5,0-7,0-10.6,0
		c-4.6,0-9.2,0-13.8,0c-0.3,0-0.6,0-0.9,0c-0.6,0-0.8,0.2-1,0.8c-0.4,1.5-0.7,3-1.1,4.5c-0.6,2.8-1.3,5.5-1.9,8.3
		c-0.8,3.3-1.5,6.5-2.3,9.7c-0.2,0.9-0.4,1.8-0.6,2.7c-0.5,2.2-1,4.3-1.6,6.5c-0.4,1.8-0.9,3.7-1.3,5.5c-0.5,2-1,4-1.4,6
		c-0.2,0.9-0.4,1.8-0.6,2.7c-0.2,0.8,0,1.1,0.8,1.1c4.8,0,9.6,0,14.5,0c0.9,0,1.1-0.2,1.3-1c0.2-1.1,0.5-2.1,0.7-3.2
		c0.7-3.1,1.5-6.2,2.2-9.3c0.2-0.7,0.4-0.9,1.1-0.9c0.2,0,0.4,0,0.6,0c3.9,0,7.9,0,11.8-0.1c3.6-0.1,7-0.9,10.3-2.4
		c3.4-1.5,6.2-3.7,8.4-6.7c1.3-1.8,2.2-3.8,2.5-6C746.4-348.9,746.1-351.9,745.2-354.8z M726-342.8c-1.6,0.6-3.3,0.7-5,0.8
		c-0.7,0-1.5,0-2.3,0c0,0,0,0,0,0c-1.1,0-2.1,0-3.2,0c-0.2,0-0.5,0-0.7,0c-0.4-0.1-0.6-0.3-0.5-0.7c0-0.2,0.1-0.3,0.1-0.5
		c0.6-2.5,1.2-5.1,1.8-7.6c0.2-0.6,0.4-0.9,1.1-0.9c2.6,0,5.2-0.1,7.8,0.3c0.8,0.1,1.6,0.4,2.3,0.7c1.1,0.6,1.8,1.5,1.9,2.9
		C729.6-345.4,728.2-343.6,726-342.8z"/>
	<path class="st8" d="M715.8-293c-0.2-2.9-0.8-5.7-2.4-8.2c-1.4-2.2-3.4-3.7-5.9-4.6c-2.5-0.9-5-1.4-7.4-1.3
		c-3.7-0.1-7.1,0.6-10.2,2.3c-2.5,1.4-4.6,3.2-6.2,5.5c-2.4,3.3-3.7,6.9-4.1,10.9c-0.4,3.6-0.1,7.2,1.3,10.6
		c1.6,3.8,4.6,6.1,8.4,7.2c1.9,0.6,3.8,0.8,5.8,0.8c4.8,0.1,9.2-1.2,12.9-4.2c3.6-2.9,5.8-6.7,7-11.1
		C715.7-287.5,715.9-290.2,715.8-293z M704.6-288.9c-0.2,1.3-0.5,2.6-0.9,3.8c-0.7,2.1-1.7,3.9-3.6,5.2c-1.8,1.3-3.9,1.7-6.1,1.1
		c-1.4-0.4-2.3-1.3-2.9-2.6c-0.4-0.8-0.6-1.7-0.6-2.6c0-0.5,0-1-0.1-1.4c0-3,0.6-5.7,1.9-8.2c0.9-1.7,2.1-3.2,4-4
		c1.7-0.7,3.4-0.9,5.2-0.3c1.5,0.5,2.4,1.6,2.9,3C704.9-292.9,704.9-290.9,704.6-288.9z"/>
	<path class="st8" d="M778.3-271.8c-0.4-2.5-0.8-5-1.2-7.4c-0.2-1.5-0.5-3-0.7-4.5c-0.3-1.8-0.6-3.7-0.9-5.5
		c-0.3-1.6-0.5-3.3-0.8-4.9c-0.3-1.7-0.6-3.3-0.8-5c-0.3-2-0.6-3.9-0.9-5.9c0-0.2-0.1-0.3-0.1-0.5c-0.2-0.6-0.4-0.8-1-0.8
		c-0.4,0-0.9,0-1.3,0c-2.6,0-5.1,0-7.7,0c-0.7,0-1.1,0.2-1.4,0.8c0,0.1-0.1,0.2-0.2,0.3c-1.7,3-3.4,5.9-5.2,8.9c-2,3.5-4,6.9-6,10.4
		c-2.5,4.4-5.1,8.8-7.7,13.2c-0.3,0.5-0.6,1.1-0.9,1.6c-0.3,0.5-0.1,0.7,0.4,0.8c0.2,0,0.3,0,0.5,0c1.5,0,3,0,4.4,0
		c1.6,0,3.1,0,4.7,0c0.5,0,0.9-0.2,1.2-0.7c0.6-1.2,1.4-2.4,2-3.7c0.3-0.6,0.8-0.8,1.4-0.8c3.2,0,6.5,0,9.7,0c0.9,0,1,0.1,1.1,1.1
		c0.1,1.1,0.3,2.2,0.4,3.3c0.1,0.6,0.2,0.7,0.9,0.8c0.2,0,0.4,0,0.5,0c2.7,0,5.5,0,8.2,0C778.4-270.4,778.5-270.6,778.3-271.8z
		 M765.3-283.2c-0.8,0-1.7,0-2.5,0c0,0,0,0,0,0c-0.8,0-1.6,0-2.4,0c-0.7,0-0.9-0.4-0.6-1c1.5-2.8,2.9-5.6,4.4-8.4
		c0.2-0.3,0.3-0.8,0.7-0.7c0.5,0.1,0.3,0.6,0.3,0.9c0.2,1.9,0.4,3.9,0.6,5.8c0.1,0.8,0.2,1.6,0.3,2.4
		C766.2-283.5,766-283.3,765.3-283.2z"/>
	<path class="st8" d="M597.8-271.3c-0.2-1.2-0.4-2.3-0.5-3.5c-0.5-3-1-6-1.4-9c-0.5-3-0.9-6-1.4-9.1c-0.6-3.6-1.1-7.2-1.7-10.8
		c-0.1-0.7-0.2-1.4-0.4-2.1c-0.1-0.4-0.3-0.6-0.7-0.7c-0.2,0-0.4,0-0.5,0c-2.8,0-5.6,0-8.5,0c-0.9,0-1.4,0.3-1.8,1
		c-1.4,2.4-2.8,4.8-4.1,7.2c-2,3.4-4,6.9-6,10.3c-2,3.5-4,7-6.1,10.5c-1.1,2-2.3,3.9-3.4,5.9c-0.4,0.7-0.2,0.9,0.5,0.9
		c3.1,0,6.3,0,9.4,0c0.6,0,1-0.2,1.3-0.8c0.6-1.2,1.2-2.3,1.8-3.4c0.3-0.7,0.8-1,1.6-1c1.6,0.1,3.1,0,4.7,0c1.7,0,3.4,0,5.1,0
		c0.8,0,0.9,0.2,1,0.9c0.1,1.1,0.3,2.2,0.4,3.3c0.1,0.8,0.3,0.9,1.1,0.9c2.9,0,5.8,0,8.6,0c0.2,0,0.3,0,0.5,0
		C597.7-270.5,597.9-270.7,597.8-271.3z M584.8-283.2c-0.8,0-1.7,0-2.5,0c0,0,0,0,0,0c-0.8,0-1.6,0-2.4,0c-0.8,0-1-0.3-0.7-1
		c1.2-2.3,2.5-4.7,3.7-7c0.3-0.6,0.6-1.2,0.9-1.7c0.1-0.2,0.3-0.4,0.4-0.4c0.3,0,0.3,0.3,0.4,0.5c0.1,1.1,0.2,2.2,0.4,3.3
		c0.2,1.7,0.4,3.3,0.6,5c0,0.2,0,0.4,0,0.5C585.5-283.5,585.3-283.3,584.8-283.2z"/>
	<path class="st9" d="M542.8-292.1c0-0.2,0-0.4,0.1-0.7c0.5-2.1,0.6-4.2,0.2-6.3c-0.3-1.8-1.1-3.4-2.3-4.8c-1.6-1.9-3.7-3.3-5.9-4.4
		c-2.4-1.2-4.9-2.1-7.4-2.9c-1.1-0.3-2.1-0.8-2.9-1.6c-1.7-1.5-3.3-3.1-4.5-5.1c-0.8-1.3-1.4-2.8-1.9-4.3c-0.1-0.1-0.1-0.3-0.1-0.5
		c0-0.4,0.2-0.6,0.6-0.6c0.1,0,0.2,0.1,0.4,0.1c2.3,0.6,4.6,1.2,6.8,1.9c2.8,0.9,5.6,1.8,8.4,2.9c2.4,0.9,4.7,2.2,6.8,3.8
		c1.8,1.4,3.3,3,4.4,5.1c0.9,1.9,1.4,3.9,1.4,6.1c0.1,3.9-0.9,7.4-3,10.6c-0.2,0.3-0.5,0.5-0.7,0.8C543-292,542.9-292,542.8-292.1z"
		/>
	<path class="st10" d="M545.3-361.3c4.9,0,9.6,0,14.4,0c-0.2,0.4-0.4,0.8-0.5,1.1c-1,1.5-1.9,3.1-2.9,4.6c-0.8,1.3-1.6,2.6-2.4,3.9
		c-0.5,0.8-1,1.7-1.5,2.5c-0.1,0.2-0.3,0.4-0.5,0.7c-0.1-0.2-0.2-0.3-0.2-0.3c-0.1-0.9-0.2-1.9-0.3-2.8c0-0.2-0.1-0.3-0.1-0.5
		c-0.1-0.3-0.2-0.6-0.3-0.9c-0.4-2-1.4-3.7-2.7-5.2c-0.8-0.9-1.7-1.7-2.5-2.5C545.6-361,545.5-361.1,545.3-361.3z"/>
	<path class="st11" d="M486.1-273.7c-5,0-9.9,0-14.9,0c0.2-0.5,0.4-0.8,0.6-1.1c1-1.6,2-3.2,3-4.8c0.8-1.3,1.7-2.7,2.5-4
		c0.5-0.9,1-1.7,1.5-2.6c0.1-0.2,0.3-0.4,0.5-0.7c0.1,0.2,0.2,0.3,0.2,0.3c0.1,1,0.2,2,0.3,2.9c0,0.2,0.1,0.4,0.1,0.5
		c0.1,0.3,0.2,0.6,0.3,0.9c0.5,2.1,1.5,3.8,2.8,5.4c0.8,0.9,1.7,1.7,2.6,2.6C485.8-274.1,485.9-273.9,486.1-273.7z"/>
	<path class="st12" d="M495.1-323.9c-0.7-0.4-1.3-0.7-1.9-1.1c-0.9-0.7-1.7-1.4-2.5-2.2c-0.8-0.8-1.7-1.5-2.4-2.4
		c-1.3-1.6-2.4-3.4-3-5.4c-0.7-2.4-0.7-4.9-0.3-7.3c0.2-1.2,0.5-2.3,1-3.4c0.3-0.6,0.5-1.2,0.8-1.8c0.1-0.2,0.3-0.5,0.4-0.7
		c0.1,0,0.1,0,0.2,0.1c0,0.3,0,0.6-0.1,0.8c-0.4,1.1-0.1,2.1,0.3,3c0.6,1.8,1.8,3.3,3.1,4.7c1.1,1.1,2.1,2.2,3.4,3.1
		c0.2,0.1,0.4,0.3,0.6,0.5c0.2,0.2,0.3,0.5,0.1,0.8c-0.1,0.2-0.1,0.5-0.2,0.7c-0.2,1.1-0.4,2.3-0.6,3.4c0,0.2,0,0.3,0,0.5
		c0.2,1,0.4,2.1,0.5,3.1c0.1,1,0.4,1.9,0.6,2.8C495.1-324.3,495.1-324.2,495.1-323.9z"/>
</g>
<g>
	<g>
		<path class="st13" d="M636.1-452.5c1,3.9,1.5,8.1,1.5,12.3c0,26.1-19.9,47.5-45.3,49.9c0.2,0,0.4,0,0.6-0.1c0-9.6-0.1-21.7-0.1-30
			h33.1l-4.3-16.9h-28.8c0-2.3,0.1-4.6,0.1-6.9c0.1-3.9,1.1-7.5,6-7.9C610.4-453.1,624.2-452.7,636.1-452.5 M587.4-490.4
			c26.1,0,40,19.9,39.8,19.6c-11.7-0.2-33.9-1.8-42.1,1.8c-9.2,4.1-9.4,9.8-9.5,20.2c-0.1,6.3,0,13,0,16.9c0.1,13.9,0,32.2,0,40.4
			c0.3,0.1,0.6,0.1,0.9,0.2c-22.5-5-39.2-25-39.2-49C537.3-467.9,559.7-490.4,587.4-490.4z"/>
	</g>
	<g>
		<g>
			<path class="st8" d="M679.1-466.7h-16.5v7.4h15.2v7.5h-15.2v16.9h-9.8v-39.3h26.3V-466.7z"/>
			<path class="st8" d="M710.4-434.9h-26.2v-39.3h9.9v31.8h16.3V-434.9z"/>
			<path class="st8" d="M731-434.1c-5.3,0-9.3-1.3-12.2-3.8c-2.8-2.5-4.3-6.3-4.3-11.2v-25.1h9.9v24.5c0,2.7,0.5,4.8,1.5,6.1
				c1,1.3,2.7,2,5,2c2.3,0,3.9-0.6,5-1.9c1.1-1.3,1.6-3.3,1.6-6.2v-24.5h9.9v25c0,4.8-1.4,8.5-4.2,11.1
				C740.5-435.4,736.4-434.1,731-434.1z"/>
			<path class="st8" d="M788.2-434.9h-11.4l-7.5-12.5l-7.7,12.5h-10.9l12.7-19.8l-12.2-19.5h11.4l7.1,11.8l7.2-11.8h10.9l-12.3,19.1
				L788.2-434.9z"/>
		</g>
		<g>
			<g>
				<path class="st14" d="M659.8-427v1.8h-2.4v14.1h-2.1v-14.1h-2.4v-1.8H659.8z"/>
			</g>
			<g>
				<path class="st14" d="M670.2-414.8c-0.1,2.6-1.1,3.8-3.2,3.8c-2.3,0-3.4-1.8-3.4-5.4c0-3.9,1.2-5.8,3.5-5.8
					c0.9,0,1.6,0.3,2.2,0.9c0.8,0.8,1.1,1.9,1.1,4.3v0.8h-4.6c0,2.8,0.3,3.6,1.4,3.6c0.9,0,1.2-0.6,1.2-2.2H670.2z M668.3-417.8
					c0-2.2-0.3-3-1.2-3c-1,0-1.3,0.7-1.3,3H668.3z"/>
			</g>
			<g>
				<path class="st14" d="M681.5-411.4c-0.8,0.4-1.2,0.5-1.8,0.5c-2.2,0-3.2-1.7-3.2-5.7c0-2.3,0.4-3.8,1.2-4.6
					c0.6-0.6,1.3-0.9,2-0.9c0.5,0,0.9,0.1,1.8,0.4v1.7c-0.6-0.3-0.8-0.3-1.1-0.3c-1.2,0-1.7,1.2-1.7,4c0,2.5,0.5,3.7,1.6,3.7
					c0.4,0,0.7-0.1,1.3-0.4V-411.4z"/>
			</g>
			<g>
				<path class="st14" d="M689.5-427.5v6.4c0.8-0.8,1.5-1.1,2.2-1.1c1.5,0,2.3,0.8,2.3,2.5v8.5h-2v-7.9c0-1-0.4-1.6-1.3-1.6
					c-0.9,0-1.3,0.6-1.3,1.7v7.7h-2.1v-16.4H689.5z"/>
			</g>
			<g>
				<path class="st14" d="M702.5-421L702.5-421c0.5-0.8,1.4-1.2,2.2-1.2c1.6,0,2.4,0.9,2.4,2.6v8.5h-2v-7.9c0-1-0.5-1.6-1.3-1.6
					c-0.8,0-1.3,0.6-1.3,1.6v7.9h-2V-422h2.1V-421z"/>
			</g>
			<g>
				<path class="st14" d="M719-421.3c0.9,0.9,1.3,2.2,1.3,4.9c0,1.9-0.2,3.2-0.8,4.1c-0.6,0.9-1.5,1.4-2.6,1.4
					c-2.4,0-3.5-1.8-3.5-5.5c0-2.9,0.4-4.3,1.6-5.1c0.5-0.4,1.2-0.6,1.9-0.6h0.1C717.8-422.1,718.4-421.9,719-421.3z M715.5-417.4
					c0,2.2,0.1,3.5,0.3,4c0.2,0.5,0.5,0.7,1,0.7c1,0,1.3-0.8,1.3-3.3c0-3.7-0.3-4.6-1.3-4.6C715.8-420.5,715.5-419.7,715.5-417.4z"
					/>
			</g>
			<g>
				<path class="st14" d="M728.7-427.5v16.4h-2v-16.4H728.7z"/>
			</g>
			<g>
				<path class="st14" d="M740.6-421.3c0.9,0.9,1.3,2.2,1.3,4.9c0,1.9-0.2,3.2-0.8,4.1c-0.6,0.9-1.5,1.4-2.6,1.4
					c-2.4,0-3.5-1.8-3.5-5.5c0-2.9,0.4-4.3,1.6-5.1c0.5-0.4,1.2-0.6,1.9-0.6h0.1C739.4-422.1,740.1-421.9,740.6-421.3z M737.1-417.4
					c0,2.2,0.1,3.5,0.3,4c0.2,0.5,0.5,0.7,1,0.7c1,0,1.3-0.8,1.3-3.3c0-3.7-0.3-4.6-1.3-4.6C737.5-420.5,737.1-419.7,737.1-417.4z"
					/>
			</g>
			<g>
				<path class="st14" d="M752.3-412.6L752.3-412.6c-0.4,1-1.2,1.6-2.2,1.6c-0.8,0-1.5-0.5-1.9-1.3c-0.4-0.8-0.6-2.1-0.6-4.5
					c0-2.7,0.2-4,0.9-4.7c0.4-0.5,0.9-0.7,1.6-0.7c1,0,1.4,0.3,2.1,1.3h0.1v-1.1h2v12.3c0,2.2-1,3.2-3.3,3.2c-1.8,0-2.7-0.5-3.1-1.4
					c-0.2-0.5-0.3-0.8-0.3-1.8h2c0.1,1.3,0.5,1.8,1.4,1.8c0.8,0,1.3-0.5,1.3-1.3V-412.6z M749.8-417.1c0,3.4,0.3,4.3,1.3,4.3
					c0.9,0,1.2-0.9,1.2-3.4c0-3.5-0.2-4.3-1.2-4.3C750.2-420.5,749.8-419.5,749.8-417.1z"/>
			</g>
			<g>
				<path class="st14" d="M763.1-425.3c0,0.6-0.5,1.1-1.1,1.1c-0.6,0-1.1-0.5-1.1-1.1c0-0.6,0.5-1.1,1.1-1.1
					S763.1-425.9,763.1-425.3z M762.9-422v10.9h-2V-422H762.9z"/>
			</g>
			<g>
				<path class="st14" d="M776-414.8c-0.1,2.6-1.1,3.8-3.2,3.8c-2.3,0-3.4-1.8-3.4-5.4c0-3.9,1.2-5.8,3.5-5.8c0.9,0,1.6,0.3,2.2,0.9
					c0.8,0.8,1.1,1.9,1.1,4.3v0.8h-4.6c0,2.8,0.3,3.6,1.4,3.6c0.9,0,1.2-0.6,1.2-2.2H776z M774-417.8c0-2.2-0.3-3-1.2-3
					c-1,0-1.3,0.7-1.3,3H774z"/>
			</g>
			<g>
				<path class="st14" d="M783.3-413.1c1,0.4,1.3,0.5,1.9,0.5c0.8,0,1.3-0.5,1.3-1.2c0-0.6-0.4-1.1-1.8-2.3
					c-0.2-0.1-0.3-0.2-0.5-0.4c-0.9-0.9-1.3-1.6-1.3-2.7c0-1.7,1.3-3,3-3c0.5,0,1.1,0.1,2,0.4v1.7l-0.1-0.1
					c-0.7-0.2-1.1-0.3-1.5-0.3c-0.9,0-1.4,0.5-1.4,1.2c0,0.6,0.4,1.1,1.5,2c0.4,0.4,0.6,0.5,0.9,0.8c0.8,0.9,1.2,1.6,1.2,2.5
					c0,1.7-1.3,3-3.1,3c-0.7,0-1.1-0.1-2-0.5V-413.1z"/>
			</g>
		</g>
	</g>
</g>
<g id="Page-1">
	<g id="Artboard">
		<path id="Fill-1" class="st15" d="M-607.9,388.9h40.9c4.7,0,8.5,3.8,8.5,8.5v40.9c0,4.7-3.8,8.5-8.5,8.5h-40.9
			c-4.7,0-8.5-3.8-8.5-8.5v-40.9C-616.4,392.7-612.6,388.9-607.9,388.9"/>
		<path id="Fill-2" class="st16" d="M-540.4,388.9h40.9c4.7,0,8.5,3.8,8.5,8.5v40.9c0,4.7-3.8,8.5-8.5,8.5h-40.9
			c-4.7,0-8.5-3.8-8.5-8.5v-40.9C-548.9,392.7-545.1,388.9-540.4,388.9"/>
		<path id="Fill-3" class="st17" d="M-472.2,388.9h40.9c4.7,0,8.5,3.8,8.5,8.5v40.9c0,4.7-3.8,8.5-8.5,8.5h-40.9
			c-4.7,0-8.5-3.8-8.5-8.5v-40.9C-480.7,392.7-476.9,388.9-472.2,388.9"/>
		<path id="Fill-4" class="st18" d="M-404.3,388.9h40.9c4.7,0,8.5,3.8,8.5,8.5v40.9c0,4.7-3.8,8.5-8.5,8.5h-40.9
			c-4.7,0-8.5-3.8-8.5-8.5v-40.9C-412.8,392.7-409,388.9-404.3,388.9"/>
		<path id="Fill-5" class="st19" d="M-564.7,432c0,0.2-0.1,0.4-0.2,0.6c-0.1,0.2-0.3,0.3-0.6,0.4c-0.3,0.1-0.7,0.2-1.2,0.2
			c-0.5,0.1-1.2,0.1-2,0.1c-0.8,0-1.5,0-2-0.1c-0.5-0.1-0.9-0.1-1.2-0.2c-0.3-0.1-0.5-0.2-0.6-0.4c-0.1-0.2-0.2-0.3-0.2-0.6v-17
			c0-1-0.1-1.8-0.3-2.6c-0.2-0.8-0.5-1.5-0.8-2c-0.4-0.6-0.8-1-1.4-1.3c-0.6-0.3-1.2-0.5-2-0.5c-1,0-1.9,0.4-2.9,1.1
			c-1,0.8-2,1.8-3.2,3.3v19c0,0.2-0.1,0.4-0.2,0.6c-0.1,0.2-0.4,0.3-0.7,0.4c-0.3,0.1-0.7,0.2-1.2,0.2c-0.5,0.1-1.1,0.1-1.9,0.1
			c-0.8,0-1.4,0-1.9-0.1c-0.5-0.1-0.9-0.1-1.2-0.2c-0.3-0.1-0.5-0.2-0.7-0.4c-0.1-0.2-0.2-0.3-0.2-0.6v-17c0-1-0.1-1.8-0.3-2.6
			c-0.2-0.8-0.4-1.5-0.8-2c-0.4-0.6-0.8-1-1.4-1.3c-0.6-0.3-1.3-0.5-2-0.5c-1,0-2,0.4-3,1.1c-1,0.8-2,1.8-3.2,3.3v19
			c0,0.2-0.1,0.4-0.2,0.6c-0.1,0.2-0.4,0.3-0.7,0.4c-0.3,0.1-0.7,0.2-1.2,0.2c-0.5,0.1-1.2,0.1-2,0.1c-0.8,0-1.4,0-1.9-0.1
			c-0.5-0.1-0.9-0.1-1.2-0.2c-0.3-0.1-0.5-0.2-0.7-0.4c-0.1-0.2-0.2-0.3-0.2-0.6v-28.6c0-0.2,0.1-0.4,0.2-0.6
			c0.1-0.2,0.3-0.3,0.6-0.4c0.3-0.1,0.6-0.2,1.1-0.2c0.4-0.1,1-0.1,1.7-0.1c0.7,0,1.2,0,1.7,0.1c0.4,0.1,0.8,0.1,1,0.2
			c0.3,0.1,0.4,0.2,0.5,0.4c0.1,0.2,0.2,0.4,0.2,0.6v3.3c1.6-1.7,3.2-3,4.7-3.9c1.6-0.9,3.2-1.3,4.9-1.3c1.2,0,2.2,0.1,3.2,0.4
			c0.9,0.2,1.8,0.6,2.5,1.1c0.7,0.5,1.4,1,1.9,1.7c0.5,0.6,1,1.4,1.3,2.2c0.9-0.9,1.7-1.7,2.5-2.4c0.8-0.7,1.6-1.2,2.4-1.6
			c0.8-0.4,1.6-0.7,2.4-0.9c0.8-0.2,1.6-0.3,2.5-0.3c1.9,0,3.5,0.3,4.8,1c1.3,0.6,2.4,1.5,3.2,2.6c0.8,1.1,1.4,2.4,1.7,3.9
			c0.3,1.5,0.5,3,0.5,4.7V432"/>
		<path id="Fill-6" class="st19" d="M-511.6,415.5c0-1.2-0.1-2.4-0.3-3.5c-0.2-1.1-0.5-2.1-0.9-3c-0.4-0.9-1-1.6-1.7-2.1
			c-0.7-0.5-1.6-0.8-2.7-0.8c-0.5,0-1.1,0.1-1.6,0.2c-0.5,0.2-1.1,0.4-1.6,0.8c-0.5,0.4-1.1,0.8-1.7,1.4c-0.6,0.6-1.2,1.3-1.8,2.1
			v9.4c1.1,1.4,2.2,2.5,3.2,3.3c1,0.8,2.1,1.2,3.2,1.2c1.1,0,2-0.3,2.7-0.8c0.7-0.5,1.3-1.2,1.8-2.1c0.5-0.9,0.8-1.8,1.1-2.9
			C-511.7,417.7-511.6,416.6-511.6,415.5z M-503.2,414.9c0,2.5-0.3,4.8-0.8,6.9c-0.5,2-1.3,3.8-2.4,5.2c-1.1,1.4-2.4,2.5-3.9,3.3
			c-1.6,0.8-3.3,1.1-5.4,1.1c-0.8,0-1.6-0.1-2.3-0.2c-0.7-0.2-1.4-0.4-2-0.7c-0.6-0.3-1.3-0.7-1.9-1.2c-0.6-0.5-1.3-1.1-2-1.7V441
			c0,0.2-0.1,0.4-0.2,0.6c-0.1,0.2-0.3,0.3-0.7,0.4c-0.3,0.1-0.7,0.2-1.2,0.3c-0.5,0.1-1.2,0.1-2,0.1c-0.8,0-1.4,0-1.9-0.1
			c-0.5-0.1-0.9-0.2-1.2-0.3c-0.3-0.1-0.5-0.3-0.7-0.4c-0.1-0.2-0.2-0.4-0.2-0.6v-40c0-0.2,0.1-0.4,0.2-0.6c0.1-0.2,0.3-0.3,0.6-0.4
			c0.3-0.1,0.6-0.2,1.1-0.2c0.4-0.1,1-0.1,1.7-0.1c0.6,0,1.2,0,1.6,0.1c0.4,0.1,0.8,0.1,1,0.2c0.3,0.1,0.5,0.2,0.6,0.4
			c0.1,0.2,0.2,0.4,0.2,0.6v3.4c0.8-0.9,1.7-1.6,2.5-2.3c0.8-0.6,1.6-1.2,2.5-1.6c0.8-0.4,1.7-0.8,2.6-1c0.9-0.2,1.8-0.3,2.8-0.3
			c2.1,0,3.9,0.4,5.4,1.2c1.5,0.8,2.7,1.9,3.6,3.4c0.9,1.4,1.6,3.1,2,5C-503.4,410.7-503.2,412.8-503.2,414.9z"/>
		<path id="Fill-7" class="st19" d="M-447.7,438.9c0,0.2-0.1,0.4-0.2,0.6c-0.1,0.2-0.3,0.3-0.7,0.4c-0.3,0.1-0.7,0.2-1.2,0.2
			c-0.5,0.1-1.2,0.1-2,0.1c-0.8,0-1.4,0-1.9-0.1c-0.5-0.1-0.9-0.1-1.2-0.2c-0.3-0.1-0.5-0.2-0.7-0.4c-0.1-0.2-0.2-0.4-0.2-0.6v-42.2
			c0-0.2,0.1-0.4,0.2-0.6c0.1-0.2,0.3-0.3,0.7-0.4c0.3-0.1,0.7-0.2,1.2-0.3c0.5-0.1,1.2-0.1,1.9-0.1c0.8,0,1.4,0,2,0.1
			c0.5,0.1,0.9,0.2,1.2,0.3c0.3,0.1,0.5,0.3,0.7,0.4c0.1,0.2,0.2,0.4,0.2,0.6V438.9"/>
		<path id="Fill-8" class="st19" d="M-378.8,430.8l-3.5,10.1c-0.2,0.5-0.7,0.9-1.6,1.2c-0.9,0.2-2.1,0.3-3.8,0.3c-0.9,0-1.5,0-2-0.1
			c-0.5-0.1-0.9-0.2-1.2-0.4c-0.3-0.2-0.4-0.4-0.4-0.6c0-0.3,0-0.6,0.2-0.9l3.8-9.6c-0.3-0.1-0.5-0.3-0.8-0.6
			c-0.2-0.3-0.4-0.6-0.5-0.9l-9.8-26.3c-0.3-0.8-0.4-1.3-0.4-1.7c0-0.4,0.1-0.7,0.4-0.9c0.3-0.2,0.7-0.4,1.3-0.5
			c0.6-0.1,1.4-0.1,2.4-0.1c0.9,0,1.7,0,2.2,0c0.5,0,1,0.1,1.2,0.2c0.3,0.1,0.5,0.3,0.7,0.6c0.2,0.3,0.3,0.7,0.5,1.1l6.7,19.2h0.1
			l6.2-19.5c0.1-0.5,0.3-0.9,0.5-1.1c0.2-0.2,0.5-0.3,1-0.4c0.5-0.1,1.3-0.1,2.5-0.1c0.9,0,1.7,0,2.3,0.1c0.6,0.1,1.1,0.2,1.3,0.5
			c0.3,0.2,0.4,0.5,0.4,0.9c0,0.4-0.1,0.9-0.3,1.4L-378.8,430.8"/>
		<path id="Fill-9" class="st20" d="M-743.1,388.9h40.9c4.7,0,8.5,3.8,8.5,8.5v40.9c0,4.7-3.8,8.5-8.5,8.5h-40.9
			c-4.7,0-8.5-3.8-8.5-8.5v-40.9C-751.6,392.7-747.8,388.9-743.1,388.9"/>
		<path id="Fill-10" class="st19" d="M-710.6,424c0,1.6-0.3,3.1-0.9,4.3c-0.6,1.2-1.5,2.3-2.6,3.1c-1.1,0.8-2.4,1.5-4,1.9
			c-1.5,0.4-3.2,0.6-4.9,0.6c-1.1,0-2.1-0.1-3.1-0.2c-1-0.2-1.8-0.4-2.6-0.6c-0.8-0.3-1.4-0.5-1.9-0.8c-0.5-0.3-0.9-0.5-1.1-0.7
			c-0.2-0.2-0.4-0.6-0.5-1.1c-0.1-0.5-0.2-1.2-0.2-2.1c0-0.6,0-1.1,0.1-1.5c0-0.4,0.1-0.7,0.2-0.9c0.1-0.2,0.2-0.4,0.3-0.4
			c0.1-0.1,0.3-0.1,0.5-0.1c0.2,0,0.6,0.1,1,0.4c0.5,0.3,1,0.6,1.7,0.9c0.7,0.3,1.5,0.6,2.4,0.9c0.9,0.3,1.9,0.4,3.1,0.4
			c0.7,0,1.4-0.1,1.9-0.2c0.6-0.2,1.1-0.4,1.5-0.6c0.4-0.3,0.7-0.6,1-1.1c0.2-0.4,0.3-0.9,0.3-1.5c0-0.6-0.2-1.2-0.6-1.7
			c-0.4-0.5-0.9-0.9-1.6-1.2c-0.6-0.3-1.4-0.7-2.2-1c-0.8-0.3-1.7-0.6-2.5-1c-0.9-0.4-1.7-0.8-2.5-1.2c-0.8-0.5-1.6-1.1-2.2-1.7
			c-0.6-0.7-1.2-1.5-1.6-2.5c-0.4-1-0.6-2.1-0.6-3.5c0-1.4,0.3-2.6,0.8-3.8c0.5-1.1,1.3-2.1,2.3-2.9c1-0.8,2.2-1.4,3.7-1.9
			c1.4-0.5,3.1-0.7,4.9-0.7c0.9,0,1.8,0.1,2.6,0.2c0.8,0.1,1.6,0.3,2.3,0.5c0.7,0.2,1.3,0.4,1.7,0.6c0.5,0.2,0.8,0.4,1,0.6
			c0.2,0.2,0.3,0.3,0.4,0.5c0.1,0.2,0.2,0.4,0.2,0.6c0,0.2,0.1,0.5,0.1,0.8c0,0.3,0.1,0.7,0.1,1.2c0,0.6,0,1.1-0.1,1.4
			c0,0.4-0.1,0.7-0.2,0.9c-0.1,0.2-0.2,0.4-0.3,0.4c-0.1,0.1-0.3,0.1-0.4,0.1c-0.2,0-0.5-0.1-0.9-0.3c-0.4-0.2-0.9-0.5-1.5-0.7
			c-0.6-0.3-1.3-0.5-2.1-0.7c-0.8-0.2-1.7-0.3-2.7-0.3c-0.7,0-1.4,0.1-1.9,0.2c-0.5,0.2-1,0.4-1.3,0.6c-0.4,0.3-0.6,0.6-0.8,1
			c-0.2,0.4-0.2,0.8-0.2,1.2c0,0.7,0.2,1.2,0.6,1.7c0.4,0.4,0.9,0.8,1.6,1.2c0.7,0.3,1.4,0.7,2.3,1c0.8,0.3,1.7,0.6,2.6,1
			c0.9,0.4,1.7,0.8,2.6,1.2c0.8,0.5,1.6,1,2.3,1.7c0.7,0.7,1.2,1.5,1.6,2.5C-710.8,421.6-710.6,422.7-710.6,424"/>
		<path id="Fill-11" class="st21" d="M-676.2,388.9h40.9c4.7,0,8.5,3.8,8.5,8.5v40.9c0,4.7-3.8,8.5-8.5,8.5h-40.9
			c-4.7,0-8.5-3.8-8.5-8.5v-40.9C-684.7,392.7-680.9,388.9-676.2,388.9"/>
		<path id="Fill-12" class="st19" d="M-651.1,397.9c0,1.6-0.3,2.7-1,3.4c-0.7,0.6-1.9,0.9-3.7,0.9c-1.8,0-3-0.3-3.7-0.9
			c-0.6-0.6-1-1.7-1-3.2c0-1.6,0.3-2.7,1-3.4c0.6-0.6,1.9-1,3.7-1c1.8,0,3,0.3,3.7,0.9C-651.4,395.2-651.1,396.3-651.1,397.9z
			 M-651.7,432.4c0,0.2-0.1,0.4-0.2,0.6c-0.1,0.2-0.3,0.3-0.7,0.4c-0.3,0.1-0.7,0.2-1.2,0.2c-0.5,0.1-1.2,0.1-2,0.1
			c-0.8,0-1.4,0-1.9-0.1c-0.5-0.1-0.9-0.1-1.2-0.2c-0.3-0.1-0.5-0.2-0.7-0.4c-0.1-0.2-0.2-0.4-0.2-0.6v-24.8c0-0.2,0.1-0.4,0.2-0.6
			c0.1-0.2,0.3-0.3,0.7-0.4c0.3-0.1,0.7-0.2,1.2-0.3c0.5-0.1,1.2-0.1,1.9-0.1c0.8,0,1.4,0,2,0.1c0.5,0.1,0.9,0.2,1.2,0.3
			c0.3,0.1,0.5,0.3,0.7,0.4c0.1,0.2,0.2,0.3,0.2,0.6V432.4z"/>
	</g>
</g>
<path class="st22" d="M67.6,47.4l-16-10.5L7.9,10c3.3,3.7,5.9,8,7.6,12.6c1.2,3,2,6.1,2.4,9.3l32.8,20.5c1.2,0.8,1.5,2.5,0.7,3.7
	c0,0,0,0,0,0l-0.1,0.2l0,0l-0.1,0.1L51,56.7h-0.1l-0.2,0.2L19,76.2c-0.9,0.6-2,0.4-2.6-0.5c0,0,0,0,0,0C16.2,75.3,16,75,16,74.6v-44
	c-0.4-2.7-1.2-5.4-2.1-8c-2.3-6.4-6.3-12-11.5-16.3l-1-0.7v82.8c0,4.5,3.7,8.1,8.1,8.1c1.6,0,3.1-0.5,4.4-1.3l53.7-33.5
	c4-2.6,5.1-7.9,2.5-11.9C69.4,48.9,68.6,48.1,67.6,47.4z"/>
<linearGradient id="SVGID_1_" gradientUnits="userSpaceOnUse" x1="1.3817" y1="943.1145" x2="71.49" y2="943.1145" gradientTransform="matrix(1 0 0 1 0 -892)">
	<stop  offset="0" style="stop-color:#5690FF;stop-opacity:0.99"/>
	<stop  offset="1" style="stop-color:#0052E0"/>
</linearGradient>
<path class="st23" d="M67.6,47.4l-16-10.5c5.3,4.3,6.1,12.1,1.8,17.5c0,0,0,0-0.1,0.1c-0.6,0.8-1.3,1.4-2.1,2l0,0l-0.1,0.1L51,56.7
	l0,0l-0.2,0.2L28,70.3l0,0l-8.8,5.9c-0.8,0.6-2,0.5-2.7-0.3c0-0.1-0.1-0.1-0.1-0.2c-0.2-0.3-0.3-0.7-0.3-1.1V30.7
	c-0.5-2.7-1.2-5.4-2.2-8c-2.3-6.4-6.3-12-11.5-16.3l-1-0.7v82.8c0,4.5,3.7,8.1,8.1,8.1c1.6,0,3.1-0.5,4.4-1.3l53.7-33.5
	c4-2.6,5.1-7.9,2.5-11.9C69.4,48.9,68.6,48.1,67.6,47.4z"/>
<path class="st24" d="M116.8,68h-7.7c-0.6,0-0.8-0.5-1-1l-6.8-12.7h-0.6c-1.1,0-2.6-0.1-3.5-0.1V67c0,0.5-0.5,1-1,1h-6.6
	c-0.5,0-1-0.5-1-1V33.3c0-1.8,0.7-2.2,2.3-2.4c3.4-0.4,6.8-0.7,10.2-0.7c8.6,0,15.1,2.9,15.1,11.8v0.6c0.3,4.4-2.4,8.5-6.5,10.1
	l7.6,14.2c0.1,0.2,0.1,0.4,0.2,0.6C117.5,67.8,117.3,68,116.8,68z M107.7,42c0-3.1-2.4-4.5-6.6-4.5c-0.7,0-3.3,0.1-3.9,0.2v9.7
	l3.5,0.1c5.3,0,7-1.3,7-4.8V42z"/>
<path class="st24" d="M145.7,56.2h-16v0.1c0,2.9,1.2,5.5,5.3,5.5c3.2,0,7.6-0.2,9.7-0.5h0.2c0.6,0,0.9,0.2,0.9,0.8v3.8
	c0,0.8-0.2,1.2-1.1,1.3c-3.4,0.9-6.8,1.3-10.3,1.2c-6.1,0-12.6-3.2-12.6-12.9v-3.5c0-8.1,4.7-13.2,12.7-13.2s12.5,5.6,12.5,13.2V55
	C146.8,55.7,146.4,56.2,145.7,56.2z M138.8,50.9c0-3.7-1.8-5.6-4.5-5.6c-2.8,0-4.6,1.9-4.6,5.6v0.2h9.2V50.9z"/>
<path class="st24" d="M175.6,68h-6.2c-0.6,0-1-0.5-1-1.1V49.3c0-2.2-0.4-3.8-3-3.8h-2.5c-2.6,0-3,1.6-3,3.8V67c0,0.6-0.4,1-1,1.1
	h-6.2c-0.5,0-1-0.5-0.9-1.1V49.3c0-7,3.9-10.5,11.1-10.5h2.5c7.2,0,11.1,3.5,11.1,10.5V67C176.5,67.6,176.1,68,175.6,68z"/>
<path class="st24" d="M204.7,67.2c-3.5,0.8-7.1,1.3-10.7,1.3c-8.2,0-12.6-4.7-12.6-12.9v-3.9c0-7.9,4.1-12.9,12.6-12.9
	c1.4,0,2.8,0.2,4.1,0.4v-8.8c0-0.5,0.5-1,1-1h6c0.6,0,1,0.4,1.1,1v35.2C206.2,66.5,206,66.9,204.7,67.2z M198.1,45.8
	c-1.4-0.2-2.7-0.2-4.1-0.2c-3.5,0-4.5,2.6-4.5,6.1v3.9c0,3.5,1,6.2,4.5,6.2c1.4,0,2.8-0.1,4.1-0.3V45.8z"/>
<path class="st24" d="M235.6,56.2h-16v0.1c0,2.9,1.2,5.5,5.3,5.5c3.2,0,7.6-0.2,9.7-0.5l0,0c0.6,0,0.9,0.2,0.9,0.8v3.8
	c0,0.8-0.2,1.2-1.1,1.3c-3.4,0.9-6.8,1.3-10.3,1.2c-6.1,0-12.6-3.2-12.6-12.9v-3.5c0-8.1,4.7-13.2,12.7-13.2s12.4,5.6,12.4,13.2V55
	C236.7,55.7,236.3,56.2,235.6,56.2z M228.7,50.9c0-3.7-1.8-5.6-4.5-5.6c-2.8,0-4.6,1.9-4.6,5.6v0.2h9.2V50.9z"/>
<path class="st24" d="M254.6,45.6c-1.5,0-3,0.1-4.5,0.3V67c0,0.6-0.4,1-1,1.1H243c-0.6,0-1-0.5-1.1-1.1V41.9c0-0.7,0.4-1.2,1.6-1.6
	c3.6-1.1,7.4-1.6,11.1-1.5c0.6,0,1.3,0.2,1.3,0.9v4.9C256,45.2,255.6,45.6,254.6,45.6z"/>
<path class="st24" d="M275,45.3h-6.8V67c0,0.6-0.5,1-1.1,1.1H261c-0.6,0-1-0.5-1.1-1.1V37.2c0-7,4.7-8.5,9.8-8.5
	c1.8,0,3.7,0.2,5.5,0.5c0.6,0.1,0.8,0.3,0.8,0.6V34c0,0.6-0.2,0.8-0.7,0.8h-5.3c-1.6,0-1.9,0.9-1.9,2.4v2h6.8c0.5,0,1,0.5,1,1v4
	C276,44.8,275.6,45.3,275,45.3C275,45.3,275,45.3,275,45.3L275,45.3z"/>
<path class="st24" d="M292.1,68.5c-8.2,0-12.6-5.1-12.6-13.1v-3.5c0-8,4.5-13.1,12.6-13.1s12.6,5.1,12.6,13.1v3.5
	C304.7,63.4,300.3,68.5,292.1,68.5z M296.6,51.9c0-4.1-1.6-6.1-4.5-6.1s-4.5,2.1-4.5,6.1v3.5c0,4.1,1.6,6.2,4.5,6.2s4.5-2.1,4.5-6.2
	V51.9z"/>
<path class="st24" d="M322.6,45.6c-1.5,0-3,0.1-4.5,0.3V67c0,0.6-0.4,1-1,1.1H311c-0.6,0-1-0.5-1.1-1.1V41.9c0-0.7,0.4-1.2,1.6-1.6
	c3.6-1.1,7.4-1.6,11.1-1.5c0.6,0,1.3,0.2,1.3,0.9v4.9C324,45.2,323.5,45.6,322.6,45.6z"/>
<path class="st24" d="M351.5,56.2h-16v0.1c0,2.9,1.2,5.5,5.3,5.5c3.2,0,7.6-0.2,9.7-0.5h0.2c0.6,0,0.9,0.2,0.9,0.8v3.8
	c0,0.8-0.2,1.2-1.1,1.3c-3.4,0.9-6.8,1.3-10.3,1.2c-6.1,0-12.6-3.2-12.6-12.9v-3.5c0-8.1,4.7-13.2,12.7-13.2c8,0,12.4,5.6,12.4,13.2
	V55C352.6,55.6,352.1,56.1,351.5,56.2z M344.6,50.9c0-3.7-1.8-5.6-4.5-5.6c-2.8,0-4.6,1.9-4.6,5.6v0.2h9.2V50.9z"/>
<path class="st24" d="M367.2,68.5c-3.1,0-6.2-0.4-9.2-1.1c-0.6-0.1-1-0.6-0.9-1.2v-4.1c0-0.5,0.4-0.9,0.9-0.9c0,0,0,0,0,0h0.2
	c2.7,0.4,7,0.7,8.6,0.7c2.4,0,3-0.6,3-2c0-0.8-0.5-1.3-1.9-2.1l-6.5-3.8c-2.8-1.4-4.5-4.3-4.5-7.4c0-5.1,3.4-7.8,10.3-7.8
	c3,0,6,0.4,9,1.2c0.6,0.1,1,0.6,0.9,1.2v4.1c0,0.6-0.3,0.9-0.8,0.9h-0.2c-2.8-0.4-5.6-0.6-8.3-0.6c-2,0-2.7,0.3-2.7,1.5
	c0,0.8,0.6,1.2,1.6,1.8l6.2,3.5c4.2,2.4,5.1,5,5.1,7.7C377.9,64.8,374.5,68.5,367.2,68.5z"/>
<path class="st24" d="M398,45.3h-6.9v14.9c0,1.8,0.8,2.1,3,2.1h3.8c0.6,0,1.1,0.3,1.1,0.9V67c0,0.6-0.4,0.9-1,1c-2,0.3-4,0.5-6,0.5
	c-5.6,0-9-1.8-9-8.3V35c0-0.5,0.5-1,1-1l6.1-1.1h0.2c0.5,0.1,0.9,0.5,0.9,1v5.3h6.9c0.5,0,1,0.5,1,1v4.1
	C399,44.8,398.6,45.3,398,45.3C398,45.3,398,45.3,398,45.3L398,45.3z"/>
</svg>
