<?xml version="1.0" encoding="utf-8"?>
<!-- Generator: Adobe Illustrator 22.0.0, SVG Export Plug-In . SVG Version: 6.00 Build 0)  -->
<svg version="1.1" id="Calque_1" xmlns="http://www.w3.org/2000/svg" xmlns:xlink="http://www.w3.org/1999/xlink" x="0px" y="0px"
	 viewBox="0 0 354.3 89" style="enable-background:new 0 0 354.3 89;" xml:space="preserve">
<style type="text/css">
	.st0{clip-path:url(#SVGID_2_);fill:url(#SVGID_3_);}
	.st1{clip-path:url(#SVGID_5_);fill:url(#SVGID_6_);}
	.st2{clip-path:url(#SVGID_8_);fill:url(#SVGID_9_);}
	.st3{clip-path:url(#SVGID_11_);fill:url(#SVGID_12_);}
	.st4{fill:#FFFFFF;}
</style>
<g>
	<defs>
		<path id="SVGID_1_" d="M244.4,63.5c14.4,15.9,58.4,31.9,44.4-11.8l-4.2-1.8c-11.3-2-20-2.9-26.7-2.9
			C237.4,47,236.9,55.2,244.4,63.5"/>
	</defs>
	<clipPath id="SVGID_2_">
		<use xlink:href="#SVGID_1_"  style="overflow:visible;"/>
	</clipPath>
	
		<linearGradient id="SVGID_3_" gradientUnits="userSpaceOnUse" x1="1.273293e-11" y1="88.7847" x2="1" y2="88.7847" gradientTransform="matrix(40.0524 -21.2962 -21.2962 -40.0524 2143.3904 3636.374)">
		<stop  offset="0" style="stop-color:#00AEE6"/>
		<stop  offset="5.618000e-03" style="stop-color:#00AADE"/>
		<stop  offset="8.349427e-02" style="stop-color:#62A5D5"/>
		<stop  offset="0.2564" style="stop-color:#C391BF"/>
		<stop  offset="0.3483" style="stop-color:#EE83B2"/>
		<stop  offset="0.5843" style="stop-color:#EF9578"/>
		<stop  offset="0.6725" style="stop-color:#EE9476"/>
		<stop  offset="0.7508" style="stop-color:#EB9270"/>
		<stop  offset="0.8253" style="stop-color:#E68F65"/>
		<stop  offset="0.8974" style="stop-color:#E08B54"/>
		<stop  offset="0.9673" style="stop-color:#D9873D"/>
		<stop  offset="1" style="stop-color:#D58431"/>
	</linearGradient>
	<polygon class="st0" points="216.8,57.6 288.3,19.7 322.8,84.7 251.4,122.7 	"/>
</g>
<g>
	<defs>
		<path id="SVGID_4_" d="M285.3,50.4l3.3,1.2C303.3,30.9,281.9,9,272,9C264.9,9,263.7,20.1,285.3,50.4"/>
	</defs>
	<clipPath id="SVGID_5_">
		<use xlink:href="#SVGID_4_"  style="overflow:visible;"/>
	</clipPath>
	
		<linearGradient id="SVGID_6_" gradientUnits="userSpaceOnUse" x1="6.366463e-12" y1="89.0123" x2="1" y2="89.0123" gradientTransform="matrix(32.9743 20.6046 20.6046 -32.9743 -1570.2902 2953.1399)">
		<stop  offset="0" style="stop-color:#7E97C4"/>
		<stop  offset="0.3989" style="stop-color:#EF9347"/>
		<stop  offset="0.6968" style="stop-color:#ED9245"/>
		<stop  offset="0.8418" style="stop-color:#E68E3F"/>
		<stop  offset="0.9533" style="stop-color:#DB8836"/>
		<stop  offset="1" style="stop-color:#D58431"/>
	</linearGradient>
	<polygon class="st1" points="274.8,-8.8 322.5,21 292.2,69.5 244.5,39.7 	"/>
</g>
<g>
	<defs>
		<path id="SVGID_7_" d="M298.2,51.9l3.3-1.2c21.7-30.3,20.4-41.4,13.4-41.4C304.9,9.3,283.5,31.1,298.2,51.9"/>
	</defs>
	<clipPath id="SVGID_8_">
		<use xlink:href="#SVGID_7_"  style="overflow:visible;"/>
	</clipPath>
	
		<linearGradient id="SVGID_9_" gradientUnits="userSpaceOnUse" x1="0" y1="89.0123" x2="1" y2="89.0123" gradientTransform="matrix(-32.9746 20.6048 -20.6048 -32.9746 2157.1406 2953.4084)">
		<stop  offset="0" style="stop-color:#7E97C4"/>
		<stop  offset="0.3989" style="stop-color:#EF9347"/>
		<stop  offset="0.6968" style="stop-color:#ED9245"/>
		<stop  offset="0.8418" style="stop-color:#E68E3F"/>
		<stop  offset="0.9533" style="stop-color:#DB8836"/>
		<stop  offset="1" style="stop-color:#D58431"/>
	</linearGradient>
	<polygon class="st2" points="312,-8.5 264.4,21.2 294.6,69.7 342.3,39.9 	"/>
</g>
<g>
	<defs>
		<path id="SVGID_10_" d="M302.1,49.9l-4.2,1.8c-14,43.7,30,27.7,44.4,11.8c7.5-8.2,7-16.5-13.5-16.5
			C322.1,47,313.4,47.9,302.1,49.9"/>
	</defs>
	<clipPath id="SVGID_11_">
		<use xlink:href="#SVGID_10_"  style="overflow:visible;"/>
	</clipPath>
	
		<linearGradient id="SVGID_12_" gradientUnits="userSpaceOnUse" x1="5.456968e-12" y1="88.7847" x2="1" y2="88.7847" gradientTransform="matrix(-40.05 -21.295 21.295 -40.05 -1556.6632 3636.1621)">
		<stop  offset="0" style="stop-color:#00AEE6"/>
		<stop  offset="5.618000e-03" style="stop-color:#00AADE"/>
		<stop  offset="8.349427e-02" style="stop-color:#62A5D5"/>
		<stop  offset="0.2564" style="stop-color:#C391BF"/>
		<stop  offset="0.3483" style="stop-color:#EE83B2"/>
		<stop  offset="0.5843" style="stop-color:#EF9578"/>
		<stop  offset="0.6725" style="stop-color:#EE9476"/>
		<stop  offset="0.7508" style="stop-color:#EB9270"/>
		<stop  offset="0.8253" style="stop-color:#E68F65"/>
		<stop  offset="0.8974" style="stop-color:#E08B54"/>
		<stop  offset="0.9673" style="stop-color:#D9873D"/>
		<stop  offset="1" style="stop-color:#D58431"/>
	</linearGradient>
	<polygon class="st3" points="369.8,57.6 298.3,19.7 263.8,84.7 335.2,122.7 	"/>
</g>
<path class="st4" d="M65.2,37.9c0,2-2.1,3.1-6.2,3.1h-9.9c-2.6,0-4.5-0.6-5.6-1.8l-7-7.8l-7.3,8.1c-1,1.2-2.9,1.8-5.6,1.8h-9.9
	c-4.1,0-6.1-1-6.1-3.1V12.8c0-1,0.6-1.7,1.8-2.3c1.2-0.5,2.7-0.8,4.3-0.8c1.7,0,3.1,0.3,4.3,0.8c1.2,0.5,1.8,1.3,1.8,2.3v22.1
	L31,22.6c1.4-1.6,3.3-2.3,5.6-2.3c2.3,0,4.2,0.8,5.6,2.3l10.8,12V12.5c0-0.9,0.6-1.7,1.9-2.3c1.1-0.5,2.5-0.8,4.2-0.8
	c1.6,0,3.1,0.3,4.3,0.8c1.2,0.5,1.8,1.3,1.8,2.2V37.9z"/>
<path class="st4" d="M110.1,41.1H93c-5.7,0-10.8-0.7-15.3-2.1c-4.9-1.5-7.5-3.4-7.9-5.6v-16c0-1.9,1.7-3.6,5.2-5.1
	c4.3-1.8,10.2-2.7,17.8-2.7h17.2c1.9,0,3.5,0.3,4.6,1c1,0.6,1.5,1.3,1.5,2.1c0,0.8-0.5,1.5-1.5,2.1c-1.2,0.6-2.7,0.9-4.6,0.9h-17
	c-3.4,0-6.1,0.2-8,0.7c-2,0.5-3,1-3,1.7v14.5c0.3,0.8,1.7,1.4,4.1,1.8c2,0.4,4.3,0.6,6.8,0.6h17.1c1.9,0,3.5,0.3,4.6,0.9
	c1,0.6,1.5,1.3,1.5,2.1c0,0.8-0.5,1.5-1.5,2.1C113.6,40.8,112.1,41.1,110.1,41.1 M100.1,25.2H88.8c-1.9,0-3.4-0.3-4.5-0.9
	c-1.1-0.6-1.6-1.3-1.6-2.1c0-0.8,0.5-1.6,1.6-2.2c1.1-0.6,2.6-0.9,4.5-0.9h11.3c2,0,3.5,0.3,4.6,0.9c1.1,0.6,1.6,1.3,1.6,2.2
	c0,0.8-0.5,1.5-1.6,2.1C103.6,24.9,102.1,25.2,100.1,25.2"/>
<path class="st4" d="M167,32.6c0.1,1.9-1.7,3.6-5.3,5.3c-4.5,2.1-10.4,3.2-17.7,3.2h-17.2c-4.1,0-6.1-1-6.1-3V12.7
	c0-2,2-3.1,6.1-3.1h17.2c5.7,0,10.7,0.6,15.1,1.8c4.8,1.3,7.5,3.1,8,5.2c0-0.1,0-0.1,0-0.2c0.2,0.4,0.3,0.9,0.3,1.4
	c0,1.8-1.5,3.4-4.5,4.8c2.5,1.2,3.9,2.6,4.2,4.2V32.6z M154.8,17.7l-0.1-0.3c-0.1-0.8-1.4-1.3-3.9-1.5c-0.8-0.1-3.1-0.1-7-0.1h-11
	V35h10.7c3.3,0,6.1-0.4,8.2-1.2c2-0.7,3-1.6,3-2.6v-3.4c-0.2-1.1-1.7-1.8-4.5-2.1c-1.2-0.2-4.7-0.3-10.6-0.3c-1.9,0-3.5-0.3-4.6-1
	c-1-0.5-1.6-1.2-1.6-2.1c0-0.8,0.5-1.5,1.6-2.1c1.1-0.6,2.6-0.9,4.5-1c3,0,6.5,0,10.6,0C153.7,19,155.2,18.5,154.8,17.7"/>
<path class="st4" d="M220.1,32.6c0.1,1.9-1.7,3.6-5.3,5.3c-4.5,2.1-10.4,3.2-17.7,3.2h-17.2c-4.1,0-6.1-1-6.1-3V12.7
	c0-2,2-3.1,6.1-3.1H197c5.7,0,10.7,0.6,15.1,1.8c4.8,1.3,7.5,3.1,8,5.2c0-0.1,0-0.1,0-0.2c0.2,0.4,0.3,0.9,0.3,1.4
	c0,1.8-1.5,3.4-4.5,4.8c2.5,1.2,3.9,2.6,4.2,4.2V32.6z M207.9,17.7l-0.1-0.3c-0.1-0.8-1.4-1.3-3.9-1.5c-0.8-0.1-3.1-0.1-7-0.1h-11
	V35h10.7c3.3,0,6.1-0.4,8.2-1.2c2-0.7,3-1.6,3-2.6v-3.4c-0.2-1.1-1.7-1.8-4.5-2.1c-1.2-0.2-4.7-0.3-10.6-0.3c-1.9,0-3.5-0.3-4.6-1
	c-1-0.5-1.6-1.2-1.6-2.1c0-0.8,0.5-1.5,1.6-2.1c1.1-0.6,2.6-0.9,4.5-1c3,0,6.5,0,10.6,0C206.8,19,208.3,18.5,207.9,17.7"/>
<path class="st4" d="M29.8,57.6h-9.3c-1.8,0-3.3,0.2-4.4,0.6c-1.1,0.4-1.6,0.9-1.6,1.4v17c0,0.8-0.3,1.4-1,1.9
	c-0.7,0.5-1.4,0.7-2.4,0.7c-0.9,0-1.7-0.2-2.3-0.7c-0.7-0.5-1-1.1-1-1.9V59.1c0-1.6,1-3.1,2.9-4.3c2.3-1.6,5.6-2.3,9.8-2.3h9.3
	c1,0,1.9,0.3,2.5,0.8c0.5,0.5,0.8,1.1,0.8,1.8c0,0.7-0.3,1.3-0.8,1.8C31.7,57.3,30.9,57.6,29.8,57.6 M24.3,65.7h-6.2
	c-1,0-1.9-0.3-2.5-0.8c-0.6-0.5-0.9-1.1-0.9-1.8c0-0.7,0.3-1.3,0.9-1.8c0.6-0.5,1.4-0.8,2.5-0.8h6.2c1.1,0,1.9,0.3,2.5,0.8
	c0.6,0.5,0.9,1.1,0.9,1.8c0,0.7-0.3,1.3-0.9,1.8C26.3,65.5,25.4,65.7,24.3,65.7"/>
<path class="st4" d="M60.7,72.7c0,1.6-1,3.1-2.9,4.4c-2.3,1.5-5.6,2.3-9.8,2.3c-3.1,0-5.9-0.5-8.3-1.7c-2.7-1.3-4.1-2.9-4.3-4.9
	V58.9c0-1.7,1-3.2,2.9-4.5c2.3-1.5,5.5-2.2,9.7-2.3c3.1,0,6,0.6,8.6,1.9c2.6,1.3,4,2.9,4.2,4.8V72.7z M54,72.1V59.7
	c-0.1-0.8-0.8-1.4-2.1-1.8c-1.1-0.3-2.4-0.5-3.9-0.5c-4,0.1-5.9,0.8-5.9,2.1v12.6c0.2,0.7,0.9,1.2,2.2,1.6c1.1,0.3,2.3,0.5,3.7,0.5
	c1.9,0,3.3-0.2,4.4-0.6C53.5,73.2,54,72.7,54,72.1"/>
<path class="st4" d="M83.4,65.9c0.2,0.4,0.3,0.8,0.3,1.2c0,0.7-0.3,1.3-1,1.8c-0.7,0.5-1.5,0.7-2.4,0.7c-1.3,0-2.3-0.5-2.9-1.5
	l-6-10v18.6c0,0.8-0.3,1.4-1,1.9c-0.7,0.5-1.4,0.7-2.3,0.7c-0.9,0-1.7-0.2-2.3-0.7c-0.7-0.5-1-1.1-1-2V55c0-1.7,1.1-2.6,3.3-2.6h5.4
	c1.4,0,2.4,0.5,3,1.5L83.4,65.9z M90.6,76.7c0,0.8-0.3,1.4-1,1.9c-0.7,0.5-1.4,0.7-2.3,0.7s-1.7-0.2-2.3-0.7c-0.7-0.5-1-1.1-1-1.9
	V55c0-0.8,0.3-1.4,1-1.9c0.7-0.5,1.4-0.7,2.3-0.7s1.7,0.2,2.3,0.7c0.7,0.5,1,1.1,1,1.9V76.7z"/>
<path class="st4" d="M115.7,57.7H97c-1,0-1.9-0.3-2.5-0.8c-0.6-0.5-0.9-1.1-0.9-1.8c0-0.7,0.3-1.3,0.9-1.8c0.6-0.5,1.4-0.8,2.5-0.8
	h18.7c1,0,1.9,0.3,2.5,0.8c0.5,0.5,0.8,1.1,0.8,1.8c0,0.7-0.3,1.3-0.8,1.8C117.6,57.4,116.8,57.7,115.7,57.7 M109.5,79.5
	c-2.3,0-4.3-0.5-6.2-1.3c-2-1-3.1-2.2-3.3-3.6v-14c0-0.8,0.3-1.5,1-2c0.6-0.4,1.4-0.7,2.3-0.7c0.9,0,1.7,0.2,2.3,0.7
	c0.7,0.5,1,1.1,1,1.9v12.7c0.1,0.3,0.5,0.5,1.1,0.7c0.6,0.2,1.2,0.3,1.7,0.3c1,0,1.9,0.3,2.4,0.8c0.6,0.5,0.9,1.1,0.9,1.8
	c0,0.7-0.3,1.3-0.9,1.8C111.4,79.2,110.6,79.5,109.5,79.5"/>
<path class="st4" d="M147.2,76.6c0,0.8-0.3,1.5-1,2c-0.7,0.5-1.4,0.7-2.3,0.7c-0.9,0-1.7-0.2-2.4-0.7c-0.7-0.5-1-1.1-1-2V59
	c0-1.1-1.9-1.7-5.8-1.6c-4,0-6,0.5-6,1.4v17.8c0,0.8-0.3,1.5-1,2c-0.7,0.5-1.4,0.7-2.4,0.7c-0.9,0-1.7-0.2-2.3-0.7
	c-0.7-0.5-1-1.1-1-2V58.8c0-1.6,0.9-3,2.8-4.3c2.3-1.5,5.5-2.3,9.7-2.4c3.1-0.1,5.8,0.5,8.3,1.7c2.7,1.3,4.1,2.9,4.3,4.8V76.6z
	 M136.7,65.8h-4.4c-1,0-1.9-0.3-2.5-0.8c-0.6-0.5-0.9-1.1-0.9-1.8c0-0.7,0.3-1.3,0.9-1.8c0.6-0.5,1.4-0.8,2.5-0.8h4.4
	c1,0,1.9,0.3,2.5,0.8c0.5,0.5,0.8,1.1,0.8,1.8c0,0.7-0.3,1.3-0.8,1.8C138.6,65.5,137.7,65.8,136.7,65.8"/>
<path class="st4" d="M159.7,76.7c0,0.9-0.3,1.6-1,2.1c-0.7,0.5-1.5,0.8-2.4,0.8c-0.9,0-1.7-0.2-2.3-0.7c-0.6-0.5-1-1.2-1-2.1V55
	c0-0.8,0.3-1.5,1-2c0.7-0.5,1.4-0.7,2.3-0.7c0.9,0,1.7,0.2,2.4,0.7c0.6,0.5,1,1.1,1,2V76.7z"/>
<path class="st4" d="M184.4,65.9c0.2,0.4,0.3,0.8,0.3,1.2c0,0.7-0.3,1.3-1,1.8s-1.5,0.7-2.4,0.7c-1.3,0-2.3-0.5-2.9-1.5l-6-10v18.6
	c0,0.8-0.3,1.4-1,1.9c-0.7,0.5-1.4,0.7-2.3,0.7c-0.9,0-1.7-0.2-2.3-0.7c-0.7-0.5-1-1.1-1-2V55c0-1.7,1.1-2.6,3.3-2.6h5.4
	c1.4,0,2.4,0.5,3,1.5L184.4,65.9z M191.7,76.7c0,0.8-0.3,1.4-1,1.9c-0.7,0.5-1.4,0.7-2.3,0.7c-0.9,0-1.7-0.2-2.3-0.7
	c-0.7-0.5-1-1.1-1-1.9V55c0-0.8,0.3-1.4,1-1.9c0.7-0.5,1.4-0.7,2.3-0.7c0.9,0,1.7,0.2,2.3,0.7c0.7,0.5,1,1.1,1,1.9V76.7z"/>
<path class="st4" d="M217.1,79.3h-9.3c-3.1,0-5.9-0.6-8.3-1.8c-2.7-1.3-4.1-2.9-4.3-4.8V59.1c0-1.6,1-3.1,2.9-4.3
	c2.3-1.6,5.6-2.3,9.7-2.3h9.4c1,0,1.9,0.3,2.5,0.8c0.5,0.5,0.8,1.1,0.8,1.8c0,0.7-0.3,1.3-0.8,1.8c-0.6,0.5-1.5,0.8-2.5,0.8h-9.3
	c-1.8,0-3.3,0.2-4.4,0.6c-1.1,0.4-1.6,0.9-1.6,1.4V72c0.2,0.7,0.9,1.2,2.2,1.5c1.1,0.3,2.3,0.5,3.7,0.5h9.3c1,0,1.9,0.3,2.5,0.8
	c0.5,0.5,0.8,1.1,0.8,1.8c0,0.7-0.3,1.3-0.8,1.8C218.9,79,218.1,79.3,217.1,79.3 M211.6,65.7h-6.2c-1,0-1.9-0.3-2.4-0.8
	c-0.6-0.5-0.9-1.1-0.9-1.8c0-0.7,0.3-1.3,0.9-1.8c0.6-0.5,1.4-0.8,2.4-0.8h6.2c1.1,0,1.9,0.3,2.5,0.8c0.6,0.5,0.9,1.1,0.9,1.8
	c0,0.7-0.3,1.3-0.9,1.8C213.5,65.5,212.7,65.7,211.6,65.7"/>
</svg>
