<svg xmlns="http://www.w3.org/2000/svg" width="762" height="320" viewBox="0 0 762 320">
    <path fill="#C5C5C5" fill-rule="nonzero" d="M249.25.686l-6.843 19.918c-1.026 2.988-1.411 4.108-3.018 6.266-2.298 2.863-4.617 4.316-7.43 4.316-1.25 0-2.348-.332-3.089-1.204-1.11-1.203-1.45-3.278-1.086-5.56l4.605-1.328c-.211.83-.115 1.577.196 2.075.265.456.715.746 1.27.746.803 0 2.073-.622 2.839-1.825.54-.83.745-1.411 1.48-3.486L245.225.686h4.024zm17.91 7.593l-4.538 1.536c-.081-1.494-.209-2.531-.955-3.361-.497-.581-1.194-1.08-2.16-1.08-.984-.04-2.027.291-2.815.83a4.872 4.872 0 0 0-1.89 2.49c-.173.54-.185 1.038-.039 1.411.2.581 1.009 1.12 1.936 1.577l3.266 1.494c1.676.788 2.55 1.577 3.142 2.822.797 1.701.884 3.9.173 6.349-.76 2.614-2.67 5.353-4.906 6.93-2.174 1.535-4.35 1.909-6.725 1.909-3 0-5.225-1.038-6.078-4.026-.49-1.784-.38-3.859-.064-5.81l4.709-1.535c-.289 1.453-.352 2.78-.095 3.694.358 1.66 1.847 2.406 3.328 2.406 1.173 0 2.793-.456 3.847-1.286.92-.705 1.38-1.618 1.63-2.448.237-.789.249-1.536-.044-2.075-.31-.581-.791-.996-1.538-1.328l-3.548-1.618c-1.43-.623-2.624-1.494-3.254-2.78-.794-1.494-.615-3.735.076-5.81 1.092-3.278 3.515-6.1 5.838-7.345 1.827-.996 3.383-1.162 4.77-1.162 1.404.042 2.863.374 3.927 1.453 1.363 1.369 2.067 3.734 2.006 6.763zm21.35 11.951l3.753 1.619c-.735 1.535-1.658 3.07-2.795 4.44-2.798 3.32-6.252 4.897-9.378 4.897-3.313 0-5.944-1.785-6.991-4.897-1.04-3.03-.81-6.723.255-10.665 1.11-4.108 2.862-7.76 5.379-10.706 2.692-3.278 5.933-4.855 8.939-4.855 3.006 0 5.44 1.619 6.574 4.855.57 1.66.776 3.527.77 5.312l-4.382.996c0-1.038-.066-2.034-.348-2.864-.596-1.991-2.11-3.029-3.898-3.029-1.817 0-3.837 1.038-5.374 3.03-1.596 1.95-2.622 4.647-3.329 7.261-.647 2.615-1 5.27-.381 7.262.568 1.992 2.157 3.03 4.08 2.988 1.872.041 3.967-.996 5.537-2.988a13.445 13.445 0 0 0 1.589-2.656zm12.958 10.956c-2.5 0-4.644-1.287-5.694-3.735-.934-2.324-.977-5.021-.324-8.092.67-3.154 1.949-5.934 3.683-8.092 1.986-2.448 4.547-3.734 6.875-3.734 2.357 0 4.402 1.244 5.441 3.734 1.02 2.365 1.127 5.063.608 8.092-.547 3.195-1.627 5.727-3.46 8.092-2.029 2.49-4.597 3.735-7.129 3.735zm4.419-7.18c.933-1.244 1.488-2.946 1.798-4.647.31-1.701.386-3.444-.076-4.69-.429-1.244-1.418-1.866-2.613-1.866-1.194 0-2.422.622-3.329 1.867-.94 1.245-1.502 2.988-1.845 4.689-.344 1.701-.472 3.403-.016 4.648.43 1.245 1.44 1.908 2.674 1.908s2.5-.663 3.407-1.908zm23.871-13.984c1.591 2.449 1.487 5.436 1.001 9.337l-1.397 11.204h-4.306l1.513-11.204c.275-2.033.292-3.942-.39-5.104-.453-.83-1.262-1.245-2.368-1.245-.753.042-1.423.332-2.042.871-.693.623-1.264 1.619-1.633 2.864-.303.996-.567 2.531-.802 4.066l-1.487 9.752h-4.276l3.65-22.408h3.542l-.236 1.535c1.487-1.41 3.178-2.074 4.634-2.157 1.78-.083 3.538.87 4.597 2.49zm13.715-5.062c-1.614.332-2.059 1.535-2.227 3.195h4.25l-.394 4.357h-4.298l-1.83 18.051h-4.244l2.016-18.05h-3.343l.523-4.358h3.306c.249-1.701.77-4.025 2.098-5.768 1.907-2.407 4.383-2.614 6.89-2.24L345.782 5c-.716-.166-1.59-.207-2.308-.041zm22.402 25.603l-.912-4.648h-9.071l-1.345 4.648h-4.37L358.766.686h5.877l5.602 29.877h-4.369zm-8.471-9.96h6.578l-2.588-14.606-3.99 14.607zM381.06 7.575c.854-.083 1.769.124 2.657.622l.038 5.229c-.84-.456-1.946-.705-3.11-.58-1.165.124-2.005.705-2.58 1.534-.729 1.08-1.074 2.573-1.09 4.233l-.115 11.951h-4.275l.447-22.408h3.542l-.033 3.07c.426-.995.997-1.867 1.741-2.49a4.801 4.801 0 0 1 2.778-1.161zm27.175 2.158c1.52 1.743 2.069 4.315 2.282 7.179l1.014 13.652h-4.306l-.873-13.652c-.092-1.453-.35-2.2-.974-3.071-.557-.788-1.358-1.203-2.135-1.203-.776 0-1.528.456-1.995 1.244-.58.996-.65 1.992-.595 3.113l.674 13.57h-4.307l-.535-13.653c-.057-1.453-.296-2.2-.899-3.071-.537-.788-1.328-1.203-2.104-1.203-.777 0-1.54.456-2.027 1.244-.604.996-.699 1.992-.671 3.113l.338 13.57h-4.276l-.326-22.409h3.542l.057 2.407c1.079-1.868 2.76-2.946 4.528-2.946 1.326 0 2.806.83 3.898 2.116.376.456.696.954.96 1.494.986-2.283 2.805-3.61 4.78-3.61 1.326 0 2.826.83 3.95 2.116zm9.8 11.162c.23 1.162.575 2.241 1.148 3.113.795 1.245 2 1.908 3.204 1.908 1.234 0 2.273-.663 2.846-1.908.096-.25.13-.498.23-.706l4.433 2.448c-.203.623-.47 1.245-.772 1.826-1.39 2.49-3.683 3.776-6.201 3.61-2.516-.165-5.019-1.244-6.791-3.734-1.617-2.324-2.523-5.146-2.7-8.092-.193-3.112.153-5.851 1.306-8.092 1.267-2.448 3.42-3.734 5.778-3.734 2.358 0 4.768 1.244 6.538 3.734 1.61 2.241 2.588 5.104 2.954 8.092.061.498.097 1.037.127 1.535h-12.1zm3.017-8.091c-1.164 0-2.21.622-2.746 1.908-.25.54-.402 1.162-.491 1.826h7.235a9.124 9.124 0 0 0-.832-1.826c-.829-1.286-1.971-1.908-3.166-1.908zm23.916-2.78c2.31 2.448 3.083 5.435 3.742 9.336l1.893 11.204h-4.307L444.52 19.36c-.322-2.033-.865-3.942-1.888-5.104-.697-.83-1.628-1.245-2.734-1.245-.74.042-1.326.332-1.786.871-.51.623-.788 1.619-.793 2.864-.01.996.176 2.531.393 4.066l1.375 9.752h-4.275l-2.929-22.408h3.542l.215 1.535c1.072-1.41 2.569-2.074 4-2.157 1.755-.083 3.794.87 5.328 2.49zm4.24-9.96h3.93l.942 4.98h-3.982l-.89-4.98zm1.446 8.092h4.014l4.236 22.408h-4.244l-4.006-22.408zm13.065 6.598l-4.21-2.448c.056-.166.118-.457.195-.664.876-2.864 2.811-4.067 5.434-4.067 2.918 0 5.59 1.37 7.607 4.44.966 1.453 1.596 3.112 1.918 4.482l3.309 14.067h-3.714l-.863-3.818c-.038 1.204-.784 2.449-1.402 3.03-.975.954-2.354 1.369-3.635 1.369-1.656 0-3.595-1.079-4.782-2.49-1.193-1.618-1.848-2.739-2.234-4.689-.477-2.407.147-4.772 1.44-6.017 1.537-1.328 2.795-1.37 5.008-1.867l2.508-.498c-.346-.872-.963-1.619-1.663-2.075a3.907 3.907 0 0 0-2.456-.705c-1.046 0-1.842.332-2.252 1.369a2.536 2.536 0 0 0-.208.58zm7.687 5.353l-2.87.788c-1.67.457-3.437.913-3.126 2.698.215 1.328 1.352 2.49 2.692 2.406 1.741-.083 3.611-1.244 3.529-3.942a11.349 11.349 0 0 0-.225-1.95zM480.625.063h3.93l1.35 4.98h-3.981l-1.3-4.98zm2.11 8.092h4.015l6.077 22.408h-4.245l-5.846-22.408zm23.032 5.934l-3.55 1.328c-.42-.789-1.212-1.619-1.864-1.992-.59-.373-1.25-.58-1.908-.58-.716 0-1.295.165-1.616.497-.327.415-.308.788-.235 1.037.06.208.168.374.235.498.361.415 1.132.789 2.043 1.12.912.333 1.946.665 2.848.955 1.536.581 2.398.83 3.83 2.034 1.778 1.41 3.081 3.32 3.679 5.602.544 2.116.25 3.942-.775 5.145-.996 1.12-2.52 1.453-4.238 1.453-2.313 0-4.51-.789-6.694-2.988-1.104-1.162-2.73-3.652-3.116-4.814l3.571-1.328c.193.664.86 1.91 1.502 2.532 1.055 1.078 2.134 1.286 3.152 1.286.771 0 1.789-.208 2.118-.747.194-.373.18-.622.115-1.037-.127-.415-.277-.706-.58-.996-.562-.54-1.427-.872-2.04-1.08-.985-.331-1.926-.622-2.94-.954-1.65-.54-2.718-1.079-3.83-1.991-1.451-1.162-2.54-2.988-2.983-4.565-.794-2.822-.18-5.063 1.207-6.1 1.023-.747 2.123-.913 3.226-.871 1.09 0 2.4.331 3.732 1.12 1.914 1.12 3.74 3.07 5.111 5.436zm12.815.664l-4.548-2.448c.033-.166.054-.457.103-.664.48-2.864 2.25-4.067 4.872-4.067 2.918 0 5.78 1.37 8.22 4.44a16.728 16.728 0 0 1 2.538 4.482l5.252 14.067h-3.714l-1.39-3.818c.128 1.204-.446 2.449-.984 3.03-.843.954-2.164 1.369-3.446 1.369-1.656 0-3.743-1.079-5.126-2.49-1.416-1.618-2.226-2.739-2.882-4.689-.809-2.407-.512-4.772.61-6.017 1.353-1.328 2.605-1.37 4.75-1.867l2.439-.498c-.467-.872-1.187-1.619-1.95-2.075-.852-.54-1.732-.747-2.554-.705-1.045 0-1.795.332-2.062 1.369-.062.166-.11.373-.128.58zm8.426 5.353l-2.761.788c-1.607.457-3.31.913-2.753 2.698.398 1.328 1.696 2.49 3.025 2.406 1.73-.083 3.439-1.244 2.984-3.942a12.248 12.248 0 0 0-.495-1.95zM163.017 70.524l-3.044-2.448c.183-.166.462-.457.7-.664 3.056-2.864 6.133-4.067 9.131-4.067 3.335 0 5.4 1.37 5.485 4.44.053 1.453-.428 3.112-1.05 4.482l-6.393 14.067h-4.215l1.77-3.818c-.91 1.204-2.654 2.449-3.774 3.03-1.793.954-3.656 1.37-5.11 1.37-1.88 0-3.306-1.08-3.643-2.49-.194-1.62-.136-2.74.823-4.69 1.183-2.407 3.59-4.772 5.956-6.017 2.706-1.328 4.17-1.37 7.05-1.867l3.218-.498c.234-.872.07-1.618-.4-2.075-.498-.54-1.32-.747-2.295-.705-1.192 0-2.34.332-3.554 1.369a6.34 6.34 0 0 0-.655.581zm4.906 5.353l-3.836.788c-2.23.457-4.567.913-5.496 2.698-.709 1.328-.25 2.49 1.333 2.407 2.038-.083 5-1.245 6.85-3.943a15.058 15.058 0 0 0 1.149-1.95zm4.528 10.457l13.56-30.5h4.504l-13.246 30.5h-4.818zm9.777 0l12.923-30.5h4.504l-12.61 30.5h-4.817zm15.083-14.026h10.309l-1.66 4.357h-10.408l1.759-4.357zm31.702-15.851l-6.89 19.918c-1.034 2.988-1.422 4.108-3.152 6.266-2.482 2.863-5.05 4.316-8.242 4.316-1.418 0-2.68-.332-3.561-1.204-1.318-1.203-1.805-3.278-1.503-5.56l5.174-1.328c-.202.83-.057 1.577.32 2.075.324.456.85.747 1.48.747.912 0 2.327-.623 3.142-1.826.576-.83.783-1.411 1.522-3.486l7.1-19.918h4.61zm4.033 14.067l-3.423-2.448c.158-.166.392-.457.597-.664 2.614-2.864 5.505-4.067 8.503-4.067 3.335 0 5.612 1.37 6.171 4.44.278 1.453.054 3.112-.357 4.482l-4.217 14.067h-4.215l1.178-3.818c-.723 1.204-2.274 2.449-3.304 3.03-1.646.954-3.445 1.37-4.899 1.37-1.88 0-3.472-1.08-4.028-2.49-.444-1.62-.559-2.74.098-4.69.811-2.407 2.852-4.772 5.026-6.017 2.5-1.328 3.958-1.37 6.762-1.867l3.14-.498c.1-.872-.18-1.618-.721-2.075-.581-.54-1.436-.747-2.403-.705-1.193 0-2.289.332-3.343 1.369-.19.166-.395.373-.565.581zm5.733 5.353l-3.713.788c-2.16.457-4.427.913-5.079 2.698-.504 1.328.134 2.49 1.704 2.407 2.026-.083 4.808-1.245 6.24-3.943.492-.913.784-1.743.848-1.95zm23.875-11.951h4.587l-12.682 22.408h-4.782l-.379-22.408h4.588l.09 15.52 8.578-15.52zm9.41 6.598l-3.632-2.448c.143-.166.351-.457.54-.664 2.366-2.864 5.154-4.067 8.152-4.067 3.334 0 5.73 1.37 6.553 4.44.403 1.453.322 3.112.03 4.482L280.7 86.334h-4.215l.85-3.818c-.62 1.204-2.064 2.449-3.044 3.03-1.564.954-3.327 1.37-4.78 1.37-1.88 0-3.566-1.08-4.243-2.49-.584-1.62-.795-2.74-.306-4.69.604-2.407 2.44-4.772 4.508-6.017 2.386-1.328 3.84-1.37 6.6-1.867l3.098-.498c.024-.872-.32-1.618-.9-2.075-.628-.54-1.5-.747-2.464-.705-1.193 0-2.26.332-3.225 1.369a4.425 4.425 0 0 0-.515.581zm6.196 5.353l-3.646.788c-2.12.457-4.348.913-4.846 2.698-.39 1.328.348 2.49 1.911 2.407 2.019-.083 4.7-1.245 5.9-3.943.414-.913.634-1.743.68-1.95zm29.975-11.826l-4.922 1.535c-.349-1.494-.673-2.531-1.67-3.361-.668-.581-1.55-1.08-2.656-1.08-1.132-.04-2.268.291-3.075.83-.96.623-1.548 1.578-1.725 2.49-.105.54-.032 1.038.2 1.411.33.581 1.346 1.12 2.484 1.577l3.985 1.494c2.047.789 3.177 1.577 4.064 2.822 1.197 1.701 1.667 3.9 1.27 6.349-.423 2.614-2.135 5.353-4.408 6.93-2.209 1.535-4.615 1.909-7.31 1.909-3.405 0-6.109-1.038-7.594-4.026-.865-1.784-1.104-3.859-1.084-5.81l5.094-1.534c-.077 1.452.08 2.78.53 3.693.695 1.66 2.515 2.407 4.199 2.407 1.333 0 3.097-.457 4.153-1.287.927-.705 1.294-1.618 1.438-2.448.136-.789.023-1.536-.403-2.075-.452-.58-1.07-.996-1.978-1.328l-4.32-1.618c-1.738-.623-3.25-1.494-4.193-2.78-1.167-1.494-1.356-3.735-.93-5.81.67-3.278 2.946-6.1 5.388-7.345 1.918-.996 3.672-1.162 5.261-1.162 1.615.042 3.345.374 4.75 1.453 1.796 1.369 3.006 3.734 3.452 6.764zm19.19 4.896l-4.623 2.282c-.07-.249-.17-.539-.28-.747-.591-1.244-1.766-1.908-3.129-1.908-1.33 0-2.684.664-3.614 1.908-.968 1.245-1.457 2.947-1.74 4.648-.213 1.701-.218 3.403.405 4.648.591 1.245 1.8 1.867 3.168 1.867a4.592 4.592 0 0 0 3.712-1.867c.172-.25.303-.457.44-.706l4.193 2.283c-.39.622-.78 1.244-1.271 1.825-2.064 2.449-5.001 3.818-7.792 3.735-2.814.083-5.349-1.245-6.74-3.735-1.235-2.24-1.534-5.02-1.059-8.05.475-3.03 1.628-5.81 3.51-8.092 2.147-2.573 4.913-3.734 7.506-3.734 2.695 0 5.128 1.286 6.522 3.734.333.623.599 1.245.793 1.91zm13.363-5.602c.984-.083 2.01.125 2.98.623l-.434 5.228c-.917-.456-2.157-.705-3.497-.58-1.34.124-2.351.705-3.08 1.534-.928 1.08-1.455 2.573-1.621 4.233l-1.196 11.951h-4.853l2.474-22.408h4.048l-.311 3.07c.575-.995 1.305-1.867 2.21-2.489 1.051-.747 2.194-1.079 3.28-1.162zm7.133-7.51h4.503l-.322 4.979h-4.556l.375-4.98zm-.608 8.091h4.587l-1.453 22.408h-4.818l1.684-22.408zm25.174 2.946c1.392 2.2 2.068 5.146 2.025 8.258-.043 3.07-.678 5.934-2.332 8.258-1.599 2.282-4.145 3.569-6.664 3.569-1.844 0-3.527-.498-4.865-1.494l-.468 10.83h-4.956l1.732-32.367h4.048l-.063 1.41c1.44-1.285 3.256-2.032 5.109-2.032 2.526 0 4.924 1.203 6.434 3.568zm-4.016 13.072c.693-1.162 1.015-2.905 1.062-4.814.047-1.909-.253-3.652-.873-4.814-.746-1.452-1.922-1.991-3.455-1.991-1.26 0-2.37.498-3.165 1.577-.943 1.244-1.441 3.195-1.531 5.228-.09 2.033.24 4.025 1.096 5.229.797 1.079 1.935 1.576 3.303 1.576 1.334 0 2.718-.539 3.563-1.991zm21.598-11.66h-5.313l.07 8.132c.015 1.743.062 3.03.488 3.818.428.789 1.204 1.287 1.942 1.37.913.083 2.07.041 3.083-.125l.1 4.855c-1.515.498-4.174.581-5.596.125-1.74-.581-3.086-1.577-3.828-3.237-.807-1.784-.909-3.942-.905-6.39l.014-8.549h-3.815l.044-4.357h3.778l.01-6.224h4.523l.054 6.224h5.261l.09 4.357zm27.266.663l-4.17 2.282a5.207 5.207 0 0 0-.43-.747c-.838-1.244-2.144-1.908-3.508-1.908-1.329 0-2.552.664-3.233 1.908-.72 1.245-.87 2.947-.814 4.648.125 1.701.46 3.403 1.33 4.648.84 1.245 2.173 1.867 3.54 1.867 1.403 0 2.658-.622 3.34-1.867.123-.25.213-.457.3-.706l4.648 2.283c-.266.622-.532 1.244-.908 1.825-1.576 2.449-4.24 3.818-7.048 3.735-2.797.083-5.596-1.245-7.483-3.735-1.682-2.24-2.535-5.02-2.663-8.05-.129-3.03.47-5.81 1.898-8.092 1.634-2.573 4.168-3.734 6.762-3.734 2.694 0 5.384 1.286 7.265 3.734.457.623.847 1.245 1.174 1.91zm13.267 18.01c-2.837 0-5.69-1.287-7.68-3.735-1.82-2.324-2.75-5.021-3.013-8.092-.27-3.154.278-5.934 1.55-8.092 1.468-2.448 3.974-3.734 6.635-3.734 2.695 0 5.435 1.244 7.427 3.734 1.926 2.366 2.917 5.063 3.3 8.092.406 3.195-.009 5.727-1.331 8.092-1.501 2.49-4.015 3.735-6.888 3.735zm2.697-7.18c.66-1.244.741-2.946.544-4.647-.197-1.701-.674-3.444-1.604-4.689-.892-1.245-2.223-1.867-3.586-1.867s-2.562.622-3.19 1.867c-.666 1.245-.739 2.988-.575 4.69.164 1.7.571 3.402 1.495 4.647.893 1.245 2.257 1.909 3.66 1.909s2.627-.664 3.256-1.91zm22.73-13.984c2.591 2.449 3.415 5.436 4.091 9.337l1.942 11.204h-4.889L455.35 75.13c-.331-2.033-.916-3.942-2.062-5.104-.782-.83-1.836-1.245-3.098-1.245-.846.042-1.518.332-2.052.872-.592.622-.925 1.618-.949 2.863-.027.996.162 2.531.385 4.066l1.418 9.752h-4.853l-3.026-22.408h4.047l.222 1.535c1.247-1.41 2.968-2.074 4.606-2.157 2.008-.083 4.32.871 6.043 2.49zm14.087-5.062c-1.743.332-1.875 1.535-1.549 3.195h4.857l.904 4.357h-4.904l3.548 18.051h-4.818l-3.362-18.05h-3.815l-.775-4.358h3.778c-.25-1.701-.382-4.025.59-5.768 1.43-2.407 4.203-2.614 7.193-2.24l1.007 4.854c-.872-.166-1.884-.207-2.654-.041zM482.9 76.665c.397 1.162.916 2.241 1.67 3.113 1.05 1.245 2.497 1.909 3.865 1.909 1.403 0 2.508-.664 3.015-1.91.08-.248.09-.497.18-.705l5.321 2.449c-.16.622-.392 1.244-.67 1.825-1.293 2.49-3.747 3.777-6.624 3.61-2.875-.165-5.842-1.244-8.15-3.734a16.585 16.585 0 0 1-4.031-8.092c-.589-3.112-.52-5.85.532-8.092 1.16-2.448 3.47-3.734 6.165-3.734s5.592 1.244 7.897 3.734c2.09 2.241 3.53 5.104 4.284 8.092.126.498.227 1.037.318 1.535h-13.772zm2.495-8.091c-1.33 0-2.45.622-2.911 1.908-.222.54-.323 1.162-.347 1.826h8.247a10.006 10.006 0 0 0-1.158-1.826c-1.093-1.286-2.468-1.908-3.831-1.908zm20.851-5.229c.954-.083 2.057.125 3.211.623l1.507 5.228c-1.086-.456-2.418-.705-3.712-.58-1.295.124-2.09.705-2.511 1.534-.527 1.08-.5 2.573-.05 4.233l3.241 11.951h-4.853l-5.844-22.408h4.048l.829 3.07c.205-.995.612-1.867 1.286-2.489.773-.747 1.793-1.079 2.848-1.162zm13.704 13.32c.492 1.162 1.098 2.241 1.921 3.113 1.15 1.245 2.652 1.909 4.02 1.909 1.403 0 2.454-.664 2.86-1.91.06-.248.05-.497.124-.705l5.518 2.449a9.432 9.432 0 0 1-.522 1.825c-1.092 2.49-3.443 3.777-6.333 3.61-2.888-.165-5.943-1.244-8.451-3.734-2.3-2.324-3.894-5.146-4.685-8.092-.84-3.112-.99-5.85-.12-8.092.962-2.448 3.168-3.734 5.863-3.734 2.695 0 5.692 1.244 8.198 3.734 2.271 2.241 3.942 5.104 4.938 8.092.166.498.31 1.037.442 1.535H519.95zm1.842-8.091c-1.329 0-2.399.622-2.757 1.908-.178.54-.229 1.162-.199 1.826h8.247a11.19 11.19 0 0 0-1.306-1.826c-1.197-1.286-2.622-1.908-3.985-1.908zm26.769-2.78c3.096 2.448 4.537 5.435 6.018 9.336l4.255 11.204h-4.889L549.81 75.13c-.751-2.033-1.73-3.942-3.116-5.104-.953-.83-2.093-1.245-3.355-1.245-.837.042-1.45.332-1.872.872-.463.622-.59 1.618-.358 2.863.179.996.684 2.531 1.225 4.066l3.43 9.752h-4.852l-7.652-22.408h4.047l.538 1.535c.956-1.41 2.54-2.074 4.161-2.157 1.99-.083 4.5.871 6.557 2.49zm24.1 3.153l-3.383 2.282a8.495 8.495 0 0 0-.687-.747c-1.267-1.244-2.802-1.908-4.165-1.908-1.329 0-2.323.664-2.577 1.908-.292 1.245.144 2.947.786 4.648.71 1.701 1.63 3.403 2.93 4.648 1.268 1.245 2.815 1.867 4.183 1.867 1.402 0 2.443-.622 2.697-1.867.036-.25.055-.457.056-.706l5.434 2.283c-.051.622-.103 1.244-.28 1.825-.733 2.449-2.926 3.818-5.762 3.735-2.769.083-6.025-1.245-8.768-3.735-2.453-2.24-4.263-5.02-5.434-8.05-1.171-3.03-1.529-5.81-.886-8.092.748-2.573 2.882-3.734 5.476-3.734 2.694 0 5.827 1.286 8.55 3.734a20.665 20.665 0 0 1 1.83 1.91zm10.462 7.718c.651 1.162 1.406 2.241 2.35 3.113 1.321 1.245 2.914 1.909 4.282 1.909 1.403 0 2.362-.664 2.598-1.91.026-.248-.018-.497.026-.705l5.855 2.449a8.664 8.664 0 0 1-.27 1.825c-.75 2.49-2.924 3.777-5.837 3.61-2.911-.165-6.114-1.244-8.965-3.734-2.62-2.324-4.602-5.146-5.798-8.092-1.268-3.112-1.796-5.85-1.234-8.092.625-2.448 2.655-3.734 5.35-3.734 2.694 0 5.862 1.244 8.711 3.734 2.58 2.241 4.645 5.104 6.051 8.092.235.498.454 1.037.654 1.535h-13.773zm.729-8.091c-1.33 0-2.314.622-2.495 1.908-.104.54-.069 1.162.052 1.826h8.247a13.663 13.663 0 0 0-1.557-1.826c-1.373-1.286-2.884-1.908-4.247-1.908zm25.316 17.76c1.94 3.984 1.453 6.225-2.146 5.602l-.842-2.365c1.792.166 1.86-1.245.65-3.237h-2.48l-2.69-5.643h4.76l2.748 5.643zm-442.14 33.363h4.515l-9.981 23.944c-1.297 3.112-3.806 5.85-7.168 7.427-2.769 1.287-4.915 1.577-6.815 1.577-1.416 0-3.092-.415-4.127-.996-1.22-.788-2.216-2.157-2.39-3.817l6.17-2.532c.04.54.256.955.571 1.328.461.498 1.45.706 2.131.706 1.241 0 2.683-.374 3.75-.996 1.337-.789 2.05-1.619 2.507-2.78l.993-2.324c-1.972.996-4.091 1.494-6.155 1.494-2.817 0-5.058-1.287-5.769-3.57-.755-2.323-.115-5.186 1.286-8.257 1.42-3.112 3.57-6.058 6.174-8.258 2.816-2.365 6.084-3.568 8.926-3.568 2.084 0 3.772.747 4.78 2.033l.601-1.41zm-12.937 18.01c1.533 0 3.045-.498 4.45-1.577 1.532-1.204 2.85-3.196 3.715-5.229.866-2.033 1.235-3.984.768-5.228-.38-1.08-1.391-1.577-2.807-1.577-1.723 0-3.3.54-4.826 1.992-1.247 1.161-2.408 2.904-3.259 4.813-.85 1.909-1.314 3.652-1.088 4.814.26 1.452 1.554 1.992 3.047 1.992zm24.312-11.412l-3.77-2.448c.183-.166.454-.457.691-.664 3.025-2.863 6.315-4.067 9.688-4.067 3.752 0 6.268 1.37 6.792 4.44.263 1.453-.047 3.113-.555 4.482l-5.225 14.067h-4.717l1.452-3.817c-.852 1.203-2.631 2.448-3.804 3.029-1.875.954-3.9 1.37-5.528 1.37-2.103 0-3.85-1.08-4.427-2.49-.446-1.619-.54-2.74.257-4.69.984-2.407 3.346-4.772 5.824-6.017 2.849-1.328 4.486-1.37 7.65-1.867l3.543-.498c.14-.871-.15-1.618-.742-2.075-.635-.54-1.588-.747-2.677-.705-1.34 0-2.582.332-3.799 1.37-.22.165-.455.373-.653.58zm6.26 5.353l-4.191.789c-2.436.456-4.993.912-5.782 2.697-.608 1.328.07 2.49 1.83 2.407 2.273-.083 5.429-1.245 7.126-3.943a12.32 12.32 0 0 0 1.017-1.95zm26.206-7.594h-5.97l-2.826 8.134c-.605 1.742-1.013 3.029-.817 3.817.198.789.89 1.287 1.686 1.37.993.083 2.304.041 3.499-.125l-1.63 4.855c-1.873.498-4.877.581-6.306.125-1.738-.581-2.89-1.577-3.13-3.237-.268-1.784.386-3.942 1.261-6.39l3.058-8.549h-4.287l1.596-4.357h4.25l2.226-6.224h5.096l-2.162 6.224h5.919l-1.463 4.357zm21.897-2.49c1.73 2.449 1.213 5.436.088 9.337l-3.23 11.204h-5.47l3.347-11.204c.608-2.033.87-3.942.142-5.104-.478-.83-1.463-1.245-2.88-1.245-.971.042-1.866.332-2.725.872-.963.622-1.815 1.618-2.44 2.863-.507.996-1.031 2.531-1.517 4.067L215 142.105h-5.43l9.756-29.877h4.485l-2.858 9.004c2.08-1.41 4.335-2.074 6.218-2.157 2.298-.083 4.44.871 5.597 2.49zm8.866 10.873c-.158 1.161-.137 2.24.255 3.112.529 1.245 1.805 1.909 3.337 1.909 1.572 0 3.156-.664 4.373-1.91.22-.248.361-.497.57-.705l4.683 2.449a19.153 19.153 0 0 1-1.703 1.825c-2.748 2.49-6.165 3.777-9.297 3.61-3.13-.165-5.891-1.244-7.182-3.734-1.162-2.324-1.23-5.146-.323-8.092.953-3.112 2.453-5.85 4.798-8.092 2.576-2.448 5.845-3.734 8.877-3.734 3.032 0 5.64 1.245 6.929 3.734 1.176 2.241 1.293 5.104.576 8.092-.12.498-.289 1.038-.447 1.536h-15.446zm7.013-8.092c-1.493 0-3.076.622-4.265 1.909a8.548 8.548 0 0 0-1.338 1.825h9.258c-.025-.664-.138-1.286-.347-1.825-.556-1.287-1.776-1.91-3.308-1.91zm26.188-5.229a6.464 6.464 0 0 1 3.284.623l-1.07 5.228c-.979-.456-2.344-.705-3.864-.58-1.52.124-2.72.705-3.63 1.535-1.16 1.078-1.914 2.572-2.282 4.232l-2.648 11.951h-5.43l5.197-22.408h4.553l-.684 3.07c.755-.995 1.671-1.867 2.758-2.489a8.582 8.582 0 0 1 3.816-1.162zm8.868-7.51h5.077l-.928 4.979h-5.129l.98-4.98zm-1.592 8.091h5.16l-4.175 22.408h-5.39l4.405-22.408zm27.016 1.867c2.1 2.449 2.037 5.436 1.503 9.337l-1.532 11.204h-5.47l1.65-11.204c.298-2.033.271-3.942-.632-5.104-.604-.83-1.652-1.245-3.07-1.245a4.789 4.789 0 0 0-2.592.872c-.869.622-1.57 1.618-2.005 2.863-.357.996-.649 2.531-.902 4.067l-1.605 9.751h-5.43l3.921-22.408h4.553l-.254 1.535c1.866-1.41 4.02-2.074 5.89-2.157 2.287-.083 4.573.871 5.975 2.49zm21.818-1.867h4.515l-2.164 23.944c-.282 3.112-1.896 5.85-4.743 7.427-2.35 1.287-4.4 1.577-6.3 1.577-1.416 0-3.228-.415-4.452-.996-1.479-.788-2.92-2.157-3.637-3.817l5.343-2.532c.217.54.569.955 1.005 1.328.624.498 1.681.706 2.362.706 1.24 0 2.561-.374 3.425-.996 1.079-.789 1.522-1.619 1.599-2.78l.234-2.324c-1.647.996-3.603 1.494-5.667 1.494-2.817 0-5.478-1.287-6.934-3.57-1.514-2.323-1.809-5.186-1.41-8.257.405-3.112 1.593-6.058 3.478-8.258a10.258 10.258 0 0 1 7.76-3.568c2.085 0 4.017.747 5.445 2.033l.14-1.41zm-7.057 18.01c1.533 0 2.882-.498 3.934-1.577 1.14-1.204 1.807-3.196 2.01-5.229.201-2.033-.067-3.984-.94-5.228-.733-1.08-1.906-1.577-3.322-1.577-1.723 0-3.124.54-4.175 1.992-.868 1.161-1.46 2.904-1.688 4.813-.227 1.909-.122 3.652.484 4.814.733 1.452 2.203 1.992 3.697 1.992zm38.524-25.48l-.742 19.919c-.111 2.988-.153 4.108-1.335 6.266-1.775 2.863-4.139 4.316-7.71 4.316-1.588 0-3.115-.332-4.41-1.204-1.9-1.203-3.18-3.278-3.649-5.56l5.329-1.328c.067.83.493 1.577 1.092 2.075.523.456 1.214.747 1.921.747 1.021 0 2.388-.623 2.878-1.826.352-.83.38-1.411.48-3.486l.95-19.918h5.196zm26.094 7.595l-5.23 1.535c-.69-1.494-1.262-2.531-2.55-3.361-.868-.581-1.961-1.08-3.207-1.08-1.282-.04-2.493.291-3.293.83-.955.623-1.424 1.578-1.439 2.49-.008.54.174 1.038.511 1.411.487.581 1.74 1.12 3.11 1.577l4.777 1.494c2.457.789 3.884 1.577 5.127 2.822 1.68 1.701 2.644 3.9 2.682 6.349.042 2.614-1.334 5.353-3.567 6.93-2.168 1.535-4.785 1.909-7.801 1.909-3.81 0-7.044-1.038-9.309-4.026-1.33-1.784-2.018-3.859-2.391-5.809l5.402-1.535c.207 1.452.651 2.78 1.34 3.693 1.11 1.66 3.3 2.407 5.186 2.407 1.493 0 3.378-.457 4.397-1.287.898-.705 1.128-1.618 1.124-2.448-.004-.789-.28-1.535-.865-2.075-.622-.58-1.399-.996-2.484-1.328l-5.173-1.618c-2.076-.623-3.949-1.494-5.268-2.78-1.614-1.494-2.282-3.735-2.226-5.81.088-3.278 2.077-6.1 4.575-7.345 1.96-.996 3.903-1.162 5.695-1.162 1.83.042 3.846.374 5.645 1.453 2.297 1.369 4.13 3.734 5.232 6.764zm24.98 4.232h-5.97l.428 8.134c.092 1.742.199 3.029.71 3.817a3.126 3.126 0 0 0 2.235 1.37 16.23 16.23 0 0 0 3.448-.125l.313 4.855c-1.674.498-4.645.581-6.256.125-1.971-.581-3.522-1.577-4.425-3.237-.983-1.784-1.192-3.942-1.296-6.39l-.362-8.549h-4.287l-.148-4.357h4.25l-.264-6.224h5.097l.327 6.224h5.92l.28 4.357zm9.762 8.383c.251 1.161.653 2.24 1.352 3.112.968 1.245 2.479 1.909 4.011 1.909 1.572 0 2.921-.664 3.7-1.91.131-.248.185-.497.32-.705l5.547 2.449c-.285.622-.65 1.244-1.06 1.825-1.869 2.49-4.832 3.777-8.023 3.61-3.189-.165-6.33-1.244-8.499-3.734a13.288 13.288 0 0 1-3.177-8.092c-.145-3.112.388-5.85 1.943-8.092 1.713-2.448 4.528-3.734 7.56-3.734s6.079 1.245 8.246 3.734c1.967 2.241 3.094 5.104 3.43 8.092a20.3 20.3 0 0 1 .095 1.536h-15.445zm4.158-8.092c-1.493 0-2.857.622-3.591 1.909-.34.539-.557 1.161-.695 1.825h9.259a7.91 7.91 0 0 0-.992-1.825c-1.01-1.287-2.45-1.91-3.98-1.91zm33.069.373l-4.53 2.282a5.596 5.596 0 0 0-.534-.746 5.273 5.273 0 0 0-4.07-1.91c-1.494 0-2.823.665-3.502 1.91-.723 1.244-.772 2.946-.59 4.647.258 1.701.752 3.403 1.814 4.648 1.027 1.245 2.564 1.867 4.096 1.867 1.571 0 2.934-.622 3.615-1.867.12-.25.207-.457.287-.706l5.362 2.283c-.256.622-.513 1.245-.895 1.825-1.6 2.449-4.49 3.818-7.636 3.735-3.124.083-6.349-1.245-8.636-3.735-2.042-2.24-3.195-5.02-3.555-8.05-.359-3.03.117-5.81 1.56-8.092 1.658-2.572 4.428-3.734 7.346-3.734 3.032 0 6.144 1.286 8.423 3.734a13.638 13.638 0 0 1 1.445 1.91zm19.994-3.154c2.933 2.449 3.885 5.436 4.677 9.337l2.277 11.204h-5.47l-2.16-11.204c-.392-2.033-1.068-3.942-2.366-5.104-.886-.83-2.076-1.245-3.493-1.245-.95.042-1.703.332-2.296.872-.657.622-1.02 1.618-1.032 2.863-.018.996.212 2.531.481 4.067l1.71 9.751h-5.43l-4.93-29.877h4.486l1.568 9.004c1.386-1.41 3.315-2.074 5.157-2.157 2.258-.083 4.869.871 6.82 2.49zm23.84 0c3.05 2.449 4.143 5.436 5.12 9.337l2.807 11.204h-5.47l-2.69-11.204c-.488-2.033-1.255-3.942-2.608-5.104-.926-.83-2.135-1.245-3.552-1.245-.948.042-1.687.332-2.255.872-.628.622-.943 1.618-.896 2.863.029.996.332 2.531.674 4.067l2.17 9.751h-5.43l-4.756-22.408h4.553l.34 1.535c1.32-1.41 3.217-2.074 5.055-2.157 2.254-.083 4.91.871 6.939 2.49zm22.488 21.164c-3.175 0-6.573-1.287-9.194-3.735-2.414-2.324-3.893-5.021-4.683-8.092-.812-3.154-.645-5.934.437-8.092 1.258-2.448 3.872-3.734 6.865-3.734 3.032 0 6.31 1.245 8.941 3.734 2.536 2.366 4.07 5.063 4.975 8.092.954 3.195.887 5.727-.223 8.092-1.288 2.49-3.904 3.735-7.118 3.735zm1.88-7.18c.542-1.244.365-2.946-.125-4.647s-1.3-3.444-2.54-4.689a6.035 6.035 0 0 0-4.325-1.867c-1.532 0-2.78.622-3.286 1.867-.55 1.245-.352 2.988.105 4.69.456 1.7 1.186 3.402 2.42 4.647 1.2 1.245 2.835 1.909 4.406 1.909 1.571 0 2.837-.664 3.344-1.91zm13.167 6.557l-9.362-30.5h5.077l9.676 30.5h-5.39zm20.787.623c-3.175 0-6.66-1.287-9.449-3.735-2.572-2.324-4.235-5.021-5.235-8.092-1.026-3.154-1.05-5.934-.114-8.092 1.09-2.448 3.616-3.734 6.61-3.734 3.031 0 6.395 1.245 9.196 3.734 2.697 2.366 4.415 5.063 5.526 8.092 1.173 3.195 1.278 5.727.33 8.092-1.119 2.49-3.65 3.735-6.864 3.735zm1.39-7.18c.458-1.244.164-2.946-.441-4.647-.606-1.701-1.535-3.444-2.861-4.689-1.284-1.245-2.92-1.867-4.452-1.867s-2.737.622-3.159 1.867c-.464 1.245-.147 2.988.425 4.69.572 1.7 1.418 3.402 2.738 4.647 1.285 1.245 2.964 1.909 4.536 1.909 1.571 0 2.791-.664 3.214-1.91zm19.436-15.85h4.515l9.878 23.943c1.284 3.112 1.047 5.85-1.007 7.427-1.702 1.287-3.607 1.577-5.508 1.577-1.415 0-3.435-.415-4.952-.996-1.875-.788-4.006-2.157-5.556-3.817l4.07-2.532c.488.54 1.048.955 1.672 1.328.874.498 2.036.706 2.717.706 1.24 0 2.373-.374 2.924-.996.682-.789.708-1.619.2-2.78l-.934-2.324c-1.146.996-2.852 1.494-4.916 1.494-2.817 0-6.125-1.287-8.729-3.57-2.682-2.323-4.417-5.186-5.562-8.257-1.161-3.112-1.455-6.058-.676-8.258.854-2.365 3.124-3.568 5.966-3.568 2.085 0 4.392.747 6.468 2.033l-.57-1.41zm2.001 18.009c1.533 0 2.631-.498 3.142-1.577.534-1.204.2-3.196-.621-5.229s-2.07-3.984-3.57-5.228c-1.275-1.08-2.698-1.577-4.114-1.577-1.723 0-2.853.54-3.174 1.992-.283 1.161 0 2.904.733 4.813.733 1.909 1.715 3.652 2.905 4.814 1.464 1.452 3.206 1.992 4.7 1.992zm21.41-18.01h5.123l2.541 25.437c.189 2.324.001 4.358-1.02 5.52-1.03 1.244-2.655 1.41-4.634 1.41h-.283l-2.28-5.353.634.083c.676.083 1.64 0 1.933-.249.438-.373.625-1.784.435-3.776l-17.93-23.072h5.16l12.074 15.893-1.753-15.893zm-504.911 68.51c-.395 1.162-.576 2.241-.307 3.113.35 1.245 1.637 1.909 3.334 1.909 1.74 0 3.62-.664 5.207-1.91.29-.248.495-.497.766-.705l4.717 2.449a26.772 26.772 0 0 1-2.237 1.826c-3.52 2.49-7.545 3.776-10.979 3.61-3.431-.166-6.28-1.245-7.239-3.735-.848-2.324-.393-5.146 1.166-8.092 1.642-3.112 3.819-5.85 6.843-8.092 3.322-2.448 7.197-3.734 10.565-3.734 3.37 0 6.03 1.245 6.986 3.734.877 2.241.457 5.104-.913 8.092a25.91 25.91 0 0 1-.79 1.536h-17.12zm9.31-8.091c-1.657 0-3.532.622-5.094 1.909a11.45 11.45 0 0 0-1.83 1.825h10.27c.099-.663.093-1.286-.037-1.825-.372-1.287-1.608-1.91-3.308-1.91zm35.85-2.78c1.696 2.448.847 5.436-.76 9.336l-4.617 11.204h-6.051l4.733-11.204c.86-2.033 1.324-3.942.622-5.104-.455-.83-1.511-1.245-3.085-1.245-1.081.042-2.1.332-3.102.872-1.124.622-2.158 1.618-2.962 2.863-.652.996-1.37 2.531-2.046 4.067l-4.29 9.751h-6.008l10.09-22.408h5.06l-.678 1.536c2.436-1.411 5.001-2.075 7.1-2.158 2.562-.083 4.856.871 5.993 2.49zm21.775 2.49h-6.628l-3.162 8.133c-.677 1.742-1.134 3.029-.92 3.817.216.789.98 1.287 1.861 1.37 1.1.083 2.55.041 3.875-.125l-1.83 4.855c-2.076.498-5.4.581-6.978.125-1.92-.581-3.192-1.577-3.451-3.237-.292-1.784.439-3.942 1.416-6.39l3.411-8.549h-4.759l1.776-4.357h4.722l2.484-6.224h5.67l-2.42 6.224h6.576l-1.643 4.357zm24.33-2.49c1.899 2.448 1.296 5.436.01 9.336l-3.694 11.204h-6.051l3.81-11.204c.692-2.033 1-3.942.202-5.104-.524-.83-1.614-1.245-3.188-1.245a6.569 6.569 0 0 0-3.03.872c-1.073.622-2.025 1.618-2.726 2.863-.57.996-1.162 2.531-1.711 4.067l-3.487 9.751h-6.008L178.341 168h4.991l-3.231 9.005c2.32-1.411 4.83-2.075 6.922-2.158 2.556-.083 4.927.871 6.198 2.49zm23.476-1.868h5.776l-6.362 22.408h-5.262l.45-1.535c-2.299 1.41-4.865 2.075-7.041 2.158-2.66.083-5.17-.872-6.543-2.49-2.01-2.448-1.44-5.436-.184-9.337l3.61-11.204h5.817l-3.492 11.204c-.634 2.034-.882 3.942-.029 5.104.57.83 1.703 1.245 3.312 1.245 1.1-.041 2.1-.332 3.042-.871 1.053-.623 1.954-1.619 2.58-2.864.51-.995 1.005-2.53 1.457-4.066l2.869-9.752zm28.42 5.934l-5.958 1.328c-.058-.788-.616-1.618-1.288-1.992-.585-.373-1.383-.58-2.318-.58-1.02 0-1.956.165-2.639.497-.748.415-.974.789-1.04 1.038-.055.207-.013.373-.003.498.232.415 1.073.788 2.14 1.12 1.07.332 2.31.664 3.393.954 1.782.581 2.835.83 4.04 2.034 1.55 1.41 2.083 3.32 1.362 5.602-.683 2.116-2.346 3.942-4.609 5.145-2.162 1.12-4.527 1.453-6.942 1.453-3.248 0-5.803-.789-7.397-2.988-.774-1.162-1.395-3.652-1.161-4.814l5.94-1.328c-.177.664-.075 1.91.411 2.532.759 1.079 2.14 1.286 3.575 1.286 1.087 0 2.662-.207 3.494-.747.528-.373.677-.622.868-1.037.104-.415.09-.706-.14-.996-.427-.54-1.423-.872-2.148-1.079-1.168-.332-2.301-.622-3.509-.954-1.97-.54-3.118-1.08-4.077-1.992-1.273-1.162-1.587-2.988-1.154-4.565.775-2.822 3.165-5.062 5.85-6.1 1.969-.747 3.655-.913 5.202-.871 1.558 0 3.201.332 4.563 1.12 1.962 1.12 3.223 3.07 3.544 5.436zm8.361-14.026h5.65l-1.102 4.98h-5.701l1.153-4.98zm-1.874 8.092h5.733l-4.96 22.408h-5.964l5.19-22.408zm15.363 6.598l-4.772-2.448c.162-.166.393-.457.606-.664 2.67-2.863 6.036-4.067 9.784-4.067 4.169 0 7.29 1.37 8.604 4.44.636 1.453.685 3.113.445 4.482l-2.464 14.067h-5.219l.703-3.817c-.658 1.203-2.332 2.448-3.492 3.029-1.847.954-3.99 1.37-5.79 1.37-2.326 0-4.517-1.08-5.493-2.49-.881-1.619-1.254-2.74-.84-4.69.511-2.406 2.561-4.772 5.01-6.017 2.841-1.328 4.647-1.37 8.038-1.867l3.812-.498c-.051-.871-.552-1.618-1.317-2.075-.834-.54-1.942-.747-3.14-.705-1.488 0-2.787.332-3.889 1.37a4.255 4.255 0 0 0-.586.58zm8.222 5.353l-4.459.789c-2.59.456-5.316.913-5.763 2.697-.355 1.328.672 2.49 2.603 2.407 2.496-.083 5.715-1.245 6.954-3.943a9.17 9.17 0 0 0 .665-1.95zm30.77-6.017l-5.814 1.328c-.144-.788-.791-1.618-1.503-1.992-.626-.373-1.446-.58-2.381-.58-1.02 0-1.939.165-2.586.497-.703.415-.889.789-.928 1.038-.032.207.027.373.05.498.278.415 1.16.788 2.263 1.12 1.104.332 2.382.664 3.495.954 1.845.581 2.924.83 4.26 2.034 1.702 1.41 2.441 3.32 1.966 5.602-.455 2.116-1.92 3.942-4.053 5.145-2.042 1.12-4.372 1.453-6.786 1.453-3.248 0-5.888-.789-7.72-2.988-.9-1.162-1.789-3.652-1.68-4.814l5.797-1.328c-.105.664.131 1.91.684 2.532.875 1.079 2.278 1.286 3.714 1.286 1.087 0 2.64-.207 3.413-.747.488-.373.61-.622.756-1.037.06-.415.014-.706-.247-.996-.485-.54-1.518-.872-2.265-1.079-1.203-.332-2.368-.622-3.612-.954-2.028-.54-3.234-1.08-4.291-1.992-1.399-1.162-1.91-2.988-1.647-4.565.47-2.822 2.618-5.062 5.192-6.1 1.888-.747 3.556-.913 5.107-.871 1.559 0 3.237.332 4.685 1.12 2.082 1.12 3.553 3.07 4.13 5.436zm19.498-1.577h-6.628l-.897 8.134c-.192 1.742-.291 3.029.143 3.817.435.789 1.338 1.287 2.242 1.37 1.123.083 2.562.041 3.84-.125l-.478 4.855c-1.937.498-5.237.581-6.943.125-2.082-.581-3.631-1.577-4.353-3.237-.788-1.784-.658-3.942-.363-6.39l1.03-8.549h-4.758l.562-4.357h4.722l.75-6.224h5.67l-.687 6.224h6.577l-.43 4.357zm23.32 1.577l-5.712 1.328c-.203-.788-.914-1.618-1.654-1.992-.655-.373-1.49-.58-2.425-.58-1.02 0-1.926.165-2.548.497-.671.415-.83.789-.85 1.038-.016.207.056.373.089.498.308.415 1.219.788 2.347 1.12 1.13.332 2.432.664 3.568.954 1.889.581 2.987.83 4.415 2.034 1.809 1.41 2.692 3.32 2.39 5.602-.293 2.116-1.62 3.942-3.662 5.145-1.956 1.12-4.26 1.453-6.675 1.453-3.249 0-5.948-.789-7.947-2.988-.987-1.162-2.066-3.652-2.046-4.814l5.696-1.328c-.054.664.277 1.91.877 2.532.957 1.079 2.376 1.286 3.811 1.286 1.088 0 2.624-.207 3.357-.747.46-.373.563-.622.677-1.037.028-.415-.04-.706-.323-.996-.526-.54-1.583-.872-2.347-1.079-1.228-.332-2.415-.622-3.684-.954-2.069-.54-3.316-1.08-4.443-1.992a5.287 5.287 0 0 1-1.993-4.565c.256-2.822 2.234-5.062 4.728-6.1 1.832-.747 3.487-.913 5.042-.871 1.558 0 3.262.332 4.77 1.12 2.167 1.12 3.786 3.07 4.543 5.436zm14.093-14.026h5.65l-.111 4.98h-5.702l.163-4.98zm-.264 8.092h5.733l-.502 22.408h-5.964l.733-22.408zm30.352 1.868c2.772 2.448 3.235 5.436 3.341 9.336l.305 11.204h-6.052l-.187-11.204c-.035-2.033-.408-3.942-1.62-5.104-.82-.83-2.059-1.245-3.632-1.245-1.063.042-1.955.332-2.72.872-.85.622-1.447 1.618-1.704 2.863-.215.996-.259 2.531-.26 4.067l-.007 9.751h-6.007l.248-22.408h5.059l-.003 1.536c1.816-1.411 4.09-2.075 6.152-2.158 2.526-.083 5.238.871 7.087 2.49zm28.377 21.163c-3.512 0-6.966-1.287-9.289-3.735-2.124-2.324-3.125-5.021-3.276-8.092-.154-3.154.688-5.934 2.401-8.092 1.978-2.448 5.189-3.734 8.515-3.734 3.37 0 6.713 1.245 9.036 3.734 2.245 2.366 3.298 5.063 3.572 8.092.289 3.195-.394 5.727-2.19 8.092-2.022 2.49-5.213 3.735-8.769 3.735zm3.792-7.18c.899-1.244 1.11-2.945.974-4.647-.135-1.701-.615-3.444-1.695-4.689-1.032-1.245-2.652-1.867-4.352-1.867-1.7 0-3.234.622-4.093 1.867-.905 1.245-1.1 2.988-.998 4.69.102 1.7.507 3.402 1.58 4.647 1.033 1.245 2.685 1.909 4.425 1.909 1.74 0 3.3-.664 4.159-1.91zm29.291-13.983c3.041 2.448 3.833 5.436 4.367 9.336l1.535 11.204h-6.052l-1.418-11.204c-.257-2.033-.84-3.942-2.18-5.104-.911-.83-2.195-1.245-3.769-1.245-1.058.042-1.918.332-2.623.872-.783.622-1.27 1.618-1.39 2.863-.105.996.02 2.531.187 4.067l1.063 9.751h-6.007l-2.213-22.408h5.06l.165 1.536c1.66-1.411 3.862-2.075 5.915-2.158 2.517-.083 5.334.871 7.36 2.49zm14.797 10.872c.353 1.161.866 2.24 1.696 3.112 1.151 1.245 2.866 1.909 4.563 1.909 1.74 0 3.193-.664 3.978-1.91.13-.248.174-.497.312-.705l6.293 2.449a10.498 10.498 0 0 1-1.062 1.826c-1.917 2.49-5.115 3.776-8.655 3.61-3.538-.166-7.082-1.245-9.643-3.735-2.344-2.324-3.705-5.146-4.042-8.092-.362-3.112.053-5.85 1.635-8.092 1.746-2.448 4.792-3.734 8.161-3.734 3.37 0 6.831 1.245 9.39 3.734 2.318 2.241 3.742 5.104 4.295 8.092.092.498.149 1.038.198 1.536h-17.12zm4.103-8.092c-1.658 0-3.132.622-3.867 1.909-.342.54-.544 1.162-.654 1.825h10.27a8.365 8.365 0 0 0-1.213-1.825c-1.2-1.287-2.836-1.91-4.536-1.91zm44.008-1.702c2.322 2.2 3.947 5.146 4.719 8.258.762 3.071.734 5.934-.7 8.258-1.371 2.282-4.18 3.569-7.296 3.569-2.283 0-4.5-.498-6.43-1.494l2.37 10.83h-6.11l-6.747-32.367h5.059l.307 1.411c1.449-1.286 3.516-2.033 5.832-2.033 3.158 0 6.479 1.203 8.996 3.568zm-1.503 13.072c.55-1.162.482-2.905.03-4.814-.454-1.909-1.295-3.651-2.38-4.813-1.32-1.453-2.932-1.992-4.844-1.992-1.572 0-2.821.498-3.52 1.577-.835 1.245-.923 3.195-.481 5.228.442 2.034 1.395 4.025 2.786 5.229 1.282 1.079 2.829 1.577 4.526 1.577 1.654 0 3.225-.54 3.883-1.992zm13.826 6.39l-7.822-30.5h5.65l8.135 30.5h-5.963zm12.41-15.81l-5.965-2.448c.081-.166.17-.457.283-.664 1.275-2.863 4.053-4.067 7.801-4.067 4.17 0 7.959 1.37 10.768 4.44 1.344 1.453 2.203 3.113 2.63 4.482l4.391 14.067h-5.218l-1.158-3.817c-.071 1.203-1.139 2.448-2.015 3.029-1.383.954-3.323 1.37-5.123 1.37-2.326 0-5.043-1.08-6.706-2.49-1.67-1.619-2.59-2.74-3.126-4.69-.662-2.406.236-4.772 2.078-6.017 2.193-1.328 3.979-1.37 7.127-1.867l3.57-.498c-.476-.871-1.34-1.618-2.329-2.075-1.096-.54-2.306-.747-3.484-.705-1.487 0-2.625.332-3.22 1.37a2.137 2.137 0 0 0-.303.58zm10.83 5.353l-4.073.789c-2.369.456-4.871.913-4.449 2.697.292 1.328 1.885 2.49 3.776 2.407 2.455-.083 5.108-1.245 5.033-3.943a8.16 8.16 0 0 0-.286-1.95zm29.556-6.93l-4.607 2.283a7.425 7.425 0 0 0-.73-.747c-1.368-1.245-3.171-1.91-4.871-1.91-1.658 0-3.009.665-3.53 1.91-.57 1.245-.307 2.946.213 4.647.605 1.702 1.47 3.403 2.88 4.648 1.37 1.245 3.188 1.867 4.884 1.867 1.74 0 3.134-.622 3.657-1.867.087-.25.145-.457.188-.706l6.36 2.283c-.169.622-.338 1.245-.654 1.826-1.319 2.448-4.261 3.817-7.758 3.734-3.44.083-7.256-1.245-10.255-3.734-2.682-2.241-4.483-5.022-5.452-8.05-.968-3.03-.963-5.81.211-8.093 1.36-2.572 4.22-3.734 7.462-3.734 3.37 0 7.065 1.286 10.047 3.734.73.623 1.377 1.245 1.955 1.91zm11.69 7.719c.608 1.161 1.358 2.24 2.378 3.112 1.424 1.245 3.284 1.909 4.98 1.909 1.74 0 3.048-.664 3.561-1.91.076-.248.065-.497.157-.705l6.83 2.449a8.17 8.17 0 0 1-.663 1.826c-1.371 2.49-4.288 3.776-7.864 3.61-3.575-.166-7.355-1.245-10.46-3.735-2.853-2.324-4.832-5.146-5.814-8.092-1.043-3.112-1.228-5.85-.137-8.092 1.21-2.448 3.975-3.734 7.344-3.734s7.103 1.245 10.207 3.734c2.81 2.241 4.86 5.104 6.066 8.092.202.498.376 1.038.534 1.536h-17.118zm2.332-8.092c-1.658 0-2.996.622-3.448 1.909-.225.54-.29 1.162-.255 1.825h10.27a11.465 11.465 0 0 0-1.613-1.825c-1.481-1.287-3.254-1.91-4.954-1.91zm39.274-.29h-6.628l3.592 8.133c.77 1.742 1.38 3.029 2.25 3.817.87.789 2.048 1.287 2.998 1.37 1.168.083 2.585.041 3.771-.125l2.201 4.855c-1.661.498-4.916.581-6.873.125-2.404-.581-4.502-1.577-6.14-3.237-1.773-1.784-2.834-3.942-3.89-6.39l-3.687-8.549h-4.759l-1.842-4.357h4.722l-2.685-6.224h5.67l2.748 6.224h6.577l1.975 4.357zm24.402 18.673c-3.512 0-7.496-1.287-10.825-3.735-3.079-2.324-5.189-5.021-6.602-8.092-1.451-3.154-1.752-5.934-.926-8.092.972-2.448 3.653-3.734 6.98-3.734 3.369 0 7.225 1.245 10.57 3.734 3.219 2.366 5.38 5.063 6.9 8.092 1.602 3.195 1.96 5.727 1.136 8.092-.998 2.49-3.678 3.735-7.233 3.735zm.84-7.18c.387-1.244-.101-2.945-.936-4.647-.835-1.701-2.032-3.444-3.623-4.689-1.544-1.245-3.42-1.867-5.12-1.867-1.7 0-2.978.622-3.325 1.867-.394 1.245.128 2.988.93 4.69.801 1.7 1.905 3.402 3.49 4.647 1.545 1.245 3.47 1.909 5.21 1.909 1.74 0 3.026-.664 3.374-1.91zM99.468 237.174l-6.797 1.328c.085-.788-.372-1.618-1.04-1.992-.573-.373-1.41-.58-2.439-.58-1.121 0-2.181.165-2.994.497-.9.415-1.218.789-1.337 1.038-.099.207-.084.373-.097.498.177.415 1.032.788 2.142 1.12 1.112.332 2.413.664 3.547.954 1.848.581 2.957.83 4.054 2.034 1.434 1.41 1.656 3.32.43 5.602-1.15 2.116-3.321 3.942-6.03 5.145-2.583 1.12-5.239 1.453-7.885 1.453-3.56 0-6.212-.789-7.548-2.988-.631-1.162-.847-3.652-.374-4.814l6.768-1.327c-.319.663-.44 1.908-.024 2.53.63 1.08 2.105 1.287 3.68 1.287 1.192 0 2.959-.207 3.973-.747.65-.373.861-.622 1.149-1.037.192-.415.232-.706.034-.996-.366-.54-1.397-.871-2.154-1.079-1.218-.332-2.408-.622-3.671-.954-2.062-.54-3.221-1.08-4.103-1.992-1.181-1.162-1.185-2.988-.416-4.565 1.377-2.822 4.422-5.062 7.57-6.1 2.304-.747 4.19-.913 5.884-.871 1.714 0 3.46.332 4.81 1.12 1.945 1.12 2.962 3.07 2.868 5.436zm27.103-4.066c1.978 2.448 1.18 5.436-.41 9.336l-4.566 11.204h-6.633l4.683-11.204c.85-2.033 1.273-3.942.448-5.104-.54-.83-1.72-1.245-3.45-1.245a8.005 8.005 0 0 0-3.367.872c-1.206.622-2.295 1.618-3.118 2.863-.669.996-1.384 2.531-2.053 4.067l-4.247 9.751h-6.585l13.32-29.877h5.498l-3.933 9.005c2.61-1.411 5.4-2.075 7.706-2.158 2.814-.083 5.381.871 6.707 2.49zm12.248 4.73l-4.834-2.448c.207-.166.51-.457.779-.664 3.416-2.863 7.32-4.067 11.443-4.067 4.587 0 7.787 1.37 8.707 4.44.45 1.453.221 3.113-.277 4.482l-5.116 14.067h-5.72l1.423-3.817c-.927 1.203-2.975 2.448-4.345 3.029-2.188.954-4.607 1.37-6.58 1.37-2.55 0-4.769-1.08-5.6-2.49-.696-1.619-.916-2.74-.134-4.69.965-2.406 3.612-4.772 6.51-6.017 3.345-1.327 5.335-1.369 9.144-1.867l4.273-.498c.092-.871-.33-1.618-1.095-2.075-.824-.54-2.007-.747-3.331-.705-1.636 0-3.12.332-4.505 1.37a5.76 5.76 0 0 0-.742.58zm8.123 5.353l-5.028.789c-2.922.456-5.99.913-6.781 2.697-.614 1.328.316 2.49 2.448 2.407 2.751-.083 6.48-1.245 8.3-3.942.626-.913.983-1.743 1.061-1.95zm29.564-12.532c1.371-.083 2.739.125 3.966.623l-1.707 5.228c-1.16-.456-2.806-.705-4.67-.58-1.864.124-3.37.705-4.542 1.535-1.494 1.079-2.523 2.572-3.093 4.232l-4.105 11.951h-6.585l7.929-22.408h5.565l-1.059 3.071a12.076 12.076 0 0 1 3.55-2.49c1.6-.747 3.24-1.079 4.751-1.162zm9.146 13.32c-.173 1.163-.129 2.241.362 3.113.663 1.245 2.224 1.909 4.085 1.909 1.909 0 3.823-.664 5.286-1.91.264-.248.432-.497.683-.705l5.72 2.449a20.976 20.976 0 0 1-2.048 1.826c-3.306 2.49-7.433 3.776-11.233 3.61-3.798-.166-7.163-1.245-8.773-3.735-1.454-2.324-1.591-5.145-.545-8.092 1.098-3.112 2.87-5.85 5.687-8.092 3.1-2.448 7.07-3.734 10.776-3.734 3.706 0 6.912 1.245 8.52 3.734 1.463 2.241 1.64 5.105.799 8.092-.14.498-.34 1.038-.527 1.536h-18.792zm8.408-8.091c-1.822 0-3.742.622-5.17 1.909a8.637 8.637 0 0 0-1.599 1.826h11.282c-.04-.664-.186-1.287-.45-1.826-.696-1.287-2.194-1.91-4.063-1.91zm31.777 7.718l-2.486 10.042h-6.634l7.7-29.836h6.321l-3.822 15.437h2.678l8.023-8.009h7.141l-10.136 10.208 6.369 12.2h-7.306l-5.151-10.042h-2.697zm43.067-10.498c2.543 2.448 2.437 5.436 1.749 9.336l-1.976 11.204h-6.633l2.092-11.204c.38-2.033.361-3.942-.732-5.104-.732-.83-2.008-1.245-3.737-1.245-1.177.042-2.217.332-3.167.872-1.062.622-1.92 1.618-2.455 2.863-.439.996-.8 2.531-1.113 4.067l-1.992 9.751h-6.585l4.809-22.408h5.565l-.316 1.536c2.284-1.411 4.92-2.075 7.207-2.158 2.795-.083 5.583.871 7.284 2.49zm17.128 21.163c-3.849 0-7.347-1.287-9.345-3.735-1.81-2.324-2.305-5.021-1.785-8.092.535-3.153 2.082-5.934 4.448-8.092 2.724-2.448 6.545-3.734 10.204-3.734 3.706 0 7.103 1.245 9.092 3.734 1.93 2.366 2.474 5.063 2.085 8.092-.41 3.196-1.734 5.727-4.242 8.092-2.78 2.49-6.56 3.735-10.457 3.735zm5.779-7.18c1.268-1.244 1.884-2.945 2.12-4.647.237-1.701.104-3.444-.8-4.689-.853-1.245-2.492-1.867-4.361-1.867-1.87 0-3.694.622-4.918 1.867-1.275 1.245-1.88 2.988-2.15 4.69-.27 1.7-.208 3.402.69 4.647.854 1.245 2.516 1.909 4.425 1.909 1.909 0 3.769-.664 4.994-1.91zm41.937-15.85h6.167l-9.425 22.407h-6.393l-2.996-13.362-5.992 13.362h-5.96l-5.121-22.45 6.209.042 3.106 13.362 6.029-13.362h5.24l3.467 13.362 5.669-13.362zm8.518 22.407l1.85-30.5h6.223l-1.536 30.5h-6.537zm19.19-9.668c.153 1.162.5 2.24 1.235 3.112 1.013 1.245 2.76 1.909 4.62 1.909 1.91 0 3.638-.664 4.751-1.91.194-.248.292-.497.485-.705l6.408 2.449a13.8 13.8 0 0 1-1.537 1.826c-2.607 2.49-6.373 3.776-10.22 3.61-3.844-.166-7.511-1.245-9.82-3.735-2.106-2.324-3.035-5.145-2.817-8.092.225-3.112 1.229-5.85 3.417-8.092 2.412-2.448 6.022-3.734 9.728-3.734 3.706 0 7.26 1.245 9.567 3.734 2.093 2.241 3.073 5.105 3.07 8.092 0 .498-.048 1.038-.096 1.536h-18.792zm6.137-8.092c-1.822 0-3.568.622-4.634 1.909-.485.54-.832 1.162-1.087 1.826h11.281a6.367 6.367 0 0 0-.961-1.826c-1.058-1.287-2.73-1.91-4.6-1.91zm34.203-12.117h6.276l1.342 29.877h-5.768l-.049-1.37c-1.97 1.329-4.547 1.993-7.434 1.993-3.416 0-6.85-1.287-8.985-3.569-2.216-2.324-3.041-5.187-3.057-8.258-.017-3.112.95-6.058 2.892-8.258 2.111-2.365 5.43-3.568 8.905-3.568 2.224 0 4.373.58 6.168 1.535l-.29-8.382zm-.173 23.902c1.196-1.204 1.694-3.195 1.622-5.229-.073-2.033-.706-3.983-1.967-5.228-1.064-1.08-2.574-1.577-4.302-1.577-2.102 0-3.726.54-4.775 1.992-.87 1.162-1.312 2.904-1.28 4.813.03 1.91.438 3.652 1.362 4.814 1.123 1.452 2.995 1.992 4.81 1.992 1.86 0 3.42-.498 4.53-1.577zm30.666-16.433h5.519l2.223 23.944c.289 3.112-1.11 5.85-4.234 7.428-2.576 1.286-4.996 1.576-7.293 1.576-1.71 0-3.986-.415-5.586-.995-1.952-.789-3.982-2.158-5.196-3.818l5.942-2.531c.374.539.886.954 1.492 1.327.858.498 2.181.706 3.005.706 1.503 0 3.024-.374 3.943-.996 1.145-.788 1.511-1.618 1.367-2.78l-.192-2.324c-1.793.996-4.062 1.494-6.564 1.494-3.416 0-6.911-1.287-9.156-3.569-2.328-2.324-3.29-5.187-3.454-8.258-.166-3.112.66-6.058 2.496-8.258 1.998-2.365 5.26-3.568 8.734-3.568 2.548 0 5.063.747 7.073 2.033l-.119-1.41zm-4.886 18.01c1.862 0 3.398-.498 4.455-1.577 1.138-1.204 1.541-3.195 1.37-5.229-.17-2.033-.896-3.983-2.217-5.228-1.116-1.08-2.65-1.577-4.378-1.577-2.101 0-3.7.54-4.678 1.992-.815 1.162-1.173 2.904-1.05 4.813.122 1.91.614 3.652 1.593 4.814 1.193 1.452 3.091 1.992 4.905 1.992zm23.753-5.27c.32 1.162.821 2.24 1.681 3.112 1.191 1.245 3.034 1.909 4.894 1.909 1.909 0 3.542-.664 4.477-1.91.158-.248.221-.497.384-.705l6.759 2.449a11.224 11.224 0 0 1-1.275 1.826c-2.25 2.49-5.833 3.776-9.703 3.61-3.868-.166-7.69-1.245-10.356-3.735-2.438-2.324-3.772-5.145-3.975-8.092-.22-3.112.39-5.85 2.258-8.092 2.06-2.448 5.487-3.734 9.193-3.734 3.706 0 7.44 1.245 10.102 3.734a13.575 13.575 0 0 1 4.229 8.092c.07.498.1 1.038.124 1.536h-18.792zm4.978-8.092c-1.822 0-3.478.622-4.36 1.909-.408.54-.666 1.162-.825 1.826h11.281a7.679 7.679 0 0 0-1.223-1.826c-1.242-1.287-3.004-1.91-4.873-1.91zm25.668 17.76c.632 3.984-1.148 6.225-5.706 5.602l.036-2.365c2.344.166 3.141-1.245 2.497-3.237h-3.364l-.838-5.643h6.479l.896 5.643zm35.825-16.474l-5.9 1.328c-.448-.788-1.465-1.618-2.385-1.992-.825-.373-1.803-.58-2.83-.58-1.122 0-2.07.165-2.659.497-.62.415-.686.789-.637 1.038.041.207.168.373.24.498.457.415 1.563.788 2.898 1.12 1.336.332 2.86.664 4.19.954 2.24.581 3.518.83 5.427 2.034 2.386 1.41 3.897 3.32 4.212 5.602.277 2.116-.662 3.942-2.559 5.145-1.826 1.12-4.258 1.453-6.904 1.453-3.56 0-6.744-.789-9.564-2.988-1.416-1.162-3.312-3.652-3.623-4.814l5.871-1.327c.13.663.849 1.908 1.685 2.53 1.357 1.08 2.973 1.287 4.548 1.287 1.192 0 2.82-.207 3.47-.747.397-.373.44-.622.448-1.037-.088-.415-.244-.706-.638-.996-.73-.54-1.986-.871-2.882-1.079-1.443-.332-2.829-.622-4.316-.954-2.425-.54-3.949-1.08-5.447-1.992-1.965-1.162-3.202-2.988-3.497-4.565-.527-2.822 1.005-5.062 3.452-6.1 1.801-.747 3.575-.913 5.297-.871 1.714 0 3.683.332 5.565 1.12 2.702 1.12 5.036 3.07 6.538 5.436zm13.152 6.432l2.405 10.042h-6.633l-6.835-29.836h6.322l3.697 15.437h2.678l4.122-8.009h7.142l-5.165 10.208 12.313 12.2h-7.306l-10.044-10.042h-2.696zm15.555-20.458h6.224l1.412 4.98h-6.275l-1.36-4.98zm2.212 8.092h6.306l6.355 22.408h-6.537l-6.124-22.408zm19.87 22.408l-8.994-30.5h6.223l9.309 30.5h-6.537zm13.267 0l-9.631-30.5h6.223l9.945 30.5h-6.537zm27.9-16.474l-5.703 1.328c-.564-.788-1.705-1.618-2.68-1.992a7.537 7.537 0 0 0-2.917-.58c-1.121 0-2.045.165-2.584.497-.558.415-.569.789-.483 1.038.072.207.223.373.313.498.519.415 1.681.788 3.065 1.12 1.385.332 2.96.664 4.332.954 2.326.581 3.64.83 5.728 2.034 2.596 1.41 4.39 3.32 5.044 5.602.59 2.116-.077 3.942-1.795 5.145-1.66 1.12-4.042 1.453-6.689 1.453-3.56 0-6.86-.789-10.008-2.988-1.588-1.162-3.854-3.652-4.337-4.814l5.674-1.327c.229.663 1.132 1.908 2.06 2.53 1.518 1.08 3.165 1.287 4.74 1.287 1.192 0 2.788-.207 3.358-.747.343-.373.348-.622.295-1.037-.15-.415-.349-.706-.786-.996-.81-.54-2.115-.871-3.042-1.079-1.492-.332-2.921-.622-4.458-.954-2.505-.54-4.109-1.08-5.742-1.992-2.138-1.162-3.646-2.988-4.174-4.565-.947-2.822.253-5.062 2.546-6.1 1.69-.747 3.44-.913 5.168-.871 1.714 0 3.732.332 5.731 1.12 2.868 1.12 5.492 3.07 7.344 5.436zm17.426 16.474c1.542 3.984.274 6.225-4.426 5.602l-.505-2.365c2.382.166 2.857-1.245 1.759-3.237h-3.365l-2.126-5.643h6.479l2.184 5.643zm27.293-18.05h-7.285l3.503 8.133c.75 1.743 1.352 3.029 2.263 3.817.912.789 2.177 1.287 3.215 1.37 1.277.083 2.833.041 4.143-.125l2.149 4.855c-1.848.498-5.42.581-7.541.125-2.604-.581-4.851-1.577-6.56-3.237-1.85-1.784-2.9-3.942-3.93-6.39l-3.594-8.549h-5.23l-1.796-4.357h5.194l-2.617-6.224h6.243l2.68 6.224h7.235l1.928 4.357zm25.728 18.673c-3.849 0-8.143-1.287-11.656-3.735-3.248-2.324-5.413-5.021-6.792-8.092-1.417-3.153-1.59-5.934-.56-8.092 1.209-2.448 4.233-3.734 7.893-3.734 3.706 0 7.873 1.245 11.403 3.734 3.394 2.366 5.606 5.063 7.093 8.092 1.567 3.196 1.809 5.727.765 8.092-1.24 2.49-4.249 3.735-8.146 3.735zm1.336-7.18c.498-1.244.061-2.945-.755-4.647-.816-1.701-2.028-3.444-3.702-4.689a9.222 9.222 0 0 0-5.518-1.867c-1.869 0-3.308.622-3.762 1.867-.504 1.245-.03 2.988.752 4.69.783 1.7 1.898 3.402 3.566 4.647 1.624 1.245 3.698 1.909 5.607 1.909 1.908 0 3.358-.664 3.812-1.91zM33.273 288.879c1.99 2.448.919 5.436-1.08 9.336l-5.739 11.204H19.24l5.857-11.204c1.062-2.033 1.651-3.942.83-5.104-.533-.83-1.792-1.245-3.677-1.245a9.77 9.77 0 0 0-3.73.872c-1.355.622-2.607 1.618-3.585 2.863-.794.996-1.675 2.531-2.504 4.067l-5.268 9.751H0l12.336-22.408h6.07l-.831 1.536c2.94-1.411 6.026-2.075 8.547-2.158 3.076-.083 5.813.871 7.151 2.49zm10.351 10.872c-.368 1.162-.487 2.24-.088 3.112.528 1.245 2.124 1.909 4.15 1.909 2.076 0 4.264-.664 6.051-1.909.326-.249.549-.498.855-.705l5.842 2.448a28.06 28.06 0 0 1-2.518 1.826c-3.988 2.49-8.679 3.776-12.786 3.61-4.105-.166-7.597-1.245-8.963-3.735-1.223-2.324-.937-5.145.655-8.092 1.676-3.112 4.029-5.85 7.445-8.091 3.757-2.449 8.288-3.735 12.33-3.735 4.044 0 7.347 1.245 8.71 3.735 1.244 2.24.985 5.104-.401 8.091a22.125 22.125 0 0 1-.816 1.536H43.624zm10.419-8.092c-1.987 0-4.177.622-5.932 1.909a11.22 11.22 0 0 0-2.025 1.826h12.293c.06-.664-.002-1.287-.205-1.826-.558-1.287-2.094-1.91-4.131-1.91zm37.157-.29h-7.943l-3.592 8.133c-.77 1.743-1.287 3.029-1.013 3.817.275.789 1.198 1.287 2.252 1.37 1.314.083 3.046.041 4.623-.125l-2.087 4.855c-2.464.498-6.424.581-8.315.125-2.304-.581-3.842-1.577-4.191-3.237-.391-1.784.428-3.942 1.535-6.39l3.863-8.549H70.63l2.006-4.357H78.3l2.814-6.224h6.816l-2.75 6.224h7.892l-1.873 4.357zm37.335-4.358h6.728l-16.847 22.408h-6.953l.64-13.361-10.417 13.361h-6.483l.923-22.45 6.76.042-.49 13.362 10.457-13.362h5.716l-.127 13.362 10.093-13.362zm14.657 23.03c-4.186 0-7.758-1.286-9.491-3.734-1.552-2.324-1.608-5.02-.491-8.092 1.147-3.153 3.331-5.934 6.298-8.091 3.41-2.449 7.81-3.735 11.802-3.735 4.044 0 7.523 1.245 9.239 3.735 1.673 2.365 1.772 5.062.795 8.091-1.03 3.196-2.936 5.727-6.096 8.092-3.48 2.49-7.817 3.735-12.056 3.735zm7.591-7.178c1.607-1.245 2.588-2.946 3.155-4.648.567-1.701.739-3.444-.02-4.689-.704-1.245-2.379-1.867-4.416-1.867-2.038 0-4.14.622-5.698 1.867-1.614 1.245-2.587 2.988-3.188 4.69-.6 1.7-.839 3.402-.086 4.647.704 1.245 2.394 1.909 4.471 1.909s4.223-.664 5.782-1.909zm33.67-16.433c1.49-.083 2.996.125 4.37.623l-1.5 5.228c-1.296-.456-3.108-.705-5.131-.58-2.024.124-3.625.705-4.844 1.535a7.888 7.888 0 0 0-3.073 4.232l-3.63 11.951h-7.163l7.04-22.408h6.07l-.936 3.071a12.015 12.015 0 0 1 3.696-2.49c1.691-.747 3.459-1.079 5.1-1.162zm12.84 12.947l-2.704 10.042h-7.215l8.344-29.836h6.903l-4.156 15.437h2.918l8.75-8.009h7.79l-11.062 10.208 6.915 12.2h-7.947l-5.6-10.042h-2.937zm26.73 10.042c-.903 3.984-3.732 6.225-8.438 5.602l.981-2.365c2.483.166 3.912-1.245 4.006-3.237h-3.66l1.338-5.643h7.052l-1.28 5.643zm29.127-15.81l-5.85-2.448c.186-.166.447-.457.691-.664 3.047-2.863 7.02-4.067 11.518-4.067 5.004 0 8.818 1.37 10.541 4.44.832 1.453.97 3.113.748 4.482l-2.284 14.067h-6.222l.655-3.817c-.727 1.203-2.664 2.448-4.018 3.029-2.156.954-4.69 1.37-6.835 1.37-2.773 0-5.441-1.08-6.68-2.49-1.138-1.619-1.643-2.74-1.254-4.69.48-2.406 2.803-4.772 5.666-6.017 3.33-1.327 5.489-1.369 9.522-1.867l4.54-.498c-.105-.871-.741-1.618-1.682-2.075-1.026-.54-2.364-.747-3.798-.705-1.783 0-3.322.332-4.587 1.37a4.423 4.423 0 0 0-.671.58zm10.11 5.353l-5.29.789c-3.075.456-6.308.913-6.749 2.697-.355 1.328.932 2.49 3.232 2.407 2.976-.083 6.761-1.245 8.11-3.942.467-.913.662-1.743.697-1.95zm37.15-10.083c2.964 2.448 3.08 5.436 2.635 9.336l-1.28 11.204h-7.215l1.397-11.204c.254-2.033.083-3.942-1.201-5.104-.863-.83-2.287-1.245-4.172-1.245-1.28.042-2.39.332-3.382.872-1.108.622-1.964 1.618-2.447 2.863-.398.996-.667 2.531-.886 4.067l-1.386 9.751h-7.163l3.418-22.408h6.07l-.22 1.536c2.379-1.411 5.201-2.075 7.69-2.158 3.042-.083 6.159.871 8.141 2.49zm28.68-9.337h6.853l-2.026 29.877h-6.274l.106-1.369c-2.298 1.328-5.177 1.992-8.317 1.992-3.715 0-7.302-1.287-9.366-3.569-2.148-2.324-2.722-5.187-2.392-8.258.335-3.112 1.722-6.058 4.089-8.257 2.572-2.366 6.33-3.57 10.12-3.57 2.427 0 4.704.582 6.552 1.536l.655-8.382zm-2.957 23.902c1.442-1.203 2.216-3.195 2.372-5.229.156-2.033-.307-3.983-1.538-5.228-1.035-1.08-2.623-1.577-4.508-1.577-2.29 0-4.123.54-5.432 1.992-1.082 1.162-1.762 2.905-1.946 4.813-.185 1.91.06 3.652.933 4.814 1.057 1.452 3.032 1.992 5.006 1.992 2.026 0 3.781-.498 5.113-1.577zm34.872-23.902l-.15 4.98h-6.854l.2-4.98h6.804zm-11.621 34.691c.526 0 1.684 0 2.507-.788.546-.498 1.002-1.37 1.058-2.78l.952-23.654h6.88l-.709 23.653c-.074 2.49-.927 4.565-2.403 6.142-1.922 2.033-4.883 3.195-8.546 3.195l.26-5.768zm36.64-27.222h6.93l.406 22.408h-6.273l-.014-1.535c-2.235 1.41-5.057 2.075-7.62 2.158-3.14.083-6.48-.872-8.703-2.49-3.29-2.448-3.697-5.436-3.618-9.337l.225-11.204h6.981l-.108 11.204c-.02 2.034.375 3.943 1.816 5.104.98.83 2.483 1.245 4.404 1.245 1.297-.041 2.387-.332 3.318-.871 1.034-.623 1.752-1.618 2.053-2.863.251-.996.29-2.532.279-4.067l-.076-9.752zm36.18 5.934l-6.67 1.328c-.346-.788-1.306-1.618-2.243-1.992-.833-.373-1.862-.58-2.982-.58-1.223 0-2.286.165-2.986.497-.75.415-.888.789-.879 1.038.008.207.117.373.173.498.424.415 1.564.788 2.96 1.12 1.396.332 3 .664 4.396.955 2.337.58 3.684.83 5.549 2.033 2.347 1.41 3.65 3.32 3.584 5.602-.078 2.116-1.425 3.942-3.704 5.145-2.187 1.12-4.89 1.453-7.768 1.453-3.872 0-7.196-.789-9.876-2.988-1.336-1.162-2.961-3.652-3.095-4.813l6.626-1.328c.024.664.587 1.908 1.387 2.53 1.286 1.08 3.008 1.287 4.722 1.287 1.298 0 3.105-.207 3.909-.747.5-.373.59-.622.673-1.037-.022-.415-.14-.705-.517-.996-.7-.54-2.007-.871-2.946-1.079-1.512-.332-2.97-.622-4.53-.954-2.546-.54-4.11-1.08-5.58-1.992-1.937-1.162-2.962-2.988-3.005-4.565-.078-2.821 1.99-5.062 4.842-6.1 2.097-.747 4.062-.913 5.934-.871 1.87 0 3.958.332 5.87 1.12 2.747 1.12 4.943 3.071 6.155 5.436zm23.019-1.577h-7.943l.681 8.134c.146 1.743.306 3.029.994 3.817.69.789 1.874 1.287 2.972 1.37a28.28 28.28 0 0 0 4.557-.125l.464 4.855c-2.202.498-6.119.581-8.25.125-2.609-.581-4.67-1.577-5.892-3.237-1.328-1.784-1.643-3.942-1.822-6.39l-.629-8.549h-5.702l-.284-4.357h5.666l-.457-6.224h6.816l.521 6.224h7.892l.416 4.357zm33.809 0h-7.943l1.09 8.134c.233 1.743.457 3.029 1.184 3.817.729.789 1.939 1.287 3.04 1.37 1.362.083 3.07.041 4.552-.125l.707 4.855c-2.177.498-6.09.581-8.243.125-2.638-.581-4.75-1.577-6.054-3.237-1.419-1.784-1.841-3.942-2.144-6.39l-1.057-8.549h-5.703l-.502-4.357h5.666l-.77-6.224h6.816l.834 6.224h7.892l.635 4.357zm21.716 18.674c-4.186 0-8.423-1.287-11.42-3.735-2.752-2.324-4.201-5.02-4.67-8.092-.48-3.153.268-5.934 2.12-8.091 2.147-2.449 5.881-3.735 9.874-3.735 4.043 0 8.165 1.245 11.167 3.735 2.895 2.365 4.387 5.062 4.974 8.091.62 3.196.021 5.727-1.918 8.092-2.194 2.49-5.888 3.735-10.127 3.735zm3.884-7.179c.964-1.245 1.066-2.946.754-4.648-.31-1.701-1.04-3.444-2.441-4.689-1.347-1.245-3.343-1.867-5.38-1.867-2.038 0-3.818.622-4.734 1.867-.97 1.245-1.044 2.988-.766 4.69.278 1.7.918 3.402 2.313 4.647 1.348 1.245 3.38 1.909 5.457 1.909 2.078 0 3.88-.664 4.797-1.909zm44.042-13.984c3.87 2.448 5.092 5.436 6.09 9.336l2.862 11.204h-7.214l-2.747-11.204c-.498-2.033-1.375-3.942-3.089-5.104-1.17-.83-2.747-1.245-4.632-1.245-1.265.042-2.267.332-3.06.872-.878.622-1.365 1.618-1.388 2.863-.03.996.269 2.531.619 4.067l2.22 9.751h-7.163l-6.492-29.877h6.002l2.039 9.005c1.856-1.411 4.433-2.075 6.89-2.158 3.013-.083 6.482.871 9.063 2.49zm16.662 4.73l-6.98-2.448c.109-.166.236-.457.384-.664 1.724-2.863 5.142-4.067 9.64-4.067 5.004 0 9.45 1.37 12.591 4.44 1.503 1.453 2.408 3.113 2.818 4.482L588 309.418h-6.221l-1.109-3.817c-.171 1.203-1.532 2.448-2.619 3.029-1.715.954-4.057 1.37-6.202 1.37-2.773 0-5.94-1.08-7.83-2.49-1.886-1.619-2.908-2.74-3.42-4.69-.63-2.406.6-4.772 2.887-6.017 2.717-1.327 4.857-1.369 8.66-1.867l4.31-.498c-.507-.871-1.488-1.618-2.64-2.075-1.275-.54-2.709-.747-4.123-.705-1.783 0-3.17.332-3.955 1.37a2.243 2.243 0 0 0-.403.58zm12.583 5.353l-4.927.789c-2.864.456-5.886.913-5.503 2.697.259 1.328 2.081 2.49 4.344 2.407 2.937-.083 6.186-1.245 6.288-3.942a6.729 6.729 0 0 0-.202-1.95zm26.794-11.95h6.88l-2.575 22.407h-7.058l-17.128-22.408h6.88l11.566 15.52 1.435-15.52zm21.17 12.739c.623 1.162 1.425 2.24 2.567 3.112 1.591 1.245 3.754 1.909 5.779 1.909 2.077 0 3.698-.664 4.423-1.909.113-.249.123-.498.252-.705l7.932 2.448a8.212 8.212 0 0 1-.96 1.826c-1.862 2.49-5.455 3.776-9.704 3.61-4.246-.166-8.66-1.245-12.15-3.735-3.207-2.324-5.33-5.145-6.252-8.092-.981-3.112-.966-5.85.537-8.091 1.668-2.449 5.1-3.735 9.143-3.735 4.044 0 8.409 1.245 11.898 3.735 3.156 2.24 5.341 5.104 6.505 8.091.194.498.352 1.038.495 1.536h-20.466zm3.51-8.092c-1.986 0-3.645.622-4.302 1.909-.316.54-.45 1.162-.467 1.826h12.293a10.827 10.827 0 0 0-1.762-1.826c-1.657-1.287-3.724-1.91-5.761-1.91zm39.198-7.843c-2.577.332-2.617 1.535-1.908 3.195h7.284l1.908 4.357h-7.332l7.708 18.051h-7.11l-7.523-18.05h-5.702l-1.78-4.358h5.667c-.608-1.701-1.125-4.025.104-5.768 1.836-2.407 5.994-2.614 10.553-2.24l2.126 4.855c-1.33-.166-2.859-.208-3.995-.042zm27.078 3.195h6.93l10.772 22.408h-6.274l-.724-1.535c-1.583 1.41-4.097 2.075-6.622 2.158-3.102.083-6.882-.872-9.855-2.49-4.421-2.448-6.21-5.436-7.937-9.337l-4.957-11.204h6.981l5.074 11.204c.921 2.034 2.2 3.943 4.177 5.104 1.364.83 3.06 1.245 4.98 1.245 1.279-.041 2.234-.332 2.916-.871.745-.623 1.003-1.618.728-2.863-.21-.996-.88-2.532-1.602-4.067l-4.587-9.752zm36.896 1.868c4.54 2.448 6.581 5.436 8.646 9.336l5.933 11.204h-7.215l-5.815-11.204c-1.056-2.033-2.456-3.942-4.487-5.104-1.398-.83-3.09-1.245-4.974-1.245-1.253.042-2.176.332-2.821.872-.707.622-.922 1.618-.604 2.863.244.996.963 2.531 1.733 4.067l4.891 9.751h-7.162l-11.008-22.408h6.07l.768 1.536c1.47-1.411 3.865-2.075 6.3-2.158 2.99-.083 6.72.871 9.745 2.49zm18.954 14.897h7.052l3.107 5.643h-7.11l-3.05-5.643z"/>
</svg>
