<?xml version="1.0" encoding="utf-8"?>
<!-- Generator: Adobe Illustrator 23.0.3, SVG Export Plug-In . SVG Version: 6.00 Build 0)  -->
<svg version="1.1" id="Layer_1" xmlns="http://www.w3.org/2000/svg" xmlns:xlink="http://www.w3.org/1999/xlink" x="0px" y="0px"
	 viewBox="0 0 270 102.2" style="enable-background:new 0 0 270 102.2;" xml:space="preserve">
<style type="text/css">
	.st0{fill-rule:evenodd;clip-rule:evenodd;fill:#00A8BC;}
	.st1{display:none;fill-rule:evenodd;clip-rule:evenodd;fill:#00A8BC;}
	.st2{display:none;}
	.st3{display:inline;fill-rule:evenodd;clip-rule:evenodd;fill:#FFFFFF;}
	.st4{display:inline;fill:#FFFFFF;}
	.st5{fill-rule:evenodd;clip-rule:evenodd;fill:#FEFEFE;}
	.st6{fill-rule:evenodd;clip-rule:evenodd;fill:#76C04E;}
	.st7{fill:none;stroke:#FEFEFE;stroke-width:0.9998;stroke-miterlimit:2.6131;}
	.st8{fill:#FFFFFF;}
	.st9{fill:#EE464A;}
	.st10{fill:#FAB844;}
	.st11{fill:#2E855F;}
	.st12{fill:#3D83BE;}
	.st13{fill-rule:evenodd;clip-rule:evenodd;fill:#F7981D;}
	.st14{fill:#6D6E70;}
	.st15{fill-rule:evenodd;clip-rule:evenodd;fill:#7784B4;}
	.st16{fill-rule:evenodd;clip-rule:evenodd;fill:#F3C131;}
	.st17{fill-rule:evenodd;clip-rule:evenodd;fill:#85CADD;}
	.st18{fill-rule:evenodd;clip-rule:evenodd;fill:#E7792B;}
	.st19{fill-rule:evenodd;clip-rule:evenodd;fill:#FFFFFE;}
	.st20{fill-rule:evenodd;clip-rule:evenodd;fill:#7EBC59;}
	.st21{fill-rule:evenodd;clip-rule:evenodd;fill:#E590A7;}
	.st22{opacity:0.47;fill:#5690FF;enable-background:new    ;}
	.st23{fill:url(#SVGID_1_);}
	.st24{fill:#D4DAE8;}
	.st25{clip-path:url(#SVGID_3_);fill:url(#SVGID_4_);}
	.st26{clip-path:url(#SVGID_6_);fill:url(#SVGID_7_);}
	.st27{clip-path:url(#SVGID_9_);fill:url(#SVGID_10_);}
	.st28{clip-path:url(#SVGID_12_);fill:url(#SVGID_13_);}
</style>
<rect x="-738.8" y="449.7" class="st0" width="11.3" height="36.4"/>
<polygon class="st0" points="-682.1,449.7 -720.2,449.7 -720.2,459.2 -706.7,459.2 -706.7,486.1 -695.5,486.1 -695.5,459.2 
	-682.1,459.2 "/>
<rect x="-620.3" y="449.7" class="st0" width="11.3" height="36.4"/>
<path class="st0" d="M-568.6,449.7v20.8l-22.3-18.8c-4.5-4.1-10.7-1.6-10.7,4.8v29.6h10.2v-21.4l22.3,19.4
	c4.4,4.2,10.7,1.5,10.7-4.9v-29.5H-568.6z"/>
<path class="st0" d="M-820.8,460.9c-1.1-2.3-2.6-4.2-4.6-5.9c-1.9-1.7-4.2-2.9-6.9-3.9c-2.7-0.9-5.6-1.4-8.8-1.4H-866v27.7v8.6h24.9
	c3.2,0,6.1-0.4,8.8-1.3c2.7-0.8,5-2.1,6.9-3.6s3.5-3.5,4.6-5.7c1.1-2.2,1.7-4.6,1.7-7.3C-819.2,465.6-819.7,463.2-820.8,460.9
	L-820.8,460.9z M-831.2,471.3c-0.5,1.1-1.3,2-2.3,2.8c-1,0.8-2.1,1.4-3.4,1.8c-1.3,0.4-2.7,0.7-4.2,0.7h-13.8v-17.6h13.8
	c1.6,0,3,0.2,4.3,0.6c1.3,0.4,2.4,1,3.4,1.8c1,0.8,1.7,1.7,2.2,2.7c0.5,1.1,0.8,2.3,0.8,3.6C-830.4,469.1-830.6,470.3-831.2,471.3z"
	/>
<path class="st0" d="M-664.3,453.8l-23.3,32.3h13.3l17.1-24.1l6,8.6h-7.1l-6.6,9.3h20.2l4.3,6.2h13.4l-22.7-32.3
	C-653.7,448.2-660.3,448.4-664.3,453.8z"/>
<path class="st0" d="M-757.4,466.6v10.1h-13.8c-1.6,0-3-0.2-4.3-0.6c-1.3-0.4-2.4-1-3.4-1.8c-1-0.8-1.7-1.7-2.2-2.7
	c-0.5-1.1-0.8-2.3-0.8-3.6s0.3-2.5,0.8-3.6c0.5-1.1,1.3-2,2.3-2.8c1-0.8,2.1-1.4,3.4-1.8c1.3-0.4,2.7-0.7,4.2-0.7h11.4v0h13.5v-9.5
	h-24.9c-3.2,0-6.1,0.4-8.8,1.3c-2.7,0.8-5,2.1-6.9,3.6c-1.9,1.6-3.5,3.5-4.6,5.7c-1.1,2.2-1.7,4.6-1.7,7.3c0,2.6,0.6,5.1,1.7,7.4
	s2.6,4.2,4.6,5.9c1.9,1.7,4.2,2.9,6.9,3.9c2.7,0.9,5.6,1.4,8.8,1.4h24.9v-19.5H-757.4z"/>
<rect x="-811.7" y="449.7" class="st0" width="11.3" height="36.4"/>
<path class="st0" d="M-908.4,440.8c1.7,1.9,3.4,3.8,4.8,5.9c0.8,1.2,1.1,2.3,2.6,2.7c1.1,0.3,6.6,0.6,7.4-0.8c1-1.8-4.2-5.9-5.2-6.7
	c-1.3-1.1-2.8-2.5-4.4-3c-0.9-0.3-2.4-0.5-3.3-0.4c-1.2,0.2-0.6,0.3-0.9,0.5c-0.6,0.5-1.8-0.1-1.7,0.7
	C-909,440.2-908.7,440.5-908.4,440.8L-908.4,440.8z M-924.8,500.8c-1.7-1.2-3.2-2.4-5.2-2.8c-0.8-0.2-2.4,0.2-2.8-0.9
	c-0.4-1.3,1.9-1.1,2.8-1.2c1.6-0.2,2.2,0.1,1.7-1.6c-0.3-1.1-1.8-2.4-2.9-2.6c-1.4-0.3-2.9,0.4-4.4,0.1c-1.9-0.4-3.3-1.5-4.9-2.5
	c-1.3-0.8-4.3-2.1-3.6,0.6c0.3,1.1,1.8,2.3,2.5,3C-937,497.2-930.8,499.5-924.8,500.8L-924.8,500.8z M-948.9,482.8
	c-2-3.9-3.2-8.1-3.6-12.5c0.3,0.9,1,4.4,2.1,4.6c1.6,0.2,3.3-5.2,4.2-6.4c4.2-5.9,11.1-1.5,14.2,3.2c2.7,4.1,3.8,13.7-1.8,16.4
	c-2.7,1.3-6.3-0.6-8.5-2.1C-944.2,484.8-946.5,482.2-948.9,482.8L-948.9,482.8z M-951.9,467.8c0.8,3,1.8,1.6,2.7-0.3
	c0.6-1.3,0.9-2.8,1.6-4c0.8-1.2,1.8-1.5,3-2.2c2.2-1.3,4.3-4.7,0.1-5c-1.2-0.1-6.4,3-6.5,1.6C-952.2,461.1-952.8,464.5-951.9,467.8
	L-951.9,467.8z M-950.1,455.3c3.2-1.2,3.9-2.9,5.3-5.9c0.7-1.5,4.2-5.4,3.8-6.7C-944.9,446.2-948.3,450.5-950.1,455.3L-950.1,455.3z
	 M-933.8,439.5c-2.3,0.2-0.8-1.3,0.1-1.7c2.5-1.3,5.7-1.9,8.3-2.5c3.8-0.9,7.7-0.8,11.6-0.1c1,0.2,6.2,0.9,6.6,2.1
	c0.2,0.6-5.4,0.7-5.7,0.7c-2.4,0-4.7,0.2-7.1,0.6C-924.7,439.5-929.1,439.5-933.8,439.5L-933.8,439.5z M-937.1,453.9
	c-7.9,2.9-6.1-6.1-3-9.8c3.1-3.8,7.7-2.8,12.2-2.2c4.2,0.6,7.8-0.6,11.9-1.1c4.3-0.5,6.2,2.2,8,5.7c0.4,0.8,1.7,2.6,1.5,3.6
	c-0.4,1.3-3.4,1.5-4.4,1.8c-4.2,1-8.6,1.8-12.9,1.6C-928.4,453.3-932.7,452.1-937.1,453.9L-937.1,453.9z M-919.6,501
	c-1.2-0.2-7-1.1-7-2.8c0-1.8,7.3,0.6,8.4,0.8c4,0.8,8-0.5,11.8-1.7c2.7-0.9,3.7-1.4,6-2.8c0.8-0.5,1.5-0.8,1.8-0.7
	c0.1,0-0.5,0.5-1.3,1.1c-2.8,2.1-5.7,3.5-9,4.7C-912.3,500.8-915.9,501.7-919.6,501L-919.6,501z M-925.1,494c-2.1-2.8-3.3-9.6,2-9.8
	c3.4-0.2,6.5,2.4,8.2,5.1c1.1,1.8,1.7,4,3.2,5.6c1.2,1.3,3.2,1.4,1,2.4C-914.7,499.2-922.4,497.6-925.1,494L-925.1,494z
	 M-889.3,468.5c-1,2.6-2.7,3.7-4.7,5.4c-1.6,1.4-1.4,3.7-1.6,5.7c-0.6,4.6-2,8.9-4.1,13.1c0.4,1.6,4.6-2.2,5-2.7
	c1.5-1.9,3.1-3.8,4.4-5.9c1.9-3.3,3.2-7,3.7-10.8c0.1-0.8,0.9-10.8-0.4-10.9C-888,462.2-889.2,468-889.3,468.5L-889.3,468.5z
	 M-927.3,475.8c-3.8-8.3,11.6-4.4,15.3-2.5c1.4,0.7,2.8,1.6,4.2,2.2c2.3,1,3.8,0.2,6.2,0.4c3.6,0.3,1.8,6.9,1.4,9.3
	c-0.5,3.1-1.2,9.7-5.3,9.7c-4.3-0.1-4.6-4.4-5.9-7.4C-914.2,481.2-924.6,481.7-927.3,475.8L-927.3,475.8z M-934.5,457.6
	c-5.1,1.4-0.6,5.8,2,7.4c2.6,1.6,5.9,1.6,8.9,1.3c3.8-0.4,6.5-1.1,10.2,0.8c3.2,1.6,5.9,3.8,9.6,4c5.2,0.2,11.7-1.6,13.6-6.8
	c0.5-1.3,0.6-2.6,1-3.9c0.2-0.9,1.1-1.6,1.3-2.5c0.1-0.5-2.5-7.1-3.5-6.7c0.1,0,0,1.3-0.3,1.6c-0.4,0.4-2.6,0.6-3.1,0.7
	c-1.6,0.1-3.1,0-4.8,0.3c-4,0.7-8,1.8-12,2.6c-3.5,0.7-7.3,2-10.9,1.8C-925.7,457.9-930.9,456.6-934.5,457.6z"/>
<rect x="-228.5" y="356.7" class="st1" width="841.9" height="297.6"/>
<g class="st2">
	<rect x="213.9" y="482.2" class="st3" width="14.5" height="46.7"/>
	<polygon class="st3" points="286.7,482.2 237.8,482.2 237.8,494.3 255,494.3 255,528.9 269.5,528.9 269.5,494.3 286.7,494.3 	"/>
	<rect x="366" y="482.2" class="st3" width="14.5" height="46.7"/>
	<path class="st3" d="M432.4,482.2v26.7l-28.6-24.2c-5.8-5.3-13.7-2-13.7,6.2v38h13.1v-27.4l28.6,24.9c5.6,5.4,13.8,2,13.8-6.3
		v-37.9L432.4,482.2L432.4,482.2z"/>
	<path class="st3" d="M108.5,496.5c-1.4-2.9-3.4-5.4-5.9-7.5s-5.5-3.8-8.9-5c-3.4-1.2-7.2-1.8-11.2-1.8h-32v35.6v11.1h32
		c4,0,7.8-0.5,11.2-1.6c3.4-1.1,6.4-2.6,8.9-4.7s4.4-4.4,5.9-7.3c1.4-2.8,2.1-5.9,2.1-9.3C110.7,502.6,110,499.4,108.5,496.5
		L108.5,496.5z M95.2,509.9c-0.7,1.4-1.7,2.6-2.9,3.6c-1.2,1-2.7,1.8-4.4,2.4c-1.7,0.6-3.5,0.8-5.4,0.8H64.9v-22.5h17.7
		c2,0,3.8,0.3,5.5,0.8s3.1,1.3,4.4,2.3c1.2,1,2.2,2.1,2.9,3.5c0.7,1.4,1,2.9,1,4.6C96.3,507,95.9,508.5,95.2,509.9z"/>
	<path class="st3" d="M309.6,487.4l-29.9,41.5h17.1l21.9-31l7.7,11.1h-9.2l-8.5,12h26l5.5,7.9h17.2l-29.2-41.5
		C323.2,480.2,314.6,480.4,309.6,487.4z"/>
	<path class="st3" d="M190,503.8v13h-17.7c-2,0-3.8-0.3-5.5-0.8c-1.7-0.5-3.1-1.3-4.4-2.3c-1.2-1-2.2-2.1-2.9-3.5
		c-0.7-1.4-1-2.9-1-4.6s0.4-3.2,1-4.6c0.7-1.4,1.7-2.6,2.9-3.6c1.2-1,2.7-1.8,4.4-2.4c1.7-0.6,3.5-0.8,5.4-0.8H187v0h17.4v-12.1h-32
		c-4,0-7.8,0.5-11.2,1.6c-3.4,1.1-6.4,2.6-8.9,4.7c-2.5,2-4.4,4.4-5.9,7.3c-1.4,2.8-2.1,5.9-2.1,9.3s0.7,6.5,2.1,9.5
		c1.4,2.9,3.4,5.4,5.9,7.5s5.5,3.8,8.9,5c3.4,1.2,7.2,1.8,11.2,1.8h32v-25L190,503.8L190,503.8z"/>
	<rect x="120.2" y="482.2" class="st3" width="14.5" height="46.7"/>
	<path class="st3" d="M-3.9,470.7c2.1,2.5,4.4,4.9,6.2,7.6c1,1.5,1.5,2.9,3.4,3.5c1.5,0.4,8.5,0.7,9.5-1c1.3-2.4-5.4-7.5-6.7-8.6
		c-1.7-1.5-3.6-3.2-5.7-3.9c-1.2-0.4-3-0.7-4.3-0.5c-1.5,0.3-0.8,0.3-1.2,0.6c-0.7,0.6-2.3-0.2-2.1,0.9
		C-4.7,469.9-4.3,470.3-3.9,470.7L-3.9,470.7z M-24.9,547.8c-2.2-1.5-4.1-3-6.7-3.6c-1-0.2-3.1,0.2-3.6-1.2
		c-0.6-1.7,2.4-1.4,3.6-1.5c2-0.3,2.9,0.1,2.1-2.1c-0.4-1.4-2.3-3.1-3.7-3.4c-1.8-0.3-3.7,0.5-5.7,0.1c-2.4-0.5-4.3-2-6.3-3.3
		c-1.7-1-5.5-2.7-4.6,0.8c0.4,1.4,2.3,3,3.2,3.9C-40.7,543.1-32.7,546.1-24.9,547.8L-24.9,547.8z M-56,524.7
		c-2.6-5.1-4.1-10.4-4.7-16.1c0.3,1.2,1.3,5.7,2.7,5.9c2,0.3,4.3-6.7,5.3-8.2c5.4-7.6,14.2-1.9,18.2,4.1c3.5,5.3,4.9,17.6-2.3,21
		c-3.4,1.6-8.1-0.8-10.9-2.7C-49.9,527.2-52.9,523.9-56,524.7L-56,524.7z M-59.9,505.4c1,3.9,2.3,2.1,3.4-0.4
		c0.7-1.6,1.1-3.6,2.1-5.1c1-1.6,2.3-2,3.9-2.9c2.9-1.6,5.6-6.1,0.1-6.4c-1.6-0.1-8.2,3.9-8.3,2C-60.2,496.8-60.9,501.2-59.9,505.4
		L-59.9,505.4z M-57.5,489.4c4.1-1.6,5.1-3.8,6.8-7.5c0.9-1.9,5.4-7,4.9-8.6C-50.8,477.6-55.2,483.2-57.5,489.4L-57.5,489.4z
		 M-36.6,469c-3,0.3-1-1.6,0.2-2.2c3.2-1.6,7.3-2.4,10.7-3.2c4.9-1.1,9.9-1.1,14.9-0.1c1.2,0.2,7.9,1.2,8.5,2.7
		c0.3,0.8-6.9,0.9-7.4,0.9c-3.1,0-6,0.3-9.1,0.8C-24.9,469-30.5,469-36.6,469L-36.6,469z M-40.8,487.5c-10.1,3.8-7.8-7.8-3.9-12.6
		c4-4.9,9.9-3.6,15.6-2.9c5.3,0.7,10-0.8,15.3-1.4c5.5-0.6,8,2.8,10.3,7.3c0.5,1,2.2,3.4,1.9,4.6c-0.5,1.6-4.4,2-5.6,2.3
		c-5.4,1.2-11.1,2.3-16.6,2.1C-29.6,486.7-35.1,485.3-40.8,487.5L-40.8,487.5z M-18.3,548c-1.5-0.3-9-1.4-9-3.6
		c0-2.3,9.4,0.8,10.8,1c5.1,1,10.3-0.7,15.1-2.2c3.5-1.1,4.7-1.8,7.7-3.6c1-0.6,1.9-1,2.3-0.9c0.1,0-0.7,0.7-1.6,1.4
		c-3.6,2.7-7.4,4.5-11.6,6C-8.9,547.7-13.6,548.9-18.3,548L-18.3,548z M-25.4,539c-2.7-3.6-4.2-12.3,2.6-12.6
		c4.4-0.2,8.4,3,10.5,6.6c1.4,2.4,2.2,5.2,4.1,7.2c1.6,1.7,4.1,1.8,1.3,3.1C-12.1,545.7-22,543.6-25.4,539L-25.4,539z M20.6,506.3
		c-1.3,3.4-3.5,4.8-6,6.9c-2.1,1.8-1.8,4.7-2.1,7.3c-0.8,5.9-2.5,11.5-5.2,16.8c0.5,2,5.9-2.8,6.4-3.5c2-2.4,4-4.9,5.6-7.6
		c2.4-4.2,4.2-9,4.7-13.8c0.1-1.1,1.2-13.8-0.5-14C22.3,498.2,20.8,505.6,20.6,506.3L20.6,506.3z M-28.2,515.6
		c-4.9-10.6,14.9-5.6,19.6-3.1c1.8,0.9,3.6,2.1,5.4,2.9c2.9,1.3,4.9,0.2,7.9,0.5c4.7,0.4,2.3,8.8,1.8,12c-0.6,4-1.5,12.5-6.8,12.4
		c-5.5-0.1-5.9-5.7-7.6-9.5C-11.5,522.6-24.7,523.2-28.2,515.6L-28.2,515.6z M-37.5,492.2c-6.5,1.8-0.7,7.5,2.6,9.5
		c3.3,2,7.6,2,11.4,1.7c4.9-0.5,8.3-1.4,13,1c4.1,2.1,7.6,4.9,12.4,5.1c6.7,0.3,15-2,17.4-8.8c0.6-1.7,0.8-3.4,1.3-5
		c0.3-1.2,1.4-2.1,1.7-3.2c0.2-0.7-3.2-9.1-4.5-8.6c0.1,0,0,1.6-0.4,2c-0.5,0.5-3.3,0.8-4,0.9c-2.1,0.1-4,0-6.2,0.4
		c-5.2,0.9-10.3,2.3-15.4,3.3c-4.5,1-9.4,2.5-14,2.3C-26.1,492.6-32.9,490.9-37.5,492.2z"/>
</g>
<g class="st2">
	<path class="st4" d="M162,550.5h3.3v18H162V550.5z"/>
	<path class="st4" d="M175,548.3c0.7,0,1.4,0.1,1.9,0.2s1,0.3,1.3,0.4l-0.6,2.6c-0.3-0.1-0.6-0.3-1-0.3c-0.4-0.1-0.8-0.1-1.3-0.1
		c-0.5,0-0.9,0.1-1.3,0.2c-0.4,0.2-0.6,0.4-0.8,0.6c-0.2,0.3-0.4,0.6-0.4,1c-0.1,0.4-0.1,0.8-0.1,1.2v0.9h4.9v2.6h-4.9v11h-3.1
		v-14.6c0-1.8,0.5-3.1,1.4-4.1C171.7,548.8,173.1,548.3,175,548.3z"/>
	<path class="st4" d="M189.4,550.9c0,0.6-0.2,1.1-0.6,1.4c-0.4,0.3-0.8,0.5-1.4,0.5c-0.5,0-1-0.2-1.4-0.5s-0.6-0.8-0.6-1.4
		c0-0.6,0.2-1.1,0.6-1.4c0.4-0.4,0.8-0.5,1.4-0.5c0.5,0,1,0.2,1.4,0.5S189.4,550.3,189.4,550.9z M189.1,568.5h-3.1v-13.6h3.1V568.5z
		"/>
	<path class="st4" d="M192.9,551.3l3.1-0.5v4.1h4.8v2.6H196v5.5c0,1.1,0.2,1.9,0.5,2.3c0.4,0.5,0.9,0.7,1.8,0.7
		c0.6,0,1.1-0.1,1.5-0.2s0.8-0.2,1-0.3l0.5,2.5c-0.4,0.2-0.8,0.3-1.4,0.5c-0.6,0.2-1.3,0.3-2.1,0.3c-1,0-1.8-0.1-2.4-0.4
		s-1.2-0.6-1.5-1.1c-0.4-0.5-0.6-1.1-0.8-1.8s-0.2-1.5-0.2-2.4L192.9,551.3L192.9,551.3z"/>
	<path class="st4" d="M206.9,548.8c0,0.2,0,0.4,0,0.6c0,0.2,0,0.4,0,0.5c0,1-0.2,2-0.6,3c-0.4,1-0.8,1.8-1.4,2.6l-2.3-0.6
		c0.4-0.8,0.6-1.6,0.8-2.4c0.2-0.8,0.3-1.7,0.3-2.4c0-0.1,0-0.3,0-0.6s0-0.5-0.1-0.7L206.9,548.8L206.9,548.8z"/>
	<path class="st4" d="M213.9,566.2c0.8,0,1.4-0.1,1.8-0.3c0.4-0.2,0.6-0.5,0.6-1c0-0.5-0.2-0.8-0.6-1.1c-0.4-0.3-1.1-0.6-2-1
		c-0.6-0.2-1.1-0.4-1.6-0.7c-0.5-0.2-0.9-0.5-1.2-0.8c-0.4-0.3-0.6-0.7-0.8-1.1s-0.3-1-0.3-1.6c0-1.3,0.5-2.2,1.4-3
		c0.9-0.7,2.2-1.1,3.7-1.1c0.8,0,1.6,0.1,2.3,0.2c0.7,0.2,1.3,0.3,1.6,0.4l-0.6,2.5c-0.4-0.2-0.8-0.3-1.3-0.4
		c-0.5-0.1-1.2-0.2-1.9-0.2c-0.6,0-1.2,0.1-1.6,0.3c-0.4,0.2-0.6,0.5-0.6,1c0,0.2,0,0.4,0.1,0.6c0.1,0.2,0.2,0.3,0.4,0.5
		s0.4,0.3,0.8,0.4c0.3,0.1,0.7,0.3,1.1,0.5c0.8,0.3,1.4,0.5,1.9,0.8s1,0.6,1.3,0.9c0.3,0.3,0.6,0.7,0.7,1.2c0.2,0.4,0.2,1,0.2,1.6
		c0,1.3-0.5,2.3-1.4,3c-1,0.7-2.3,1-4.1,1c-1.2,0-2.2-0.1-2.9-0.3s-1.2-0.4-1.5-0.5l0.5-2.6c0.5,0.2,1,0.4,1.7,0.5
		C212.3,566.2,213,566.2,213.9,566.2z"/>
	<path class="st4" d="M231.9,550.9c0,0.6-0.2,1.1-0.6,1.4c-0.4,0.4-0.8,0.5-1.4,0.5c-0.5,0-1-0.2-1.4-0.5s-0.6-0.8-0.6-1.4
		c0-0.6,0.2-1.1,0.6-1.4c0.4-0.4,0.8-0.5,1.4-0.5c0.5,0,1,0.2,1.4,0.5S231.9,550.3,231.9,550.9z M231.6,568.5h-3.1v-13.6h3.1V568.5z
		"/>
	<path class="st4" d="M244.2,553c-1.9,0-3.3,0.6-4.3,1.7c-1,1.1-1.5,2.8-1.5,4.8c0,1,0.1,1.9,0.4,2.7s0.6,1.5,1,2.1s1,1,1.7,1.3
		c0.7,0.3,1.5,0.5,2.4,0.5c0.6,0,1.1,0,1.5-0.1c0.4,0,0.7-0.1,1-0.2v-6.5h3.3v8.7c-0.5,0.2-1.2,0.4-2.3,0.6
		c-1.1,0.2-2.3,0.3-3.7,0.3c-1.3,0-2.5-0.2-3.6-0.6c-1.1-0.4-2-1-2.7-1.8s-1.3-1.8-1.8-2.9c-0.4-1.2-0.6-2.5-0.6-4s0.2-2.8,0.7-4
		c0.5-1.2,1.1-2.1,1.9-3c0.8-0.8,1.7-1.4,2.8-1.8c1.1-0.4,2.2-0.6,3.4-0.6c0.8,0,1.6,0.1,2.2,0.2c0.6,0.1,1.2,0.2,1.7,0.4
		s0.9,0.3,1.2,0.4c0.3,0.1,0.5,0.3,0.6,0.3l-1,2.7c-0.5-0.3-1.2-0.6-1.9-0.8C245.8,553.1,245,553,244.2,553z"/>
	<path class="st4" d="M265.5,568.5c-0.2-0.7-0.5-1.4-0.8-2.1c-0.3-0.7-0.5-1.4-0.8-2.1h-7.6c-0.2,0.7-0.5,1.4-0.7,2.1
		c-0.3,0.7-0.5,1.4-0.7,2.1h-3.4c0.7-1.9,1.3-3.7,1.9-5.3c0.6-1.6,1.2-3.2,1.8-4.6c0.6-1.5,1.2-2.8,1.7-4.2s1.2-2.6,1.8-3.9h3.1
		c0.6,1.3,1.2,2.6,1.8,3.9c0.6,1.3,1.1,2.7,1.7,4.2c0.6,1.5,1.2,3,1.8,4.6c0.6,1.6,1.3,3.4,1.9,5.3H265.5z M260.2,554
		c-0.4,0.9-0.9,2-1.4,3.4c-0.5,1.3-1,2.8-1.6,4.3h5.9c-0.5-1.5-1.1-3-1.6-4.3C261,556,260.6,554.9,260.2,554z"/>
	<path class="st4" d="M275.2,550.5c0.4,0.7,0.8,1.5,1.3,2.4c0.5,1,0.9,2,1.4,3c0.5,1,1,2.1,1.4,3.2c0.5,1.1,0.9,2.1,1.3,3
		c0.4-0.9,0.8-1.9,1.3-3c0.5-1.1,0.9-2.1,1.4-3.2c0.5-1,1-2,1.4-3s0.9-1.8,1.3-2.4h3c0.2,1.3,0.3,2.7,0.5,4.2c0.1,1.5,0.3,3,0.4,4.5
		s0.2,3.1,0.3,4.7c0.1,1.6,0.2,3.1,0.3,4.6h-3.2c-0.1-2.1-0.2-4.3-0.3-6.5c-0.1-2.2-0.2-4.4-0.4-6.5c-0.2,0.4-0.4,0.9-0.7,1.4
		s-0.5,1.2-0.8,1.8c-0.3,0.6-0.6,1.3-0.9,2c-0.3,0.7-0.6,1.4-0.9,2c-0.3,0.7-0.5,1.3-0.8,1.8c-0.2,0.6-0.5,1-0.6,1.4h-2.4
		c-0.2-0.4-0.4-0.9-0.6-1.5c-0.2-0.6-0.5-1.2-0.8-1.8c-0.3-0.6-0.6-1.3-0.9-2c-0.3-0.7-0.6-1.4-0.9-2c-0.3-0.6-0.6-1.2-0.8-1.8
		s-0.5-1-0.7-1.4c-0.2,2.1-0.3,4.2-0.4,6.5c-0.1,2.2-0.2,4.4-0.3,6.5h-3.2c0.1-1.5,0.1-3,0.3-4.6c0.1-1.6,0.2-3.2,0.3-4.8
		c0.1-1.6,0.2-3.1,0.4-4.6c0.1-1.5,0.3-2.8,0.5-4.1H275.2z"/>
	<path class="st4" d="M294.3,550.5h3.3v18h-3.3V550.5z"/>
	<path class="st4" d="M314,568.5c-0.6-1-1.3-2-2-3.2c-0.7-1.1-1.5-2.3-2.3-3.4c-0.8-1.2-1.6-2.3-2.4-3.4c-0.8-1.1-1.6-2.1-2.3-2.9
		v12.9h-3.2v-18h2.7c0.7,0.7,1.4,1.6,2.2,2.6s1.6,2,2.4,3.1c0.8,1.1,1.6,2.2,2.3,3.2c0.8,1.1,1.4,2.1,2,3v-12h3.3v18L314,568.5
		L314,568.5z"/>
	<path class="st4" d="M329.5,553c-1.8,0-3.3,0.6-4.3,1.7c-1,1.1-1.5,2.8-1.5,4.8c0,1,0.1,1.9,0.3,2.7s0.6,1.5,1,2.1s1,1,1.7,1.3
		c0.7,0.3,1.5,0.5,2.4,0.5c0.6,0,1.1,0,1.5-0.1c0.4,0,0.7-0.1,1-0.2v-6.5h3.3v8.7c-0.5,0.2-1.2,0.4-2.3,0.6
		c-1.1,0.2-2.3,0.3-3.7,0.3c-1.3,0-2.5-0.2-3.6-0.6c-1.1-0.4-2-1-2.7-1.8s-1.3-1.8-1.8-2.9c-0.4-1.2-0.6-2.5-0.6-4s0.2-2.8,0.7-4
		c0.5-1.2,1.1-2.1,1.9-3c0.8-0.8,1.7-1.4,2.8-1.8c1.1-0.4,2.2-0.6,3.4-0.6c0.8,0,1.6,0.1,2.2,0.2c0.7,0.1,1.2,0.2,1.7,0.4
		s0.8,0.3,1.2,0.4c0.3,0.1,0.5,0.3,0.6,0.3l-1,2.7c-0.5-0.3-1.2-0.6-1.9-0.8C331.2,553.1,330.4,553,329.5,553z"/>
	<path class="st4" d="M342,565.1c0,0.3,0,0.5,0,0.6c0,0.1,0,0.3,0,0.4c0,1.1-0.2,2.2-0.5,3.3c-0.3,1.1-0.8,2.2-1.4,3.3l-2.5-0.7
		c0.4-1,0.7-2,0.8-3s0.2-1.8,0.2-2.5c0-0.2,0-0.5,0-0.8s0-0.5,0-0.7H342z"/>
	<path class="st4" d="M359.9,560c-0.4,1.5-0.8,3-1.3,4.5c-0.5,1.5-0.9,2.8-1.4,4.1h-2.6c-0.3-0.8-0.7-1.7-1.1-2.7
		c-0.4-1-0.8-2.1-1.2-3.3c-0.4-1.2-0.8-2.4-1.2-3.7c-0.4-1.3-0.8-2.6-1.1-3.9h3.3c0.2,0.7,0.3,1.5,0.5,2.4c0.2,0.8,0.4,1.7,0.7,2.6
		s0.5,1.7,0.7,2.6c0.2,0.8,0.5,1.6,0.7,2.3c0.3-0.8,0.5-1.6,0.8-2.5c0.3-0.9,0.5-1.7,0.7-2.5c0.2-0.9,0.4-1.7,0.6-2.5
		c0.2-0.8,0.4-1.6,0.5-2.3h2.4c0.2,0.7,0.3,1.5,0.5,2.3s0.4,1.6,0.6,2.5c0.2,0.8,0.5,1.7,0.7,2.5s0.5,1.7,0.8,2.5
		c0.2-0.7,0.5-1.5,0.7-2.3c0.2-0.8,0.5-1.7,0.7-2.6s0.5-1.7,0.7-2.6c0.2-0.8,0.4-1.6,0.5-2.4h3.3c-0.4,1.3-0.7,2.6-1.1,3.9
		c-0.4,1.3-0.8,2.5-1.2,3.7c-0.4,1.2-0.8,2.3-1.2,3.3c-0.4,1-0.8,1.9-1.1,2.7h-2.6c-0.5-1.3-0.9-2.7-1.4-4.1
		C360.7,563,360.3,561.5,359.9,560z"/>
	<path class="st4" d="M371.3,561.8c0-1.2,0.2-2.2,0.5-3.1c0.3-0.9,0.8-1.7,1.4-2.3c0.6-0.6,1.3-1,2-1.4c0.8-0.3,1.5-0.5,2.3-0.5
		c1.9,0,3.3,0.6,4.4,1.7c1,1.2,1.6,2.9,1.6,5.2c0,0.2,0,0.4,0,0.6c0,0.2,0,0.4,0,0.6h-9c0.1,1.1,0.5,1.9,1.2,2.5
		c0.7,0.6,1.7,0.9,3,0.9c0.8,0,1.5-0.1,2.1-0.2s1.1-0.3,1.5-0.4l0.4,2.6c-0.2,0.1-0.4,0.2-0.7,0.3c-0.3,0.1-0.7,0.2-1,0.3
		c-0.4,0.1-0.8,0.1-1.3,0.2c-0.5,0-0.9,0.1-1.4,0.1c-1.2,0-2.2-0.2-3.1-0.5c-0.9-0.4-1.6-0.9-2.2-1.5s-1-1.4-1.3-2.2
		C371.4,563.7,371.3,562.8,371.3,561.8z M380.4,560.4c0-0.4-0.1-0.8-0.2-1.2s-0.3-0.7-0.5-1c-0.2-0.3-0.5-0.5-0.9-0.7
		c-0.3-0.2-0.7-0.3-1.2-0.3c-0.5,0-0.9,0.1-1.3,0.3c-0.4,0.2-0.7,0.4-0.9,0.7c-0.3,0.3-0.5,0.6-0.6,1c-0.1,0.4-0.2,0.8-0.3,1.2
		L380.4,560.4L380.4,560.4z"/>
	<path class="st4" d="M404.4,568.1c-0.6,0.2-1.4,0.4-2.3,0.5c-0.9,0.2-1.9,0.2-3,0.2c-1.1,0-2-0.2-2.9-0.5c-0.8-0.3-1.6-0.8-2.2-1.4
		s-1.1-1.4-1.4-2.2s-0.5-1.9-0.5-3c0-1.1,0.1-2,0.4-2.9s0.7-1.6,1.2-2.3s1.2-1.1,1.9-1.4c0.8-0.3,1.6-0.5,2.6-0.5
		c0.7,0,1.2,0.1,1.7,0.2s0.9,0.3,1.3,0.5v-6.5l3.2-0.5L404.4,568.1L404.4,568.1z M395.4,561.7c0,1.4,0.3,2.5,1,3.3
		c0.7,0.8,1.6,1.2,2.7,1.2c0.5,0,0.9,0,1.3-0.1c0.4,0,0.7-0.1,0.9-0.1v-7.8c-0.3-0.2-0.7-0.4-1.1-0.5c-0.5-0.2-1-0.3-1.5-0.3
		c-1.1,0-2,0.4-2.5,1.2C395.6,559.3,395.4,560.3,395.4,561.7z"/>
	<path class="st4" d="M420.7,561.7c0,1.1-0.2,2-0.5,2.9c-0.3,0.9-0.8,1.6-1.3,2.3s-1.3,1.1-2.1,1.5c-0.8,0.4-1.7,0.5-2.7,0.5
		s-1.9-0.2-2.7-0.5c-0.8-0.3-1.5-0.8-2-1.5c-0.6-0.6-1-1.4-1.3-2.3s-0.5-1.9-0.5-2.9c0-1.1,0.2-2,0.5-2.9c0.3-0.9,0.8-1.6,1.3-2.3
		c0.6-0.6,1.3-1.1,2.1-1.4c0.8-0.3,1.7-0.5,2.6-0.5c1,0,1.8,0.2,2.6,0.5c0.8,0.3,1.5,0.8,2.1,1.4s1,1.4,1.3,2.3
		C420.5,559.7,420.7,560.6,420.7,561.7z M417.5,561.7c0-1.4-0.3-2.4-0.9-3.2s-1.4-1.2-2.4-1.2s-1.8,0.4-2.4,1.2
		c-0.6,0.8-0.9,1.9-0.9,3.2c0,1.4,0.3,2.5,0.9,3.3s1.4,1.2,2.4,1.2s1.8-0.4,2.4-1.2C417.2,564.2,417.5,563.1,417.5,561.7z"/>
	<path class="st4" d="M433.5,550.9c0,0.6-0.2,1.1-0.6,1.4c-0.4,0.4-0.8,0.5-1.3,0.5c-0.5,0-1-0.2-1.4-0.5s-0.6-0.8-0.6-1.4
		c0-0.6,0.2-1.1,0.6-1.4c0.4-0.4,0.8-0.5,1.4-0.5c0.5,0,1,0.2,1.3,0.5S433.5,550.3,433.5,550.9z M433.2,568.5H430v-13.6h3.2V568.5z"
		/>
	<path class="st4" d="M437,551.3l3.2-0.5v4.1h4.8v2.6h-4.8v5.5c0,1.1,0.2,1.9,0.5,2.3c0.3,0.5,0.9,0.7,1.8,0.7
		c0.6,0,1.1-0.1,1.5-0.2s0.8-0.2,1-0.3l0.5,2.5c-0.4,0.2-0.8,0.3-1.4,0.5c-0.6,0.2-1.3,0.3-2.1,0.3c-1,0-1.8-0.1-2.4-0.4
		c-0.7-0.3-1.2-0.6-1.5-1.1s-0.7-1.1-0.8-1.8s-0.2-1.5-0.2-2.4L437,551.3L437,551.3z"/>
</g>
<path class="st5" d="M205,31.3l-8.7,16.6c-0.2,0.4-0.4,0.9-0.4,1.2c0,0.7,0.8,1.2,1.8,1.2c0.9,0,1.5-0.3,1.9-1
	c0,0,7.8-15.6,8.1-16.2c0.3,0.5,8.1,16.2,8.1,16.2c0.4,0.7,1,1,1.9,1c1.1,0,1.8-0.5,1.8-1.2c0-0.3-0.2-0.7-0.4-1.2l-8.7-16.6
	c-0.5-1.1-1.4-1.6-2.6-1.6C206.4,29.7,205.6,30.2,205,31.3"/>
<path class="st5" d="M240,31.2c0,0,0,13.2,0,14c-0.5-0.5-13.8-14.2-13.8-14.2c-1-1-1.5-1.3-2.6-1.3c-1.2,0-1.8,0.5-1.8,1.6l0,17.4
	c0,0.9,0.8,1.5,1.9,1.5c1.2,0,1.9-0.6,1.9-1.5c0,0,0-13.2,0-14c0.5,0.5,13.8,14.2,13.8,14.2c1,1,1.5,1.3,2.6,1.3
	c1.2,0,1.8-0.5,1.8-1.6V31.2c0-0.9-0.8-1.5-1.9-1.5C240.7,29.7,240,30.2,240,31.2"/>
<path class="st5" d="M263.6,30.5c0,0-9.8,6.4-11.6,7.6c0-0.6,0-6.9,0-6.9c0-0.9-0.8-1.5-1.9-1.5c-1.2,0-1.9,0.6-1.9,1.5v17.6
	c0,0.9,0.7,1.5,1.9,1.5c1.2,0,1.9-0.6,1.9-1.5c0,0,0-7.3,0-7.9c0.6,0.4,12.7,8.9,12.7,8.9c0.8,0.5,1.3,0.6,1.8,0.6
	c1,0,1.9-0.6,1.9-1.3c0-0.5-0.2-0.8-0.8-1.2c0,0-10.6-7.3-12.2-8.4c0.5-0.3,11.2-7.2,11.2-7.2c0.4-0.2,0.8-0.5,0.8-1.3
	c0-0.7-0.7-1.3-1.7-1.3C264.8,29.7,264.2,30,263.6,30.5"/>
<path class="st6" d="M56.2,31.3l-8.7,16.6c-0.2,0.4-0.4,0.9-0.4,1.2c0,0.7,0.8,1.2,1.8,1.2c0.9,0,1.5-0.3,1.9-1
	c0,0,7.8-15.6,8.1-16.2c0.3,0.5,8.1,16.2,8.1,16.2c0.4,0.7,1,1,1.9,1c1.1,0,1.8-0.5,1.8-1.2c0-0.3-0.2-0.7-0.4-1.2l-8.7-16.6
	c-0.5-1.1-1.4-1.6-2.6-1.6C57.6,29.7,56.8,30.2,56.2,31.3"/>
<path class="st6" d="M159.8,31.3l-8.7,16.6c-0.2,0.4-0.4,0.9-0.4,1.2c0,0.7,0.8,1.2,1.8,1.2h0c0.9,0,1.5-0.3,1.9-1
	c0,0,7.8-15.6,8.1-16.2c0.3,0.5,8.1,16.2,8.1,16.2c0.4,0.7,1,1,1.9,1c1.1,0,1.8-0.5,1.8-1.2c0-0.3-0.2-0.7-0.4-1.2l-8.7-16.6
	c-0.5-1.1-1.4-1.6-2.6-1.6C161.2,29.7,160.4,30.2,159.8,31.3"/>
<path class="st6" d="M93.6,31.1c0,0-4.9,12.1-5.8,14.2C87.5,44.6,82,31.1,82,31.1c-0.4-1-1.2-1.4-2.7-1.4c-1.6,0-2.6,0.7-2.9,2
	c0,0-3.8,16-3.8,16c-0.1,0.5-0.2,0.9-0.2,1.2c0,0.9,0.7,1.4,1.8,1.4c0.8,0,1.8-0.1,2-1.2l0,0c0,0,3-14.5,3.1-15.5
	c0.4,0.9,6.4,15.6,6.4,15.6c0.4,1,1.3,1.1,1.9,1.1c0.7,0,1.5-0.1,1.9-1.1c0,0,5.4-13,6.4-15.6c0.2,0.9,3.1,15.5,3.1,15.5
	c0.2,1.1,1.3,1.2,2,1.2c1.1,0,1.8-0.5,1.8-1.4c0-0.3-0.1-0.6-0.2-1.2l-3.8-16c-0.3-1.3-1.3-2-2.9-2C94.8,29.7,94,30.1,93.6,31.1"/>
<path class="st6" d="M108.4,29.8c-1.3,0-2,0.6-2,1.5v17.2c0,1,0.8,1.5,2,1.5h9.9c1.2,0,1.9-0.5,1.9-1.3c0-0.8-0.7-1.3-1.9-1.3
	c0,0-7.7,0-8.1,0c0-0.4,0-5.8,0-6.1c0.4,0,7.3,0,7.3,0c1.2,0,1.9-0.5,1.9-1.3c0-0.8-0.7-1.3-1.9-1.3c0,0-7,0-7.3,0
	c0-0.4,0-5.8,0-6.1c0.4,0,8.1,0,8.1,0c1.2,0,1.9-0.5,1.9-1.3c0-0.8-0.7-1.3-1.9-1.3H108.4z"/>
<path class="st6" d="M144.3,31.2v17.6c0,0.9,0.7,1.5,1.9,1.5c1.2,0,1.9-0.6,1.9-1.5V31.2c0-0.9-0.8-1.5-1.9-1.5
	C145.1,29.7,144.3,30.2,144.3,31.2"/>
<path class="st6" d="M140.7,47.8c0,0-7.7-6-8.4-6.6c0.4,0,0.9,0,0.9,0c5-0.1,7.8-2.2,7.8-5.8c0-3.5-4.4-5.5-8.7-5.5h-6.4
	c-1.3,0-2,0.6-2,1.5v17.4c0,0.9,0.8,1.5,1.9,1.5c1.2,0,1.9-0.6,1.9-1.5c0,0,0-6.4,0-7.2c0.6,0.5,10.3,8.1,10.3,8.1
	c0.4,0.3,0.9,0.6,1.7,0.6c1,0,1.8-0.5,1.8-1.1C141.5,48.6,141.2,48.2,140.7,47.8 M127.7,39v-6.7c0.4,0,4.4,0,4.4,0
	c2.9,0,5,1.3,5,3.2c0,2.4-1.5,3.5-5,3.5C132.2,39,128.1,39,127.7,39z"/>
<path class="st5" d="M189.1,39.1c2-0.7,3.3-2.3,3.3-4.3c0-2.4-2.7-4.9-7.7-4.9h-6.1c-1.3,0-2,0.6-2,1.5l0,17.2c0,1,0.8,1.5,2,1.5
	h6.6c6.4,0,9.3-3.1,9.3-6C194.5,41.6,192.2,39.6,189.1,39.1 M180.4,32.3c0.4,0,3.8,0,3.8,0c2.7,0,4.3,1,4.3,2.9c0,1.8-1.8,3-4.4,3
	c0,0-3.4,0-3.7,0L180.4,32.3z M185.1,47.6c0,0-4.3,0-4.6,0l0-6.9c0.4,0,4.8,0,4.8,0c3.3,0,5.5,1.4,5.5,3.5
	C190.7,46.1,188.4,47.6,185.1,47.6z"/>
<path class="st7" d="M36.7,55.2c0,1.2-1,2.2-2.2,2.2H3.9c-1.2,0-2.2-1-2.2-2.2V24.7c0-1.2,1-2.2,2.2-2.2h30.5c1.2,0,2.2,1,2.2,2.2
	V55.2z"/>
<path class="st6" d="M30.5,47.9l-8.7-16.6c-0.5-1.1-1.4-1.6-2.6-1.6c-1.2,0-2.1,0.5-2.6,1.6L7.8,47.9c-0.2,0.4-0.4,0.9-0.4,1.2
	c0,0.7,0.8,1.2,1.8,1.2c0.9,0,1.5-0.3,1.9-1c0,0,7.8-15.6,8.1-16.2c0.3,0.5,8.1,16.2,8.1,16.2c0.4,0.7,1,1,1.9,1
	c1.1,0,1.8-0.5,1.8-1.2C30.9,48.7,30.7,48.3,30.5,47.9"/>
<g>
	<path class="st8" d="M500.2,118.7c-4.9,0-9.8,0-14.7,0c-0.1,0-0.2,0-0.3,0c-0.3,0-0.4-0.2-0.4-0.5c0-0.1,0-0.2,0-0.3
		c0.2-0.9,0.4-1.8,0.7-2.7c0.2-0.6,0.3-1.3,0.5-1.9c0.4-1.9,0.9-3.8,1.3-5.8c0.4-1.9,0.9-3.8,1.4-5.6c0.3-1.4,0.6-2.8,1-4.2
		c0.4-1.9,0.9-3.7,1.4-5.6c0.3-1.3,0.6-2.6,0.9-4c0.1-0.5,0.2-1.1,0.4-1.6c0.1-0.3,0.2-0.4,0.6-0.4c0.2,0,0.4,0,0.6,0
		c9.6,0,19.1,0,28.7,0c0.8,0,0.9,0.1,0.7,0.9c-0.2,0.8-0.4,1.6-0.6,2.4c-0.3,1.4-0.6,2.8-0.9,4.2c-0.2,0.9-0.3,0.9-1.2,0.9
		c-3.3,0-6.7,0-10,0c-2.3,0-4.7,0-7,0c-0.2,0-0.4,0-0.5,0c-0.5,0-0.7,0.2-0.8,0.6c-0.2,0.6-0.3,1.2-0.4,1.8
		c-0.1,0.3-0.1,0.6-0.2,0.9c-0.1,0.5,0,0.6,0.5,0.6c0.1,0,0.1,0,0.2,0c5.3,0,10.6,0,16,0c0,0,0.1,0,0.1,0c0.8,0,0.8,0.1,0.6,0.8
		c-0.2,0.7-0.3,1.4-0.5,2.1c-0.3,1.4-0.6,2.7-0.9,4.1c-0.1,0.6-0.3,0.8-0.9,0.8c-5.4,0-10.9,0-16.3,0c-0.1,0-0.2,0-0.4,0
		c-0.2,0-0.4,0.2-0.5,0.4c-0.2,1-0.5,2-0.7,3c-0.1,0.4,0,0.6,0.5,0.6c0.2,0,0.5,0,0.7,0c5.8,0,11.6,0,17.5,0c0.1,0,0.2,0,0.3,0
		c0.2,0,0.4,0.1,0.4,0.4c0,0.1,0,0.2,0,0.4c-0.5,1.9-0.9,3.8-1.4,5.7c-0.1,0.4-0.2,0.8-0.3,1.2c-0.2,0.6-0.3,0.7-0.9,0.7
		C510,118.7,505.1,118.7,500.2,118.7C500.2,118.7,500.2,118.7,500.2,118.7z"/>
	<path class="st8" d="M422,86.1c1.6,0,3.1,0,4.7,0c0.1,0,0.3,0,0.4,0c0.4,0,0.5,0.2,0.4,0.6c-0.5,2.1-1,4.3-1.5,6.4
		c-0.4,1.9-0.9,3.7-1.3,5.6c-0.3,1.4-0.7,2.8-1,4.2c-0.2,1-0.5,2.1-0.7,3.1c-0.1,0.7-0.1,1.5-0.1,2.3c0.1,1.4,0.9,2.2,2.1,2.7
		c1,0.4,2,0.4,3,0.2c1.7-0.2,3-0.9,4-2.3c0.6-0.8,1-1.6,1.3-2.6c0.5-1.5,0.9-3.1,1.2-4.7c0.3-1.3,0.7-2.7,1-4c0.3-1.3,0.6-2.7,0.9-4
		c0.3-1.3,0.6-2.7,1-4c0.2-0.9,0.4-1.7,0.6-2.6c0-0.2,0.1-0.3,0.1-0.5c0.1-0.4,0.3-0.5,0.7-0.5c0.3,0,0.6,0,0.8,0c3,0,6.1,0,9.1,0
		c0.1,0,0.2,0,0.3,0c0.6,0,0.7,0.1,0.5,0.7c-0.4,1.5-0.7,3.1-1.1,4.6c-0.5,1.9-0.9,3.8-1.4,5.7c-0.2,0.8-0.4,1.5-0.5,2.3
		c-0.2,0.7-0.3,1.4-0.5,2.2c-0.4,1.6-0.7,3.2-1.1,4.7c-0.3,1.3-0.6,2.6-1.1,3.8c-1.1,2.5-2.6,4.5-4.9,6c-1.3,0.9-2.8,1.6-4.3,2.1
		c-1.3,0.4-2.7,0.7-4.1,0.9c-1.4,0.1-2.8,0.3-4.2,0.3c-1.6,0-3.3-0.1-4.9-0.4c-2.1-0.3-4.1-0.9-6-2c-1.6-0.9-2.9-2.1-3.7-3.7
		c-0.9-1.7-1.2-3.6-0.8-5.5c0.5-2.1,1-4.2,1.5-6.3c0.5-2.2,1-4.4,1.6-6.6c0.5-1.9,0.9-3.8,1.4-5.8c0.2-0.8,0.3-1.5,0.5-2.3
		c0.1-0.6,0.3-0.8,1-0.8C418.8,86.1,420.4,86.1,422,86.1C422,86.1,422,86.1,422,86.1z"/>
	<path class="st8" d="M380.2,107.7c1.6,0,3.1,0,4.7,0c0.1,0,0.2,0,0.3,0c0.4,0,0.5,0.1,0.6,0.6c0,0.6,0.1,1.2,0.4,1.7
		c0.5,1,1.2,1.7,2.4,1.9c1.5,0.3,3,0.3,4.5,0.1c0.8-0.1,1.5-0.5,2.2-0.9c0.5-0.3,0.8-0.8,1-1.4c0.2-0.7,0.1-1.4-0.4-2
		c-0.3-0.3-0.7-0.6-1.1-0.7c-1.2-0.5-2.4-0.9-3.6-1.2c-1.1-0.3-2.3-0.6-3.4-0.9c-1-0.3-2.1-0.6-3.1-1c-1.6-0.7-3.1-1.5-4.2-2.8
		c-1.2-1.3-1.7-2.9-1.8-4.6c-0.1-3.2,1.2-5.8,3.7-7.7c1.8-1.4,3.9-2.2,6.2-2.8c2.5-0.6,5-0.8,7.6-0.6c2.1,0.1,4.1,0.4,6.1,1.2
		c1.9,0.7,3.6,1.7,4.9,3.4c1.2,1.6,1.8,3.5,1.8,5.5c0,0.5-0.1,0.6-0.6,0.6c-1.2,0-2.4,0-3.7,0c-1.8,0-3.7,0-5.5,0
		c-0.6,0-0.7-0.1-0.8-0.7c-0.1-1-0.7-1.7-1.6-2.2c-0.7-0.4-1.5-0.5-2.4-0.5c-0.7,0-1.4,0-2.2,0.1c-0.5,0.1-1.1,0.3-1.6,0.5
		c-0.4,0.2-0.8,0.5-1,0.9c-0.5,0.9-0.4,1.8,0.4,2.4c0.6,0.4,1.2,0.7,1.9,0.8c1.2,0.3,2.3,0.5,3.5,0.8c1.3,0.3,2.6,0.6,3.9,1.1
		c1.5,0.5,2.9,1.2,4.2,2.1c1.5,1,2.6,2.4,3.1,4.1c0.2,0.7,0.3,1.5,0.4,2.3c0,3.1-1.2,5.6-3.6,7.6c-1.6,1.3-3.4,2.2-5.3,2.9
		c-1.5,0.5-3.1,0.8-4.7,1c-1.5,0.2-3,0.2-4.5,0.2c-1.7-0.1-3.4-0.3-5.1-0.7c-1.6-0.4-3.1-1-4.5-1.9c-2.1-1.3-3.6-3.1-4.3-5.5
		c-0.3-1-0.4-1.9-0.4-2.9c0-0.5,0.1-0.6,0.6-0.6c1.1,0,2.2,0,3.3,0C379.1,107.7,379.7,107.7,380.2,107.7
		C380.2,107.7,380.2,107.7,380.2,107.7z"/>
	<path class="st8" d="M422.1,136.6c-0.1,0.2-0.1,0.4-0.2,0.6c-0.4,1.7-0.7,3.5-1.1,5.2c-0.2,0.9-0.4,1.9-0.6,2.8
		c-0.2,1.2-0.5,2.3-0.7,3.5c0,0.2-0.1,0.4-0.1,0.6c-0.1,0.5-0.3,0.6-0.8,0.6c-0.2,0-0.3,0-0.5,0c-1.8,0-3.5,0-5.3,0
		c-0.1,0-0.2,0-0.3,0c-0.4,0-0.5-0.2-0.4-0.6c0.1-0.7,0.3-1.4,0.4-2.1c0.4-1.8,0.7-3.6,1.1-5.4c0.3-1.5,0.6-3,1-4.5
		c0.3-1.5,0.6-3,0.9-4.6c0.3-1.6,0.7-3.1,1-4.7c0.1-0.7,0.3-1.3,0.4-2c0.1-0.6,0.2-0.6,0.8-0.6c2,0,3.9,0,5.9,0
		c0.8,0,0.9,0.1,1.2,0.9c0.3,1,0.7,2,1,2.9c0.3,0.9,0.6,1.7,0.9,2.6c0.3,1,0.7,2,1,3c0.3,1,0.6,1.9,1,2.9c0.1,0.2,0.1,0.6,0.4,0.6
		c0.3,0,0.3-0.4,0.3-0.6c0.4-1.8,0.7-3.5,1.1-5.3c0.2-0.8,0.3-1.6,0.5-2.3c0.3-1.4,0.6-2.7,0.8-4.1c0.1-0.4,0.2-0.5,0.6-0.5
		c0.2,0,0.5,0,0.7,0c1.7,0,3.4,0,5,0c0.1,0,0.1,0,0.2,0c0.6,0,0.7,0.1,0.6,0.8c-0.3,1.6-0.7,3.2-1,4.8c-0.5,2.1-0.9,4.2-1.4,6.4
		c-0.3,1.5-0.6,2.9-0.9,4.4c-0.3,1.5-0.6,3-1,4.5c-0.2,0.9-0.4,1.8-0.6,2.7c0,0.1,0,0.2-0.1,0.4c-0.1,0.4-0.2,0.5-0.6,0.5
		c-0.1,0-0.3,0-0.4,0c-1.9,0-3.7,0-5.6,0c-0.2,0-0.3,0-0.5,0c-0.3,0-0.4-0.2-0.5-0.4c-0.5-1.6-1.1-3.3-1.6-4.9
		c-0.5-1.4-0.9-2.8-1.4-4.2c-0.3-1-0.6-2-0.9-3C422.6,137,422.5,136.7,422.1,136.6z"/>
	<path class="st8" d="M396.1,136.6c-0.1,0.2-0.1,0.4-0.2,0.5c-0.4,1.8-0.7,3.6-1.1,5.4c-0.3,1.6-0.6,3.1-1,4.7
		c-0.1,0.7-0.3,1.3-0.4,2c-0.1,0.5-0.3,0.6-0.7,0.6c-2,0-4,0-6,0c-0.5,0-0.6-0.1-0.5-0.6c0.1-0.5,0.2-1,0.3-1.5
		c0.3-1.5,0.6-3,0.9-4.5c0.2-1,0.4-2,0.6-3.1c0.3-1.5,0.7-3.1,1-4.6c0.1-0.6,0.3-1.2,0.4-1.9c0.2-0.9,0.4-1.9,0.6-2.8
		c0.3-1.6,0.7-3.2,1-4.9c0.1-0.5,0.2-0.6,0.8-0.6c1.8,0,3.6,0,5.4,0c0.2,0,0.5,0,0.7,0c0.5,0,0.7,0.1,0.9,0.6
		c0.3,0.8,0.6,1.6,0.8,2.4c0.3,1,0.7,2,1,3c0.5,1.3,0.9,2.6,1.3,4c0.3,0.8,0.6,1.6,0.8,2.5c0,0.1,0.1,0.2,0.1,0.2
		c0.1,0.1,0.2,0.2,0.3,0.1c0.1,0,0.2-0.1,0.2-0.2c0-0.1,0-0.2,0.1-0.3c0.1-0.6,0.2-1.2,0.4-1.8c0.3-1.6,0.6-3.2,1-4.8
		c0.3-1.5,0.7-3.1,1-4.6c0-0.2,0.1-0.5,0.1-0.7c0.1-0.4,0.2-0.4,0.5-0.5c0.1,0,0.2,0,0.3,0c1.9,0,3.7,0,5.6,0c0.1,0,0.2,0,0.3,0
		c0.4,0,0.6,0.2,0.5,0.6c-0.5,2.5-1.1,5-1.6,7.5c-0.3,1.5-0.6,3-0.9,4.6c-0.3,1.5-0.7,3-1,4.5c-0.2,0.8-0.3,1.7-0.5,2.5
		c-0.2,0.9-0.4,1.9-0.6,2.8c-0.1,0.4-0.2,0.8-0.2,1.2c-0.1,0.5-0.2,0.6-0.7,0.6c-1,0-1.9,0-2.9,0c-1.1,0-2.1,0-3.2,0
		c-0.7,0-0.8-0.1-1-0.7c-0.5-1.4-0.9-2.8-1.4-4.2c-0.3-1-0.6-2-1-3c-0.4-1.3-0.8-2.5-1.2-3.8c-0.1-0.3-0.2-0.7-0.3-1
		C396.5,136.9,396.4,136.7,396.1,136.6z"/>
	<path class="st8" d="M539.6,149.8c-3.1,0-6.2,0-9.4,0c-0.1,0-0.2,0-0.3,0c-0.4,0-0.5-0.1-0.5-0.5c0-0.1,0-0.1,0-0.2
		c0.3-1.4,0.6-2.8,0.9-4.1c0.2-1,0.4-2.1,0.6-3.1c0.2-0.9,0.4-1.9,0.6-2.8c0.2-1,0.4-2,0.6-3c0.3-1.5,0.6-3,0.9-4.5
		c0.2-0.9,0.4-1.9,0.6-2.8c0.2-0.9,0.4-1.9,0.6-2.8c0.1-0.6,0.2-0.6,0.8-0.6c2.2,0,4.3,0,6.5,0c4,0,8.1,0,12.1,0
		c0.8,0,0.9,0.1,0.7,0.9c-0.2,1-0.4,2-0.6,3c-0.1,0.6-0.2,1.2-0.4,1.9c-0.1,0.4-0.2,0.5-0.6,0.5c-0.2,0-0.4,0-0.5,0
		c-3.7,0-7.4,0-11.1,0c-0.5,0-0.6,0.1-0.7,0.6c-0.2,0.7-0.3,1.3-0.4,2c-0.1,0.3,0,0.5,0.4,0.5c0.1,0,0.3,0,0.4,0c3.3,0,6.7,0,10,0
		c0.1,0,0.2,0,0.3,0c0.4,0,0.5,0.2,0.5,0.6c-0.2,1.2-0.5,2.4-0.8,3.6c-0.1,0.4-0.1,0.7-0.2,1.1c-0.1,0.4-0.2,0.5-0.6,0.5
		c-0.2,0-0.5,0-0.7,0c-3.2,0-6.5,0-9.7,0c-0.9,0-0.9,0-1,0.8c-0.1,0.5-0.2,1-0.3,1.6c-0.1,0.5,0,0.6,0.5,0.6c1,0,2,0,3,0
		c2.8,0,5.6,0,8.4,0c0.7,0,0.9,0.2,0.7,0.9c-0.2,0.7-0.3,1.4-0.5,2.1c-0.2,0.8-0.3,1.7-0.5,2.5c0,0.1,0,0.2-0.1,0.4
		c-0.1,0.2-0.2,0.4-0.5,0.4c-0.1,0-0.2,0-0.4,0C546,149.8,542.8,149.8,539.6,149.8C539.6,149.8,539.6,149.8,539.6,149.8z"/>
	<path class="st8" d="M352.8,127.7c0,2-0.3,3.6-0.7,5.3c-0.4,1.5-0.9,3-1.7,4.3c-1.1,2.1-2.6,4-4.4,5.5c-1.5,1.2-3.1,2.1-4.8,2.9
		c-0.4,0.2-0.5,0.1-0.8-0.3c-0.3-0.5-0.6-0.9-0.9-1.4c-0.1-0.2-0.3-0.4-0.4-0.6c-0.2-0.3-0.1-0.5,0.2-0.7c0.3-0.2,0.7-0.4,1-0.5
		c1-0.5,1.7-1.4,2.3-2.4c0.6-1.2,1-2.5,1.3-3.8c0.2-1.1,0.4-2.2,0.5-3.3c0.1-0.7,0-1.4-0.2-2.1c-0.2-0.8-0.7-1.5-1.3-2
		c-0.9-0.8-1.9-1.5-3-2c-1.5-0.7-3-1.2-4.6-1.7c-0.9-0.3-1.6-0.7-2.3-1.3c-2-1.6-3.7-3.5-5-5.8c-1.1-2.1-1.8-4.3-1.7-6.7
		c0-0.9,0-1.8,0-2.6c0-0.1,0-0.2,0-0.3c0-0.4,0.2-0.4,0.5-0.2c0.5,0.3,1,0.7,1.5,1c0.9,0.6,1.9,1.1,2.9,1.5c1.7,0.7,3.5,1.2,5.3,1.7
		c1,0.3,2,0.6,3,1c0.8,0.3,1.7,0.6,2.5,0.9c1.4,0.5,2.8,1.2,4.1,2c1.4,0.8,2.7,1.9,3.8,3.1c1,1.1,1.7,2.4,2.2,3.8
		C352.6,124.6,352.8,126.3,352.8,127.7z M347.1,135.1c0.1,0,0.1,0,0.2,0.1c0.2-0.2,0.4-0.3,0.5-0.5c1.5-2.2,2.2-4.6,2.1-7.2
		c-0.1-1.5-0.3-2.8-1-4.1c-0.7-1.4-1.7-2.5-3-3.5c-1.4-1.1-2.9-1.9-4.6-2.6c-1.9-0.7-3.8-1.3-5.7-2c-1.5-0.5-3.1-0.9-4.6-1.3
		c-0.1,0-0.2-0.1-0.3-0.1c-0.3,0-0.4,0.1-0.4,0.4c0,0.1,0,0.2,0.1,0.3c0.4,1,0.7,2,1.3,2.9c0.8,1.4,1.9,2.5,3,3.5
		c0.6,0.5,1.2,0.8,2,1.1c1.7,0.5,3.4,1.2,5.1,2c1.5,0.7,2.9,1.7,4,3c0.8,0.9,1.4,2,1.6,3.2c0.2,1.4,0.2,2.9-0.2,4.3
		C347.1,134.8,347.1,134.9,347.1,135.1z"/>
	<path class="st8" d="M521.2,125.4c3.2,0,6.5,0,9.7,0c0.8,0,0.9,0.1,0.7,0.9c-0.4,1.5-0.6,3-0.9,4.5c-0.1,0.7-0.3,0.8-1,0.8
		c-1.8,0-3.6,0-5.4,0c-0.4,0-0.5,0.1-0.7,0.5c-0.1,0.2-0.1,0.5-0.2,0.7c-0.4,1.9-0.8,3.8-1.2,5.6c-0.3,1.6-0.6,3.1-0.9,4.7
		c-0.4,1.9-0.8,3.9-1.2,5.8c0,0.1,0,0.1-0.1,0.2c-0.2,0.6-0.3,0.6-0.9,0.6c-1.9,0-3.8,0-5.8,0c-0.2,0-0.4,0-0.5,0
		c-0.3,0-0.4-0.1-0.4-0.5c0-0.1,0-0.1,0-0.2c0.3-1.5,0.6-3,1-4.5c0.2-0.7,0.3-1.4,0.5-2.2c0.3-1.2,0.5-2.4,0.8-3.7
		c0.3-1.5,0.6-3,0.9-4.5c0.1-0.6,0.2-1.1,0.4-1.7c0-0.2,0.1-0.3,0.1-0.5c0-0.3-0.1-0.4-0.4-0.5c-0.1,0-0.2,0-0.4,0c-1.7,0-3.4,0-5,0
		c-0.8,0-0.9-0.1-0.7-0.9c0.2-0.9,0.4-1.7,0.6-2.6c0.2-0.7,0.3-1.5,0.5-2.2c0.1-0.4,0.2-0.5,0.6-0.5c0.3,0,0.6,0,0.8,0
		C515.1,125.4,518.1,125.4,521.2,125.4C521.2,125.4,521.2,125.4,521.2,125.4z"/>
	<path class="st8" d="M479.5,125.4c3.3,0,6.5,0,9.8,0c0.1,0,0.1,0,0.2,0c0.4,0,0.5,0.1,0.5,0.6c0,0.3-0.1,0.5-0.1,0.8
		c-0.3,1.3-0.5,2.6-0.8,3.9c0,0.2-0.1,0.3-0.1,0.5c-0.1,0.4-0.3,0.5-0.7,0.5c-0.2,0-0.4,0-0.6,0c-1.6,0-3.2,0-4.9,0
		c-0.6,0-0.7,0.1-0.9,0.7c-0.1,0.6-0.2,1.2-0.4,1.8c-0.2,0.9-0.4,1.8-0.6,2.7c-0.3,1.5-0.7,3.1-1,4.6c-0.1,0.7-0.3,1.4-0.4,2.1
		c-0.3,1.6-0.6,3.1-0.9,4.7c-0.1,0.3-0.2,0.7-0.2,1c-0.1,0.5-0.2,0.5-0.7,0.5c-0.3,0-0.6,0-0.8,0c-1.8,0-3.5,0-5.3,0
		c-0.6,0-0.8-0.1-0.6-0.8c0.2-1.1,0.5-2.2,0.7-3.3c0.3-1.4,0.6-2.9,0.9-4.3c0.3-1.6,0.7-3.2,1-4.8c0.1-0.7,0.3-1.3,0.4-2
		c0.2-0.8,0.3-1.5,0.5-2.3c0.1-0.6,0-0.7-0.6-0.7c-1.8,0-3.6,0-5.3,0c-0.6,0-0.7-0.1-0.6-0.7c0.3-1.7,0.7-3.3,1.1-5
		c0.1-0.4,0.2-0.5,0.7-0.5c0.4,0,0.7,0,1.1,0C473.6,125.4,476.5,125.4,479.5,125.4C479.5,125.4,479.5,125.4,479.5,125.4z"/>
	<path class="st8" d="M347.9,84.5c5.2,0,10.4,0,15.6,0c0.2,0,0.4,0,0.5,0c0.3,0,0.4,0.2,0.2,0.5c-0.5,0.8-1,1.6-1.5,2.4
		c-1.3,2-2.5,4.1-3.8,6.1c-1.8,2.8-3.5,5.7-5.3,8.5c-1.5,2.4-3,4.8-4.5,7.3c0,0.1-0.1,0.2-0.1,0.2c-0.3,0.4-0.4,0.4-0.8,0.2
		c-0.5-0.3-1-0.6-1.5-0.9c-0.5-0.3-0.5-0.4-0.2-0.9c0.6-1.3,1.3-2.5,1.8-3.9c0.8-2,1.4-4.1,1.5-6.4c0.1-1.6-0.2-3.2-0.9-4.6
		c-0.4-0.8-1-1.5-1.7-2.1c-1.3-1.1-2.8-1.8-4.4-2.3c-3-0.9-6.1-1-9.3-0.9c-0.1,0-0.2,0-0.4,0c-0.3,0-0.5-0.1-0.7-0.4
		c-0.4-0.8-0.7-1.6-1.1-2.3c-0.2-0.4-0.1-0.6,0.4-0.6c0.2,0,0.3,0,0.5,0C337.5,84.5,342.7,84.5,347.9,84.5z M348.8,88
		c0.1,0.2,0.2,0.2,0.3,0.3c0.6,0.6,1.2,1.1,1.7,1.7c0.9,1,1.5,2.2,1.8,3.6c0,0.2,0.1,0.4,0.2,0.6c0,0.1,0.1,0.2,0.1,0.4
		c0.1,0.6,0.1,1.3,0.2,1.9c0,0.1,0.1,0.1,0.2,0.2c0.1-0.2,0.3-0.3,0.4-0.5c0.3-0.6,0.7-1.2,1-1.7c0.5-0.9,1.1-1.8,1.6-2.6
		c0.7-1,1.3-2.1,2-3.1c0.1-0.2,0.2-0.4,0.4-0.7C355.3,88,352.1,88,348.8,88z"/>
	<path class="st8" d="M309.9,150.6c-5.3,0-10.5,0-15.8,0c-0.1,0-0.2,0-0.4,0c-0.3,0-0.4-0.2-0.2-0.5c0.4-0.7,0.8-1.3,1.3-2
		c1-1.6,2-3.3,3-4.9c0.9-1.5,1.9-3,2.8-4.6c1.1-1.9,2.3-3.7,3.4-5.6c1.4-2.3,2.8-4.7,4.3-7c0.2-0.4,0.4-0.4,0.8-0.3
		c0.5,0.2,1,0.4,1.5,0.6c0.4,0.2,0.5,0.4,0.3,0.8c-0.8,1.3-1.4,2.6-1.9,4c-0.3,0.9-0.6,1.7-0.9,2.6c-0.5,1.7-0.7,3.4-0.6,5.1
		c0.3,2.8,1.7,4.9,4.1,6.4c1.4,0.8,2.9,1.3,4.4,1.6c2.9,0.6,5.8,0.7,8.7,0.5c0.5,0,0.7,0.1,0.9,0.5c0.3,0.8,0.6,1.6,0.9,2.4
		c0.1,0.3,0,0.5-0.4,0.5c-0.1,0-0.2,0-0.3,0C320.4,150.6,315.1,150.6,309.9,150.6z M308.3,147.4c-0.2-0.1-0.3-0.2-0.4-0.3
		c-0.2-0.2-0.5-0.3-0.7-0.5c-0.8-0.9-1.7-1.9-2.1-3c-0.3-0.8-0.6-1.6-0.9-2.4c0-0.1,0-0.2,0-0.3c0-0.6-0.1-1.2-0.1-1.7
		c0-0.1-0.1-0.2-0.2-0.3c-0.1,0.1-0.2,0.1-0.2,0.2c-0.2,0.3-0.4,0.7-0.6,1c-0.2,0.4-0.4,0.9-0.7,1.3c-0.9,1.1-1.4,2.4-2.3,3.6
		c-0.4,0.6-0.8,1.3-1.2,1.9c-0.1,0.2-0.3,0.4-0.2,0.7c0.5,0,0.9,0.1,1.3,0c0.7-0.1,1.3,0,2,0c1,0,1.9,0.1,2.9-0.1c0.5-0.1,1,0,1.5,0
		c0.4,0,0.8,0.1,1.2,0.1C307.8,147.5,308,147.6,308.3,147.4z"/>
	<path class="st8" d="M322.8,120.9c-0.2,0-0.3-0.1-0.5-0.1c-1-0.4-2.1-0.8-3.1-1.3c-2.2-1-4.2-2.2-6.2-3.5c-2.2-1.6-4.2-3.4-5.8-5.6
		c-1.1-1.5-2-3.1-2.5-4.9c-0.4-1.6-0.5-3.3-0.2-5c0.5-2.7,1.7-4.9,3.4-6.9c1.4-1.7,3.2-3.1,5-4.3c1.7-1.1,3.6-2,5.5-2.8
		c0.5-0.2,0.7-0.1,0.9,0.4c0.4,0.9,0.8,1.7,1.1,2.6c0.2,0.4,0.1,0.6-0.3,0.8c-2.2,0.8-4,2-5.6,3.7c-0.8,0.8-1.4,1.8-1.7,2.9
		c-0.4,1.4-0.1,2.6,0.7,3.8c0.8,1.1,1.8,2,2.9,2.8c0.2,0.1,0.4,0.3,0.6,0.4c0.3,0.2,0.4,0.5,0.3,0.9c-0.3,1.4-0.5,2.8-0.5,4.2
		c-0.1,1.7,0.2,3.2,1,4.7c0.7,1.2,1.3,2.5,2.1,3.7c0.7,1.2,1.7,2.1,2.6,3.1C322.6,120.4,322.8,120.5,322.8,120.9z M314.6,113.4
		c0-0.2,0-0.3,0-0.4c-0.1-0.6-0.4-1.2-0.4-1.9c0-0.7-0.2-1.4-0.3-2.1c0-0.1,0-0.2,0-0.3c0.1-0.8,0.2-1.6,0.4-2.3
		c0-0.2,0-0.4,0.1-0.5c0.1-0.2,0-0.4-0.1-0.5c-0.1-0.1-0.2-0.3-0.4-0.4c-0.8-0.6-1.6-1.3-2.3-2.1c-0.9-0.9-1.7-2-2.1-3.2
		c-0.2-0.7-0.4-1.3-0.2-2.1c0.1-0.2,0-0.4,0-0.5c0,0-0.1,0-0.1,0c-0.1,0.2-0.2,0.3-0.3,0.5c-0.2,0.4-0.4,0.8-0.5,1.2
		c-0.4,0.7-0.5,1.5-0.7,2.3c-0.3,1.7-0.3,3.3,0.2,5c0.4,1.4,1.1,2.6,2,3.7c0.5,0.6,1.1,1.1,1.7,1.6c0.6,0.5,1.1,1,1.7,1.5
		C313.7,113,314.2,113.2,314.6,113.4z"/>
	<path class="st8" d="M559,97.1c0-1.8,0-3.5,0-5.3c0-0.5-0.1-0.9-0.3-1.3c-0.8-1.5-2-2.6-3.6-3.2c-1.7-0.7-3.6-1-5.4-1.1
		c-0.9-0.1-1.8-0.1-2.7-0.1c-2.4,0-4.8,0-7.2,0c0,0,0,0,0,0c-3.4,0-6.8,0-10.2,0c-0.1,0-0.3,0-0.4,0c-0.3,0-0.4,0.1-0.5,0.4
		c-0.1,0.5-0.3,1.1-0.4,1.6c-0.2,0.7-0.3,1.5-0.5,2.2c-0.3,1.4-0.7,2.7-1,4.1c-0.3,1.5-0.7,2.9-1,4.4c-0.3,1.3-0.6,2.5-0.9,3.8
		c-0.3,1.4-0.6,2.8-0.9,4.1c-0.4,1.9-0.9,3.8-1.4,5.6c-0.4,1.6-0.8,3.3-1.1,4.9c-0.1,0.3-0.1,0.7-0.2,1c-0.1,0.3,0.1,0.5,0.4,0.5
		c0.1,0,0.2,0,0.3,0c3.2,0,6.4,0,9.6,0c0.6,0,0.8-0.1,0.9-0.7c0.2-0.7,0.3-1.4,0.5-2.1c0.2-0.8,0.3-1.6,0.5-2.4
		c0.4-1.9,0.9-3.8,1.4-5.7c0.1-0.5,0.2-0.6,0.8-0.6c1.6,0,3.1,0,4.7,0c0.8,0,1.6,0.1,2.4,0.4c1.3,0.5,1.9,1.6,1.8,3
		c-0.1,0.8-0.2,1.6-0.3,2.4c-0.2,1.2-0.3,2.4-0.2,3.6c0,0.5,0.1,1,0.3,1.5c0.1,0.4,0.2,0.5,0.7,0.5c0.1,0,0.2,0,0.4,0
		c3.1,0,6.2,0,9.3,0c0.1,0,0.2,0,0.3,0c0.2,0,0.3-0.2,0.3-0.4c0-0.1-0.1-0.2-0.1-0.4c-0.1-0.6-0.2-1.1-0.3-1.7c-0.1-0.8,0-1.6,0-2.3
		c0-1.5,0-2.9,0-4.4c0-0.8-0.1-1.6-0.3-2.4c-0.4-1.5-1.2-2.5-2.7-3.1c-0.1,0-0.2-0.2-0.3-0.2c0.1-0.1,0.2-0.2,0.3-0.3
		c0,0,0.1,0,0.2,0c1-0.2,1.9-0.5,2.8-1c1.7-0.8,2.9-2.1,3.9-3.6C558.9,98.3,559,97.7,559,97.1z M548,97.9c-0.4,0.9-1.1,1.5-2,1.9
		c-1,0.4-2,0.6-3.1,0.6c-0.8,0-1.6,0-2.4,0c0,0,0,0,0,0c-1,0-1.9,0-2.9,0c-0.1,0-0.2,0-0.3,0c-0.4,0-0.6-0.2-0.5-0.6
		c0.1-0.4,0.1-0.7,0.2-1.1c0.2-0.8,0.4-1.7,0.6-2.5c0.1-0.6,0.3-1.2,0.4-1.8c0.1-0.3,0.2-0.4,0.6-0.5c0.1,0,0.2,0,0.3,0
		c1.9,0,3.8,0,5.8,0c0.9,0,1.7,0.2,2.4,0.7C548.1,95.3,548.5,96.7,548,97.9z"/>
	<path class="st8" d="M484.8,92.4c-0.5-1.5-1.3-2.8-2.5-3.8c-1.7-1.5-3.8-2.1-6-2.4c-0.9-0.1-1.8-0.1-2.6-0.1c-2.4,0-4.8,0-7.2,0
		c-3.1,0-6.2,0-9.4,0c-0.2,0-0.4,0-0.6,0c-0.4,0-0.6,0.1-0.7,0.5c-0.2,1-0.5,2.1-0.7,3.1c-0.4,1.9-0.9,3.8-1.3,5.7
		c-0.5,2.2-1,4.4-1.6,6.6c-0.1,0.6-0.3,1.2-0.4,1.9c-0.4,1.5-0.7,2.9-1.1,4.4c-0.3,1.3-0.6,2.5-0.9,3.8c-0.3,1.4-0.7,2.7-1,4.1
		c-0.1,0.6-0.3,1.2-0.4,1.9c-0.1,0.6,0,0.7,0.6,0.7c3.3,0,6.6,0,9.8,0c0.6,0,0.7-0.1,0.9-0.7c0.2-0.7,0.3-1.4,0.5-2.2
		c0.5-2.1,1-4.2,1.5-6.3c0.1-0.5,0.3-0.6,0.8-0.6c0.1,0,0.3,0,0.4,0c2.7,0,5.4,0,8-0.1c2.4-0.1,4.8-0.6,7-1.6c2.3-1,4.2-2.5,5.7-4.6
		c0.9-1.2,1.5-2.6,1.7-4.1C485.6,96.4,485.4,94.4,484.8,92.4z M471.7,100.5c-1.1,0.4-2.3,0.5-3.4,0.5c-0.5,0-1,0-1.5,0c0,0,0,0,0,0
		c-0.7,0-1.4,0-2.2,0c-0.2,0-0.3,0-0.5,0c-0.3,0-0.4-0.2-0.4-0.5c0-0.1,0-0.2,0.1-0.3c0.4-1.7,0.8-3.5,1.2-5.2
		c0.1-0.4,0.3-0.6,0.7-0.6c1.8,0,3.6-0.1,5.3,0.2c0.5,0.1,1.1,0.2,1.6,0.5c0.8,0.4,1.2,1.1,1.3,1.9
		C474.2,98.8,473.2,100,471.7,100.5z"/>
	<path class="st8" d="M464.8,134.5c-0.1-2-0.5-3.9-1.7-5.6c-1-1.5-2.3-2.5-4-3.2c-1.7-0.6-3.4-0.9-5.1-0.9c-2.5-0.1-4.8,0.4-6.9,1.6
		c-1.7,0.9-3.1,2.2-4.3,3.7c-1.6,2.2-2.5,4.7-2.8,7.4c-0.3,2.5-0.1,4.9,0.9,7.2c1.1,2.6,3.1,4.1,5.7,4.9c1.3,0.4,2.6,0.5,4,0.6
		c3.3,0.1,6.2-0.8,8.8-2.8c2.5-2,4-4.5,4.8-7.5C464.7,138.2,464.9,136.3,464.8,134.5z M457.1,137.2c-0.1,0.9-0.4,1.8-0.6,2.6
		c-0.5,1.4-1.2,2.7-2.4,3.6c-1.3,0.9-2.6,1.1-4.1,0.7c-0.9-0.3-1.6-0.9-2-1.8c-0.3-0.6-0.4-1.2-0.4-1.8c0-0.4,0-0.7,0-1
		c0-2,0.4-3.8,1.3-5.6c0.6-1.2,1.4-2.2,2.7-2.7c1.1-0.5,2.3-0.6,3.5-0.2c1,0.3,1.6,1.1,2,2.1C457.4,134.5,457.4,135.9,457.1,137.2z"
		/>
	<path class="st8" d="M507.3,148.9c-0.3-1.7-0.5-3.4-0.8-5.1c-0.2-1-0.3-2-0.5-3c-0.2-1.3-0.4-2.5-0.6-3.8c-0.2-1.1-0.3-2.2-0.5-3.3
		c-0.2-1.1-0.4-2.3-0.6-3.4c-0.2-1.3-0.4-2.7-0.6-4c0-0.1,0-0.2-0.1-0.3c-0.1-0.4-0.3-0.5-0.7-0.5c-0.3,0-0.6,0-0.9,0
		c-1.7,0-3.5,0-5.2,0c-0.5,0-0.8,0.1-1,0.5c0,0.1-0.1,0.1-0.1,0.2c-1.2,2-2.3,4-3.5,6c-1.4,2.4-2.7,4.7-4.1,7.1
		c-1.7,3-3.5,6-5.2,8.9c-0.2,0.4-0.4,0.7-0.6,1.1c-0.2,0.3-0.1,0.5,0.3,0.5c0.1,0,0.2,0,0.3,0c1,0,2,0,3,0c1.1,0,2.1,0,3.2,0
		c0.4,0,0.6-0.1,0.8-0.5c0.4-0.8,0.9-1.7,1.4-2.5c0.2-0.4,0.5-0.6,1-0.6c2.2,0,4.4,0,6.6,0c0.6,0,0.7,0.1,0.8,0.7
		c0.1,0.8,0.2,1.5,0.3,2.3c0.1,0.4,0.2,0.5,0.6,0.5c0.1,0,0.2,0,0.4,0c1.9,0,3.7,0,5.6,0C507.4,149.8,507.5,149.7,507.3,148.9z
		 M498.4,141.1c-0.6,0-1.1,0-1.7,0c0,0,0,0,0,0c-0.5,0-1.1,0-1.6,0c-0.5,0-0.6-0.2-0.4-0.7c1-1.9,2-3.8,3-5.7
		c0.1-0.2,0.2-0.5,0.5-0.5c0.3,0.1,0.2,0.4,0.2,0.6c0.1,1.3,0.3,2.6,0.4,3.9c0.1,0.5,0.1,1.1,0.2,1.6
		C499.1,140.9,498.9,141.1,498.4,141.1z"/>
	<path class="st8" d="M384.5,149.2c-0.1-0.8-0.2-1.6-0.4-2.4c-0.3-2-0.7-4.1-1-6.1c-0.3-2.1-0.6-4.1-0.9-6.2
		c-0.4-2.5-0.8-4.9-1.2-7.4c-0.1-0.5-0.2-0.9-0.2-1.4c0-0.3-0.2-0.4-0.5-0.4c-0.1,0-0.2,0-0.4,0c-1.9,0-3.8,0-5.8,0
		c-0.6,0-0.9,0.2-1.2,0.7c-0.9,1.6-1.9,3.3-2.8,4.9c-1.4,2.3-2.7,4.7-4.1,7c-1.4,2.4-2.8,4.8-4.1,7.1c-0.8,1.3-1.6,2.7-2.3,4
		c-0.3,0.4-0.2,0.6,0.3,0.6c2.1,0,4.3,0,6.4,0c0.4,0,0.7-0.2,0.9-0.5c0.4-0.8,0.8-1.6,1.2-2.3c0.2-0.4,0.5-0.7,1.1-0.7
		c1.1,0,2.1,0,3.2,0c1.2,0,2.3,0,3.5,0c0.5,0,0.6,0.1,0.7,0.6c0.1,0.8,0.2,1.5,0.3,2.3c0.1,0.6,0.2,0.6,0.8,0.6c2,0,3.9,0,5.9,0
		c0.1,0,0.2,0,0.3,0C384.4,149.8,384.5,149.6,384.5,149.2z M375.6,141.1c-0.6,0-1.1,0-1.7,0c0,0,0,0,0,0c-0.5,0-1.1,0-1.6,0
		c-0.6,0-0.7-0.2-0.4-0.7c0.8-1.6,1.7-3.2,2.5-4.8c0.2-0.4,0.4-0.8,0.6-1.2c0.1-0.1,0.2-0.2,0.3-0.3c0.2,0,0.2,0.2,0.3,0.3
		c0.1,0.8,0.2,1.5,0.3,2.3c0.1,1.1,0.3,2.3,0.4,3.4c0,0.1,0,0.2,0,0.4C376.1,140.9,376,141.1,375.6,141.1z"/>
	<path class="st9" d="M347.1,135.1c0-0.1,0-0.3,0-0.4c0.4-1.4,0.4-2.9,0.2-4.3c-0.2-1.2-0.8-2.3-1.6-3.2c-1.1-1.3-2.5-2.2-4-3
		c-1.6-0.8-3.3-1.4-5.1-2c-0.7-0.2-1.4-0.6-2-1.1c-1.2-1-2.2-2.1-3-3.5c-0.5-0.9-0.9-1.9-1.3-2.9c0-0.1-0.1-0.2-0.1-0.3
		c0-0.3,0.1-0.4,0.4-0.4c0.1,0,0.2,0,0.3,0.1c1.5,0.4,3.1,0.8,4.6,1.3c1.9,0.6,3.8,1.2,5.7,2c1.6,0.6,3.2,1.5,4.6,2.6
		c1.2,0.9,2.3,2.1,3,3.5c0.6,1.3,0.9,2.7,1,4.1c0.1,2.6-0.6,5-2.1,7.2c-0.1,0.2-0.3,0.3-0.5,0.5
		C347.2,135.1,347.1,135.1,347.1,135.1z"/>
	<path class="st10" d="M348.8,88c3.3,0,6.5,0,9.8,0c-0.2,0.3-0.2,0.5-0.4,0.7c-0.6,1-1.3,2.1-2,3.1c-0.5,0.9-1.1,1.8-1.6,2.6
		c-0.3,0.6-0.7,1.1-1,1.7c-0.1,0.2-0.2,0.3-0.4,0.5c-0.1-0.1-0.1-0.2-0.2-0.2c-0.1-0.6-0.1-1.3-0.2-1.9c0-0.1,0-0.2-0.1-0.4
		c-0.1-0.2-0.2-0.4-0.2-0.6c-0.3-1.4-1-2.5-1.8-3.6c-0.5-0.6-1.1-1.1-1.7-1.7C349,88.2,348.9,88.1,348.8,88z"/>
	<path class="st11" d="M308.5,147.6c-3.4,0-6.7,0-10.2,0c0.2-0.3,0.3-0.5,0.4-0.7c0.7-1.1,1.3-2.2,2-3.2c0.6-0.9,1.1-1.8,1.7-2.7
		c0.4-0.6,0.7-1.2,1-1.8c0.1-0.2,0.2-0.3,0.4-0.5c0.1,0.1,0.2,0.2,0.2,0.2c0.1,0.7,0.1,1.3,0.2,2c0,0.1,0,0.2,0.1,0.4
		c0.1,0.2,0.2,0.4,0.2,0.6c0.3,1.4,1,2.6,1.9,3.7c0.5,0.6,1.2,1.2,1.8,1.8C308.3,147.3,308.3,147.4,308.5,147.6z"/>
	<path class="st12" d="M314.6,113.4c-0.5-0.3-0.9-0.5-1.3-0.8c-0.6-0.5-1.2-1-1.7-1.5c-0.6-0.5-1.2-1-1.7-1.6
		c-0.9-1.1-1.6-2.3-2-3.7c-0.5-1.6-0.5-3.3-0.2-5c0.1-0.8,0.3-1.6,0.7-2.3c0.2-0.4,0.4-0.8,0.5-1.2c0.1-0.2,0.2-0.3,0.3-0.5
		c0,0,0.1,0,0.1,0c0,0.2,0,0.4,0,0.5c-0.3,0.7-0.1,1.4,0.2,2.1c0.4,1.2,1.2,2.3,2.1,3.2c0.7,0.7,1.5,1.5,2.3,2.1
		c0.1,0.1,0.3,0.2,0.4,0.4c0.1,0.2,0.2,0.3,0.1,0.5c-0.1,0.2-0.1,0.3-0.1,0.5c-0.1,0.8-0.3,1.6-0.4,2.3c0,0.1,0,0.2,0,0.3
		c0.1,0.7,0.3,1.4,0.3,2.1c0,0.7,0.3,1.3,0.4,1.9C314.6,113.1,314.6,113.2,314.6,113.4z"/>
</g>
<g>
	<g>
		<path class="st13" d="M125.8,159.1c1,3.9,1.5,8.1,1.5,12.3c0,26.1-19.9,47.5-45.3,49.9c0.2,0,0.4,0,0.6-0.1c0-9.6-0.1-21.7-0.1-30
			h33.1l-4.3-16.9H82.5c0-2.3,0.1-4.6,0.1-6.9c0.1-3.9,1.1-7.5,6-7.9C100.2,158.6,114,159,125.8,159.1 M77.2,121.3
			c26.1,0,40,19.9,39.8,19.6c-11.7-0.2-33.9-1.8-42.1,1.8c-9.2,4.1-9.4,9.8-9.5,20.2c-0.1,6.3,0,13,0,16.9c0.1,13.9,0,32.2,0,40.4
			c0.3,0.1,0.6,0.1,0.9,0.2c-22.5-5-39.2-25-39.2-49C27,143.7,49.5,121.3,77.2,121.3z"/>
	</g>
	<g>
		<g>
			<path class="st8" d="M168.9,144.9h-16.5v7.4h15.2v7.5h-15.2v16.9h-9.8v-39.3h26.3V144.9z"/>
			<path class="st8" d="M200.2,176.7H174v-39.3h9.9v31.8h16.3V176.7z"/>
			<path class="st8" d="M220.7,177.5c-5.3,0-9.3-1.3-12.2-3.8c-2.8-2.5-4.3-6.3-4.3-11.2v-25.1h9.9v24.5c0,2.7,0.5,4.8,1.5,6.1
				c1,1.3,2.7,2,5,2c2.3,0,3.9-0.6,5-1.9c1.1-1.3,1.6-3.3,1.6-6.2v-24.5h9.9v25c0,4.8-1.4,8.5-4.2,11.1
				C230.3,176.2,226.2,177.5,220.7,177.5z"/>
			<path class="st8" d="M278,176.7h-11.4l-7.5-12.5l-7.7,12.5h-10.9l12.7-19.8l-12.2-19.5h11.4l7.1,11.8l7.2-11.8h10.9l-12.3,19.1
				L278,176.7z"/>
		</g>
		<g>
			<g>
				<path class="st14" d="M149.6,184.7v1.8h-2.4v14.1H145v-14.1h-2.4v-1.8H149.6z"/>
			</g>
			<g>
				<path class="st14" d="M159.9,196.9c-0.1,2.6-1.1,3.8-3.2,3.8c-2.3,0-3.4-1.8-3.4-5.4c0-3.9,1.2-5.8,3.5-5.8
					c0.9,0,1.6,0.3,2.2,0.9c0.8,0.8,1.1,1.9,1.1,4.3v0.8h-4.6c0,2.8,0.3,3.6,1.4,3.6c0.9,0,1.2-0.6,1.2-2.2H159.9z M158,193.9
					c0-2.2-0.3-3-1.2-3c-1,0-1.3,0.7-1.3,3H158z"/>
			</g>
			<g>
				<path class="st14" d="M171.3,200.2c-0.8,0.4-1.2,0.5-1.8,0.5c-2.2,0-3.2-1.7-3.2-5.7c0-2.3,0.4-3.8,1.2-4.6
					c0.6-0.6,1.3-0.9,2-0.9c0.5,0,0.9,0.1,1.8,0.4v1.7c-0.6-0.3-0.8-0.3-1.1-0.3c-1.2,0-1.7,1.2-1.7,4c0,2.5,0.5,3.7,1.6,3.7
					c0.4,0,0.7-0.1,1.3-0.4V200.2z"/>
			</g>
			<g>
				<path class="st14" d="M179.2,184.1v6.4c0.8-0.8,1.5-1.1,2.2-1.1c1.5,0,2.3,0.8,2.3,2.5v8.5h-2v-7.9c0-1-0.4-1.6-1.3-1.6
					c-0.9,0-1.3,0.6-1.3,1.7v7.7h-2.1v-16.4H179.2z"/>
			</g>
			<g>
				<path class="st14" d="M192.2,190.6L192.2,190.6c0.5-0.8,1.4-1.2,2.2-1.2c1.6,0,2.4,0.9,2.4,2.6v8.5h-2v-7.9c0-1-0.5-1.6-1.3-1.6
					c-0.8,0-1.3,0.6-1.3,1.6v7.9h-2v-10.9h2.1V190.6z"/>
			</g>
			<g>
				<path class="st14" d="M208.7,190.3c0.9,0.9,1.3,2.2,1.3,4.9c0,1.9-0.2,3.2-0.8,4.1c-0.6,0.9-1.5,1.4-2.6,1.4
					c-2.4,0-3.5-1.8-3.5-5.5c0-2.9,0.4-4.3,1.6-5.1c0.5-0.4,1.2-0.6,1.9-0.6h0.1C207.5,189.5,208.2,189.7,208.7,190.3z M205.2,194.2
					c0,2.2,0.1,3.5,0.3,4c0.2,0.5,0.5,0.7,1,0.7c1,0,1.3-0.8,1.3-3.3c0-3.7-0.3-4.6-1.3-4.6C205.6,191.1,205.2,191.9,205.2,194.2z"
					/>
			</g>
			<g>
				<path class="st14" d="M218.4,184.1v16.4h-2v-16.4H218.4z"/>
			</g>
			<g>
				<path class="st14" d="M230.4,190.3c0.9,0.9,1.3,2.2,1.3,4.9c0,1.9-0.2,3.2-0.8,4.1c-0.6,0.9-1.5,1.4-2.6,1.4
					c-2.4,0-3.5-1.8-3.5-5.5c0-2.9,0.4-4.3,1.6-5.1c0.5-0.4,1.2-0.6,1.9-0.6h0.1C229.1,189.5,229.8,189.7,230.4,190.3z M226.9,194.2
					c0,2.2,0.1,3.5,0.3,4c0.2,0.5,0.5,0.7,1,0.7c1,0,1.3-0.8,1.3-3.3c0-3.7-0.3-4.6-1.3-4.6C227.2,191.1,226.9,191.9,226.9,194.2z"
					/>
			</g>
			<g>
				<path class="st14" d="M242.1,199.1L242.1,199.1c-0.4,1-1.2,1.6-2.2,1.6c-0.8,0-1.5-0.5-1.9-1.3c-0.4-0.8-0.6-2.1-0.6-4.5
					c0-2.7,0.2-4,0.9-4.7c0.4-0.5,0.9-0.7,1.6-0.7c1,0,1.4,0.3,2.1,1.3h0.1v-1.1h2v12.3c0,2.2-1,3.2-3.3,3.2c-1.8,0-2.7-0.5-3.1-1.4
					c-0.2-0.5-0.3-0.8-0.3-1.8h2c0.1,1.3,0.5,1.8,1.4,1.8c0.8,0,1.3-0.5,1.3-1.3V199.1z M239.6,194.5c0,3.4,0.3,4.3,1.3,4.3
					c0.9,0,1.2-0.9,1.2-3.4c0-3.5-0.2-4.3-1.2-4.3C239.9,191.1,239.6,192.1,239.6,194.5z"/>
			</g>
			<g>
				<path class="st14" d="M252.8,186.3c0,0.6-0.5,1.1-1.1,1.1c-0.6,0-1.1-0.5-1.1-1.1s0.5-1.1,1.1-1.1
					C252.3,185.2,252.8,185.7,252.8,186.3z M252.7,189.6v10.9h-2v-10.9H252.7z"/>
			</g>
			<g>
				<path class="st14" d="M265.7,196.9c-0.1,2.6-1.1,3.8-3.2,3.8c-2.3,0-3.4-1.8-3.4-5.4c0-3.9,1.2-5.8,3.5-5.8
					c0.9,0,1.6,0.3,2.2,0.9c0.8,0.8,1.1,1.9,1.1,4.3v0.8h-4.6c0,2.8,0.3,3.6,1.4,3.6c0.9,0,1.2-0.6,1.2-2.2H265.7z M263.8,193.9
					c0-2.2-0.3-3-1.2-3c-1,0-1.3,0.7-1.3,3H263.8z"/>
			</g>
			<g>
				<path class="st14" d="M273.1,198.5c1,0.4,1.3,0.5,1.9,0.5c0.8,0,1.3-0.5,1.3-1.2c0-0.6-0.4-1.1-1.8-2.3
					c-0.2-0.1-0.3-0.2-0.5-0.4c-0.9-0.9-1.3-1.6-1.3-2.7c0-1.7,1.3-3,3-3c0.5,0,1.1,0.1,2,0.4v1.7l-0.1-0.1
					c-0.7-0.2-1.1-0.3-1.5-0.3c-0.9,0-1.4,0.5-1.4,1.2c0,0.6,0.4,1.1,1.5,2c0.4,0.4,0.6,0.5,0.9,0.8c0.8,0.9,1.2,1.6,1.2,2.5
					c0,1.7-1.3,3-3.1,3c-0.7,0-1.1-0.1-2-0.5V198.5z"/>
			</g>
		</g>
	</g>
</g>
<g id="Page-1">
	<g id="Artboard">
		<path id="Fill-1" class="st15" d="M-804.9,528.2h40.9c4.7,0,8.5,3.8,8.5,8.5v40.9c0,4.7-3.8,8.5-8.5,8.5h-40.9
			c-4.7,0-8.5-3.8-8.5-8.5v-40.9C-813.4,532-809.5,528.2-804.9,528.2"/>
		<path id="Fill-2" class="st16" d="M-737.4,528.2h40.9c4.7,0,8.5,3.8,8.5,8.5v40.9c0,4.7-3.8,8.5-8.5,8.5h-40.9
			c-4.7,0-8.5-3.8-8.5-8.5v-40.9C-745.9,532-742,528.2-737.4,528.2"/>
		<path id="Fill-3" class="st17" d="M-669.1,528.2h40.9c4.7,0,8.5,3.8,8.5,8.5v40.9c0,4.7-3.8,8.5-8.5,8.5h-40.9
			c-4.7,0-8.5-3.8-8.5-8.5v-40.9C-677.6,532-673.8,528.2-669.1,528.2"/>
		<path id="Fill-4" class="st18" d="M-601.3,528.2h40.9c4.7,0,8.5,3.8,8.5,8.5v40.9c0,4.7-3.8,8.5-8.5,8.5h-40.9
			c-4.7,0-8.5-3.8-8.5-8.5v-40.9C-609.7,532-605.9,528.2-601.3,528.2"/>
		<path id="Fill-5" class="st19" d="M-761.7,571.3c0,0.2-0.1,0.4-0.2,0.6c-0.1,0.2-0.3,0.3-0.6,0.4c-0.3,0.1-0.7,0.2-1.2,0.2
			c-0.5,0.1-1.2,0.1-2,0.1c-0.8,0-1.5,0-2-0.1c-0.5-0.1-0.9-0.1-1.2-0.2c-0.3-0.1-0.5-0.2-0.6-0.4c-0.1-0.2-0.2-0.3-0.2-0.6v-17
			c0-1-0.1-1.8-0.3-2.6c-0.2-0.8-0.5-1.5-0.8-2c-0.4-0.6-0.8-1-1.4-1.3c-0.6-0.3-1.2-0.5-2-0.5c-1,0-1.9,0.4-2.9,1.1
			c-1,0.8-2,1.8-3.2,3.3v19c0,0.2-0.1,0.4-0.2,0.6c-0.1,0.2-0.4,0.3-0.7,0.4c-0.3,0.1-0.7,0.2-1.2,0.2c-0.5,0.1-1.1,0.1-1.9,0.1
			c-0.8,0-1.4,0-1.9-0.1c-0.5-0.1-0.9-0.1-1.2-0.2c-0.3-0.1-0.5-0.2-0.7-0.4c-0.1-0.2-0.2-0.3-0.2-0.6v-17c0-1-0.1-1.8-0.3-2.6
			c-0.2-0.8-0.4-1.5-0.8-2c-0.4-0.6-0.8-1-1.4-1.3c-0.6-0.3-1.3-0.5-2-0.5c-1,0-2,0.4-3,1.1c-1,0.8-2,1.8-3.2,3.3v19
			c0,0.2-0.1,0.4-0.2,0.6c-0.1,0.2-0.4,0.3-0.7,0.4c-0.3,0.1-0.7,0.2-1.2,0.2c-0.5,0.1-1.2,0.1-2,0.1c-0.8,0-1.4,0-1.9-0.1
			c-0.5-0.1-0.9-0.1-1.2-0.2c-0.3-0.1-0.5-0.2-0.7-0.4c-0.1-0.2-0.2-0.3-0.2-0.6v-28.6c0-0.2,0.1-0.4,0.2-0.6
			c0.1-0.2,0.3-0.3,0.6-0.4c0.3-0.1,0.6-0.2,1.1-0.2c0.4-0.1,1-0.1,1.7-0.1c0.7,0,1.2,0,1.7,0.1c0.4,0.1,0.8,0.1,1,0.2
			c0.3,0.1,0.4,0.2,0.5,0.4c0.1,0.2,0.2,0.4,0.2,0.6v3.3c1.6-1.7,3.2-3,4.7-3.9c1.6-0.9,3.2-1.3,4.9-1.3c1.2,0,2.2,0.1,3.2,0.4
			c0.9,0.2,1.8,0.6,2.5,1.1c0.7,0.5,1.4,1,1.9,1.7c0.5,0.6,1,1.4,1.3,2.2c0.9-0.9,1.7-1.7,2.5-2.4c0.8-0.7,1.6-1.2,2.4-1.6
			c0.8-0.4,1.6-0.7,2.4-0.9c0.8-0.2,1.6-0.3,2.5-0.3c1.9,0,3.5,0.3,4.8,1c1.3,0.6,2.4,1.5,3.2,2.6c0.8,1.1,1.4,2.4,1.7,3.9
			c0.3,1.5,0.5,3,0.5,4.7V571.3"/>
		<path id="Fill-6" class="st19" d="M-708.5,554.8c0-1.2-0.1-2.4-0.3-3.5c-0.2-1.1-0.5-2.1-0.9-3c-0.4-0.9-1-1.6-1.7-2.1
			c-0.7-0.5-1.6-0.8-2.7-0.8c-0.5,0-1.1,0.1-1.6,0.2c-0.5,0.2-1.1,0.4-1.6,0.8c-0.5,0.4-1.1,0.8-1.7,1.4c-0.6,0.6-1.2,1.3-1.8,2.1
			v9.4c1.1,1.4,2.2,2.5,3.2,3.3c1,0.8,2.1,1.2,3.2,1.2c1.1,0,2-0.3,2.7-0.8c0.7-0.5,1.3-1.2,1.8-2.1c0.5-0.9,0.8-1.8,1.1-2.9
			C-708.6,557-708.5,555.9-708.5,554.8z M-700.1,554.3c0,2.5-0.3,4.8-0.8,6.9c-0.5,2-1.3,3.8-2.4,5.2c-1.1,1.4-2.4,2.5-3.9,3.3
			c-1.6,0.8-3.3,1.1-5.4,1.1c-0.8,0-1.6-0.1-2.3-0.2c-0.7-0.2-1.4-0.4-2-0.7c-0.6-0.3-1.3-0.7-1.9-1.2c-0.6-0.5-1.3-1.1-2-1.7v13.5
			c0,0.2-0.1,0.4-0.2,0.6c-0.1,0.2-0.3,0.3-0.7,0.4c-0.3,0.1-0.7,0.2-1.2,0.3c-0.5,0.1-1.2,0.1-2,0.1c-0.8,0-1.4,0-1.9-0.1
			c-0.5-0.1-0.9-0.2-1.2-0.3c-0.3-0.1-0.5-0.3-0.7-0.4c-0.1-0.2-0.2-0.4-0.2-0.6v-40c0-0.2,0.1-0.4,0.2-0.6c0.1-0.2,0.3-0.3,0.6-0.4
			c0.3-0.1,0.6-0.2,1.1-0.2c0.4-0.1,1-0.1,1.7-0.1c0.6,0,1.2,0,1.6,0.1c0.4,0.1,0.8,0.1,1,0.2c0.3,0.1,0.5,0.2,0.6,0.4
			c0.1,0.2,0.2,0.4,0.2,0.6v3.4c0.8-0.9,1.7-1.6,2.5-2.3c0.8-0.6,1.6-1.2,2.5-1.6c0.8-0.4,1.7-0.8,2.6-1c0.9-0.2,1.8-0.3,2.8-0.3
			c2.1,0,3.9,0.4,5.4,1.2c1.5,0.8,2.7,1.9,3.6,3.4c0.9,1.4,1.6,3.1,2,5C-700.3,550.1-700.1,552.1-700.1,554.3z"/>
		<path id="Fill-7" class="st19" d="M-644.6,578.3c0,0.2-0.1,0.4-0.2,0.6c-0.1,0.2-0.3,0.3-0.7,0.4c-0.3,0.1-0.7,0.2-1.2,0.2
			c-0.5,0.1-1.2,0.1-2,0.1c-0.8,0-1.4,0-1.9-0.1c-0.5-0.1-0.9-0.1-1.2-0.2c-0.3-0.1-0.5-0.2-0.7-0.4c-0.1-0.2-0.2-0.4-0.2-0.6v-42.2
			c0-0.2,0.1-0.4,0.2-0.6c0.1-0.2,0.3-0.3,0.7-0.4c0.3-0.1,0.7-0.2,1.2-0.3c0.5-0.1,1.2-0.1,1.9-0.1c0.8,0,1.4,0,2,0.1
			c0.5,0.1,0.9,0.2,1.2,0.3c0.3,0.1,0.5,0.3,0.7,0.4c0.1,0.2,0.2,0.4,0.2,0.6V578.3"/>
		<path id="Fill-8" class="st19" d="M-575.7,570.1l-3.5,10.1c-0.2,0.5-0.7,0.9-1.6,1.2c-0.9,0.2-2.1,0.3-3.8,0.3c-0.9,0-1.5,0-2-0.1
			c-0.5-0.1-0.9-0.2-1.2-0.4c-0.3-0.2-0.4-0.4-0.4-0.6c0-0.3,0-0.6,0.2-0.9l3.8-9.6c-0.3-0.1-0.5-0.3-0.8-0.6
			c-0.2-0.3-0.4-0.6-0.5-0.9l-9.8-26.3c-0.3-0.8-0.4-1.3-0.4-1.7c0-0.4,0.1-0.7,0.4-0.9c0.3-0.2,0.7-0.4,1.3-0.5
			c0.6-0.1,1.4-0.1,2.4-0.1c0.9,0,1.7,0,2.2,0c0.5,0,1,0.1,1.2,0.2c0.3,0.1,0.5,0.3,0.7,0.6c0.2,0.3,0.3,0.7,0.5,1.1l6.7,19.2h0.1
			l6.2-19.5c0.1-0.5,0.3-0.9,0.5-1.1c0.2-0.2,0.5-0.3,1-0.4c0.5-0.1,1.3-0.1,2.5-0.1c0.9,0,1.7,0,2.3,0.1c0.6,0.1,1.1,0.2,1.3,0.5
			c0.3,0.2,0.4,0.5,0.4,0.9c0,0.4-0.1,0.9-0.3,1.4L-575.7,570.1"/>
		<path id="Fill-9" class="st20" d="M-940,528.2h40.9c4.7,0,8.5,3.8,8.5,8.5v40.9c0,4.7-3.8,8.5-8.5,8.5H-940
			c-4.7,0-8.5-3.8-8.5-8.5v-40.9C-948.5,532-944.7,528.2-940,528.2"/>
		<path id="Fill-10" class="st19" d="M-907.5,563.3c0,1.6-0.3,3.1-0.9,4.3c-0.6,1.2-1.5,2.3-2.6,3.1c-1.1,0.8-2.4,1.5-4,1.9
			c-1.5,0.4-3.2,0.6-4.9,0.6c-1.1,0-2.1-0.1-3.1-0.2c-1-0.2-1.8-0.4-2.6-0.6c-0.8-0.3-1.4-0.5-1.9-0.8c-0.5-0.3-0.9-0.5-1.1-0.7
			c-0.2-0.2-0.4-0.6-0.5-1.1c-0.1-0.5-0.2-1.2-0.2-2.1c0-0.6,0-1.1,0.1-1.5c0-0.4,0.1-0.7,0.2-0.9c0.1-0.2,0.2-0.4,0.3-0.4
			c0.1-0.1,0.3-0.1,0.5-0.1c0.2,0,0.6,0.1,1,0.4c0.5,0.3,1,0.6,1.7,0.9c0.7,0.3,1.5,0.6,2.4,0.9c0.9,0.3,1.9,0.4,3.1,0.4
			c0.7,0,1.4-0.1,1.9-0.2c0.6-0.2,1.1-0.4,1.5-0.6c0.4-0.3,0.7-0.6,1-1.1c0.2-0.4,0.3-0.9,0.3-1.5c0-0.6-0.2-1.2-0.6-1.7
			c-0.4-0.5-0.9-0.9-1.6-1.2c-0.6-0.3-1.4-0.7-2.2-1c-0.8-0.3-1.7-0.6-2.5-1c-0.9-0.4-1.7-0.8-2.5-1.2c-0.8-0.5-1.6-1.1-2.2-1.7
			c-0.6-0.7-1.2-1.5-1.6-2.5c-0.4-1-0.6-2.1-0.6-3.5c0-1.4,0.3-2.6,0.8-3.8c0.5-1.1,1.3-2.1,2.3-2.9c1-0.8,2.2-1.4,3.7-1.9
			c1.4-0.5,3.1-0.7,4.9-0.7c0.9,0,1.8,0.1,2.6,0.2c0.8,0.1,1.6,0.3,2.3,0.5c0.7,0.2,1.3,0.4,1.7,0.6c0.5,0.2,0.8,0.4,1,0.6
			c0.2,0.2,0.3,0.3,0.4,0.5c0.1,0.2,0.2,0.4,0.2,0.6c0,0.2,0.1,0.5,0.1,0.8c0,0.3,0.1,0.7,0.1,1.2c0,0.6,0,1.1-0.1,1.4
			c0,0.4-0.1,0.7-0.2,0.9c-0.1,0.2-0.2,0.4-0.3,0.4c-0.1,0.1-0.3,0.1-0.4,0.1c-0.2,0-0.5-0.1-0.9-0.3c-0.4-0.2-0.9-0.5-1.5-0.7
			c-0.6-0.3-1.3-0.5-2.1-0.7c-0.8-0.2-1.7-0.3-2.7-0.3c-0.7,0-1.4,0.1-1.9,0.2c-0.5,0.2-1,0.4-1.3,0.6c-0.4,0.3-0.6,0.6-0.8,1
			c-0.2,0.4-0.2,0.8-0.2,1.2c0,0.7,0.2,1.2,0.6,1.7c0.4,0.4,0.9,0.8,1.6,1.2c0.7,0.3,1.4,0.7,2.3,1c0.8,0.3,1.7,0.6,2.6,1
			c0.9,0.4,1.7,0.8,2.6,1.2c0.8,0.5,1.6,1,2.3,1.7c0.7,0.7,1.2,1.5,1.6,2.5C-907.7,560.9-907.5,562-907.5,563.3"/>
		<path id="Fill-11" class="st21" d="M-873.1,528.2h40.9c4.7,0,8.5,3.8,8.5,8.5v40.9c0,4.7-3.8,8.5-8.5,8.5h-40.9
			c-4.7,0-8.5-3.8-8.5-8.5v-40.9C-881.6,532-877.8,528.2-873.1,528.2"/>
		<path id="Fill-12" class="st19" d="M-848,537.2c0,1.6-0.3,2.7-1,3.4c-0.7,0.6-1.9,0.9-3.7,0.9c-1.8,0-3-0.3-3.7-0.9
			c-0.6-0.6-1-1.7-1-3.2c0-1.6,0.3-2.7,1-3.4c0.6-0.6,1.9-1,3.7-1c1.8,0,3,0.3,3.7,0.9C-848.3,534.5-848,535.6-848,537.2z
			 M-848.6,571.7c0,0.2-0.1,0.4-0.2,0.6c-0.1,0.2-0.3,0.3-0.7,0.4c-0.3,0.1-0.7,0.2-1.2,0.2c-0.5,0.1-1.2,0.1-2,0.1
			c-0.8,0-1.4,0-1.9-0.1c-0.5-0.1-0.9-0.1-1.2-0.2c-0.3-0.1-0.5-0.2-0.7-0.4c-0.1-0.2-0.2-0.4-0.2-0.6v-24.8c0-0.2,0.1-0.4,0.2-0.6
			c0.1-0.2,0.3-0.3,0.7-0.4c0.3-0.1,0.7-0.2,1.2-0.3c0.5-0.1,1.2-0.1,1.9-0.1c0.8,0,1.4,0,2,0.1c0.5,0.1,0.9,0.2,1.2,0.3
			c0.3,0.1,0.5,0.3,0.7,0.4c0.1,0.2,0.2,0.3,0.2,0.6V571.7z"/>
	</g>
</g>
<path class="st22" d="M-849.5,370.6l-16-10.5l-43.7-26.9c3.3,3.7,5.9,8,7.6,12.6c1.2,3,2,6.1,2.4,9.3l32.8,20.5
	c1.2,0.8,1.5,2.5,0.7,3.7c0,0,0,0,0,0l-0.1,0.2l0,0l-0.1,0.1l-0.1,0.1h-0.1l-0.2,0.2l-31.7,19.3c-0.9,0.6-2,0.4-2.6-0.5c0,0,0,0,0,0
	c-0.2-0.3-0.3-0.7-0.3-1.1v-44c-0.4-2.7-1.2-5.4-2.1-8c-2.3-6.4-6.3-12-11.5-16.3l-1-0.7v82.8c0,4.5,3.7,8.1,8.1,8.1
	c1.6,0,3.1-0.5,4.4-1.3l53.7-33.5c4-2.6,5.1-7.9,2.5-11.9C-847.7,372-848.5,371.2-849.5,370.6z"/>
<linearGradient id="SVGID_1_" gradientUnits="userSpaceOnUse" x1="-915.7274" y1="1266.2572" x2="-845.6191" y2="1266.2572" gradientTransform="matrix(1 0 0 1 0 -892)">
	<stop  offset="0" style="stop-color:#5690FF;stop-opacity:0.99"/>
	<stop  offset="1" style="stop-color:#0052E0"/>
</linearGradient>
<path class="st23" d="M-849.5,370.6l-16-10.5c5.3,4.3,6.1,12.1,1.8,17.5c0,0,0,0-0.1,0.1c-0.6,0.8-1.3,1.4-2.1,2l0,0l-0.1,0.1
	l-0.1,0.1l0,0l-0.2,0.2l-22.8,13.4l0,0l-8.8,5.9c-0.8,0.6-2,0.5-2.7-0.3c0-0.1-0.1-0.1-0.1-0.2c-0.2-0.3-0.3-0.7-0.3-1.1v-44.1
	c-0.5-2.7-1.2-5.4-2.2-8c-2.3-6.4-6.3-12-11.5-16.3l-1-0.7v82.8c0,4.5,3.7,8.1,8.1,8.1c1.6,0,3.1-0.5,4.4-1.3l53.7-33.5
	c4-2.6,5.1-7.9,2.5-11.9C-847.7,372-848.5,371.2-849.5,370.6z"/>
<path class="st24" d="M-800.3,391.2h-7.7c-0.6,0-0.8-0.5-1-1l-6.8-12.7h-0.6c-1.1,0-2.6-0.1-3.5-0.1v12.8c0,0.5-0.5,1-1,1h-6.6
	c-0.5,0-1-0.5-1-1v-33.7c0-1.8,0.7-2.2,2.3-2.4c3.4-0.4,6.8-0.7,10.2-0.7c8.6,0,15.1,2.9,15.1,11.8v0.6c0.3,4.4-2.4,8.5-6.5,10.1
	l7.6,14.2c0.1,0.2,0.1,0.4,0.2,0.6C-799.6,390.9-799.8,391.2-800.3,391.2z M-809.4,365.1c0-3.1-2.4-4.5-6.6-4.5
	c-0.7,0-3.3,0.1-3.9,0.2v9.7l3.5,0.1c5.3,0,7-1.3,7-4.8V365.1z"/>
<path class="st24" d="M-771.4,379.3h-16v0.1c0,2.9,1.2,5.5,5.3,5.5c3.2,0,7.6-0.2,9.7-0.5h0.2c0.6,0,0.9,0.2,0.9,0.8v3.8
	c0,0.8-0.2,1.2-1.1,1.3c-3.4,0.9-6.8,1.3-10.3,1.2c-6.1,0-12.6-3.2-12.6-12.9v-3.5c0-8.1,4.7-13.2,12.7-13.2c8,0,12.5,5.6,12.5,13.2
	v2.9C-770.4,378.9-770.8,379.3-771.4,379.3z M-778.3,374.1c0-3.7-1.8-5.6-4.5-5.6c-2.8,0-4.6,1.9-4.6,5.6v0.2h9.2V374.1z"/>
<path class="st24" d="M-741.6,391.2h-6.2c-0.6,0-1-0.5-1-1.1v-17.7c0-2.2-0.4-3.8-3-3.8h-2.5c-2.6,0-3,1.6-3,3.8v17.7
	c0,0.6-0.4,1-1,1.1h-6.2c-0.5,0-1-0.5-0.9-1.1v-17.7c0-7,3.9-10.5,11.1-10.5h2.5c7.2,0,11.1,3.5,11.1,10.5v17.7
	C-740.6,390.7-741,391.1-741.6,391.2z"/>
<path class="st24" d="M-712.4,390.3c-3.5,0.8-7.1,1.3-10.7,1.3c-8.2,0-12.6-4.7-12.6-12.9v-3.9c0-7.9,4.1-12.9,12.6-12.9
	c1.4,0,2.8,0.2,4.1,0.4v-8.8c0-0.5,0.5-1,1-1h6c0.6,0,1,0.4,1.1,1v35.2C-710.9,389.7-711.1,390-712.4,390.3z M-719,369
	c-1.4-0.2-2.7-0.2-4.1-0.2c-3.5,0-4.5,2.6-4.5,6.1v3.9c0,3.5,1,6.2,4.5,6.2c1.4,0,2.8-0.1,4.1-0.3V369z"/>
<path class="st24" d="M-681.5,379.3h-16v0.1c0,2.9,1.2,5.5,5.3,5.5c3.2,0,7.6-0.2,9.7-0.5l0,0c0.6,0,0.9,0.2,0.9,0.8v3.8
	c0,0.8-0.2,1.2-1.1,1.3c-3.4,0.9-6.8,1.3-10.3,1.2c-6.1,0-12.6-3.2-12.6-12.9v-3.5c0-8.1,4.7-13.2,12.7-13.2c8,0,12.4,5.6,12.4,13.2
	v2.9C-680.5,378.9-680.8,379.3-681.5,379.3z M-688.4,374.1c0-3.7-1.8-5.6-4.5-5.6c-2.8,0-4.6,1.9-4.6,5.6v0.2h9.2V374.1z"/>
<path class="st24" d="M-662.5,368.8c-1.5,0-3,0.1-4.5,0.3v21.1c0,0.6-0.4,1-1,1.1h-6.1c-0.6,0-1-0.5-1.1-1.1V365
	c0-0.7,0.4-1.2,1.6-1.6c3.6-1.1,7.4-1.6,11.1-1.5c0.6,0,1.3,0.2,1.3,0.9v4.9C-661.2,368.3-661.5,368.8-662.5,368.8z"/>
<path class="st24" d="M-642.1,368.5h-6.8v21.7c0,0.6-0.5,1-1.1,1.1h-6.1c-0.6,0-1-0.5-1.1-1.1v-29.8c0-7,4.7-8.5,9.8-8.5
	c1.8,0,3.7,0.2,5.5,0.5c0.6,0.1,0.8,0.3,0.8,0.6v4.2c0,0.6-0.2,0.8-0.7,0.8h-5.3c-1.6,0-1.9,0.9-1.9,2.4v2h6.8c0.5,0,1,0.5,1,1v4
	C-641.1,367.9-641.5,368.4-642.1,368.5C-642.1,368.5-642.1,368.5-642.1,368.5L-642.1,368.5z"/>
<path class="st24" d="M-625,391.6c-8.2,0-12.6-5.1-12.6-13.1V375c0-8,4.5-13.1,12.6-13.1c8.2,0,12.6,5.1,12.6,13.1v3.5
	C-612.4,386.6-616.8,391.6-625,391.6z M-620.5,375c0-4.1-1.6-6.1-4.5-6.1s-4.5,2.1-4.5,6.1v3.5c0,4.1,1.6,6.2,4.5,6.2
	s4.5-2.1,4.5-6.2V375z"/>
<path class="st24" d="M-594.5,368.8c-1.5,0-3,0.1-4.5,0.3v21.1c0,0.6-0.4,1-1,1.1h-6.1c-0.6,0-1-0.5-1.1-1.1V365
	c0-0.7,0.4-1.2,1.6-1.6c3.6-1.1,7.4-1.6,11.1-1.5c0.6,0,1.3,0.2,1.3,0.9v4.9C-593.1,368.3-593.6,368.8-594.5,368.8z"/>
<path class="st24" d="M-565.7,379.3h-16v0.1c0,2.9,1.2,5.5,5.3,5.5c3.2,0,7.6-0.2,9.7-0.5h0.2c0.6,0,0.9,0.2,0.9,0.8v3.8
	c0,0.8-0.2,1.2-1.1,1.3c-3.4,0.9-6.8,1.3-10.3,1.2c-6.1,0-12.6-3.2-12.6-12.9v-3.5c0-8.1,4.7-13.2,12.7-13.2c8,0,12.4,5.6,12.4,13.2
	v2.9C-564.5,378.8-565,379.3-565.7,379.3z M-572.5,374.1c0-3.7-1.8-5.6-4.5-5.6s-4.6,1.9-4.6,5.6v0.2h9.2V374.1z"/>
<path class="st24" d="M-549.9,391.6c-3.1,0-6.2-0.4-9.2-1.1c-0.6-0.1-1-0.6-0.9-1.2v-4.1c0-0.5,0.4-0.9,0.9-0.9c0,0,0,0,0,0h0.2
	c2.7,0.4,7,0.7,8.6,0.7c2.4,0,3-0.6,3-2c0-0.8-0.5-1.3-1.9-2.1l-6.5-3.8c-2.8-1.4-4.5-4.3-4.5-7.4c0-5.1,3.4-7.8,10.3-7.8
	c3,0,6,0.4,9,1.2c0.6,0.1,1,0.6,0.9,1.2v4.1c0,0.6-0.3,0.9-0.8,0.9h-0.2c-2.8-0.4-5.6-0.6-8.3-0.6c-2,0-2.7,0.3-2.7,1.5
	c0,0.8,0.6,1.2,1.6,1.8l6.2,3.5c4.2,2.4,5.1,5,5.1,7.7C-539.2,387.9-542.6,391.6-549.9,391.6z"/>
<path class="st24" d="M-519.1,368.5h-6.9v14.9c0,1.8,0.8,2.1,3,2.1h3.8c0.6,0,1.1,0.3,1.1,0.9v3.9c0,0.6-0.4,0.9-1,1
	c-2,0.3-4,0.5-6,0.5c-5.6,0-9-1.8-9-8.3v-25.2c0-0.5,0.5-1,1-1l6.1-1.1h0.2c0.5,0.1,0.9,0.5,0.9,1v5.3h6.9c0.5,0,1,0.5,1,1v4.1
	C-518.1,367.9-518.5,368.4-519.1,368.5C-519.1,368.5-519.1,368.5-519.1,368.5L-519.1,368.5z"/>
<image style="overflow:visible;" width="888" height="150" xlink:href="DataArt_s_Logo_white.png"  transform="matrix(0.4469 0 0 0.4469 -915.3304 231.738)">
</image>
<g>
	<g>
		<defs>
			<path id="SVGID_2_" d="M-700.5,691.2c16.7,18.4,67.6,36.9,51.4-13.7l-4.9-2.1c-13.1-2.3-23.2-3.4-30.9-3.4
				C-708.6,672.1-709.1,681.5-700.5,691.2"/>
		</defs>
		<clipPath id="SVGID_3_">
			<use xlink:href="#SVGID_2_"  style="overflow:visible;"/>
		</clipPath>
		
			<linearGradient id="SVGID_4_" gradientUnits="userSpaceOnUse" x1="-138.1111" y1="523.5997" x2="-136.9534" y2="523.5997" gradientTransform="matrix(40.0524 -21.2962 21.2962 40.0524 -6309.9756 -23202.0469)">
			<stop  offset="0" style="stop-color:#00AEE6"/>
			<stop  offset="5.618000e-03" style="stop-color:#00AADE"/>
			<stop  offset="8.349428e-02" style="stop-color:#62A5D5"/>
			<stop  offset="0.2564" style="stop-color:#C391BF"/>
			<stop  offset="0.3483" style="stop-color:#EE83B2"/>
			<stop  offset="0.5843" style="stop-color:#EF9578"/>
			<stop  offset="0.6725" style="stop-color:#EE9476"/>
			<stop  offset="0.7508" style="stop-color:#EB9270"/>
			<stop  offset="0.8253" style="stop-color:#E68F65"/>
			<stop  offset="0.8974" style="stop-color:#E08B54"/>
			<stop  offset="0.9673" style="stop-color:#D9873D"/>
			<stop  offset="1" style="stop-color:#D58431"/>
		</linearGradient>
		<polygon class="st25" points="-732.4,684.3 -649.6,640.4 -609.7,715.7 -692.4,759.7 		"/>
	</g>
</g>
<g>
	<g>
		<defs>
			<path id="SVGID_5_" d="M-653.1,676l3.8,1.4c17-24-7.8-49.3-19.2-49.3C-676.7,628.1-678.1,640.9-653.1,676"/>
		</defs>
		<clipPath id="SVGID_6_">
			<use xlink:href="#SVGID_5_"  style="overflow:visible;"/>
		</clipPath>
		
			<linearGradient id="SVGID_7_" gradientUnits="userSpaceOnUse" x1="-120.5582" y1="544.9555" x2="-119.4006" y2="544.9555" gradientTransform="matrix(32.9743 20.6046 -20.6046 32.9743 14525.8701 -14846.9648)">
			<stop  offset="0" style="stop-color:#7E97C4"/>
			<stop  offset="0.3989" style="stop-color:#EF9347"/>
			<stop  offset="0.6968" style="stop-color:#ED9245"/>
			<stop  offset="0.8418" style="stop-color:#E68E3F"/>
			<stop  offset="0.9533" style="stop-color:#DB8836"/>
			<stop  offset="1" style="stop-color:#D58431"/>
		</linearGradient>
		<polygon class="st26" points="-665.3,607.5 -610.1,642 -645.1,698.1 -700.4,663.6 		"/>
	</g>
</g>
<g>
	<g>
		<defs>
			<path id="SVGID_8_" d="M-638.2,677.7l3.8-1.4c25.1-35.1,23.6-47.9,15.5-47.9C-630.4,628.4-655.2,653.6-638.2,677.7"/>
		</defs>
		<clipPath id="SVGID_9_">
			<use xlink:href="#SVGID_8_"  style="overflow:visible;"/>
		</clipPath>
		
			<linearGradient id="SVGID_10_" gradientUnits="userSpaceOnUse" x1="-84.6297" y1="522.5051" x2="-83.4721" y2="522.5051" gradientTransform="matrix(-32.9746 20.6048 20.6048 32.9746 -14166.166 -14846.8564)">
			<stop  offset="0" style="stop-color:#7E97C4"/>
			<stop  offset="0.3989" style="stop-color:#EF9347"/>
			<stop  offset="0.6968" style="stop-color:#ED9245"/>
			<stop  offset="0.8418" style="stop-color:#E68E3F"/>
			<stop  offset="0.9533" style="stop-color:#DB8836"/>
			<stop  offset="1" style="stop-color:#D58431"/>
		</linearGradient>
		<polygon class="st27" points="-622.2,607.8 -677.3,642.2 -642.4,698.3 -587.1,663.8 		"/>
	</g>
</g>
<g>
	<g>
		<defs>
			<path id="SVGID_11_" d="M-633.7,675.4l-4.9,2.1c-16.2,50.6,34.7,32.1,51.4,13.7c8.7-9.5,8.1-19.1-15.6-19.1
				C-610.5,672.1-620.6,673.1-633.7,675.4"/>
		</defs>
		<clipPath id="SVGID_12_">
			<use xlink:href="#SVGID_11_"  style="overflow:visible;"/>
		</clipPath>
		
			<linearGradient id="SVGID_13_" gradientUnits="userSpaceOnUse" x1="-106.0464" y1="540.6501" x2="-104.8888" y2="540.6501" gradientTransform="matrix(-40.05 -21.295 -21.295 40.05 6669.2568 -23200.6719)">
			<stop  offset="0" style="stop-color:#00AEE6"/>
			<stop  offset="5.618000e-03" style="stop-color:#00AADE"/>
			<stop  offset="8.349428e-02" style="stop-color:#62A5D5"/>
			<stop  offset="0.2564" style="stop-color:#C391BF"/>
			<stop  offset="0.3483" style="stop-color:#EE83B2"/>
			<stop  offset="0.5843" style="stop-color:#EF9578"/>
			<stop  offset="0.6725" style="stop-color:#EE9476"/>
			<stop  offset="0.7508" style="stop-color:#EB9270"/>
			<stop  offset="0.8253" style="stop-color:#E68F65"/>
			<stop  offset="0.8974" style="stop-color:#E08B54"/>
			<stop  offset="0.9673" style="stop-color:#D9873D"/>
			<stop  offset="1" style="stop-color:#D58431"/>
		</linearGradient>
		<polygon class="st28" points="-555.3,684.3 -638.1,640.4 -678,715.7 -595.4,759.7 		"/>
	</g>
</g>
<path class="st8" d="M-907.9,661.5c0,2.3-2.4,3.6-7.2,3.6h-11.5c-3,0-5.2-0.7-6.5-2.1l-8.1-9l-8.5,9.4c-1.2,1.4-3.4,2.1-6.5,2.1
	h-11.5c-4.7,0-7.1-1.2-7.1-3.6v-29.4c0-1.2,0.7-2,2.1-2.7c1.4-0.6,3.1-0.9,5-0.9c2,0,3.6,0.3,5,0.9c1.4,0.6,2.1,1.5,2.1,2.7V658
	l13-14.2c1.6-1.9,3.8-2.7,6.5-2.7s4.9,0.9,6.5,2.7l12.5,13.9v-25.6c0-1,0.7-2,2.2-2.7c1.3-0.6,2.9-0.9,4.9-0.9c1.9,0,3.6,0.3,5,0.9
	c1.4,0.6,2.1,1.5,2.1,2.5V661.5z"/>
<path class="st8" d="M-855.9,665.2h-19.8c-6.6,0-12.5-0.8-17.7-2.4c-5.7-1.7-8.7-3.9-9.1-6.5v-18.5c0-2.2,2-4.2,6-5.9
	c5-2.1,11.8-3.1,20.6-3.1h19.9c2.2,0,4.1,0.3,5.3,1.2c1.2,0.7,1.7,1.5,1.7,2.4s-0.6,1.7-1.7,2.4c-1.4,0.7-3.1,1-5.3,1h-19.7
	c-3.9,0-7.1,0.2-9.3,0.8c-2.3,0.6-3.5,1.2-3.5,2v16.8c0.3,0.9,2,1.6,4.7,2.1c2.3,0.5,5,0.7,7.9,0.7h19.8c2.2,0,4.1,0.3,5.3,1
	c1.2,0.7,1.7,1.5,1.7,2.4s-0.6,1.7-1.7,2.4C-851.9,664.9-853.6,665.2-855.9,665.2 M-867.5,646.8h-13.1c-2.2,0-3.9-0.3-5.2-1
	s-1.9-1.5-1.9-2.4s0.6-1.9,1.9-2.5c1.3-0.7,3-1,5.2-1h13.1c2.3,0,4.1,0.3,5.3,1c1.3,0.7,1.9,1.5,1.9,2.5c0,0.9-0.6,1.7-1.9,2.4
	S-865.2,646.8-867.5,646.8"/>
<path class="st8" d="M-790.1,655.4c0.1,2.2-2,4.2-6.1,6.1c-5.2,2.4-12,3.7-20.5,3.7h-19.9c-4.7,0-7.1-1.2-7.1-3.5v-29.4
	c0-2.3,2.3-3.6,7.1-3.6h19.9c6.6,0,12.4,0.7,17.5,2.1c5.6,1.5,8.7,3.6,9.3,6c0-0.1,0-0.1,0-0.2c0.2,0.5,0.3,1,0.3,1.6
	c0,2.1-1.7,3.9-5.2,5.6c2.9,1.4,4.5,3,4.9,4.9v6.7H-790.1z M-804.2,638.1l-0.1-0.3c-0.1-0.9-1.6-1.5-4.5-1.7
	c-0.9-0.1-3.6-0.1-8.1-0.1h-12.7v22.2h12.4c3.8,0,7.1-0.5,9.5-1.4c2.3-0.8,3.5-1.9,3.5-3v-3.9c-0.2-1.3-2-2.1-5.2-2.4
	c-1.4-0.2-5.4-0.3-12.3-0.3c-2.2,0-4.1-0.3-5.3-1.2c-1.2-0.6-1.9-1.4-1.9-2.4c0-0.9,0.6-1.7,1.9-2.4c1.3-0.7,3-1,5.2-1.2
	c3.5,0,7.5,0,12.3,0C-805.5,639.6-803.7,639.1-804.2,638.1"/>
<path class="st8" d="M-728.6,655.4c0.1,2.2-2,4.2-6.1,6.1c-5.2,2.4-12,3.7-20.5,3.7h-19.9c-4.7,0-7.1-1.2-7.1-3.5v-29.4
	c0-2.3,2.3-3.6,7.1-3.6h19.8c6.6,0,12.4,0.7,17.5,2.1c5.6,1.5,8.7,3.6,9.3,6c0-0.1,0-0.1,0-0.2c0.2,0.5,0.3,1,0.3,1.6
	c0,2.1-1.7,3.9-5.2,5.6c2.9,1.4,4.5,3,4.9,4.9V655.4z M-742.7,638.1l-0.1-0.3c-0.1-0.9-1.6-1.5-4.5-1.7c-0.9-0.1-3.6-0.1-8.1-0.1
	h-12.7v22.2h12.4c3.8,0,7.1-0.5,9.5-1.4c2.3-0.8,3.5-1.9,3.5-3v-3.9c-0.2-1.3-2-2.1-5.2-2.4c-1.4-0.2-5.4-0.3-12.3-0.3
	c-2.2,0-4.1-0.3-5.3-1.2c-1.2-0.6-1.9-1.4-1.9-2.4c0-0.9,0.6-1.7,1.9-2.4c1.3-0.7,3-1,5.2-1.2c3.5,0,7.5,0,12.3,0
	C-744,639.6-742.3,639.1-742.7,638.1"/>
<path class="st8" d="M-948.9,684.3h-10.8c-2.1,0-3.8,0.2-5.1,0.7c-1.3,0.5-1.9,1-1.9,1.6v19.7c0,0.9-0.3,1.6-1.2,2.2
	c-0.8,0.6-1.6,0.8-2.8,0.8c-1,0-2-0.2-2.7-0.8c-0.8-0.6-1.2-1.3-1.2-2.2v-20.3c0-1.9,1.2-3.6,3.4-5c2.7-1.9,6.5-2.7,11.3-2.7h10.8
	c1.2,0,2.2,0.3,2.9,0.9c0.6,0.6,0.9,1.3,0.9,2.1s-0.3,1.5-0.9,2.1C-946.7,684-947.6,684.3-948.9,684.3 M-955.3,693.7h-7.2
	c-1.2,0-2.2-0.3-2.9-0.9s-1-1.3-1-2.1c0-0.8,0.3-1.5,1-2.1s1.6-0.9,2.9-0.9h7.2c1.3,0,2.2,0.3,2.9,0.9c0.7,0.6,1,1.3,1,2.1
	c0,0.8-0.3,1.5-1,2.1C-952.9,693.5-954,693.7-955.3,693.7"/>
<path class="st8" d="M-913.1,701.8c0,1.9-1.2,3.6-3.4,5.1c-2.7,1.7-6.5,2.7-11.3,2.7c-3.6,0-6.8-0.6-9.6-2c-3.1-1.5-4.7-3.4-5-5.7
	v-16.1c0-2,1.2-3.7,3.4-5.2c2.7-1.7,6.4-2.5,11.2-2.7c3.6,0,6.9,0.7,10,2.2s4.6,3.4,4.9,5.6v16.1H-913.1z M-920.9,701.1v-14.4
	c-0.1-0.9-0.9-1.6-2.4-2.1c-1.3-0.3-2.8-0.6-4.5-0.6c-4.6,0.1-6.8,0.9-6.8,2.4v14.6c0.2,0.8,1,1.4,2.5,1.9c1.3,0.3,2.7,0.6,4.3,0.6
	c2.2,0,3.8-0.2,5.1-0.7C-921.5,702.4-920.9,701.8-920.9,701.1"/>
<path class="st8" d="M-886.8,693.9c0.2,0.5,0.3,0.9,0.3,1.4c0,0.8-0.3,1.5-1.2,2.1c-0.8,0.6-1.7,0.8-2.8,0.8c-1.5,0-2.7-0.6-3.4-1.7
	l-6.9-11.6v21.5c0,0.9-0.3,1.6-1.2,2.2c-0.8,0.6-1.6,0.8-2.7,0.8c-1,0-2-0.2-2.7-0.8c-0.8-0.6-1.2-1.3-1.2-2.3v-25c0-2,1.3-3,3.8-3
	h6.3c1.6,0,2.8,0.6,3.5,1.7L-886.8,693.9z M-878.5,706.4c0,0.9-0.3,1.6-1.2,2.2c-0.8,0.6-1.6,0.8-2.7,0.8c-1,0-2-0.2-2.7-0.8
	c-0.8-0.6-1.2-1.3-1.2-2.2v-25.1c0-0.9,0.3-1.6,1.2-2.2c0.8-0.6,1.6-0.8,2.7-0.8c1,0,2,0.2,2.7,0.8c0.8,0.6,1.2,1.3,1.2,2.2V706.4z"
	/>
<path class="st8" d="M-849.5,684.4h-21.6c-1.2,0-2.2-0.3-2.9-0.9s-1-1.3-1-2.1s0.3-1.5,1-2.1s1.6-0.9,2.9-0.9h21.6
	c1.2,0,2.2,0.3,2.9,0.9c0.6,0.6,0.9,1.3,0.9,2.1s-0.3,1.5-0.9,2.1C-847.3,684.1-848.2,684.4-849.5,684.4 M-856.6,709.7
	c-2.7,0-5-0.6-7.2-1.5c-2.3-1.2-3.6-2.5-3.8-4.2v-16.2c0-0.9,0.3-1.7,1.2-2.3c0.7-0.5,1.6-0.8,2.7-0.8c1,0,2,0.2,2.7,0.8
	c0.8,0.6,1.2,1.3,1.2,2.2v14.7c0.1,0.3,0.6,0.6,1.3,0.8c0.7,0.2,1.4,0.3,2,0.3c1.2,0,2.2,0.3,2.8,0.9c0.7,0.6,1,1.3,1,2.1
	c0,0.8-0.3,1.5-1,2.1C-854.4,709.3-855.4,709.7-856.6,709.7"/>
<path class="st8" d="M-813,706.3c0,0.9-0.3,1.7-1.2,2.3c-0.8,0.6-1.6,0.8-2.7,0.8c-1,0-2-0.2-2.8-0.8c-0.8-0.6-1.2-1.3-1.2-2.3
	v-20.4c0-1.3-2.2-2-6.7-1.9c-4.6,0-6.9,0.6-6.9,1.6v20.6c0,0.9-0.3,1.7-1.2,2.3s-1.6,0.8-2.8,0.8c-1,0-2-0.2-2.7-0.8
	c-0.8-0.6-1.2-1.3-1.2-2.3v-20.6c0-1.9,1-3.5,3.2-5c2.7-1.7,6.4-2.7,11.2-2.8c3.6-0.1,6.7,0.6,9.6,2c3.1,1.5,4.7,3.4,5,5.6v20.8
	H-813z M-825.1,693.8h-5.1c-1.2,0-2.2-0.3-2.9-0.9s-1-1.3-1-2.1c0-0.8,0.3-1.5,1-2.1s1.6-0.9,2.9-0.9h5.1c1.2,0,2.2,0.3,2.9,0.9
	c0.6,0.6,0.9,1.3,0.9,2.1c0,0.8-0.3,1.5-0.9,2.1C-822.9,693.5-824,693.8-825.1,693.8"/>
<path class="st8" d="M-798.5,706.4c0,1-0.3,1.9-1.2,2.4s-1.7,0.9-2.8,0.9c-1,0-2-0.2-2.7-0.8c-0.7-0.6-1.2-1.4-1.2-2.4v-25.2
	c0-0.9,0.3-1.7,1.2-2.3s1.6-0.8,2.7-0.8c1,0,2,0.2,2.8,0.8c0.7,0.6,1.2,1.3,1.2,2.3V706.4z"/>
<path class="st8" d="M-769.9,693.9c0.2,0.5,0.3,0.9,0.3,1.4c0,0.8-0.3,1.5-1.2,2.1c-0.8,0.6-1.7,0.8-2.8,0.8c-1.5,0-2.7-0.6-3.4-1.7
	l-6.9-11.6v21.5c0,0.9-0.3,1.6-1.2,2.2s-1.6,0.8-2.7,0.8c-1,0-2-0.2-2.7-0.8c-0.8-0.6-1.2-1.3-1.2-2.3v-25c0-2,1.3-3,3.8-3h6.3
	c1.6,0,2.8,0.6,3.5,1.7L-769.9,693.9z M-761.5,706.4c0,0.9-0.3,1.6-1.2,2.2c-0.8,0.6-1.6,0.8-2.7,0.8c-1,0-2-0.2-2.7-0.8
	c-0.8-0.6-1.2-1.3-1.2-2.2v-25.1c0-0.9,0.3-1.6,1.2-2.2c0.8-0.6,1.6-0.8,2.7-0.8s2,0.2,2.7,0.8c0.8,0.6,1.2,1.3,1.2,2.2V706.4z"/>
<path class="st8" d="M-732.1,709.4h-10.8c-3.6,0-6.8-0.7-9.6-2.1c-3.1-1.5-4.7-3.4-5-5.6v-15.7c0-1.9,1.2-3.6,3.4-5
	c2.7-1.9,6.5-2.7,11.2-2.7h10.9c1.2,0,2.2,0.3,2.9,0.9c0.6,0.6,0.9,1.3,0.9,2.1s-0.3,1.5-0.9,2.1c-0.7,0.6-1.7,0.9-2.9,0.9h-10.8
	c-2.1,0-3.8,0.2-5.1,0.7c-1.3,0.5-1.9,1-1.9,1.6V701c0.2,0.8,1,1.4,2.5,1.7c1.3,0.3,2.7,0.6,4.3,0.6h10.8c1.2,0,2.2,0.3,2.9,0.9
	c0.6,0.6,0.9,1.3,0.9,2.1c0,0.8-0.3,1.5-0.9,2.1C-730,709.1-730.9,709.4-732.1,709.4 M-738.4,693.7h-7.2c-1.2,0-2.2-0.3-2.8-0.9
	c-0.7-0.6-1-1.3-1-2.1c0-0.8,0.3-1.5,1-2.1c0.7-0.6,1.6-0.9,2.8-0.9h7.2c1.3,0,2.2,0.3,2.9,0.9s1,1.3,1,2.1c0,0.8-0.3,1.5-1,2.1
	C-736.2,693.5-737.2,693.7-738.4,693.7"/>
<path class="st8" d="M222.3,370.8c0.3-0.8,0.2-1.7-0.2-2.5c-0.5-0.8-1.3-1.4-2.1-1.5c-1.5-13.8,2.3-27.1,9.7-37.2
	c11,6.3,19.7,17.1,23.9,30.5c-0.7,1-0.8,2.2-0.2,3.3c0.1,0.1,0.2,0.3,0.3,0.4c-4.4,3.4-9.5,5.9-15.3,7.1c-2.6,0.5-5.2,0.8-7.7,0.8
	C227.8,371.7,225,371.4,222.3,370.8 M197.1,326c0.7-0.4,1.3-1.1,1.5-1.8c9.8-1.9,19.7-0.4,28.3,3.9c-7.8,10.8-11.6,24.9-9.8,39.6
	c-0.4,0.4-0.6,0.8-0.7,1.3c-11.2-4.6-20.1-14.5-22.8-27.2c-1.1-5.5-1-11,0.1-16.1c0.6,0.5,1.3,0.7,1.9,0.7
	C196.2,326.4,196.7,326.2,197.1,326 M259.7,312.7c0.5-0.3,1-0.7,1.3-1.3c3.1,4.2,5.4,9.2,6.6,14.6c2.7,12.5-1.2,24.9-9.3,33.6
	c-0.5-0.5-1.2-0.8-1.9-0.8c-4.3-13.9-13.4-25-24.6-31.7c6.2-7.4,14.5-12.7,24.3-14.8c0.6,0.6,1.4,0.9,2.2,0.9
	C258.7,313.1,259.2,312.9,259.7,312.7 M222.7,296.9c12.9-2.7,25.7,1.5,34.5,10.1c-0.2,0.1-0.3,0.1-0.5,0.2c-0.7,0.4-1.3,1.1-1.4,1.8
	c-10.6,2.4-19.7,8.3-26.3,16.4c-9.5-4.9-20.3-6.7-31.1-4.5c-0.7-0.6-1.5-0.9-2.4-0.8C199.9,308.7,209.8,299.7,222.7,296.9
	 M230.6,292.9c-2.8,0-5.6,0.3-8.5,0.9c-22.1,4.7-36.3,26.5-31.6,48.6c4.1,19.3,21.1,32.5,40,32.5h0.1c2.8,0,5.6-0.3,8.5-0.9
	c22.1-4.7,36.3-26.5,31.6-48.6c-4.1-19.3-21.1-32.5-40-32.5H230.6z"/>
<path class="st8" d="M220.1,311.7c0,3.2,2.6,5.9,5.9,5.9c3.2,0,5.9-2.6,5.9-5.9c0-3.2-2.6-5.9-5.9-5.9
	C222.7,305.9,220.1,308.5,220.1,311.7"/>
<path class="st8" d="M319.4,313.2c-1,0.8-1.7,2-2.3,3.6l-9.3,30.5l-9.1-30.3c-0.5-1.7-1.3-2.9-2.3-3.7c-1-0.8-2.3-1.2-3.9-1.2
	c-0.9,0-1.9,0.1-2.8,0.2c-0.9,0.1-1.6,0.3-2.1,0.5l15,44.6h10.1l15.2-44.6c-1.7-0.4-3.2-0.7-4.5-0.7
	C321.7,312.1,320.4,312.4,319.4,313.2"/>
<path class="st8" d="M333.7,325.3c-0.7,0-1.1,0.1-1.2,0.1v26.7c0,1.9,0.4,3.3,1.3,4.2c0.9,0.9,2.4,1.3,4.5,1.3
	c1.8,0,2.9-0.1,3.2-0.3v-26.9c0-3.5-2-5.3-6-5.3C335,325.2,334.3,325.2,333.7,325.3 M333.2,311.3c-0.9,0.9-1.3,2.1-1.3,3.5
	c0,1.4,0.4,2.5,1.3,3.5c0.9,0.9,2.1,1.3,3.5,1.3c1.4,0,2.5-0.4,3.5-1.3c0.9-0.9,1.4-2.1,1.4-3.5c0-1.4-0.5-2.5-1.4-3.5
	c-0.9-0.9-2.1-1.4-3.5-1.4C335.3,309.9,334.1,310.4,333.2,311.3"/>
<path class="st8" d="M358.7,328.7c-0.5-2.3-2.4-3.5-5.7-3.5c-0.8,0-1.5,0-2.2,0.1l-0.8,0.1V357h9.1v-21.6c0-1,0.6-1.9,1.7-2.5
	c1.2-0.7,2.6-1.1,4.3-1.1c1.2,0,2.1,0.2,2.8,0.6c0.7,0.4,1.2,1,1.5,1.8c0.3,0.8,0.5,2.3,0.5,4.4V357h9.1v-18.8c0-3-0.2-5.3-0.5-6.9
	c-0.5-2.3-1.6-4-3.2-5.1s-3.9-1.7-6.7-1.7C364,324.5,360.8,325.9,358.7,328.7"/>
<path class="st8" d="M396.8,332.5c1.1-1.3,2.5-1.9,4.4-1.9c3.8,0,5.7,2.4,5.7,7.2h-11.7C395.2,335.6,395.8,333.8,396.8,332.5
	 M393.6,326.5c-2.3,1.3-4.1,3.1-5.5,5.5c-1.3,2.4-1.9,5.3-1.9,8.7c0,5.7,1.4,10,4.3,13c2.9,3,7.1,4.5,12.5,4.5c2,0,4-0.2,5.7-0.7
	c1.8-0.4,3.2-1.1,4.3-1.9c1.1-0.8,1.7-1.7,1.7-2.7c0-0.6-0.3-1.4-0.8-2.3c-0.5-1-1.1-2-1.7-2.8c-0.5,0.5-1.2,1-1.9,1.6
	c-0.7,0.5-1.6,1-2.7,1.4c-1,0.4-2.3,0.6-3.7,0.6c-2.6,0-4.7-0.7-6.1-2.2c-1.5-1.5-2.3-3.6-2.5-6.3h19.6c0.1-0.6,0.2-2,0.2-4.1
	c0-4.4-1.2-7.8-3.6-10.3c-2.4-2.5-5.7-3.8-10.1-3.8C398.5,324.5,395.9,325.2,393.6,326.5"/>
<path class="st8" d="M422.5,315.4l-1,0.1v30.9c0,2.4,0.2,4.3,0.7,5.7c1.4,3.9,4.6,5.8,9.7,5.8c1.7,0,3.2-0.2,4.7-0.7
	c1.5-0.4,2.7-1,3.6-1.7c0.9-0.8,1.4-1.6,1.4-2.4c0-0.5-0.2-1.1-0.5-1.8c-0.3-0.7-0.8-1.6-1.6-2.7c-0.7,0.7-1.5,1.2-2.4,1.7
	s-1.8,0.7-2.7,0.7c-2.5,0-3.8-1.6-3.8-4.7v-14.3h9.3v-6.8h-9.3v-4.7c0-3.6-2-5.3-6-5.3C424,315.3,423.3,315.3,422.5,315.4"/>
<path class="st8" d="M448,325.3c-0.7,0-1.1,0.1-1.2,0.1v26.7c0,1.9,0.4,3.3,1.3,4.2c0.9,0.9,2.4,1.3,4.5,1.3c1.8,0,2.9-0.1,3.2-0.3
	v-26.9c0-3.5-2-5.3-6-5.3C449.3,325.2,448.7,325.2,448,325.3 M447.5,311.3c-0.9,0.9-1.3,2.1-1.3,3.5c0,1.4,0.4,2.5,1.3,3.5
	c0.9,0.9,2.1,1.3,3.5,1.3c1.4,0,2.5-0.4,3.5-1.3c0.9-0.9,1.4-2,1.4-3.3v-0.3c0-1.3-0.5-2.4-1.4-3.3c-0.9-0.9-2.1-1.4-3.5-1.4
	C449.7,309.9,448.5,310.4,447.5,311.3"/>
</svg>
