<?xml version="1.0" encoding="utf-8"?>
<!-- Generator: Adobe Illustrator 23.0.3, SVG Export Plug-In . SVG Version: 6.00 Build 0)  -->
<svg version="1.1" id="Layer_1" xmlns="http://www.w3.org/2000/svg" xmlns:xlink="http://www.w3.org/1999/xlink" x="0px" y="0px"
	 viewBox="0 0 400 102.2" style="enable-background:new 0 0 400 102.2;" xml:space="preserve">
<style type="text/css">
	.st0{fill-rule:evenodd;clip-rule:evenodd;fill:#00A8BC;}
	.st1{display:none;fill-rule:evenodd;clip-rule:evenodd;fill:#00A8BC;}
	.st2{display:none;}
	.st3{display:inline;fill-rule:evenodd;clip-rule:evenodd;fill:#FFFFFF;}
	.st4{display:inline;fill:#FFFFFF;}
</style>
<rect x="216.7" y="34.8" class="st0" width="11.3" height="36.4"/>
<polygon class="st0" points="273.4,34.8 235.3,34.8 235.3,44.3 248.7,44.3 248.7,71.2 260,71.2 260,44.3 273.4,44.3 "/>
<rect x="335.2" y="34.8" class="st0" width="11.3" height="36.4"/>
<path class="st0" d="M386.8,34.8v20.8l-22.3-18.8c-4.5-4.1-10.7-1.6-10.7,4.8v29.6h10.2V49.8l22.3,19.4c4.4,4.2,10.7,1.5,10.7-4.9
	V34.8H386.8z"/>
<path class="st0" d="M134.7,46c-1.1-2.3-2.6-4.2-4.6-5.9c-1.9-1.7-4.2-2.9-6.9-3.9c-2.7-0.9-5.6-1.4-8.8-1.4H89.5v27.7v8.6h24.9
	c3.2,0,6.1-0.4,8.8-1.3c2.7-0.8,5-2.1,6.9-3.6s3.5-3.5,4.6-5.7c1.1-2.2,1.7-4.6,1.7-7.3S135.8,48.3,134.7,46L134.7,46z M124.3,56.4
	c-0.5,1.1-1.3,2-2.3,2.8c-1,0.8-2.1,1.4-3.4,1.8c-1.3,0.4-2.7,0.7-4.2,0.7h-13.8V44.2h13.8c1.6,0,3,0.2,4.3,0.6
	c1.3,0.4,2.4,1,3.4,1.8c1,0.8,1.7,1.7,2.2,2.7s0.8,2.3,0.8,3.6C125.1,54.2,124.8,55.4,124.3,56.4z"/>
<path class="st0" d="M291.2,38.9l-23.3,32.3h13.3l17.1-24.1l6,8.6h-7.1l-6.6,9.3h20.2l4.3,6.2h13.4l-22.7-32.3
	C301.8,33.3,295.1,33.5,291.2,38.9z"/>
<path class="st0" d="M198.1,51.7v10.1h-13.8c-1.6,0-3-0.2-4.3-0.6c-1.3-0.4-2.4-1-3.4-1.8c-1-0.8-1.7-1.7-2.2-2.7
	c-0.5-1.1-0.8-2.3-0.8-3.6s0.3-2.5,0.8-3.6c0.5-1.1,1.3-2,2.3-2.8c1-0.8,2.1-1.4,3.4-1.8c1.3-0.4,2.7-0.7,4.2-0.7h11.4v0h13.5v-9.5
	h-24.9c-3.2,0-6.1,0.4-8.8,1.3c-2.7,0.8-5,2.1-6.9,3.6c-1.9,1.6-3.5,3.5-4.6,5.7c-1.1,2.2-1.7,4.6-1.7,7.3s0.6,5.1,1.7,7.4
	c1.1,2.3,2.6,4.2,4.6,5.9s4.2,2.9,6.9,3.9c2.7,0.9,5.6,1.4,8.8,1.4h24.9V51.7H198.1z"/>
<rect x="143.7" y="34.8" class="st0" width="11.3" height="36.4"/>
<path class="st0" d="M47.1,25.9c1.7,1.9,3.4,3.8,4.8,5.9c0.8,1.2,1.1,2.3,2.6,2.7c1.1,0.3,6.6,0.6,7.4-0.8c1-1.8-4.2-5.9-5.2-6.7
	c-1.3-1.1-2.8-2.5-4.4-3c-0.9-0.3-2.4-0.5-3.3-0.4c-1.2,0.2-0.6,0.3-0.9,0.5c-0.6,0.5-1.8-0.1-1.7,0.7
	C46.5,25.3,46.8,25.5,47.1,25.9L47.1,25.9z M30.7,85.9c-1.7-1.2-3.2-2.4-5.2-2.8c-0.8-0.2-2.4,0.2-2.8-0.9c-0.4-1.3,1.9-1.1,2.8-1.2
	c1.6-0.2,2.2,0.1,1.7-1.6c-0.3-1.1-1.8-2.4-2.9-2.6c-1.4-0.3-2.9,0.4-4.4,0.1c-1.9-0.4-3.3-1.5-4.9-2.5c-1.3-0.8-4.3-2.1-3.6,0.6
	c0.3,1.1,1.8,2.3,2.5,3C18.4,82.3,24.7,84.6,30.7,85.9L30.7,85.9z M6.5,67.9c-2-3.9-3.2-8.1-3.6-12.5c0.3,0.9,1,4.4,2.1,4.6
	c1.6,0.2,3.3-5.2,4.2-6.4c4.2-5.9,11.1-1.5,14.2,3.2c2.7,4.1,3.8,13.7-1.8,16.4c-2.7,1.3-6.3-0.6-8.5-2.1
	C11.3,69.9,8.9,67.3,6.5,67.9L6.5,67.9z M3.5,52.9c0.8,3,1.8,1.6,2.7-0.3c0.6-1.3,0.9-2.8,1.6-4c0.8-1.2,1.8-1.5,3-2.2
	c2.2-1.3,4.3-4.7,0.1-5c-1.2-0.1-6.4,3-6.5,1.6C3.2,46.2,2.7,49.6,3.5,52.9L3.5,52.9z M5.3,40.4c3.2-1.2,3.9-2.9,5.3-5.9
	c0.7-1.5,4.2-5.4,3.8-6.7C10.6,31.3,7.2,35.6,5.3,40.4L5.3,40.4z M21.6,24.5c-2.3,0.2-0.8-1.3,0.1-1.7c2.5-1.3,5.7-1.9,8.3-2.5
	c3.8-0.9,7.7-0.8,11.6-0.1c1,0.2,6.2,0.9,6.6,2.1c0.2,0.6-5.4,0.7-5.7,0.7c-2.4,0-4.7,0.2-7.1,0.6C30.8,24.5,26.4,24.6,21.6,24.5
	L21.6,24.5z M18.4,39c-7.9,2.9-6.1-6.1-3-9.8c3.1-3.8,7.7-2.8,12.2-2.2c4.2,0.6,7.8-0.6,11.9-1.1c4.3-0.5,6.2,2.2,8,5.7
	c0.4,0.8,1.7,2.6,1.5,3.6c-0.4,1.3-3.4,1.5-4.4,1.8c-4.2,1-8.6,1.8-12.9,1.6C27.1,38.4,22.8,37.2,18.4,39L18.4,39z M35.9,86.1
	c-1.2-0.2-7-1.1-7-2.8c0-1.8,7.3,0.6,8.4,0.8c4,0.8,8-0.5,11.8-1.7c2.7-0.9,3.7-1.4,6-2.8c0.8-0.5,1.5-0.8,1.8-0.7
	c0.1,0-0.5,0.5-1.3,1.1c-2.8,2.1-5.7,3.5-9,4.7C43.2,85.9,39.6,86.8,35.9,86.1L35.9,86.1z M30.3,79.1c-2.1-2.8-3.3-9.6,2-9.8
	c3.4-0.2,6.5,2.4,8.2,5.1c1.1,1.8,1.7,4,3.2,5.6c1.2,1.3,3.2,1.4,1,2.4C40.8,84.3,33,82.7,30.3,79.1L30.3,79.1z M66.2,53.6
	c-1,2.6-2.7,3.7-4.7,5.4c-1.6,1.4-1.4,3.7-1.6,5.7c-0.6,4.6-2,8.9-4.1,13.1c0.4,1.6,4.6-2.2,5-2.7c1.5-1.9,3.1-3.8,4.4-5.9
	c1.9-3.3,3.2-7,3.7-10.8c0.1-0.8,0.9-10.8-0.4-10.9C67.5,47.3,66.3,53.1,66.2,53.6L66.2,53.6z M28.2,60.9
	c-3.8-8.3,11.6-4.4,15.3-2.5c1.4,0.7,2.8,1.6,4.2,2.2c2.3,1,3.8,0.2,6.2,0.4c3.6,0.3,1.8,6.9,1.4,9.3c-0.5,3.1-1.2,9.7-5.3,9.7
	c-4.3-0.1-4.6-4.4-5.9-7.4C41.2,66.3,30.9,66.8,28.2,60.9L28.2,60.9z M21,42.7c-5.1,1.4-0.6,5.8,2,7.4c2.6,1.6,5.9,1.6,8.9,1.3
	c3.8-0.4,6.5-1.1,10.2,0.8c3.2,1.6,5.9,3.8,9.6,4c5.2,0.2,11.7-1.6,13.6-6.8c0.5-1.3,0.6-2.6,1-3.9c0.2-0.9,1.1-1.6,1.3-2.5
	c0.1-0.5-2.5-7.1-3.5-6.7c0.1,0,0,1.3-0.3,1.6c-0.4,0.4-2.6,0.6-3.1,0.7c-1.6,0.1-3.1,0-4.8,0.3c-4,0.7-8,1.8-12,2.6
	c-3.5,0.7-7.3,2-10.9,1.8C29.8,43,24.5,41.7,21,42.7z"/>
<rect x="-16.7" y="134.1" class="st1" width="841.9" height="297.6"/>
<g class="st2">
	<rect x="425.6" y="259.6" class="st3" width="14.5" height="46.7"/>
	<polygon class="st3" points="498.5,259.6 449.6,259.6 449.6,271.7 466.8,271.7 466.8,306.3 481.2,306.3 481.2,271.7 498.5,271.7 	
		"/>
	<rect x="577.8" y="259.6" class="st3" width="14.5" height="46.7"/>
	<path class="st3" d="M644.1,259.6v26.7l-28.6-24.2c-5.8-5.3-13.7-2-13.7,6.2v38H615v-27.4l28.6,24.9c5.6,5.4,13.8,2,13.8-6.3v-37.9
		L644.1,259.6L644.1,259.6z"/>
	<path class="st3" d="M320.3,273.9c-1.4-2.9-3.4-5.4-5.9-7.5s-5.5-3.8-8.9-5c-3.4-1.2-7.2-1.8-11.2-1.8h-32v35.6v11.1h32
		c4,0,7.8-0.5,11.2-1.6c3.4-1.1,6.4-2.6,8.9-4.7c2.5-2,4.4-4.4,5.9-7.3c1.4-2.8,2.1-5.9,2.1-9.3C322.4,280,321.7,276.8,320.3,273.9
		L320.3,273.9z M307,287.3c-0.7,1.4-1.7,2.6-2.9,3.6c-1.2,1-2.7,1.8-4.4,2.4c-1.7,0.6-3.5,0.8-5.4,0.8h-17.7v-22.5h17.7
		c2,0,3.8,0.3,5.5,0.8s3.1,1.3,4.4,2.3c1.2,1,2.2,2.1,2.9,3.5c0.7,1.4,1,2.9,1,4.6C308.1,284.4,307.7,286,307,287.3z"/>
	<path class="st3" d="M521.4,264.8l-29.9,41.5h17.1l21.9-31l7.7,11.1h-9.2l-8.5,12h26l5.5,7.9h17.2l-29.2-41.5
		C535,257.6,526.4,257.9,521.4,264.8z"/>
	<path class="st3" d="M401.7,281.3v13h-17.7c-2,0-3.8-0.3-5.5-0.8s-3.1-1.3-4.4-2.3c-1.2-1-2.2-2.1-2.9-3.5c-0.7-1.4-1-2.9-1-4.6
		s0.4-3.2,1-4.6c0.7-1.4,1.7-2.6,2.9-3.6c1.2-1,2.7-1.8,4.4-2.4c1.7-0.6,3.5-0.8,5.4-0.8h14.7v0h17.4v-12.1h-32
		c-4,0-7.8,0.5-11.2,1.6c-3.4,1.1-6.4,2.6-8.9,4.7c-2.5,2-4.4,4.4-5.9,7.3c-1.4,2.8-2.1,5.9-2.1,9.3s0.7,6.5,2.1,9.5
		s3.4,5.4,5.9,7.5s5.5,3.8,8.9,5c3.4,1.2,7.2,1.8,11.2,1.8h32v-25L401.7,281.3L401.7,281.3z"/>
	<rect x="332" y="259.6" class="st3" width="14.5" height="46.7"/>
	<path class="st3" d="M207.8,248.1c2.1,2.5,4.4,4.9,6.2,7.6c1,1.5,1.5,2.9,3.4,3.5c1.5,0.4,8.5,0.7,9.5-1c1.3-2.4-5.4-7.5-6.7-8.6
		c-1.7-1.5-3.6-3.2-5.7-3.9c-1.2-0.4-3-0.7-4.3-0.5c-1.5,0.3-0.8,0.3-1.2,0.6c-0.7,0.6-2.3-0.2-2.1,0.9
		C207.1,247.4,207.5,247.7,207.8,248.1L207.8,248.1z M186.8,325.2c-2.2-1.5-4.1-3-6.7-3.6c-1-0.2-3.1,0.2-3.6-1.2
		c-0.6-1.7,2.4-1.4,3.6-1.5c2-0.3,2.9,0.1,2.1-2.1c-0.4-1.4-2.3-3.1-3.7-3.4c-1.8-0.4-3.7,0.5-5.7,0.1c-2.4-0.5-4.3-2-6.3-3.3
		c-1.7-1-5.5-2.7-4.6,0.8c0.4,1.4,2.3,3,3.2,3.9C171,320.5,179.1,323.5,186.8,325.2L186.8,325.2z M155.8,302.1
		c-2.6-5.1-4.1-10.4-4.7-16.1c0.3,1.2,1.3,5.7,2.7,5.9c2,0.3,4.3-6.7,5.3-8.2c5.4-7.6,14.2-1.9,18.2,4.1c3.5,5.3,4.9,17.6-2.3,21
		c-3.4,1.6-8.1-0.8-10.9-2.7C161.9,304.7,158.9,301.3,155.8,302.1L155.8,302.1z M151.9,282.8c1,3.9,2.3,2.1,3.4-0.4
		c0.7-1.6,1.1-3.6,2.1-5.1c1-1.6,2.3-2,3.9-2.9c2.9-1.6,5.6-6.1,0.1-6.4c-1.6-0.1-8.2,3.9-8.3,2
		C151.5,274.2,150.8,278.6,151.9,282.8L151.9,282.8z M154.2,266.8c4.1-1.6,5.1-3.8,6.8-7.5c0.9-1.9,5.4-7,4.9-8.6
		C161,255,156.6,260.6,154.2,266.8L154.2,266.8z M175.2,246.4c-3,0.3-1-1.6,0.2-2.2c3.2-1.6,7.3-2.4,10.7-3.2
		c4.9-1.1,9.9-1.1,14.9-0.1c1.2,0.2,7.9,1.2,8.5,2.7c0.3,0.8-6.9,0.9-7.4,0.9c-3.1,0-6,0.3-9.1,0.8
		C186.9,246.4,181.3,246.4,175.2,246.4L175.2,246.4z M171,264.9c-10.1,3.8-7.8-7.8-3.9-12.6c4-4.9,9.9-3.6,15.6-2.9
		c5.3,0.7,10-0.8,15.3-1.4c5.5-0.6,8,2.8,10.3,7.3c0.5,1,2.2,3.4,1.9,4.6c-0.5,1.6-4.4,2-5.6,2.3c-5.4,1.2-11.1,2.3-16.6,2.1
		C182.1,264.1,176.7,262.7,171,264.9L171,264.9z M193.5,325.4c-1.5-0.3-9-1.4-9-3.6c0-2.4,9.4,0.8,10.8,1c5.1,1,10.3-0.6,15.1-2.2
		c3.5-1.1,4.7-1.8,7.7-3.6c1-0.6,1.9-1,2.3-0.9c0.1,0-0.7,0.7-1.6,1.4c-3.6,2.7-7.4,4.5-11.6,6C202.8,325.2,198.2,326.3,193.5,325.4
		L193.5,325.4z M186.3,316.4c-2.7-3.6-4.2-12.3,2.6-12.6c4.4-0.2,8.4,3,10.5,6.6c1.4,2.4,2.2,5.2,4.1,7.2c1.6,1.7,4.1,1.8,1.3,3.1
		C199.7,323.1,189.8,321,186.3,316.4L186.3,316.4z M232.4,283.7c-1.3,3.4-3.5,4.8-6,6.9c-2.1,1.8-1.8,4.7-2.1,7.3
		c-0.8,5.9-2.5,11.5-5.2,16.8c0.5,2,5.9-2.8,6.4-3.5c2-2.4,4-4.9,5.6-7.6c2.4-4.2,4.2-9,4.7-13.9c0.1-1.1,1.2-13.8-0.5-14
		C234.1,275.6,232.5,283.1,232.4,283.7L232.4,283.7z M183.6,293.1c-4.9-10.6,14.9-5.6,19.6-3.1c1.8,0.9,3.6,2.1,5.4,2.9
		c2.9,1.3,4.9,0.2,7.9,0.5c4.7,0.4,2.3,8.8,1.8,12c-0.6,4-1.5,12.5-6.8,12.4c-5.5-0.1-5.9-5.7-7.6-9.5
		C200.3,300,187.1,300.7,183.6,293.1L183.6,293.1z M174.3,269.7c-6.5,1.8-0.7,7.5,2.6,9.5c3.3,2,7.6,2,11.4,1.7
		c4.9-0.5,8.3-1.4,13,1c4.1,2.1,7.6,4.9,12.4,5.1c6.7,0.3,15-2,17.4-8.8c0.6-1.7,0.8-3.4,1.3-5c0.3-1.2,1.4-2.1,1.7-3.2
		c0.2-0.7-3.2-9.1-4.5-8.6c0.1,0,0,1.6-0.4,2c-0.5,0.5-3.3,0.8-4,0.9c-2.1,0.1-4,0-6.2,0.4c-5.2,0.9-10.3,2.3-15.4,3.3
		c-4.5,1-9.4,2.5-14,2.3C185.7,270.1,178.9,268.4,174.3,269.7z"/>
</g>
<g class="st2">
	<path class="st4" d="M373.8,327.9h3.3v18h-3.3V327.9z"/>
	<path class="st4" d="M386.7,325.7c0.7,0,1.4,0.1,1.9,0.2s1,0.3,1.3,0.4l-0.6,2.6c-0.3-0.1-0.6-0.3-1-0.3s-0.8-0.1-1.3-0.1
		c-0.5,0-0.9,0.1-1.3,0.2c-0.4,0.1-0.6,0.4-0.8,0.6s-0.4,0.6-0.4,1c-0.1,0.4-0.1,0.8-0.1,1.2v0.9h4.9v2.6h-4.9v11h-3.1v-14.6
		c0-1.8,0.5-3.1,1.4-4.1C383.5,326.2,384.9,325.7,386.7,325.7z"/>
	<path class="st4" d="M401.2,328.3c0,0.6-0.2,1.1-0.6,1.4s-0.8,0.5-1.4,0.5c-0.5,0-1-0.2-1.4-0.5c-0.4-0.4-0.6-0.8-0.6-1.4
		c0-0.6,0.2-1.1,0.6-1.4s0.8-0.5,1.4-0.5c0.5,0,1,0.2,1.4,0.5S401.2,327.7,401.2,328.3z M400.8,345.9h-3.1v-13.6h3.1V345.9z"/>
	<path class="st4" d="M404.7,328.7l3.1-0.5v4.1h4.8v2.6h-4.8v5.5c0,1.1,0.2,1.9,0.5,2.3c0.4,0.5,0.9,0.7,1.8,0.7
		c0.6,0,1.1-0.1,1.5-0.2s0.8-0.2,1-0.3l0.5,2.5c-0.4,0.2-0.8,0.3-1.4,0.5c-0.6,0.2-1.3,0.3-2.1,0.3c-1,0-1.8-0.1-2.4-0.4
		s-1.2-0.6-1.5-1.1c-0.4-0.5-0.6-1.1-0.8-1.8s-0.2-1.5-0.2-2.4L404.7,328.7L404.7,328.7z"/>
	<path class="st4" d="M418.7,326.2c0,0.2,0,0.4,0,0.6c0,0.2,0,0.4,0,0.5c0,1-0.2,2-0.6,3s-0.8,1.8-1.4,2.6l-2.3-0.6
		c0.4-0.8,0.6-1.6,0.8-2.4s0.3-1.7,0.3-2.4c0-0.1,0-0.3,0-0.6s0-0.5-0.1-0.7L418.7,326.2L418.7,326.2z"/>
	<path class="st4" d="M425.7,343.7c0.8,0,1.4-0.1,1.8-0.3c0.4-0.2,0.6-0.5,0.6-1c0-0.5-0.2-0.8-0.6-1.1c-0.4-0.3-1.1-0.6-2-1
		c-0.6-0.2-1.1-0.4-1.6-0.7c-0.5-0.2-0.9-0.5-1.2-0.8c-0.4-0.3-0.6-0.7-0.8-1.1s-0.3-1-0.3-1.6c0-1.3,0.5-2.2,1.4-3s2.2-1.1,3.7-1.1
		c0.8,0,1.6,0.1,2.3,0.2s1.3,0.3,1.6,0.4l-0.6,2.5c-0.4-0.2-0.8-0.3-1.3-0.4c-0.5-0.1-1.2-0.2-1.9-0.2c-0.6,0-1.2,0.1-1.6,0.3
		s-0.6,0.5-0.6,1c0,0.2,0,0.4,0.1,0.6c0.1,0.2,0.2,0.3,0.4,0.5s0.4,0.3,0.8,0.4s0.7,0.3,1.1,0.5c0.8,0.3,1.4,0.5,1.9,0.8
		c0.5,0.3,1,0.6,1.3,0.9s0.6,0.7,0.7,1.2c0.2,0.4,0.2,1,0.2,1.6c0,1.3-0.5,2.3-1.4,3s-2.3,1-4.1,1c-1.2,0-2.2-0.1-2.9-0.3
		c-0.7-0.2-1.2-0.4-1.5-0.5l0.5-2.6c0.5,0.2,1,0.4,1.7,0.5C424.1,343.6,424.8,343.7,425.7,343.7z"/>
	<path class="st4" d="M443.7,328.3c0,0.6-0.2,1.1-0.6,1.4c-0.4,0.4-0.8,0.5-1.4,0.5c-0.5,0-1-0.2-1.4-0.5c-0.4-0.4-0.6-0.8-0.6-1.4
		c0-0.6,0.2-1.1,0.6-1.4s0.8-0.5,1.4-0.5c0.5,0,1,0.2,1.4,0.5C443.5,327.3,443.7,327.7,443.7,328.3z M443.4,345.9h-3.1v-13.6h3.1
		V345.9z"/>
	<path class="st4" d="M455.9,330.4c-1.9,0-3.3,0.6-4.3,1.7c-1,1.1-1.5,2.8-1.5,4.8c0,1,0.1,1.9,0.4,2.7c0.2,0.8,0.6,1.5,1,2.1
		s1,1,1.7,1.3c0.7,0.3,1.5,0.5,2.4,0.5c0.6,0,1.1,0,1.5-0.1s0.7-0.1,1-0.2v-6.5h3.3v8.7c-0.5,0.2-1.2,0.4-2.3,0.6
		c-1.1,0.2-2.3,0.3-3.7,0.3c-1.3,0-2.5-0.2-3.6-0.6c-1.1-0.4-2-1-2.7-1.8c-0.8-0.8-1.3-1.8-1.8-2.9c-0.4-1.2-0.6-2.5-0.6-4
		s0.2-2.8,0.7-4s1.1-2.1,1.9-3c0.8-0.8,1.7-1.4,2.8-1.8c1.1-0.4,2.2-0.6,3.4-0.6c0.8,0,1.6,0.1,2.2,0.2c0.6,0.1,1.2,0.2,1.7,0.4
		s0.9,0.3,1.2,0.4s0.5,0.3,0.6,0.3l-1,2.7c-0.5-0.3-1.2-0.6-1.9-0.8C457.6,330.5,456.8,330.4,455.9,330.4z"/>
	<path class="st4" d="M477.3,345.9c-0.2-0.7-0.5-1.4-0.8-2.1c-0.3-0.7-0.5-1.4-0.8-2.1h-7.6c-0.2,0.7-0.5,1.4-0.7,2.1
		c-0.3,0.7-0.5,1.4-0.7,2.1h-3.4c0.7-1.9,1.3-3.7,1.9-5.3c0.6-1.6,1.2-3.2,1.8-4.6s1.2-2.8,1.7-4.2s1.2-2.6,1.8-3.9h3.1
		c0.6,1.3,1.2,2.6,1.8,3.9c0.6,1.3,1.1,2.7,1.7,4.2s1.2,3,1.8,4.6c0.6,1.6,1.3,3.4,1.9,5.3H477.3z M471.9,331.4
		c-0.4,0.9-0.9,2-1.4,3.4c-0.5,1.3-1,2.8-1.6,4.3h5.9c-0.5-1.5-1.1-3-1.6-4.3C472.8,333.4,472.3,332.3,471.9,331.4z"/>
	<path class="st4" d="M487,327.9c0.4,0.7,0.8,1.5,1.3,2.4c0.5,1,0.9,2,1.4,3c0.5,1,1,2.1,1.4,3.2c0.5,1.1,0.9,2.1,1.3,3
		c0.4-0.9,0.8-1.9,1.3-3s0.9-2.1,1.4-3.2c0.5-1,1-2,1.4-3s0.9-1.8,1.3-2.4h3c0.2,1.3,0.3,2.7,0.5,4.2s0.3,3,0.4,4.5s0.2,3.1,0.3,4.7
		c0.1,1.6,0.2,3.1,0.3,4.6H499c-0.1-2.1-0.2-4.3-0.3-6.5c-0.1-2.2-0.2-4.4-0.4-6.5c-0.2,0.4-0.4,0.9-0.7,1.4s-0.5,1.2-0.8,1.8
		c-0.3,0.6-0.6,1.3-0.9,2c-0.3,0.7-0.6,1.4-0.9,2c-0.3,0.6-0.5,1.3-0.8,1.8c-0.2,0.6-0.5,1-0.6,1.4h-2.4c-0.2-0.4-0.4-0.9-0.6-1.5
		c-0.2-0.6-0.5-1.2-0.8-1.8c-0.3-0.6-0.6-1.3-0.9-2c-0.3-0.7-0.6-1.4-0.9-2c-0.3-0.6-0.6-1.2-0.8-1.8s-0.5-1-0.7-1.4
		c-0.2,2.1-0.3,4.2-0.4,6.5s-0.2,4.4-0.3,6.5h-3.2c0.1-1.5,0.1-3,0.3-4.6c0.1-1.6,0.2-3.2,0.3-4.8c0.1-1.6,0.2-3.1,0.4-4.6
		s0.3-2.8,0.5-4.1H487z"/>
	<path class="st4" d="M506,327.9h3.3v18H506V327.9z"/>
	<path class="st4" d="M525.8,345.9c-0.6-1-1.3-2-2-3.2c-0.7-1.1-1.5-2.3-2.3-3.4s-1.6-2.3-2.4-3.4c-0.8-1.1-1.6-2.1-2.3-2.9v12.9
		h-3.2v-18h2.7c0.7,0.7,1.4,1.6,2.2,2.6s1.6,2,2.4,3.1c0.8,1.1,1.6,2.1,2.3,3.2s1.4,2.1,2,3v-12h3.3v18L525.8,345.9L525.8,345.9z"/>
	<path class="st4" d="M541.3,330.4c-1.8,0-3.3,0.6-4.3,1.7c-1,1.1-1.5,2.8-1.5,4.8c0,1,0.1,1.9,0.3,2.7c0.2,0.8,0.6,1.5,1,2.1
		s1,1,1.7,1.3c0.7,0.3,1.5,0.5,2.4,0.5c0.6,0,1.1,0,1.5-0.1s0.7-0.1,1-0.2v-6.5h3.3v8.7c-0.5,0.2-1.2,0.4-2.3,0.6
		c-1.1,0.2-2.3,0.3-3.7,0.3c-1.3,0-2.5-0.2-3.6-0.6c-1.1-0.4-2-1-2.7-1.8c-0.8-0.8-1.3-1.8-1.8-2.9c-0.4-1.2-0.6-2.5-0.6-4
		s0.2-2.8,0.7-4s1.1-2.1,1.9-3c0.8-0.8,1.7-1.4,2.8-1.8c1.1-0.4,2.2-0.6,3.4-0.6c0.8,0,1.6,0.1,2.2,0.2c0.7,0.1,1.2,0.2,1.7,0.4
		s0.8,0.3,1.2,0.4s0.5,0.3,0.6,0.3l-1,2.7c-0.5-0.3-1.2-0.6-1.9-0.8C543,330.5,542.1,330.4,541.3,330.4z"/>
	<path class="st4" d="M553.7,342.5c0,0.3,0,0.5,0,0.6c0,0.1,0,0.3,0,0.4c0,1.1-0.2,2.2-0.5,3.3c-0.3,1.1-0.8,2.2-1.4,3.3l-2.5-0.7
		c0.4-1,0.7-2,0.8-3s0.2-1.8,0.2-2.5c0-0.2,0-0.5,0-0.8s0-0.5,0-0.7H553.7z"/>
	<path class="st4" d="M571.6,337.4c-0.4,1.5-0.8,3-1.3,4.5c-0.5,1.5-0.9,2.8-1.4,4.1h-2.6c-0.3-0.8-0.7-1.7-1.1-2.7
		c-0.4-1-0.8-2.1-1.2-3.3s-0.8-2.4-1.2-3.7c-0.4-1.3-0.8-2.6-1.1-3.9h3.3c0.2,0.7,0.3,1.5,0.5,2.4s0.4,1.7,0.7,2.6s0.5,1.7,0.7,2.6
		c0.2,0.8,0.5,1.6,0.7,2.3c0.3-0.8,0.5-1.6,0.8-2.5s0.5-1.7,0.7-2.5c0.2-0.9,0.4-1.7,0.6-2.5c0.2-0.8,0.4-1.6,0.5-2.3h2.4
		c0.2,0.7,0.3,1.5,0.5,2.3s0.4,1.6,0.6,2.5s0.5,1.7,0.7,2.5s0.5,1.7,0.8,2.5c0.2-0.7,0.5-1.5,0.7-2.3c0.2-0.8,0.5-1.7,0.7-2.6
		s0.5-1.7,0.7-2.6s0.4-1.6,0.5-2.4h3.3c-0.4,1.3-0.7,2.6-1.1,3.9c-0.4,1.3-0.8,2.5-1.2,3.7s-0.8,2.3-1.2,3.3c-0.4,1-0.8,1.9-1.1,2.7
		h-2.6c-0.5-1.3-0.9-2.6-1.4-4.1C572.5,340.4,572,338.9,571.6,337.4z"/>
	<path class="st4" d="M583,339.2c0-1.2,0.2-2.2,0.5-3.1c0.3-0.9,0.8-1.6,1.4-2.3c0.6-0.6,1.3-1,2-1.4c0.8-0.3,1.5-0.5,2.3-0.5
		c1.9,0,3.3,0.6,4.4,1.7s1.6,2.9,1.6,5.2c0,0.2,0,0.4,0,0.6s0,0.4,0,0.6h-9c0.1,1.1,0.5,1.9,1.2,2.5c0.7,0.6,1.7,0.9,3,0.9
		c0.8,0,1.5-0.1,2.1-0.2c0.6-0.1,1.1-0.3,1.5-0.4l0.4,2.6c-0.2,0.1-0.4,0.2-0.7,0.3c-0.3,0.1-0.7,0.2-1,0.3
		c-0.4,0.1-0.8,0.1-1.3,0.2c-0.5,0-0.9,0.1-1.4,0.1c-1.2,0-2.2-0.2-3.1-0.5s-1.6-0.9-2.2-1.5s-1-1.4-1.3-2.2
		C583.2,341.2,583,340.2,583,339.2z M592.2,337.8c0-0.4-0.1-0.8-0.2-1.2s-0.3-0.7-0.5-1c-0.2-0.3-0.5-0.5-0.9-0.7
		c-0.3-0.2-0.7-0.3-1.2-0.3c-0.5,0-0.9,0.1-1.3,0.3c-0.4,0.2-0.7,0.4-0.9,0.7c-0.3,0.3-0.5,0.6-0.6,1c-0.1,0.4-0.2,0.8-0.3,1.2
		L592.2,337.8L592.2,337.8z"/>
	<path class="st4" d="M616.2,345.5c-0.6,0.2-1.4,0.4-2.3,0.5s-1.9,0.2-3,0.2c-1.1,0-2-0.2-2.9-0.5c-0.8-0.3-1.6-0.8-2.2-1.4
		c-0.6-0.6-1.1-1.4-1.4-2.2s-0.5-1.9-0.5-3c0-1.1,0.1-2,0.4-2.9s0.7-1.6,1.2-2.3s1.2-1.1,1.9-1.4s1.6-0.5,2.6-0.5
		c0.7,0,1.2,0.1,1.7,0.2s0.9,0.3,1.3,0.5v-6.5l3.2-0.5L616.2,345.5L616.2,345.5z M607.2,339.1c0,1.4,0.3,2.5,1,3.3s1.6,1.2,2.7,1.2
		c0.5,0,0.9,0,1.3-0.1s0.7-0.1,0.9-0.1v-7.8c-0.3-0.2-0.7-0.4-1.1-0.5c-0.5-0.2-1-0.3-1.5-0.3c-1.1,0-2,0.4-2.5,1.2
		C607.4,336.7,607.2,337.7,607.2,339.1z"/>
	<path class="st4" d="M632.5,339.1c0,1.1-0.2,2-0.5,2.9c-0.3,0.9-0.8,1.6-1.3,2.3s-1.3,1.1-2.1,1.5s-1.7,0.5-2.7,0.5
		s-1.9-0.2-2.7-0.5c-0.8-0.4-1.5-0.8-2-1.5c-0.6-0.6-1-1.4-1.3-2.3s-0.5-1.9-0.5-2.9c0-1.1,0.2-2,0.5-2.9c0.3-0.9,0.8-1.6,1.3-2.3
		c0.6-0.6,1.3-1.1,2.1-1.4s1.7-0.5,2.6-0.5c1,0,1.8,0.2,2.6,0.5s1.5,0.8,2.1,1.4s1,1.4,1.3,2.3C632.3,337.1,632.5,338,632.5,339.1z
		 M629.3,339.1c0-1.4-0.3-2.4-0.9-3.2c-0.6-0.8-1.4-1.2-2.4-1.2s-1.8,0.4-2.4,1.2c-0.6,0.8-0.9,1.9-0.9,3.2c0,1.4,0.3,2.5,0.9,3.3
		s1.4,1.2,2.4,1.2s1.8-0.4,2.4-1.2C629,341.6,629.3,340.5,629.3,339.1z"/>
	<path class="st4" d="M645.3,328.3c0,0.6-0.2,1.1-0.6,1.4c-0.4,0.4-0.8,0.5-1.3,0.5c-0.5,0-1-0.2-1.4-0.5c-0.4-0.4-0.6-0.8-0.6-1.4
		c0-0.6,0.2-1.1,0.6-1.4s0.8-0.5,1.4-0.5c0.5,0,1,0.2,1.3,0.5C645.1,327.3,645.3,327.7,645.3,328.3z M645,345.9h-3.2v-13.6h3.2
		V345.9z"/>
	<path class="st4" d="M648.8,328.7l3.2-0.5v4.1h4.8v2.6H652v5.5c0,1.1,0.2,1.9,0.5,2.3c0.3,0.5,0.9,0.7,1.8,0.7
		c0.6,0,1.1-0.1,1.5-0.2s0.8-0.2,1-0.3l0.5,2.5c-0.4,0.2-0.8,0.3-1.4,0.5c-0.6,0.2-1.3,0.3-2.1,0.3c-1,0-1.8-0.1-2.4-0.4
		c-0.7-0.3-1.2-0.6-1.5-1.1s-0.7-1.1-0.8-1.8s-0.2-1.5-0.2-2.4L648.8,328.7L648.8,328.7z"/>
</g>
</svg>
