<?xml version="1.0" encoding="utf-8"?>
<!-- Generator: Adobe Illustrator 23.0.3, SVG Export Plug-In . SVG Version: 6.00 Build 0)  -->
<svg version="1.1" id="Layer_1" xmlns="http://www.w3.org/2000/svg" xmlns:xlink="http://www.w3.org/1999/xlink" x="0px" y="0px"
	 viewBox="0 0 400 102.2" style="enable-background:new 0 0 400 102.2;" xml:space="preserve">
<style type="text/css">
	.st0{fill-rule:evenodd;clip-rule:evenodd;fill:#00A8BC;}
	.st1{display:none;fill-rule:evenodd;clip-rule:evenodd;fill:#00A8BC;}
	.st2{display:none;}
	.st3{display:inline;fill-rule:evenodd;clip-rule:evenodd;fill:#FFFFFF;}
	.st4{display:inline;fill:#FFFFFF;}
	.st5{fill-rule:evenodd;clip-rule:evenodd;fill:#FEFEFE;}
	.st6{fill-rule:evenodd;clip-rule:evenodd;fill:#76C04E;}
	.st7{fill:none;stroke:#FEFEFE;stroke-width:0.9998;stroke-miterlimit:2.6131;}
	.st8{fill:#FFFFFF;}
	.st9{fill:#EE464A;}
	.st10{fill:#FAB844;}
	.st11{fill:#2E855F;}
	.st12{fill:#3D83BE;}
	.st13{fill-rule:evenodd;clip-rule:evenodd;fill:#F7981D;}
	.st14{fill:#6D6E70;}
	.st15{fill-rule:evenodd;clip-rule:evenodd;fill:#7784B4;}
	.st16{fill-rule:evenodd;clip-rule:evenodd;fill:#F3C131;}
	.st17{fill-rule:evenodd;clip-rule:evenodd;fill:#85CADD;}
	.st18{fill-rule:evenodd;clip-rule:evenodd;fill:#E7792B;}
	.st19{fill-rule:evenodd;clip-rule:evenodd;fill:#FFFFFE;}
	.st20{fill-rule:evenodd;clip-rule:evenodd;fill:#7EBC59;}
	.st21{fill-rule:evenodd;clip-rule:evenodd;fill:#E590A7;}
</style>
<rect x="215.2" y="-123.5" class="st0" width="11.3" height="36.4"/>
<polygon class="st0" points="271.9,-123.5 233.8,-123.5 233.8,-114 247.3,-114 247.3,-87.1 258.5,-87.1 258.5,-114 271.9,-114 "/>
<rect x="333.7" y="-123.5" class="st0" width="11.3" height="36.4"/>
<path class="st0" d="M385.4-123.5v20.8l-22.3-18.8c-4.5-4.1-10.7-1.6-10.7,4.8v29.6h10.2v-21.4l22.3,19.4c4.4,4.2,10.7,1.5,10.7-4.9
	v-29.5H385.4z"/>
<path class="st0" d="M133.2-112.3c-1.1-2.3-2.6-4.2-4.6-5.9c-1.9-1.7-4.2-2.9-6.9-3.9c-2.7-0.9-5.6-1.4-8.8-1.4H88v27.7v8.6h24.9
	c3.2,0,6.1-0.4,8.8-1.3c2.7-0.8,5-2.1,6.9-3.6c1.9-1.6,3.5-3.5,4.6-5.7c1.1-2.2,1.7-4.6,1.7-7.3S134.3-110,133.2-112.3L133.2-112.3z
	 M122.8-101.9c-0.5,1.1-1.3,2-2.3,2.8c-1,0.8-2.1,1.4-3.4,1.8c-1.3,0.4-2.7,0.7-4.2,0.7H99.2v-17.6h13.8c1.6,0,3,0.2,4.3,0.6
	s2.4,1,3.4,1.8c1,0.8,1.7,1.7,2.2,2.7s0.8,2.3,0.8,3.6C123.6-104.1,123.4-102.9,122.8-101.9z"/>
<path class="st0" d="M289.7-119.4l-23.3,32.3h13.3l17.1-24.1l6,8.6h-7.1l-6.6,9.3h20.2l4.3,6.2h13.4l-22.7-32.3
	C300.3-125,293.7-124.8,289.7-119.4z"/>
<path class="st0" d="M196.6-106.6v10.1h-13.8c-1.6,0-3-0.2-4.3-0.6c-1.3-0.4-2.4-1-3.4-1.8c-1-0.8-1.7-1.7-2.2-2.7
	c-0.5-1.1-0.8-2.3-0.8-3.6s0.3-2.5,0.8-3.6c0.5-1.1,1.3-2,2.3-2.8c1-0.8,2.1-1.4,3.4-1.8c1.3-0.4,2.7-0.7,4.2-0.7h11.4v0h13.5v-9.5
	h-24.9c-3.2,0-6.1,0.4-8.8,1.3c-2.7,0.8-5,2.1-6.9,3.6c-1.9,1.6-3.5,3.5-4.6,5.7c-1.1,2.2-1.7,4.6-1.7,7.3s0.6,5.1,1.7,7.4
	c1.1,2.3,2.6,4.2,4.6,5.9s4.2,2.9,6.9,3.9c2.7,0.9,5.6,1.4,8.8,1.4h24.9v-19.5H196.6z"/>
<rect x="142.3" y="-123.5" class="st0" width="11.3" height="36.4"/>
<path class="st0" d="M45.6-132.4c1.7,1.9,3.4,3.8,4.8,5.9c0.8,1.2,1.1,2.3,2.6,2.7c1.1,0.3,6.6,0.6,7.4-0.8c1-1.8-4.2-5.9-5.2-6.7
	c-1.3-1.1-2.8-2.5-4.4-3c-0.9-0.3-2.4-0.5-3.3-0.4c-1.2,0.2-0.6,0.3-0.9,0.5c-0.6,0.5-1.8-0.1-1.7,0.7C45-133,45.3-132.8,45.6-132.4
	L45.6-132.4z M29.2-72.4c-1.7-1.2-3.2-2.4-5.2-2.8c-0.8-0.2-2.4,0.2-2.8-0.9c-0.4-1.3,1.9-1.1,2.8-1.2c1.6-0.2,2.2,0.1,1.7-1.6
	c-0.3-1.1-1.8-2.4-2.9-2.6c-1.4-0.3-2.9,0.4-4.4,0.1c-1.9-0.4-3.3-1.5-4.9-2.5c-1.3-0.8-4.3-2.1-3.6,0.6c0.3,1.1,1.8,2.3,2.5,3
	C17-76,23.2-73.7,29.2-72.4L29.2-72.4z M5.1-90.4c-2-3.9-3.2-8.1-3.6-12.5c0.3,0.9,1,4.4,2.1,4.6c1.6,0.2,3.3-5.2,4.2-6.4
	c4.2-5.9,11.1-1.5,14.2,3.2c2.7,4.1,3.8,13.7-1.8,16.4c-2.7,1.3-6.3-0.6-8.5-2.1C9.8-88.4,7.5-91,5.1-90.4L5.1-90.4z M2.1-105.4
	c0.8,3,1.8,1.6,2.7-0.3c0.6-1.3,0.9-2.8,1.6-4c0.8-1.2,1.8-1.5,3-2.2c2.2-1.3,4.3-4.7,0.1-5c-1.2-0.1-6.4,3-6.5,1.6
	C1.8-112.1,1.2-108.7,2.1-105.4L2.1-105.4z M3.9-117.9c3.2-1.2,3.9-2.9,5.3-5.9c0.7-1.5,4.2-5.4,3.8-6.7
	C9.1-127,5.7-122.7,3.9-117.9L3.9-117.9z M20.2-133.8c-2.3,0.2-0.8-1.3,0.1-1.7c2.5-1.3,5.7-1.9,8.3-2.5c3.8-0.9,7.7-0.8,11.6-0.1
	c1,0.2,6.2,0.9,6.6,2.1c0.2,0.6-5.4,0.7-5.7,0.7c-2.4,0-4.7,0.2-7.1,0.6C29.3-133.7,24.9-133.7,20.2-133.8L20.2-133.8z M16.9-119.3
	c-7.9,2.9-6.1-6.1-3-9.8c3.1-3.8,7.7-2.8,12.2-2.2c4.2,0.6,7.8-0.6,11.9-1.1c4.3-0.5,6.2,2.2,8,5.7c0.4,0.8,1.7,2.6,1.5,3.6
	c-0.4,1.3-3.4,1.5-4.4,1.8c-4.2,1-8.6,1.8-12.9,1.6C25.6-119.9,21.3-121.1,16.9-119.3L16.9-119.3z M34.4-72.2c-1.2-0.2-7-1.1-7-2.8
	c0-1.8,7.3,0.6,8.4,0.8c4,0.8,8-0.5,11.8-1.7c2.7-0.9,3.7-1.4,6-2.8c0.8-0.5,1.5-0.8,1.8-0.7c0.1,0-0.5,0.5-1.3,1.1
	c-2.8,2.1-5.7,3.5-9,4.7C41.7-72.4,38.1-71.5,34.4-72.2L34.4-72.2z M28.9-79.2c-2.1-2.8-3.3-9.6,2-9.8c3.4-0.2,6.5,2.4,8.2,5.1
	c1.1,1.8,1.7,4,3.2,5.6c1.2,1.3,3.2,1.4,1,2.4C39.3-74,31.6-75.6,28.9-79.2L28.9-79.2z M64.7-104.7c-1,2.6-2.7,3.7-4.7,5.4
	c-1.6,1.4-1.4,3.7-1.6,5.7c-0.6,4.6-2,8.9-4.1,13.1c0.4,1.6,4.6-2.2,5-2.7c1.5-1.9,3.1-3.8,4.4-5.9c1.9-3.3,3.2-7,3.7-10.8
	c0.1-0.8,0.9-10.8-0.4-10.9C66-111,64.8-105.2,64.7-104.7L64.7-104.7z M26.7-97.4c-3.8-8.3,11.6-4.4,15.3-2.5
	c1.4,0.7,2.8,1.6,4.2,2.2c2.3,1,3.8,0.2,6.2,0.4c3.6,0.3,1.8,6.9,1.4,9.3c-0.5,3.1-1.2,9.7-5.3,9.7c-4.3-0.1-4.6-4.4-5.9-7.4
	C39.8-92,29.5-91.5,26.7-97.4L26.7-97.4z M19.5-115.6c-5.1,1.4-0.6,5.8,2,7.4c2.6,1.6,5.9,1.6,8.9,1.3c3.8-0.4,6.5-1.1,10.2,0.8
	c3.2,1.6,5.9,3.8,9.6,4c5.2,0.2,11.7-1.6,13.6-6.8c0.5-1.3,0.6-2.6,1-3.9c0.2-0.9,1.1-1.6,1.3-2.5c0.1-0.5-2.5-7.1-3.5-6.7
	c0.1,0,0,1.3-0.3,1.6c-0.4,0.4-2.6,0.6-3.1,0.7c-1.6,0.1-3.1,0-4.8,0.3c-4,0.7-8,1.8-12,2.6c-3.5,0.7-7.3,2-10.9,1.8
	C28.3-115.3,23.1-116.6,19.5-115.6z"/>
<rect x="-31.6" y="217.4" class="st1" width="841.9" height="297.6"/>
<g class="st2">
	<rect x="410.8" y="342.9" class="st3" width="14.5" height="46.7"/>
	<polygon class="st3" points="483.6,342.9 434.7,342.9 434.7,355 452,355 452,389.6 466.4,389.6 466.4,355 483.6,355 	"/>
	<rect x="563" y="342.9" class="st3" width="14.5" height="46.7"/>
	<path class="st3" d="M629.3,342.9v26.7l-28.6-24.2c-5.8-5.3-13.7-2-13.7,6.2v38h13.1v-27.4l28.6,24.9c5.6,5.4,13.8,2,13.8-6.3
		v-37.9L629.3,342.9L629.3,342.9z"/>
	<path class="st3" d="M305.5,357.2c-1.4-2.9-3.4-5.4-5.9-7.5s-5.5-3.8-8.9-5c-3.4-1.2-7.2-1.8-11.2-1.8h-32v35.6v11.1h32
		c4,0,7.8-0.5,11.2-1.6c3.4-1.1,6.4-2.6,8.9-4.7c2.5-2,4.4-4.4,5.9-7.3c1.4-2.8,2.1-5.9,2.1-9.3
		C307.6,363.3,306.9,360.1,305.5,357.2L305.5,357.2z M292.2,370.6c-0.7,1.4-1.7,2.6-2.9,3.6c-1.2,1-2.7,1.8-4.4,2.4
		c-1.7,0.6-3.5,0.8-5.4,0.8h-17.7v-22.5h17.7c2,0,3.8,0.3,5.5,0.8s3.1,1.3,4.4,2.3c1.2,1,2.2,2.1,2.9,3.5c0.7,1.4,1,2.9,1,4.6
		C293.2,367.7,292.9,369.2,292.2,370.6z"/>
	<path class="st3" d="M506.5,348.1l-29.9,41.5h17.1l21.9-31l7.7,11.1h-9.2l-8.5,12h26l5.5,7.9h17.2l-29.2-41.5
		C520.1,340.9,511.5,341.1,506.5,348.1z"/>
	<path class="st3" d="M386.9,364.5v13h-17.7c-2,0-3.8-0.3-5.5-0.8s-3.1-1.3-4.4-2.3c-1.2-1-2.2-2.1-2.9-3.5c-0.7-1.4-1-2.9-1-4.6
		s0.4-3.2,1-4.6c0.7-1.4,1.7-2.6,2.9-3.6c1.2-1,2.7-1.8,4.4-2.4c1.7-0.6,3.5-0.8,5.4-0.8h14.7v0h17.4v-12.1h-32
		c-4,0-7.8,0.5-11.2,1.6c-3.4,1.1-6.4,2.6-8.9,4.7c-2.5,2-4.4,4.4-5.9,7.3c-1.4,2.8-2.1,5.9-2.1,9.3s0.7,6.5,2.1,9.5
		s3.4,5.4,5.9,7.5s5.5,3.8,8.9,5c3.4,1.2,7.2,1.8,11.2,1.8h32v-25L386.9,364.5L386.9,364.5z"/>
	<rect x="317.1" y="342.9" class="st3" width="14.5" height="46.7"/>
	<path class="st3" d="M193,331.4c2.1,2.5,4.4,4.9,6.2,7.6c1,1.5,1.5,2.9,3.4,3.5c1.5,0.4,8.5,0.7,9.5-1c1.3-2.4-5.4-7.5-6.7-8.6
		c-1.7-1.5-3.6-3.2-5.7-3.9c-1.2-0.4-3-0.7-4.3-0.5c-1.5,0.3-0.8,0.3-1.2,0.6c-0.7,0.6-2.3-0.2-2.1,0.9
		C192.2,330.6,192.6,330.9,193,331.4L193,331.4z M172,408.4c-2.2-1.5-4.1-3-6.7-3.6c-1-0.2-3.1,0.2-3.6-1.2
		c-0.6-1.7,2.4-1.4,3.6-1.5c2-0.3,2.9,0.1,2.1-2.1c-0.4-1.4-2.3-3.1-3.7-3.4c-1.8-0.4-3.7,0.5-5.7,0.1c-2.4-0.5-4.3-2-6.3-3.3
		c-1.7-1-5.5-2.7-4.6,0.8c0.4,1.4,2.3,3,3.2,3.9C156.2,403.8,164.3,406.7,172,408.4L172,408.4z M140.9,385.4
		c-2.6-5.1-4.1-10.4-4.7-16.1c0.3,1.2,1.3,5.7,2.7,5.9c2,0.3,4.3-6.7,5.3-8.2c5.4-7.6,14.2-1.9,18.2,4.1c3.5,5.3,4.9,17.6-2.3,21
		c-3.4,1.6-8.1-0.8-10.9-2.7C147.1,387.9,144,384.6,140.9,385.4L140.9,385.4z M137.1,366.1c1,3.9,2.3,2.1,3.4-0.4
		c0.7-1.6,1.1-3.6,2.1-5.1c1-1.6,2.3-2,3.9-2.9c2.9-1.6,5.6-6.1,0.1-6.4c-1.6-0.1-8.2,3.9-8.3,2C136.7,357.4,136,361.8,137.1,366.1
		L137.1,366.1z M139.4,350c4.1-1.6,5.1-3.8,6.8-7.5c0.9-1.9,5.4-7,4.9-8.6C146.2,338.3,141.8,343.9,139.4,350L139.4,350z
		 M160.3,329.6c-3,0.3-1-1.6,0.2-2.2c3.2-1.6,7.3-2.4,10.7-3.2c4.9-1.1,9.9-1.1,14.9-0.1c1.2,0.2,7.9,1.2,8.5,2.7
		c0.3,0.8-6.9,0.9-7.4,0.9c-3.1,0-6,0.3-9.1,0.8C172,329.7,166.4,329.7,160.3,329.6L160.3,329.6z M156.2,348.2
		c-10.1,3.8-7.8-7.8-3.9-12.6c4-4.9,9.9-3.6,15.6-2.9c5.3,0.7,10-0.8,15.3-1.4c5.5-0.6,8,2.8,10.3,7.3c0.5,1,2.2,3.4,1.9,4.6
		c-0.5,1.6-4.4,2-5.6,2.3c-5.4,1.2-11.1,2.3-16.6,2.1C167.3,347.4,161.8,345.9,156.2,348.2L156.2,348.2z M178.7,408.7
		c-1.5-0.3-9-1.4-9-3.6c0-2.4,9.4,0.8,10.8,1c5.1,1,10.3-0.6,15.1-2.2c3.5-1.1,4.7-1.8,7.7-3.6c1-0.6,1.9-1,2.3-0.9
		c0.1,0-0.7,0.7-1.6,1.4c-3.6,2.7-7.4,4.5-11.6,6C188,408.4,183.3,409.6,178.7,408.7L178.7,408.7z M171.5,399.7
		c-2.7-3.6-4.2-12.3,2.6-12.6c4.4-0.2,8.4,3,10.5,6.6c1.4,2.4,2.2,5.2,4.1,7.2c1.6,1.7,4.1,1.8,1.3,3.1
		C184.9,406.4,174.9,404.3,171.5,399.7L171.5,399.7z M217.5,367c-1.3,3.4-3.5,4.8-6,6.9c-2.1,1.8-1.8,4.7-2.1,7.3
		c-0.8,5.9-2.5,11.5-5.2,16.8c0.5,2,5.9-2.8,6.4-3.5c2-2.4,4-4.9,5.6-7.6c2.4-4.2,4.2-9,4.7-13.9c0.1-1.1,1.2-13.8-0.5-14
		C219.2,358.9,217.7,366.3,217.5,367L217.5,367z M168.8,376.3c-4.9-10.6,14.9-5.6,19.6-3.1c1.8,0.9,3.6,2.1,5.4,2.9
		c2.9,1.3,4.9,0.2,7.9,0.5c4.7,0.4,2.3,8.8,1.8,12c-0.6,4-1.5,12.5-6.8,12.4c-5.5-0.1-5.9-5.7-7.6-9.5
		C185.5,383.3,172.2,383.9,168.8,376.3L168.8,376.3z M159.4,352.9c-6.5,1.8-0.7,7.5,2.6,9.5c3.3,2,7.6,2,11.4,1.7
		c4.9-0.5,8.3-1.4,13,1c4.1,2.1,7.6,4.9,12.4,5.1c6.7,0.3,15-2,17.4-8.8c0.6-1.7,0.8-3.4,1.3-5c0.3-1.2,1.4-2.1,1.7-3.2
		c0.2-0.7-3.2-9.1-4.5-8.6c0.1,0,0,1.6-0.4,2c-0.5,0.5-3.3,0.8-4,0.9c-2.1,0.1-4,0-6.2,0.4c-5.2,0.9-10.3,2.3-15.4,3.3
		c-4.5,1-9.4,2.5-14,2.3C170.8,353.3,164,351.6,159.4,352.9z"/>
</g>
<g class="st2">
	<path class="st4" d="M358.9,411.2h3.3v18h-3.3V411.2z"/>
	<path class="st4" d="M371.9,409c0.7,0,1.4,0.1,1.9,0.2s1,0.3,1.3,0.4l-0.6,2.6c-0.3-0.1-0.6-0.3-1-0.3s-0.8-0.1-1.3-0.1
		c-0.5,0-0.9,0.1-1.3,0.2c-0.4,0.1-0.6,0.4-0.8,0.6s-0.4,0.6-0.4,1c-0.1,0.4-0.1,0.8-0.1,1.2v0.9h4.9v2.6h-4.9v11h-3.1v-14.6
		c0-1.8,0.5-3.1,1.4-4.1C368.6,409.5,370,409,371.9,409z"/>
	<path class="st4" d="M386.3,411.6c0,0.6-0.2,1.1-0.6,1.4s-0.8,0.5-1.4,0.5c-0.5,0-1-0.2-1.4-0.5c-0.4-0.4-0.6-0.8-0.6-1.4
		c0-0.6,0.2-1.1,0.6-1.4s0.8-0.5,1.4-0.5c0.5,0,1,0.2,1.4,0.5S386.3,411,386.3,411.6z M386,429.2h-3.1v-13.6h3.1V429.2z"/>
	<path class="st4" d="M389.8,412l3.1-0.5v4.1h4.8v2.6H393v5.5c0,1.1,0.2,1.9,0.5,2.3c0.4,0.5,0.9,0.7,1.8,0.7c0.6,0,1.1-0.1,1.5-0.2
		s0.8-0.2,1-0.3l0.5,2.5c-0.4,0.2-0.8,0.3-1.4,0.5c-0.6,0.2-1.3,0.3-2.1,0.3c-1,0-1.8-0.1-2.4-0.4s-1.2-0.6-1.5-1.1
		c-0.4-0.5-0.6-1.1-0.8-1.8s-0.2-1.5-0.2-2.4L389.8,412L389.8,412z"/>
	<path class="st4" d="M403.9,409.5c0,0.2,0,0.4,0,0.6c0,0.2,0,0.4,0,0.5c0,1-0.2,2-0.6,3s-0.8,1.8-1.4,2.6l-2.3-0.6
		c0.4-0.8,0.6-1.6,0.8-2.4s0.3-1.7,0.3-2.4c0-0.1,0-0.3,0-0.6s0-0.5-0.1-0.7L403.9,409.5L403.9,409.5z"/>
	<path class="st4" d="M410.8,426.9c0.8,0,1.4-0.1,1.8-0.3c0.4-0.2,0.6-0.5,0.6-1c0-0.5-0.2-0.8-0.6-1.1c-0.4-0.3-1.1-0.6-2-1
		c-0.6-0.2-1.1-0.4-1.6-0.7c-0.5-0.2-0.9-0.5-1.2-0.8c-0.4-0.3-0.6-0.7-0.8-1.1s-0.3-1-0.3-1.6c0-1.3,0.5-2.2,1.4-3s2.2-1.1,3.7-1.1
		c0.8,0,1.6,0.1,2.3,0.2s1.3,0.3,1.6,0.4l-0.6,2.5c-0.4-0.2-0.8-0.3-1.3-0.4c-0.5-0.1-1.2-0.2-1.9-0.2c-0.6,0-1.2,0.1-1.6,0.3
		s-0.6,0.5-0.6,1c0,0.2,0,0.4,0.1,0.6c0.1,0.2,0.2,0.3,0.4,0.5s0.4,0.3,0.8,0.4s0.7,0.3,1.1,0.5c0.8,0.3,1.4,0.5,1.9,0.8
		c0.5,0.3,1,0.6,1.3,0.9s0.6,0.7,0.7,1.2c0.2,0.4,0.2,1,0.2,1.6c0,1.3-0.5,2.3-1.4,3s-2.3,1-4.1,1c-1.2,0-2.2-0.1-2.9-0.3
		c-0.7-0.2-1.2-0.4-1.5-0.5l0.5-2.6c0.5,0.2,1,0.4,1.7,0.5C409.2,426.8,410,426.9,410.8,426.9z"/>
	<path class="st4" d="M428.9,411.6c0,0.6-0.2,1.1-0.6,1.4c-0.4,0.4-0.8,0.5-1.4,0.5c-0.5,0-1-0.2-1.4-0.5c-0.4-0.4-0.6-0.8-0.6-1.4
		c0-0.6,0.2-1.1,0.6-1.4s0.8-0.5,1.4-0.5c0.5,0,1,0.2,1.4,0.5C428.7,410.5,428.9,411,428.9,411.6z M428.5,429.2h-3.1v-13.6h3.1
		V429.2z"/>
	<path class="st4" d="M441.1,413.6c-1.9,0-3.3,0.6-4.3,1.7c-1,1.1-1.5,2.8-1.5,4.8c0,1,0.1,1.9,0.4,2.7c0.2,0.8,0.6,1.5,1,2.1
		s1,1,1.7,1.3c0.7,0.3,1.5,0.5,2.4,0.5c0.6,0,1.1,0,1.5-0.1s0.7-0.1,1-0.2V420h3.3v8.7c-0.5,0.2-1.2,0.4-2.3,0.6
		c-1.1,0.2-2.3,0.3-3.7,0.3c-1.3,0-2.5-0.2-3.6-0.6c-1.1-0.4-2-1-2.7-1.8c-0.8-0.8-1.3-1.8-1.8-2.9c-0.4-1.2-0.6-2.5-0.6-4
		s0.2-2.8,0.7-4s1.1-2.1,1.9-3c0.8-0.8,1.7-1.4,2.8-1.8c1.1-0.4,2.2-0.6,3.4-0.6c0.8,0,1.6,0.1,2.2,0.2c0.6,0.1,1.2,0.2,1.7,0.4
		s0.9,0.3,1.2,0.4s0.5,0.3,0.6,0.3l-1,2.7c-0.5-0.3-1.2-0.6-1.9-0.8C442.8,413.8,441.9,413.6,441.1,413.6z"/>
	<path class="st4" d="M462.4,429.2c-0.2-0.7-0.5-1.4-0.8-2.1c-0.3-0.7-0.5-1.4-0.8-2.1h-7.6c-0.2,0.7-0.5,1.4-0.7,2.1
		c-0.3,0.7-0.5,1.4-0.7,2.1h-3.4c0.7-1.9,1.3-3.7,1.9-5.3c0.6-1.6,1.2-3.2,1.8-4.6s1.2-2.8,1.7-4.2s1.2-2.6,1.8-3.9h3.1
		c0.6,1.3,1.2,2.6,1.8,3.9c0.6,1.3,1.1,2.7,1.7,4.2s1.2,3,1.8,4.6c0.6,1.6,1.3,3.4,1.9,5.3H462.4z M457.1,414.7
		c-0.4,0.9-0.9,2-1.4,3.4c-0.5,1.3-1,2.8-1.6,4.3h5.9c-0.5-1.5-1.1-3-1.6-4.3C457.9,416.7,457.5,415.5,457.1,414.7z"/>
	<path class="st4" d="M472.2,411.2c0.4,0.7,0.8,1.5,1.3,2.4c0.5,1,0.9,2,1.4,3c0.5,1,1,2.1,1.4,3.2c0.5,1.1,0.9,2.1,1.3,3
		c0.4-0.9,0.8-1.9,1.3-3s0.9-2.1,1.4-3.2c0.5-1,1-2,1.4-3s0.9-1.8,1.3-2.4h3c0.2,1.3,0.3,2.7,0.5,4.2s0.3,3,0.4,4.5s0.2,3.1,0.3,4.7
		c0.1,1.6,0.2,3.1,0.3,4.6h-3.2c-0.1-2.1-0.2-4.3-0.3-6.5c-0.1-2.2-0.2-4.4-0.4-6.5c-0.2,0.4-0.4,0.9-0.7,1.4s-0.5,1.2-0.8,1.8
		c-0.3,0.6-0.6,1.3-0.9,2c-0.3,0.7-0.6,1.4-0.9,2c-0.3,0.6-0.5,1.3-0.8,1.8c-0.2,0.6-0.5,1-0.6,1.4h-2.4c-0.2-0.4-0.4-0.9-0.6-1.5
		c-0.2-0.6-0.5-1.2-0.8-1.8c-0.3-0.6-0.6-1.3-0.9-2c-0.3-0.7-0.6-1.4-0.9-2c-0.3-0.6-0.6-1.2-0.8-1.8s-0.5-1-0.7-1.4
		c-0.2,2.1-0.3,4.2-0.4,6.5s-0.2,4.4-0.3,6.5h-3.2c0.1-1.5,0.1-3,0.3-4.6c0.1-1.6,0.2-3.2,0.3-4.8c0.1-1.6,0.2-3.1,0.4-4.6
		s0.3-2.8,0.5-4.1H472.2z"/>
	<path class="st4" d="M491.2,411.2h3.3v18h-3.3V411.2z"/>
	<path class="st4" d="M510.9,429.2c-0.6-1-1.3-2-2-3.2c-0.7-1.1-1.5-2.3-2.3-3.4s-1.6-2.3-2.4-3.4c-0.8-1.1-1.6-2.1-2.3-2.9v12.9
		h-3.2v-18h2.7c0.7,0.7,1.4,1.6,2.2,2.6s1.6,2,2.4,3.1c0.8,1.1,1.6,2.1,2.3,3.2s1.4,2.1,2,3v-12h3.3v18L510.9,429.2L510.9,429.2z"/>
	<path class="st4" d="M526.5,413.6c-1.8,0-3.3,0.6-4.3,1.7c-1,1.1-1.5,2.8-1.5,4.8c0,1,0.1,1.9,0.3,2.7c0.2,0.8,0.6,1.5,1,2.1
		s1,1,1.7,1.3c0.7,0.3,1.5,0.5,2.4,0.5c0.6,0,1.1,0,1.5-0.1s0.7-0.1,1-0.2V420h3.3v8.7c-0.5,0.2-1.2,0.4-2.3,0.6
		c-1.1,0.2-2.3,0.3-3.7,0.3c-1.3,0-2.5-0.2-3.6-0.6c-1.1-0.4-2-1-2.7-1.8c-0.8-0.8-1.3-1.8-1.8-2.9c-0.4-1.2-0.6-2.5-0.6-4
		s0.2-2.8,0.7-4s1.1-2.1,1.9-3c0.8-0.8,1.7-1.4,2.8-1.8c1.1-0.4,2.2-0.6,3.4-0.6c0.8,0,1.6,0.1,2.2,0.2c0.7,0.1,1.2,0.2,1.7,0.4
		s0.8,0.3,1.2,0.4s0.5,0.3,0.6,0.3l-1,2.7c-0.5-0.3-1.2-0.6-1.9-0.8C528.1,413.8,527.3,413.6,526.5,413.6z"/>
	<path class="st4" d="M538.9,425.7c0,0.3,0,0.5,0,0.6c0,0.1,0,0.3,0,0.4c0,1.1-0.2,2.2-0.5,3.3c-0.3,1.1-0.8,2.2-1.4,3.3l-2.5-0.7
		c0.4-1,0.7-2,0.8-3s0.2-1.8,0.2-2.5c0-0.2,0-0.5,0-0.8s0-0.5,0-0.7H538.9z"/>
	<path class="st4" d="M556.8,420.6c-0.4,1.5-0.8,3-1.3,4.5c-0.5,1.5-0.9,2.8-1.4,4.1h-2.6c-0.3-0.8-0.7-1.7-1.1-2.7
		c-0.4-1-0.8-2.1-1.2-3.3s-0.8-2.4-1.2-3.7c-0.4-1.3-0.8-2.6-1.1-3.9h3.3c0.2,0.7,0.3,1.5,0.5,2.4s0.4,1.7,0.7,2.6s0.5,1.7,0.7,2.6
		c0.2,0.8,0.5,1.6,0.7,2.3c0.3-0.8,0.5-1.6,0.8-2.5s0.5-1.7,0.7-2.5c0.2-0.9,0.4-1.7,0.6-2.5c0.2-0.8,0.4-1.6,0.5-2.3h2.4
		c0.2,0.7,0.3,1.5,0.5,2.3s0.4,1.6,0.6,2.5s0.5,1.7,0.7,2.5s0.5,1.7,0.8,2.5c0.2-0.7,0.5-1.5,0.7-2.3c0.2-0.8,0.5-1.7,0.7-2.6
		s0.5-1.7,0.7-2.6s0.4-1.6,0.5-2.4h3.3c-0.4,1.3-0.7,2.6-1.1,3.9c-0.4,1.3-0.8,2.5-1.2,3.7s-0.8,2.3-1.2,3.3c-0.4,1-0.8,1.9-1.1,2.7
		h-2.6c-0.5-1.3-0.9-2.6-1.4-4.1C557.6,423.6,557.2,422.2,556.8,420.6z"/>
	<path class="st4" d="M568.2,422.5c0-1.2,0.2-2.2,0.5-3.1c0.3-0.9,0.8-1.6,1.4-2.3c0.6-0.6,1.3-1,2-1.4c0.8-0.3,1.5-0.5,2.3-0.5
		c1.9,0,3.3,0.6,4.4,1.7s1.6,2.9,1.6,5.2c0,0.2,0,0.4,0,0.6s0,0.4,0,0.6h-9c0.1,1.1,0.5,1.9,1.2,2.5c0.7,0.6,1.7,0.9,3,0.9
		c0.8,0,1.5-0.1,2.1-0.2c0.6-0.1,1.1-0.3,1.5-0.4l0.4,2.6c-0.2,0.1-0.4,0.2-0.7,0.3c-0.3,0.1-0.7,0.2-1,0.3
		c-0.4,0.1-0.8,0.1-1.3,0.2c-0.5,0-0.9,0.1-1.4,0.1c-1.2,0-2.2-0.2-3.1-0.5s-1.6-0.9-2.2-1.5s-1-1.4-1.3-2.2
		C568.3,424.4,568.2,423.5,568.2,422.5z M577.3,421.1c0-0.4-0.1-0.8-0.2-1.2s-0.3-0.7-0.5-1c-0.2-0.3-0.5-0.5-0.9-0.7
		c-0.3-0.2-0.7-0.3-1.2-0.3c-0.5,0-0.9,0.1-1.3,0.3c-0.4,0.2-0.7,0.4-0.9,0.7c-0.3,0.3-0.5,0.6-0.6,1c-0.1,0.4-0.2,0.8-0.3,1.2
		L577.3,421.1L577.3,421.1z"/>
	<path class="st4" d="M601.3,428.8c-0.6,0.2-1.4,0.4-2.3,0.5s-1.9,0.2-3,0.2c-1.1,0-2-0.2-2.9-0.5c-0.8-0.3-1.6-0.8-2.2-1.4
		c-0.6-0.6-1.1-1.4-1.4-2.2s-0.5-1.9-0.5-3c0-1.1,0.1-2,0.4-2.9s0.7-1.6,1.2-2.3s1.2-1.1,1.9-1.4s1.6-0.5,2.6-0.5
		c0.7,0,1.2,0.1,1.7,0.2s0.9,0.3,1.3,0.5v-6.5l3.2-0.5L601.3,428.8L601.3,428.8z M592.3,422.4c0,1.4,0.3,2.5,1,3.3s1.6,1.2,2.7,1.2
		c0.5,0,0.9,0,1.3-0.1s0.7-0.1,0.9-0.1v-7.8c-0.3-0.2-0.7-0.4-1.1-0.5c-0.5-0.2-1-0.3-1.5-0.3c-1.1,0-2,0.4-2.5,1.2
		C592.6,420,592.3,421,592.3,422.4z"/>
	<path class="st4" d="M617.6,422.4c0,1.1-0.2,2-0.5,2.9c-0.3,0.9-0.8,1.6-1.3,2.3s-1.3,1.1-2.1,1.5s-1.7,0.5-2.7,0.5
		s-1.9-0.2-2.7-0.5c-0.8-0.4-1.5-0.8-2-1.5c-0.6-0.6-1-1.4-1.3-2.3s-0.5-1.9-0.5-2.9c0-1.1,0.2-2,0.5-2.9c0.3-0.9,0.8-1.6,1.3-2.3
		c0.6-0.6,1.3-1.1,2.1-1.4s1.7-0.5,2.6-0.5c1,0,1.8,0.2,2.6,0.5s1.5,0.8,2.1,1.4s1,1.4,1.3,2.3C617.5,420.3,617.6,421.3,617.6,422.4
		z M614.4,422.4c0-1.4-0.3-2.4-0.9-3.2c-0.6-0.8-1.4-1.2-2.4-1.2s-1.8,0.4-2.4,1.2c-0.6,0.8-0.9,1.9-0.9,3.2c0,1.4,0.3,2.5,0.9,3.3
		s1.4,1.2,2.4,1.2s1.8-0.4,2.4-1.2C614.1,424.8,614.4,423.7,614.4,422.4z"/>
	<path class="st4" d="M630.5,411.6c0,0.6-0.2,1.1-0.6,1.4c-0.4,0.4-0.8,0.5-1.3,0.5c-0.5,0-1-0.2-1.4-0.5c-0.4-0.4-0.6-0.8-0.6-1.4
		c0-0.6,0.2-1.1,0.6-1.4s0.8-0.5,1.4-0.5c0.5,0,1,0.2,1.3,0.5C630.3,410.5,630.5,411,630.5,411.6z M630.1,429.2H627v-13.6h3.2V429.2
		z"/>
	<path class="st4" d="M634,412l3.2-0.5v4.1h4.8v2.6h-4.8v5.5c0,1.1,0.2,1.9,0.5,2.3c0.3,0.5,0.9,0.7,1.8,0.7c0.6,0,1.1-0.1,1.5-0.2
		s0.8-0.2,1-0.3l0.5,2.5c-0.4,0.2-0.8,0.3-1.4,0.5c-0.6,0.2-1.3,0.3-2.1,0.3c-1,0-1.8-0.1-2.4-0.4c-0.7-0.3-1.2-0.6-1.5-1.1
		s-0.7-1.1-0.8-1.8s-0.2-1.5-0.2-2.4L634,412L634,412z"/>
</g>
<path class="st5" d="M318.8-47.1L306-22.6c-0.3,0.6-0.6,1.3-0.6,1.7c0,1.1,1.1,1.8,2.7,1.8c1.3,0,2.2-0.5,2.7-1.5
	c0,0,11.5-23.1,11.9-23.8c0.4,0.8,11.9,23.8,11.9,23.8c0.5,1,1.4,1.5,2.7,1.5c1.6,0,2.7-0.7,2.7-1.8c0-0.4-0.3-1.1-0.6-1.7
	l-12.8-24.5c-0.8-1.6-2.1-2.4-3.9-2.4C320.9-49.4,319.6-48.7,318.8-47.1"/>
<path class="st5" d="M370.3-47.2c0,0,0,19.5,0,20.6c-0.7-0.7-20.3-20.9-20.3-20.9c-1.4-1.5-2.2-2-3.8-2c-1.7,0-2.6,0.8-2.6,2.4
	l0,25.7c0,1.3,1.1,2.2,2.8,2.2c1.7,0,2.8-0.9,2.8-2.2c0,0,0-19.5,0-20.6c0.7,0.7,20.3,20.9,20.3,20.9c1.4,1.5,2.2,2,3.8,2
	c1.7,0,2.6-0.8,2.6-2.4v-25.7c0-1.3-1.1-2.2-2.8-2.2C371.4-49.5,370.3-48.6,370.3-47.2"/>
<path class="st5" d="M405.1-48.3c0,0-14.5,9.5-17.1,11.2c0-1,0-10.2,0-10.2c0-1.3-1.1-2.2-2.8-2.2c-1.7,0-2.8,0.9-2.8,2.2v25.9
	c0,1.3,1.1,2.2,2.8,2.2c1.7,0,2.8-0.9,2.8-2.2c0,0,0-10.7,0-11.7c0.9,0.6,18.7,13.1,18.7,13.1c1.1,0.8,1.9,0.8,2.6,0.8
	c1.5,0,2.8-0.8,2.8-1.9c0-0.7-0.3-1.2-1.2-1.7c0,0-15.6-10.7-18-12.4c0.7-0.4,16.4-10.6,16.4-10.6c0.5-0.4,1.2-0.7,1.2-1.9
	c0-1.1-1-1.8-2.5-1.8C406.9-49.5,406-48.9,405.1-48.3"/>
<path class="st6" d="M99.5-47.1L86.7-22.6c-0.3,0.6-0.6,1.3-0.6,1.7c0,1.1,1.1,1.8,2.7,1.8c1.3,0,2.2-0.5,2.7-1.5
	c0,0,11.5-23.1,11.9-23.8c0.4,0.8,11.9,23.8,11.9,23.8c0.5,1,1.4,1.5,2.7,1.5c1.6,0,2.7-0.7,2.7-1.8c0-0.4-0.3-1.1-0.6-1.7
	l-12.8-24.5c-0.8-1.6-2.1-2.4-3.9-2.4C101.6-49.4,100.3-48.7,99.5-47.1"/>
<path class="st6" d="M252.2-47.1l-12.8,24.4c-0.3,0.6-0.6,1.3-0.6,1.7c0,1.1,1.1,1.8,2.7,1.8h0c1.3,0,2.2-0.5,2.7-1.5
	c0,0,11.5-23.1,11.9-23.8c0.4,0.8,11.9,23.8,11.9,23.8c0.5,1,1.4,1.5,2.7,1.5c1.6,0,2.7-0.7,2.7-1.8c0-0.4-0.3-1.1-0.6-1.7L260-47.1
	c-0.8-1.6-2.1-2.4-3.9-2.4C254.3-49.4,253-48.7,252.2-47.1"/>
<path class="st6" d="M154.6-47.4c0,0-7.3,17.8-8.5,20.9c-0.4-1-8.5-20.9-8.5-20.9c-0.6-1.5-1.8-2.1-3.9-2.1c-2.3,0-3.8,1-4.2,3
	c0,0-5.6,23.5-5.6,23.5c-0.2,0.8-0.3,1.3-0.3,1.7c0,1.3,1,2.1,2.6,2.1c1.1,0,2.7-0.2,3-1.8l0,0c0,0,4.4-21.4,4.6-22.8
	c0.5,1.3,9.5,22.9,9.5,22.9c0.6,1.5,1.9,1.7,2.9,1.7c1,0,2.2-0.2,2.9-1.7c0,0,8-19.2,9.5-22.9c0.3,1.4,4.6,22.8,4.6,22.8
	c0.3,1.6,1.8,1.8,3,1.8c1.7,0,2.6-0.8,2.6-2.1c0-0.4-0.1-1-0.3-1.7l-5.6-23.5c-0.5-1.9-2-3-4.2-3C156.4-49.5,155.2-48.8,154.6-47.4"
	/>
<path class="st6" d="M176.4-49.2c-1.9,0-3,0.8-3,2.3v25.3c0,1.4,1.1,2.3,3,2.3h14.6c1.7,0,2.8-0.7,2.8-2c0-1.2-1-2-2.8-2
	c0,0-11.4,0-11.9,0c0-0.5,0-8.5,0-9c0.5,0,10.8,0,10.8,0c1.7,0,2.8-0.7,2.8-2c0-1.2-1-2-2.8-2c0,0-10.3,0-10.8,0c0-0.5,0-8.5,0-9
	c0.5,0,11.9,0,11.9,0c1.7,0,2.8-0.7,2.8-2c0-1.2-1-2-2.8-2H176.4z"/>
<path class="st6" d="M229.4-47.2v25.9c0,1.3,1.1,2.2,2.8,2.2c1.7,0,2.8-0.9,2.8-2.2v-25.9c0-1.3-1.1-2.2-2.8-2.2
	C230.5-49.5,229.4-48.6,229.4-47.2"/>
<path class="st6" d="M224-22.7c0,0-11.3-8.8-12.4-9.7c0.6,0,1.4,0,1.4,0c7.4-0.2,11.4-3.2,11.4-8.6c0-5.1-6.5-8.2-12.8-8.2h-9.4
	c-1.9,0-3,0.8-3,2.3v25.6c0,1.3,1.1,2.2,2.8,2.2c1.7,0,2.8-0.9,2.8-2.2c0,0,0-9.5,0-10.6C205.7-31.2,220-20,220-20
	c0.5,0.4,1.3,0.9,2.5,0.9c1.5,0,2.6-0.7,2.6-1.7C225.1-21.6,224.8-22.1,224-22.7 M204.9-35.7v-9.8c0.5,0,6.5,0,6.5,0
	c4.3,0,7.4,2,7.4,4.7c0,3.6-2.2,5.1-7.3,5.1C211.5-35.7,205.4-35.7,204.9-35.7z"/>
<path class="st5" d="M295.3-35.6c3-1,4.8-3.4,4.8-6.4c0-3.5-4-7.3-11.3-7.3h-8.9c-1.9,0-3,0.8-3,2.3l0,25.3c0,1.4,1.1,2.3,3,2.3h9.7
	c9.4,0,13.7-4.6,13.7-8.8C303.3-31.8,299.9-34.8,295.3-35.6 M282.5-45.5c0.5,0,5.6,0,5.6,0c4,0,6.3,1.5,6.3,4.2
	c0,2.7-2.6,4.4-6.5,4.4c0,0-5,0-5.5,0L282.5-45.5z M289.4-23.1c0,0-6.3,0-6.9,0l0-10.2c0.5,0,7.1,0,7.1,0c4.8,0,8.1,2,8.1,5.1
	C297.7-25.2,294.3-23.1,289.4-23.1z"/>
<path class="st7" d="M70.7-11.8c0,1.8-1.5,3.2-3.2,3.2h-45c-1.8,0-3.2-1.5-3.2-3.2v-45c0-1.8,1.5-3.2,3.2-3.2h45
	c1.8,0,3.2,1.5,3.2,3.2V-11.8z"/>
<path class="st6" d="M61.6-22.6L48.8-47.1c-0.8-1.6-2.1-2.4-3.9-2.4c-1.8,0-3.1,0.8-3.9,2.4L28.2-22.6c-0.3,0.6-0.6,1.3-0.6,1.7
	c0,1.1,1.1,1.8,2.7,1.8c1.3,0,2.2-0.5,2.7-1.5c0,0,11.5-23.1,11.9-23.8c0.4,0.8,11.9,23.8,11.9,23.8c0.5,1,1.4,1.5,2.7,1.5
	c1.6,0,2.7-0.7,2.7-1.8C62.2-21.3,61.9-22,61.6-22.6"/>
<g>
	<path class="st8" d="M-155.3-132.1c-7.2,0-14.4,0-21.6,0c-0.2,0-0.3,0-0.5,0c-0.4-0.1-0.6-0.2-0.6-0.7c0-0.1,0-0.3,0.1-0.4
		c0.3-1.3,0.6-2.7,1-4c0.2-0.9,0.5-1.9,0.7-2.8c0.7-2.8,1.3-5.7,2-8.5c0.7-2.8,1.4-5.5,2-8.3c0.5-2,0.9-4.1,1.4-6.1
		c0.7-2.7,1.3-5.5,2-8.2c0.5-1.9,0.9-3.9,1.4-5.8c0.2-0.8,0.4-1.6,0.6-2.3c0.1-0.5,0.3-0.6,0.8-0.7c0.3,0,0.6,0,0.9,0
		c14,0,28.1,0,42.1,0c1.2,0,1.3,0.2,1,1.3c-0.3,1.2-0.6,2.4-0.8,3.5c-0.5,2-0.9,4.1-1.4,6.1c-0.3,1.4-0.4,1.3-1.8,1.3
		c-4.9,0-9.8,0-14.7,0c-3.4,0-6.8,0-10.3,0c-0.3,0-0.5,0-0.8,0c-0.7,0-1,0.2-1.2,1c-0.2,0.9-0.4,1.8-0.7,2.7
		c-0.1,0.5-0.2,0.9-0.3,1.4c-0.2,0.7,0,0.9,0.7,0.9c0.1,0,0.2,0,0.3,0c7.8,0,15.7,0,23.5,0c0.1,0,0.1,0,0.2,0c1.1,0,1.2,0.1,0.9,1.2
		c-0.3,1-0.5,2-0.7,3c-0.5,2-0.9,4-1.4,6.1c-0.2,0.9-0.5,1.1-1.4,1.1c-8,0-16,0-24,0c-0.2,0-0.4,0-0.5,0c-0.4,0.1-0.6,0.2-0.7,0.6
		c-0.4,1.5-0.7,2.9-1.1,4.4c-0.2,0.6,0,0.9,0.7,0.9c0.4,0,0.7,0,1.1,0c8.6,0,17.1,0,25.7,0c0.2,0,0.3,0,0.5,0c0.3,0,0.5,0.2,0.5,0.6
		c0,0.2,0,0.4-0.1,0.5c-0.7,2.8-1.4,5.6-2,8.4c-0.1,0.6-0.2,1.2-0.4,1.8c-0.2,0.9-0.4,1-1.3,1C-140.9-132.1-148.1-132.1-155.3-132.1
		C-155.3-132.1-155.3-132.1-155.3-132.1z"/>
	<path class="st8" d="M-270.1-180c2.3,0,4.6,0,6.9,0c0.2,0,0.4,0,0.6,0c0.6,0,0.8,0.3,0.6,0.9c-0.7,3.1-1.5,6.3-2.2,9.4
		c-0.7,2.7-1.3,5.5-2,8.2c-0.5,2.1-1,4.1-1.4,6.2c-0.3,1.5-0.8,3-1,4.6c-0.2,1.1-0.2,2.2-0.1,3.3c0.2,2,1.3,3.2,3.1,3.9
		c1.4,0.5,2.9,0.5,4.4,0.3c2.4-0.3,4.4-1.4,5.9-3.3c0.9-1.1,1.5-2.4,2-3.8c0.8-2.3,1.3-4.6,1.8-6.9c0.5-2,1-3.9,1.4-5.9
		c0.5-2,0.9-3.9,1.4-5.9c0.5-2,1-3.9,1.4-5.9c0.3-1.3,0.6-2.5,0.9-3.8c0.1-0.3,0.1-0.5,0.2-0.8c0.2-0.6,0.4-0.8,1-0.8
		c0.4,0,0.8,0,1.2,0c4.5,0,8.9,0,13.4,0c0.1,0,0.3,0,0.4,0c0.9,0,1,0.2,0.8,1c-0.5,2.3-1.1,4.5-1.6,6.8c-0.7,2.8-1.4,5.6-2,8.4
		c-0.3,1.1-0.5,2.3-0.8,3.4c-0.2,1.1-0.5,2.1-0.7,3.2c-0.5,2.3-1.1,4.6-1.6,7c-0.5,1.9-0.9,3.8-1.6,5.6c-1.5,3.6-3.9,6.7-7.2,8.9
		c-2,1.3-4.1,2.4-6.3,3.1c-2,0.6-4,1.1-6.1,1.3c-2,0.2-4.1,0.4-6.1,0.4c-2.4,0-4.8-0.2-7.2-0.6c-3.1-0.5-6.1-1.3-8.8-2.9
		c-2.3-1.3-4.2-3.1-5.5-5.5c-1.3-2.5-1.7-5.2-1.1-8.1c0.7-3.1,1.4-6.2,2.1-9.2c0.8-3.3,1.5-6.5,2.3-9.7c0.7-2.8,1.4-5.6,2-8.5
		c0.3-1.1,0.5-2.3,0.8-3.4c0.2-1,0.5-1.1,1.4-1.1C-274.9-180-272.5-180-270.1-180C-270.1-180-270.1-180-270.1-180z"/>
	<path class="st8" d="M-331.6-148.2c2.3,0,4.6,0,6.8,0c0.2,0,0.3,0,0.5,0c0.6,0,0.8,0.2,0.8,0.9c0,0.9,0.2,1.7,0.6,2.6
		c0.7,1.5,1.8,2.5,3.5,2.8c2.2,0.4,4.4,0.5,6.6,0.1c1.2-0.2,2.2-0.7,3.2-1.4c0.7-0.5,1.2-1.2,1.5-2c0.4-1.1,0.2-2.1-0.6-2.9
		c-0.5-0.4-1-0.8-1.6-1.1c-1.7-0.8-3.5-1.3-5.3-1.7c-1.7-0.4-3.3-0.8-4.9-1.3c-1.5-0.5-3.1-0.9-4.6-1.5c-2.3-1-4.5-2.2-6.2-4.1
		c-1.7-1.9-2.5-4.2-2.7-6.7c-0.2-4.8,1.7-8.5,5.5-11.4c2.7-2,5.8-3.3,9.1-4.1c3.7-0.9,7.4-1.2,11.2-0.9c3,0.2,6,0.6,8.9,1.7
		c2.8,1.1,5.4,2.5,7.2,4.9c1.8,2.4,2.6,5.1,2.6,8.1c0,0.7-0.2,0.8-0.9,0.9c-1.8,0-3.6,0-5.4,0c-2.7,0-5.4,0-8.1,0
		c-0.9,0-1-0.1-1.1-1c-0.2-1.5-1-2.5-2.3-3.2c-1.1-0.6-2.3-0.8-3.5-0.8c-1.1,0-2.1,0-3.2,0.2c-0.8,0.1-1.5,0.4-2.3,0.7
		c-0.6,0.2-1.1,0.7-1.5,1.3c-0.8,1.3-0.5,2.6,0.7,3.6c0.8,0.6,1.8,1,2.7,1.2c1.7,0.4,3.4,0.8,5.1,1.2c1.9,0.5,3.9,0.9,5.8,1.6
		c2.2,0.8,4.3,1.7,6.2,3c2.2,1.5,3.8,3.5,4.6,6.1c0.3,1.1,0.5,2.2,0.5,3.4c0.1,4.6-1.8,8.3-5.2,11.2c-2.3,2-5,3.3-7.8,4.2
		c-2.2,0.7-4.5,1.2-6.9,1.5c-2.2,0.3-4.4,0.3-6.6,0.2c-2.5-0.1-5.1-0.4-7.5-1.1c-2.3-0.7-4.6-1.5-6.6-2.8c-3.1-1.9-5.3-4.5-6.3-8.1
		c-0.4-1.4-0.6-2.8-0.6-4.3c0-0.7,0.2-0.9,1-0.9c1.6,0,3.3,0,4.9,0C-333.2-148.2-332.4-148.2-331.6-148.2
		C-331.6-148.2-331.6-148.2-331.6-148.2z"/>
	<path class="st8" d="M-270-105.8c-0.1,0.3-0.2,0.6-0.2,0.9c-0.5,2.5-1,5.1-1.6,7.6c-0.3,1.4-0.5,2.7-0.8,4.1
		c-0.4,1.7-0.7,3.4-1.1,5.1c-0.1,0.3-0.1,0.6-0.1,0.8c-0.1,0.7-0.4,0.9-1.1,0.9c-0.2,0-0.5,0-0.7,0c-2.6,0-5.2,0-7.8,0
		c-0.1,0-0.3,0-0.4,0c-0.6,0-0.7-0.2-0.6-0.8c0.2-1,0.4-2,0.6-3c0.5-2.7,1.1-5.3,1.6-8c0.5-2.2,1-4.4,1.4-6.6
		c0.5-2.2,0.9-4.5,1.4-6.7c0.5-2.3,1-4.6,1.4-6.8c0.2-1,0.4-2,0.6-3c0.2-0.9,0.4-0.9,1.2-0.9c2.9,0,5.8,0,8.6,0
		c1.2,0,1.3,0.1,1.7,1.3c0.5,1.5,1,2.9,1.5,4.3c0.4,1.3,0.9,2.5,1.3,3.8c0.5,1.5,1,2.9,1.5,4.4c0.5,1.4,0.9,2.8,1.4,4.2
		c0.1,0.3,0.1,0.8,0.6,0.8c0.5,0,0.4-0.5,0.5-0.8c0.5-2.6,1-5.2,1.6-7.8c0.2-1.1,0.5-2.3,0.7-3.4c0.4-2,0.8-4,1.2-6
		c0.1-0.6,0.3-0.7,0.9-0.8c0.4,0,0.7,0,1.1,0c2.5,0,4.9,0,7.4,0c0.1,0,0.2,0,0.2,0c0.9,0,1.1,0.2,0.9,1.1c-0.5,2.4-1,4.7-1.5,7.1
		c-0.7,3.1-1.4,6.2-2,9.3c-0.5,2.2-0.9,4.3-1.3,6.5c-0.5,2.2-0.9,4.4-1.4,6.6c-0.3,1.3-0.5,2.6-0.8,4c0,0.2-0.1,0.4-0.1,0.5
		c-0.2,0.5-0.4,0.7-0.9,0.8c-0.2,0-0.4,0-0.6,0c-2.7,0-5.5,0-8.2,0c-0.2,0-0.5,0-0.7,0c-0.4,0-0.6-0.3-0.8-0.6
		c-0.8-2.4-1.6-4.8-2.4-7.2c-0.7-2-1.4-4.1-2-6.1c-0.5-1.5-0.9-2.9-1.4-4.4C-269.4-105.1-269.4-105.6-270-105.8z"/>
	<path class="st8" d="M-308.2-105.8c-0.1,0.3-0.2,0.5-0.3,0.8c-0.5,2.6-1.1,5.3-1.6,7.9c-0.5,2.3-0.9,4.6-1.4,6.9
		c-0.2,1-0.4,1.9-0.6,2.9c-0.2,0.7-0.4,0.9-1.1,0.9c-2.9,0-5.9,0-8.8,0c-0.7,0-0.9-0.2-0.7-0.9c0.1-0.7,0.3-1.5,0.5-2.2
		c0.5-2.2,0.9-4.4,1.4-6.6c0.3-1.5,0.6-3,0.9-4.5c0.5-2.3,1-4.5,1.4-6.8c0.2-0.9,0.4-1.8,0.6-2.7c0.3-1.4,0.5-2.7,0.8-4.1
		c0.5-2.4,1-4.8,1.5-7.1c0.2-0.8,0.3-0.9,1.1-0.9c2.7,0,5.3,0,8,0c0.3,0,0.7,0,1,0c0.7,0,1,0.2,1.3,0.9c0.4,1.2,0.8,2.4,1.2,3.6
		c0.5,1.5,1,2.9,1.5,4.4c0.7,1.9,1.3,3.9,2,5.8c0.4,1.2,0.8,2.4,1.2,3.6c0,0.1,0.1,0.3,0.2,0.3c0.1,0.1,0.3,0.2,0.4,0.2
		c0.1,0,0.2-0.2,0.3-0.3c0.1-0.1,0.1-0.2,0.1-0.4c0.2-0.9,0.3-1.8,0.5-2.7c0.5-2.3,0.9-4.7,1.4-7c0.5-2.3,1-4.5,1.4-6.8
		c0.1-0.3,0.1-0.7,0.2-1c0.1-0.5,0.3-0.6,0.8-0.7c0.2,0,0.3,0,0.5,0c2.7,0,5.4,0,8.2,0c0.1,0,0.3,0,0.4,0c0.7,0.1,0.8,0.3,0.7,0.9
		c-0.8,3.7-1.6,7.4-2.4,11.1c-0.5,2.2-0.9,4.5-1.4,6.7c-0.5,2.2-1,4.4-1.4,6.6c-0.3,1.2-0.5,2.5-0.8,3.7c-0.3,1.4-0.6,2.8-0.9,4.2
		c-0.1,0.6-0.2,1.2-0.4,1.8c-0.1,0.7-0.3,0.9-1.1,0.9c-1.4,0-2.8,0-4.2,0c-1.6,0-3.1,0-4.7,0c-1.1,0-1.2-0.1-1.5-1.1
		c-0.7-2.1-1.4-4.1-2.1-6.2c-0.5-1.5-0.9-2.9-1.4-4.4c-0.6-1.8-1.2-3.7-1.8-5.5c-0.2-0.5-0.3-1-0.5-1.5
		C-307.6-105.3-307.7-105.6-308.2-105.8z"/>
	<path class="st8" d="M-97.3-86.4c-4.6,0-9.2,0-13.8,0c-0.1,0-0.3,0-0.4,0c-0.6,0-0.7-0.2-0.7-0.8c0-0.1,0-0.2,0-0.3
		c0.4-2,0.9-4.1,1.3-6.1c0.3-1.5,0.6-3,0.9-4.6c0.3-1.4,0.6-2.7,0.9-4.1c0.3-1.4,0.6-2.9,0.9-4.3c0.5-2.2,0.9-4.4,1.4-6.6
		c0.3-1.4,0.6-2.7,0.8-4.1c0.3-1.4,0.6-2.7,0.9-4.1c0.2-0.8,0.3-0.9,1.2-0.9c3.2,0,6.4,0,9.6,0c5.9,0,11.9,0,17.8,0
		c1.2,0,1.3,0.2,1,1.3c-0.3,1.4-0.6,2.9-0.9,4.3c-0.2,0.9-0.4,1.8-0.5,2.7c-0.1,0.5-0.3,0.7-0.8,0.8c-0.3,0-0.5,0-0.8,0
		c-5.4,0-10.8,0-16.2,0c-0.8,0-0.9,0.1-1.1,0.8c-0.2,1-0.4,1.9-0.6,2.9c-0.1,0.5,0,0.7,0.5,0.7c0.2,0,0.4,0,0.6,0
		c4.9,0,9.8,0,14.7,0c0.1,0,0.3,0,0.4,0c0.6,0.1,0.8,0.3,0.7,0.9c-0.4,1.8-0.7,3.5-1.1,5.3c-0.1,0.5-0.2,1.1-0.3,1.6
		c-0.1,0.6-0.3,0.7-0.9,0.8c-0.3,0-0.7,0-1,0c-4.8,0-9.5,0-14.3,0c-1.3,0-1.3,0-1.5,1.2c-0.2,0.8-0.4,1.5-0.5,2.3
		c-0.1,0.8,0,0.9,0.8,0.9c1.5,0,3,0,4.4,0c4.1,0,8.2,0,12.3,0c1.1,0,1.4,0.2,1,1.3c-0.3,1-0.5,2-0.7,3c-0.3,1.2-0.5,2.5-0.7,3.7
		c0,0.2-0.1,0.4-0.1,0.5c-0.1,0.4-0.3,0.6-0.7,0.6c-0.2,0-0.4,0-0.5,0C-88-86.4-92.7-86.4-97.3-86.4C-97.3-86.4-97.3-86.4-97.3-86.4
		z"/>
	<path class="st8" d="M-371.9-118.8c0,2.9-0.4,5.3-1,7.8c-0.6,2.2-1.4,4.3-2.4,6.4c-1.6,3.1-3.8,5.8-6.5,8.1c-2.1,1.8-4.5,3.1-7,4.3
		c-0.5,0.3-0.8,0.2-1.2-0.5c-0.4-0.7-0.8-1.4-1.3-2.1c-0.2-0.3-0.4-0.6-0.6-0.9c-0.3-0.5-0.2-0.7,0.3-1c0.5-0.3,1-0.5,1.4-0.8
		c1.5-0.8,2.5-2,3.3-3.5c0.9-1.8,1.5-3.7,1.9-5.6c0.3-1.6,0.5-3.3,0.7-4.9c0.1-1,0.1-2.1-0.2-3.1c-0.3-1.2-1-2.1-1.9-3
		c-1.3-1.2-2.8-2.2-4.5-2.9c-2.2-1-4.4-1.7-6.7-2.4c-1.3-0.4-2.4-1.1-3.4-1.9c-3-2.3-5.5-5.1-7.3-8.5c-1.6-3-2.7-6.3-2.6-9.8
		c0-1.3,0-2.6,0-3.9c0-0.1,0-0.3,0-0.4c0.1-0.5,0.4-0.7,0.8-0.4c0.7,0.5,1.4,1,2.1,1.5c1.3,0.9,2.8,1.6,4.3,2.2
		c2.5,1,5.2,1.7,7.8,2.4c1.5,0.4,2.9,0.9,4.4,1.4c1.2,0.4,2.4,0.9,3.7,1.3c2.1,0.8,4.1,1.8,6,2.9c2.1,1.2,4,2.8,5.6,4.6
		c1.4,1.7,2.5,3.5,3.3,5.6C-372.1-123.4-371.8-121-371.9-118.8z M-380.3-108c0.1,0,0.2,0.1,0.2,0.1c0.2-0.2,0.5-0.5,0.7-0.8
		c2.1-3.2,3.2-6.7,3-10.6c-0.1-2.1-0.5-4.2-1.4-6.1c-1-2.1-2.6-3.7-4.4-5.1c-2.1-1.6-4.3-2.8-6.8-3.8c-2.8-1.1-5.6-2-8.4-2.9
		c-2.2-0.7-4.5-1.3-6.8-1.9c-0.1,0-0.2-0.1-0.4-0.1c-0.4-0.1-0.6,0.1-0.6,0.6c0,0.2,0,0.3,0.1,0.5c0.5,1.5,1.1,2.9,1.9,4.3
		c1.2,2,2.8,3.6,4.5,5.1c0.8,0.8,1.8,1.2,2.9,1.6c2.6,0.8,5,1.7,7.4,2.9c2.3,1.1,4.3,2.5,5.9,4.4c1.2,1.4,2,3,2.3,4.8
		c0.3,2.1,0.3,4.2-0.2,6.3C-380.3-108.5-380.3-108.2-380.3-108z"/>
	<path class="st8" d="M-124.5-122.2c4.7,0,9.5,0,14.2,0c1.1,0,1.4,0.1,1.1,1.4c-0.5,2.2-0.9,4.4-1.4,6.6c-0.2,1-0.4,1.2-1.4,1.2
		c-2.6,0-5.3,0-7.9,0c-0.7,0-0.8,0.1-1,0.7c-0.1,0.3-0.2,0.7-0.3,1.1c-0.6,2.8-1.2,5.5-1.7,8.3c-0.5,2.3-0.9,4.6-1.4,6.9
		c-0.6,2.8-1.2,5.7-1.8,8.5c0,0.1,0,0.2-0.1,0.3c-0.2,0.8-0.4,0.9-1.3,0.9c-2.8,0-5.6,0-8.5,0c-0.3,0-0.5,0-0.8,0
		c-0.5,0-0.6-0.2-0.6-0.7c0-0.1,0-0.2,0-0.3c0.5-2.2,1-4.4,1.4-6.6c0.2-1.1,0.4-2.1,0.7-3.2c0.4-1.8,0.8-3.6,1.1-5.4
		c0.5-2.2,0.9-4.4,1.3-6.6c0.2-0.8,0.4-1.7,0.5-2.5c0-0.2,0.1-0.5,0.1-0.7c0-0.4-0.1-0.6-0.6-0.7c-0.2,0-0.4,0-0.5,0
		c-2.5,0-4.9,0-7.4,0c-1.2,0-1.3-0.2-1-1.3c0.3-1.3,0.5-2.5,0.8-3.8c0.2-1.1,0.4-2.2,0.7-3.3c0.1-0.6,0.3-0.7,0.9-0.8
		c0.4,0,0.8,0,1.2,0C-133.4-122.2-128.9-122.2-124.5-122.2C-124.5-122.2-124.5-122.2-124.5-122.2z"/>
	<path class="st8" d="M-185.7-122.2c4.8,0,9.6,0,14.4,0c0.1,0,0.2,0,0.3,0c0.6,0,0.8,0.2,0.7,0.8c0,0.4-0.1,0.8-0.2,1.1
		c-0.4,1.9-0.8,3.8-1.2,5.7c-0.1,0.3-0.1,0.5-0.2,0.8c-0.2,0.6-0.4,0.7-1,0.8c-0.3,0-0.6,0-0.9,0c-2.4,0-4.8,0-7.2,0
		c-0.8,0-1.1,0.2-1.3,1c-0.2,0.9-0.3,1.7-0.5,2.6c-0.3,1.3-0.5,2.7-0.8,4c-0.5,2.3-1,4.5-1.4,6.8c-0.2,1-0.4,2.1-0.6,3.1
		c-0.5,2.3-0.9,4.6-1.4,6.9c-0.1,0.5-0.2,1-0.4,1.5c-0.2,0.7-0.3,0.8-1,0.8c-0.4,0-0.8,0-1.2,0c-2.6,0-5.2,0-7.8,0
		c-0.9,0-1.1-0.2-0.9-1.1c0.3-1.6,0.7-3.2,1-4.9c0.4-2.1,0.9-4.3,1.3-6.4c0.5-2.3,1-4.7,1.5-7c0.2-1,0.4-2,0.6-3
		c0.2-1.1,0.5-2.2,0.7-3.3c0.2-0.8,0-1-0.9-1c-2.6,0-5.2,0-7.8,0c-0.9,0-1-0.2-0.9-1c0.5-2.5,1-4.9,1.6-7.4c0.1-0.7,0.3-0.8,1-0.8
		c0.5,0,1,0,1.6,0C-194.4-122.2-190-122.2-185.7-122.2C-185.7-122.2-185.7-122.2-185.7-122.2z"/>
	<path class="st8" d="M-379.1-182.3c7.6,0,15.3,0,22.9,0c0.3,0,0.5,0,0.8,0c0.4,0.1,0.6,0.3,0.3,0.7c-0.7,1.2-1.5,2.4-2.2,3.6
		c-1.8,3-3.7,6-5.5,9c-2.6,4.2-5.2,8.4-7.7,12.6c-2.2,3.5-4.4,7.1-6.5,10.7c-0.1,0.1-0.1,0.2-0.2,0.3c-0.4,0.6-0.6,0.6-1.2,0.3
		c-0.7-0.4-1.5-0.8-2.2-1.3c-0.7-0.4-0.7-0.6-0.3-1.3c0.9-1.9,1.9-3.7,2.7-5.7c1.2-3,2-6.1,2.2-9.3c0.1-2.4-0.2-4.7-1.3-6.8
		c-0.6-1.2-1.5-2.2-2.5-3.1c-1.9-1.7-4.1-2.7-6.5-3.4c-4.5-1.3-9-1.5-13.6-1.3c-0.2,0-0.4,0-0.5,0c-0.5,0-0.8-0.2-1-0.6
		c-0.5-1.2-1.1-2.3-1.6-3.4c-0.3-0.6-0.1-0.9,0.6-0.9c0.2,0,0.5,0,0.7,0C-394.3-182.3-386.7-182.3-379.1-182.3z M-377.8-177.3
		c0.2,0.2,0.3,0.4,0.4,0.5c0.8,0.8,1.8,1.6,2.5,2.5c1.3,1.5,2.3,3.3,2.7,5.2c0.1,0.3,0.2,0.6,0.3,0.9c0.1,0.2,0.1,0.3,0.1,0.5
		c0.1,0.9,0.2,1.9,0.3,2.8c0,0.1,0.1,0.2,0.2,0.3c0.2-0.3,0.4-0.5,0.5-0.7c0.5-0.8,1-1.7,1.5-2.5c0.8-1.3,1.6-2.6,2.4-3.9
		c1-1.5,1.9-3.1,2.9-4.6c0.2-0.3,0.3-0.6,0.5-1.1C-368.2-177.3-372.9-177.3-377.8-177.3z"/>
	<path class="st8" d="M-435-85.2c-7.7,0-15.5,0-23.2,0c-0.2,0-0.4,0-0.5,0c-0.5,0-0.6-0.3-0.4-0.7c0.6-1,1.2-2,1.9-3
		c1.5-2.4,2.9-4.8,4.4-7.2c1.4-2.2,2.7-4.5,4.1-6.7c1.7-2.7,3.3-5.5,5-8.2c2.1-3.4,4.2-6.9,6.3-10.3c0.3-0.5,0.6-0.6,1.2-0.4
		c0.8,0.3,1.5,0.5,2.3,0.8c0.7,0.3,0.7,0.5,0.4,1.1c-1.1,1.8-2,3.8-2.8,5.8c-0.5,1.3-0.9,2.5-1.3,3.8c-0.7,2.5-1.1,5-0.8,7.5
		c0.4,4.1,2.4,7.2,6,9.4c2,1.2,4.2,1.9,6.5,2.4c4.2,0.8,8.5,1,12.8,0.7c0.7-0.1,1,0.1,1.3,0.7c0.4,1.2,0.9,2.3,1.3,3.5
		c0.2,0.5,0,0.7-0.5,0.7c-0.2,0-0.3,0-0.5,0C-419.5-85.2-427.2-85.2-435-85.2z M-437.2-89.9c-0.2-0.2-0.4-0.3-0.5-0.4
		c-0.4-0.3-0.8-0.4-1.1-0.8c-1.2-1.4-2.4-2.8-3.1-4.5c-0.5-1.1-0.9-2.3-1.3-3.5c-0.1-0.1,0-0.3,0-0.5c0-0.9-0.1-1.7-0.2-2.6
		c0-0.1-0.2-0.3-0.3-0.4c-0.1,0.1-0.3,0.1-0.4,0.3c-0.3,0.5-0.6,1-0.9,1.5c-0.4,0.6-0.6,1.3-1,1.9c-1.3,1.6-2.1,3.6-3.3,5.3
		c-0.7,0.9-1.1,1.9-1.7,2.8c-0.2,0.3-0.4,0.6-0.3,1c0.7,0,1.3,0.1,1.9,0c1-0.2,2,0,3,0c1.4,0,2.8,0.2,4.2-0.2c0.7-0.2,1.4-0.1,2.2,0
		c0.6,0,1.2,0.1,1.8,0.2C-438-89.7-437.7-89.6-437.2-89.9z"/>
	<path class="st8" d="M-416-128.9c-0.3-0.1-0.5-0.1-0.7-0.2c-1.5-0.6-3.1-1.2-4.6-1.9c-3.2-1.5-6.2-3.2-9.1-5.2
		c-3.2-2.3-6.1-5-8.5-8.2c-1.6-2.2-2.9-4.6-3.6-7.3c-0.6-2.4-0.8-4.8-0.4-7.3c0.7-3.9,2.5-7.2,5-10.2c2.1-2.5,4.6-4.6,7.4-6.4
		c2.6-1.7,5.3-3,8.1-4.1c0.7-0.3,1-0.2,1.3,0.5c0.6,1.2,1.1,2.5,1.7,3.8c0.3,0.7,0.2,0.9-0.5,1.2c-3.2,1.1-5.9,3-8.2,5.4
		c-1.2,1.2-2.1,2.6-2.6,4.2c-0.6,2-0.2,3.8,1,5.5c1.1,1.7,2.6,3,4.3,4.1c0.3,0.2,0.6,0.4,0.9,0.6c0.5,0.3,0.6,0.8,0.5,1.3
		c-0.5,2-0.7,4.1-0.8,6.2c-0.1,2.4,0.3,4.8,1.5,6.9c1,1.8,2,3.6,3,5.4c1,1.7,2.4,3.1,3.8,4.6C-416.3-129.6-415.9-129.4-416-128.9z
		 M-428-139.8c0-0.3,0-0.5-0.1-0.6c-0.2-0.9-0.5-1.8-0.6-2.8c-0.1-1-0.3-2.1-0.5-3.1c0-0.2,0-0.3,0-0.5c0.2-1.1,0.4-2.3,0.6-3.4
		c0-0.3,0.1-0.5,0.2-0.7c0.1-0.3,0.1-0.6-0.1-0.8c-0.2-0.2-0.3-0.4-0.6-0.5c-1.2-0.9-2.3-2-3.4-3.1c-1.3-1.4-2.5-2.9-3.1-4.7
		c-0.3-1-0.6-2-0.3-3c0.1-0.2,0-0.5,0.1-0.8c-0.1,0-0.1,0-0.2-0.1c-0.2,0.2-0.3,0.4-0.4,0.7c-0.3,0.6-0.5,1.2-0.8,1.8
		c-0.5,1.1-0.8,2.2-1,3.4c-0.4,2.4-0.4,4.9,0.3,7.3c0.6,2,1.7,3.8,3,5.4c0.7,0.9,1.6,1.6,2.4,2.4c0.8,0.7,1.6,1.5,2.5,2.2
		C-429.3-140.5-428.7-140.2-428-139.8z"/>
	<path class="st8" d="M-68.8-163.8c0-2.6,0-5.2,0-7.8c0-0.7-0.1-1.3-0.4-1.9c-1.2-2.2-3-3.8-5.3-4.7c-2.5-1.1-5.2-1.5-7.9-1.7
		c-1.3-0.1-2.6-0.1-4-0.1c-3.5,0-7.1,0-10.6,0c0,0,0,0,0,0c-5,0-9.9,0-14.9,0c-0.2,0-0.4,0-0.6,0c-0.4,0-0.6,0.2-0.7,0.6
		c-0.2,0.8-0.4,1.6-0.6,2.3c-0.3,1.1-0.5,2.2-0.8,3.3c-0.5,2-1,4-1.4,6c-0.5,2.1-1,4.3-1.5,6.4c-0.4,1.8-0.9,3.7-1.3,5.5
		c-0.5,2-0.9,4-1.4,6.1c-0.7,2.8-1.3,5.5-2,8.3c-0.6,2.4-1.1,4.8-1.7,7.2c-0.1,0.5-0.2,1-0.3,1.4c-0.1,0.5,0.1,0.7,0.6,0.8
		c0.2,0,0.3,0,0.5,0c4.7,0,9.4,0,14.1,0c0.9,0,1.1-0.2,1.3-1c0.3-1,0.5-2,0.7-3c0.3-1.2,0.5-2.3,0.8-3.5c0.7-2.8,1.3-5.5,2-8.3
		c0.2-0.8,0.3-0.9,1.1-0.9c2.3,0,4.6,0,6.9,0c1.2,0,2.4,0.2,3.5,0.7c1.9,0.8,2.9,2.3,2.7,4.4c-0.1,1.2-0.2,2.3-0.4,3.5
		c-0.3,1.7-0.5,3.5-0.3,5.3c0.1,0.7,0.2,1.4,0.4,2.1c0.2,0.6,0.4,0.7,1,0.8c0.2,0,0.4,0,0.5,0c4.5,0,9.1,0,13.6,0c0.1,0,0.3,0,0.4,0
		c0.3,0,0.5-0.2,0.5-0.6c0-0.2-0.1-0.4-0.1-0.5c-0.1-0.8-0.4-1.7-0.4-2.5c-0.1-1.1-0.1-2.3-0.1-3.4c0-2.2,0-4.3,0.1-6.5
		c0-1.2-0.2-2.4-0.5-3.5c-0.6-2.2-1.8-3.7-4-4.5c-0.2-0.1-0.3-0.2-0.4-0.4c0.2-0.1,0.3-0.3,0.5-0.4c0.1,0,0.1,0,0.2-0.1
		c1.5-0.3,2.8-0.8,4.2-1.4c2.4-1.2,4.3-3,5.7-5.4C-69-162.1-68.8-162.9-68.8-163.8z M-85.1-162.7c-0.6,1.3-1.6,2.2-3,2.8
		c-1.5,0.6-3,0.8-4.5,0.8c-1.2,0-2.3,0-3.5,0c0,0,0,0,0,0c-1.4,0-2.8,0-4.3,0c-0.1,0-0.3,0-0.4,0c-0.7,0-0.8-0.2-0.7-0.9
		c0.1-0.5,0.2-1.1,0.3-1.6c0.3-1.2,0.6-2.5,0.9-3.7c0.2-0.9,0.4-1.8,0.6-2.6c0.1-0.5,0.3-0.6,0.8-0.7c0.1,0,0.3,0,0.4,0
		c2.8,0,5.6,0,8.5,0c1.3,0,2.5,0.3,3.5,1C-84.9-166.5-84.3-164.4-85.1-162.7z"/>
	<path class="st8" d="M-177.9-170.8c-0.7-2.2-1.9-4.1-3.7-5.6c-2.5-2.2-5.6-3.1-8.8-3.5c-1.3-0.2-2.6-0.1-3.9-0.2c-3.5,0-7,0-10.6,0
		c-4.6,0-9.2,0-13.8,0c-0.3,0-0.6,0-0.9,0c-0.6,0-0.8,0.2-1,0.8c-0.4,1.5-0.7,3-1.1,4.5c-0.6,2.8-1.3,5.5-1.9,8.3
		c-0.8,3.3-1.5,6.5-2.3,9.7c-0.2,0.9-0.4,1.8-0.6,2.7c-0.5,2.2-1,4.3-1.6,6.5c-0.4,1.8-0.9,3.7-1.3,5.5c-0.5,2-1,4-1.4,6
		c-0.2,0.9-0.4,1.8-0.6,2.7c-0.2,0.8,0,1.1,0.8,1.1c4.8,0,9.6,0,14.5,0c0.9,0,1.1-0.2,1.3-1c0.2-1.1,0.5-2.1,0.7-3.2
		c0.7-3.1,1.5-6.2,2.2-9.3c0.2-0.7,0.4-0.9,1.1-0.9c0.2,0,0.4,0,0.6,0c3.9,0,7.9,0,11.8-0.1c3.6-0.1,7-0.9,10.3-2.4
		c3.4-1.5,6.2-3.7,8.4-6.7c1.3-1.8,2.2-3.8,2.5-6C-176.8-164.8-177-167.8-177.9-170.8z M-197.1-158.8c-1.6,0.6-3.3,0.7-5,0.8
		c-0.7,0-1.5,0-2.3,0c0,0,0,0,0,0c-1.1,0-2.1,0-3.2,0c-0.2,0-0.5,0-0.7,0c-0.4-0.1-0.6-0.3-0.5-0.7c0-0.2,0.1-0.3,0.1-0.5
		c0.6-2.5,1.2-5.1,1.8-7.6c0.2-0.6,0.4-0.9,1.1-0.9c2.6,0,5.2-0.1,7.8,0.3c0.8,0.1,1.6,0.4,2.3,0.7c1.1,0.6,1.8,1.5,1.9,2.9
		C-193.5-161.3-194.9-159.6-197.1-158.8z"/>
	<path class="st8" d="M-207.4-108.9c-0.2-2.9-0.8-5.7-2.4-8.2c-1.4-2.2-3.4-3.7-5.9-4.6c-2.5-0.9-5-1.4-7.4-1.3
		c-3.7-0.1-7.1,0.6-10.2,2.3c-2.5,1.4-4.6,3.2-6.2,5.5c-2.4,3.3-3.7,6.9-4.1,10.9c-0.4,3.6-0.1,7.2,1.3,10.6
		c1.6,3.8,4.6,6.1,8.4,7.2c1.9,0.6,3.8,0.8,5.8,0.8c4.8,0.1,9.2-1.2,12.9-4.2c3.6-2.9,5.8-6.7,7-11.1
		C-207.4-103.5-207.2-106.2-207.4-108.9z M-218.5-104.9c-0.2,1.3-0.5,2.6-0.9,3.8c-0.7,2.1-1.7,3.9-3.6,5.2
		c-1.8,1.3-3.9,1.7-6.1,1.1c-1.4-0.4-2.3-1.3-2.9-2.6c-0.4-0.8-0.6-1.7-0.6-2.6c0-0.5,0-1-0.1-1.4c0-3,0.6-5.7,1.9-8.2
		c0.9-1.7,2.1-3.2,4-4c1.7-0.7,3.4-0.9,5.2-0.3c1.5,0.5,2.4,1.6,2.9,3C-218.2-108.8-218.2-106.8-218.5-104.9z"/>
	<path class="st8" d="M-144.8-87.7c-0.4-2.5-0.8-5-1.2-7.4c-0.2-1.5-0.5-3-0.7-4.5c-0.3-1.8-0.6-3.7-0.9-5.5
		c-0.3-1.6-0.5-3.3-0.8-4.9c-0.3-1.7-0.6-3.3-0.8-5c-0.3-2-0.6-3.9-0.9-5.9c0-0.2-0.1-0.3-0.1-0.5c-0.2-0.6-0.4-0.8-1-0.8
		c-0.4,0-0.9,0-1.3,0c-2.6,0-5.1,0-7.7,0c-0.7,0-1.1,0.2-1.4,0.8c0,0.1-0.1,0.2-0.2,0.3c-1.7,3-3.4,5.9-5.2,8.9c-2,3.5-4,6.9-6,10.4
		c-2.5,4.4-5.1,8.8-7.7,13.2c-0.3,0.5-0.6,1.1-0.9,1.6c-0.3,0.5-0.1,0.7,0.4,0.8c0.2,0,0.3,0,0.5,0c1.5,0,3,0,4.4,0
		c1.6,0,3.1,0,4.7,0c0.5,0,0.9-0.2,1.2-0.7c0.6-1.2,1.4-2.4,2-3.7c0.3-0.6,0.8-0.8,1.4-0.8c3.2,0,6.5,0,9.7,0c0.9,0,1,0.1,1.1,1.1
		c0.1,1.1,0.3,2.2,0.4,3.3c0.1,0.6,0.2,0.7,0.9,0.8c0.2,0,0.4,0,0.5,0c2.7,0,5.5,0,8.2,0C-144.7-86.4-144.6-86.5-144.8-87.7z
		 M-157.9-99.2c-0.8,0-1.7,0-2.5,0c0,0,0,0,0,0c-0.8,0-1.6,0-2.4,0c-0.7,0-0.9-0.4-0.6-1c1.5-2.8,2.9-5.6,4.4-8.4
		c0.2-0.3,0.3-0.8,0.7-0.7c0.5,0.1,0.3,0.6,0.3,0.9c0.2,1.9,0.4,3.9,0.6,5.8c0.1,0.8,0.2,1.6,0.3,2.4
		C-157-99.5-157.2-99.2-157.9-99.2z"/>
	<path class="st8" d="M-325.3-87.2c-0.2-1.2-0.4-2.3-0.5-3.5c-0.5-3-1-6-1.4-9c-0.5-3-0.9-6-1.4-9.1c-0.6-3.6-1.1-7.2-1.7-10.8
		c-0.1-0.7-0.2-1.4-0.4-2.1c-0.1-0.4-0.3-0.6-0.7-0.7c-0.2,0-0.4,0-0.5,0c-2.8,0-5.6,0-8.5,0c-0.9,0-1.4,0.3-1.8,1
		c-1.4,2.4-2.8,4.8-4.1,7.2c-2,3.4-4,6.9-6,10.3c-2,3.5-4,7-6.1,10.5c-1.1,2-2.3,3.9-3.4,5.9c-0.4,0.7-0.2,0.9,0.5,0.9
		c3.1,0,6.3,0,9.4,0c0.6,0,1-0.2,1.3-0.8c0.6-1.2,1.2-2.3,1.8-3.4c0.3-0.7,0.8-1,1.6-1c1.6,0.1,3.1,0,4.7,0c1.7,0,3.4,0,5.1,0
		c0.8,0,0.9,0.2,1,0.9c0.1,1.1,0.3,2.2,0.4,3.3c0.1,0.8,0.3,0.9,1.1,0.9c2.9,0,5.8,0,8.6,0c0.2,0,0.3,0,0.5,0
		C-325.4-86.4-325.2-86.6-325.3-87.2z M-338.4-99.2c-0.8,0-1.7,0-2.5,0c0,0,0,0,0,0c-0.8,0-1.6,0-2.4,0c-0.8,0-1-0.3-0.7-1
		c1.2-2.3,2.5-4.7,3.7-7c0.3-0.6,0.6-1.2,0.9-1.7c0.1-0.2,0.3-0.4,0.4-0.4c0.3,0,0.3,0.3,0.4,0.5c0.1,1.1,0.2,2.2,0.4,3.3
		c0.2,1.7,0.4,3.3,0.6,5c0,0.2,0,0.4,0,0.5C-337.6-99.4-337.8-99.2-338.4-99.2z"/>
	<path class="st9" d="M-380.3-108c0-0.2,0-0.4,0.1-0.7c0.5-2.1,0.6-4.2,0.2-6.3c-0.3-1.8-1.1-3.4-2.3-4.8c-1.6-1.9-3.7-3.3-5.9-4.4
		c-2.4-1.2-4.9-2.1-7.4-2.9c-1.1-0.3-2.1-0.8-2.9-1.6c-1.7-1.5-3.3-3.1-4.5-5.1c-0.8-1.3-1.4-2.8-1.9-4.3c-0.1-0.1-0.1-0.3-0.1-0.5
		c0-0.4,0.2-0.6,0.6-0.6c0.1,0,0.2,0.1,0.4,0.1c2.3,0.6,4.6,1.2,6.8,1.9c2.8,0.9,5.6,1.8,8.4,2.9c2.4,0.9,4.7,2.2,6.8,3.8
		c1.8,1.4,3.3,3,4.4,5.1c0.9,1.9,1.4,3.9,1.4,6.1c0.1,3.9-0.9,7.4-3,10.6c-0.2,0.3-0.5,0.5-0.7,0.8C-380.2-108-380.2-108-380.3-108z
		"/>
	<path class="st10" d="M-377.8-177.3c4.9,0,9.6,0,14.4,0c-0.2,0.4-0.4,0.8-0.5,1.1c-1,1.5-1.9,3.1-2.9,4.6c-0.8,1.3-1.6,2.6-2.4,3.9
		c-0.5,0.8-1,1.7-1.5,2.5c-0.1,0.2-0.3,0.4-0.5,0.7c-0.1-0.2-0.2-0.3-0.2-0.3c-0.1-0.9-0.2-1.9-0.3-2.8c0-0.2-0.1-0.3-0.1-0.5
		c-0.1-0.3-0.2-0.6-0.3-0.9c-0.4-2-1.4-3.7-2.7-5.2c-0.8-0.9-1.7-1.7-2.5-2.5C-377.5-176.9-377.6-177-377.8-177.3z"/>
	<path class="st11" d="M-437-89.6c-5,0-9.9,0-14.9,0c0.2-0.5,0.4-0.8,0.6-1.1c1-1.6,2-3.2,3-4.8c0.8-1.3,1.7-2.7,2.5-4
		c0.5-0.9,1-1.7,1.5-2.6c0.1-0.2,0.3-0.4,0.5-0.7c0.1,0.2,0.2,0.3,0.2,0.3c0.1,1,0.2,2,0.3,2.9c0,0.2,0.1,0.4,0.1,0.5
		c0.1,0.3,0.2,0.6,0.3,0.9c0.5,2.1,1.5,3.8,2.8,5.4c0.8,0.9,1.7,1.7,2.6,2.6C-437.3-90-437.2-89.9-437-89.6z"/>
	<path class="st12" d="M-428-139.8c-0.7-0.4-1.3-0.7-1.9-1.1c-0.9-0.7-1.7-1.4-2.5-2.2c-0.8-0.8-1.7-1.5-2.4-2.4
		c-1.3-1.6-2.4-3.4-3-5.4c-0.7-2.4-0.7-4.9-0.3-7.3c0.2-1.2,0.5-2.3,1-3.4c0.3-0.6,0.5-1.2,0.8-1.8c0.1-0.2,0.3-0.5,0.4-0.7
		c0.1,0,0.1,0,0.2,0.1c0,0.3,0,0.6-0.1,0.8c-0.4,1.1-0.1,2.1,0.3,3c0.6,1.8,1.8,3.3,3.1,4.7c1.1,1.1,2.1,2.2,3.4,3.1
		c0.2,0.1,0.4,0.3,0.6,0.5c0.2,0.2,0.3,0.5,0.1,0.8c-0.1,0.2-0.1,0.5-0.2,0.7c-0.2,1.1-0.4,2.3-0.6,3.4c0,0.2,0,0.3,0,0.5
		c0.2,1,0.4,2.1,0.5,3.1c0.1,1,0.4,1.9,0.6,2.8C-428-140.3-428-140.1-428-139.8z"/>
</g>
<g>
	<g>
		<path class="st13" d="M292.5,175.5c1,3.9,1.5,8.1,1.5,12.3c0,26.1-19.9,47.5-45.3,49.9c0.2,0,0.4,0,0.6-0.1c0-9.6-0.1-21.7-0.1-30
			h33.1l-4.3-16.9h-28.8c0-2.3,0.1-4.6,0.1-6.9c0.1-3.9,1.1-7.5,6-7.9C266.9,174.9,280.6,175.4,292.5,175.5 M243.9,137.6
			c26.1,0,40,19.9,39.8,19.6c-11.7-0.2-33.9-1.8-42.1,1.8c-9.2,4.1-9.4,9.8-9.5,20.2c-0.1,6.3,0,13,0,16.9c0.1,13.9,0,32.2,0,40.4
			c0.3,0.1,0.6,0.1,0.9,0.2c-22.5-5-39.2-25-39.2-49C193.7,160.1,216.2,137.6,243.9,137.6z"/>
	</g>
	<g>
		<g>
			<path class="st8" d="M335.5,161.3h-16.5v7.4h15.2v7.5h-15.2v16.9h-9.8v-39.3h26.3V161.3z"/>
			<path class="st8" d="M366.8,193.1h-26.2v-39.3h9.9v31.8h16.3V193.1z"/>
			<path class="st8" d="M387.4,193.9c-5.3,0-9.3-1.3-12.2-3.8c-2.8-2.5-4.3-6.3-4.3-11.2v-25.1h9.9v24.5c0,2.7,0.5,4.8,1.5,6.1
				c1,1.3,2.7,2,5,2c2.3,0,3.9-0.6,5-1.9c1.1-1.3,1.6-3.3,1.6-6.2v-24.5h9.9v25c0,4.8-1.4,8.5-4.2,11.1
				C396.9,192.6,392.8,193.9,387.4,193.9z"/>
			<path class="st8" d="M444.6,193.1h-11.4l-7.5-12.5l-7.7,12.5H407l12.7-19.8l-12.2-19.5H419l7.1,11.8l7.2-11.8h10.9l-12.3,19.1
				L444.6,193.1z"/>
		</g>
		<g>
			<g>
				<path class="st14" d="M316.2,201v1.8h-2.4v14.1h-2.1v-14.1h-2.4V201H316.2z"/>
			</g>
			<g>
				<path class="st14" d="M326.6,213.2c-0.1,2.6-1.1,3.8-3.2,3.8c-2.3,0-3.4-1.8-3.4-5.4c0-3.9,1.2-5.8,3.5-5.8
					c0.9,0,1.6,0.3,2.2,0.9c0.8,0.8,1.1,1.9,1.1,4.3v0.8h-4.6c0,2.8,0.3,3.6,1.4,3.6c0.9,0,1.2-0.6,1.2-2.2H326.6z M324.7,210.3
					c0-2.2-0.3-3-1.2-3c-1,0-1.3,0.7-1.3,3H324.7z"/>
			</g>
			<g>
				<path class="st14" d="M337.9,216.6c-0.8,0.4-1.2,0.5-1.8,0.5c-2.2,0-3.2-1.7-3.2-5.7c0-2.3,0.4-3.8,1.2-4.6
					c0.6-0.6,1.3-0.9,2-0.9c0.5,0,0.9,0.1,1.8,0.4v1.7c-0.6-0.3-0.8-0.3-1.1-0.3c-1.2,0-1.7,1.2-1.7,4c0,2.5,0.5,3.7,1.6,3.7
					c0.4,0,0.7-0.1,1.3-0.4V216.6z"/>
			</g>
			<g>
				<path class="st14" d="M345.9,200.5v6.4c0.8-0.8,1.5-1.1,2.2-1.1c1.5,0,2.3,0.8,2.3,2.5v8.5h-2V209c0-1-0.4-1.6-1.3-1.6
					c-0.9,0-1.3,0.6-1.3,1.7v7.7h-2.1v-16.4H345.9z"/>
			</g>
			<g>
				<path class="st14" d="M358.9,207L358.9,207c0.5-0.8,1.4-1.2,2.2-1.2c1.6,0,2.4,0.9,2.4,2.6v8.5h-2V209c0-1-0.5-1.6-1.3-1.6
					c-0.8,0-1.3,0.6-1.3,1.6v7.9h-2V206h2.1V207z"/>
			</g>
			<g>
				<path class="st14" d="M375.4,206.7c0.9,0.9,1.3,2.2,1.3,4.9c0,1.9-0.2,3.2-0.8,4.1c-0.6,0.9-1.5,1.4-2.6,1.4
					c-2.4,0-3.5-1.8-3.5-5.5c0-2.9,0.4-4.3,1.6-5.1c0.5-0.4,1.2-0.6,1.9-0.6h0.1C374.2,205.9,374.9,206.1,375.4,206.7z M371.9,210.6
					c0,2.2,0.1,3.5,0.3,4c0.2,0.5,0.5,0.7,1,0.7c1,0,1.3-0.8,1.3-3.3c0-3.7-0.3-4.6-1.3-4.6C372.3,207.5,371.9,208.3,371.9,210.6z"
					/>
			</g>
			<g>
				<path class="st14" d="M385.1,200.5v16.4h-2v-16.4H385.1z"/>
			</g>
			<g>
				<path class="st14" d="M397,206.7c0.9,0.9,1.3,2.2,1.3,4.9c0,1.9-0.2,3.2-0.8,4.1c-0.6,0.9-1.5,1.4-2.6,1.4
					c-2.4,0-3.5-1.8-3.5-5.5c0-2.9,0.4-4.3,1.6-5.1c0.5-0.4,1.2-0.6,1.9-0.6h0.1C395.8,205.9,396.5,206.1,397,206.7z M393.5,210.6
					c0,2.2,0.1,3.5,0.3,4c0.2,0.5,0.5,0.7,1,0.7c1,0,1.3-0.8,1.3-3.3c0-3.7-0.3-4.6-1.3-4.6C393.9,207.5,393.5,208.3,393.5,210.6z"
					/>
			</g>
			<g>
				<path class="st14" d="M408.8,215.5L408.8,215.5c-0.4,1-1.2,1.6-2.2,1.6c-0.8,0-1.5-0.5-1.9-1.3c-0.4-0.8-0.6-2.1-0.6-4.5
					c0-2.7,0.2-4,0.9-4.7c0.4-0.5,0.9-0.7,1.6-0.7c1,0,1.4,0.3,2.1,1.3h0.1V206h2v12.3c0,2.2-1,3.2-3.3,3.2c-1.8,0-2.7-0.5-3.1-1.4
					c-0.2-0.5-0.3-0.8-0.3-1.8h2c0.1,1.3,0.5,1.8,1.4,1.8c0.8,0,1.3-0.5,1.3-1.3V215.5z M406.2,210.9c0,3.4,0.3,4.3,1.3,4.3
					c0.9,0,1.2-0.9,1.2-3.4c0-3.5-0.2-4.3-1.2-4.3C406.6,207.5,406.2,208.5,406.2,210.9z"/>
			</g>
			<g>
				<path class="st14" d="M419.5,202.7c0,0.6-0.5,1.1-1.1,1.1c-0.6,0-1.1-0.5-1.1-1.1s0.5-1.1,1.1-1.1
					C419,201.6,419.5,202.1,419.5,202.7z M419.4,206v10.9h-2V206H419.4z"/>
			</g>
			<g>
				<path class="st14" d="M432.4,213.2c-0.1,2.6-1.1,3.8-3.2,3.8c-2.3,0-3.4-1.8-3.4-5.4c0-3.9,1.2-5.8,3.5-5.8
					c0.9,0,1.6,0.3,2.2,0.9c0.8,0.8,1.1,1.9,1.1,4.3v0.8h-4.6c0,2.8,0.3,3.6,1.4,3.6c0.9,0,1.2-0.6,1.2-2.2H432.4z M430.4,210.3
					c0-2.2-0.3-3-1.2-3c-1,0-1.3,0.7-1.3,3H430.4z"/>
			</g>
			<g>
				<path class="st14" d="M439.7,214.9c1,0.4,1.3,0.5,1.9,0.5c0.8,0,1.3-0.5,1.3-1.2c0-0.6-0.4-1.1-1.8-2.3
					c-0.2-0.1-0.3-0.2-0.5-0.4c-0.9-0.9-1.3-1.6-1.3-2.7c0-1.7,1.3-3,3-3c0.5,0,1.1,0.1,2,0.4v1.7l-0.1-0.1
					c-0.7-0.2-1.1-0.3-1.5-0.3c-0.9,0-1.4,0.5-1.4,1.2c0,0.6,0.4,1.1,1.5,2c0.4,0.4,0.6,0.5,0.9,0.8c0.8,0.9,1.2,1.6,1.2,2.5
					c0,1.7-1.3,3-3.1,3c-0.7,0-1.1-0.1-2-0.5V214.9z"/>
			</g>
		</g>
	</g>
</g>
<g id="Page-1">
	<g id="Artboard">
		<path id="Fill-1" class="st15" d="M145.3,24.7h40.9c4.7,0,8.5,3.8,8.5,8.5v40.9c0,4.7-3.8,8.5-8.5,8.5h-40.9
			c-4.7,0-8.5-3.8-8.5-8.5V33.2C136.8,28.5,140.7,24.7,145.3,24.7"/>
		<path id="Fill-2" class="st16" d="M212.8,24.7h40.9c4.7,0,8.5,3.8,8.5,8.5v40.9c0,4.7-3.8,8.5-8.5,8.5h-40.9
			c-4.7,0-8.5-3.8-8.5-8.5V33.2C204.3,28.5,208.2,24.7,212.8,24.7"/>
		<path id="Fill-3" class="st17" d="M281.1,24.7H322c4.7,0,8.5,3.8,8.5,8.5v40.9c0,4.7-3.8,8.5-8.5,8.5h-40.9
			c-4.7,0-8.5-3.8-8.5-8.5V33.2C272.6,28.5,276.4,24.7,281.1,24.7"/>
		<path id="Fill-4" class="st18" d="M348.9,24.7h40.9c4.7,0,8.5,3.8,8.5,8.5v40.9c0,4.7-3.8,8.5-8.5,8.5h-40.9
			c-4.7,0-8.5-3.8-8.5-8.5V33.2C340.5,28.5,344.3,24.7,348.9,24.7"/>
		<path id="Fill-5" class="st19" d="M188.5,67.8c0,0.2-0.1,0.4-0.2,0.6c-0.1,0.2-0.3,0.3-0.6,0.4c-0.3,0.1-0.7,0.2-1.2,0.2
			c-0.5,0.1-1.2,0.1-2,0.1c-0.8,0-1.5,0-2-0.1c-0.5-0.1-0.9-0.1-1.2-0.2c-0.3-0.1-0.5-0.2-0.6-0.4c-0.1-0.2-0.2-0.3-0.2-0.6v-17
			c0-1-0.1-1.8-0.3-2.6c-0.2-0.8-0.5-1.5-0.8-2c-0.4-0.6-0.8-1-1.4-1.3c-0.6-0.3-1.2-0.5-2-0.5c-1,0-1.9,0.4-2.9,1.1
			c-1,0.8-2,1.8-3.2,3.3v19c0,0.2-0.1,0.4-0.2,0.6c-0.1,0.2-0.4,0.3-0.7,0.4c-0.3,0.1-0.7,0.2-1.2,0.2c-0.5,0.1-1.1,0.1-1.9,0.1
			c-0.8,0-1.4,0-1.9-0.1c-0.5-0.1-0.9-0.1-1.2-0.2c-0.3-0.1-0.5-0.2-0.7-0.4c-0.1-0.2-0.2-0.3-0.2-0.6v-17c0-1-0.1-1.8-0.3-2.6
			c-0.2-0.8-0.4-1.5-0.8-2c-0.4-0.6-0.8-1-1.4-1.3c-0.6-0.3-1.3-0.5-2-0.5c-1,0-2,0.4-3,1.1c-1,0.8-2,1.8-3.2,3.3v19
			c0,0.2-0.1,0.4-0.2,0.6c-0.1,0.2-0.4,0.3-0.7,0.4c-0.3,0.1-0.7,0.2-1.2,0.2c-0.5,0.1-1.2,0.1-2,0.1c-0.8,0-1.4,0-1.9-0.1
			c-0.5-0.1-0.9-0.1-1.2-0.2c-0.3-0.1-0.5-0.2-0.7-0.4c-0.1-0.2-0.2-0.3-0.2-0.6V39.2c0-0.2,0.1-0.4,0.2-0.6
			c0.1-0.2,0.3-0.3,0.6-0.4c0.3-0.1,0.6-0.2,1.1-0.2c0.4-0.1,1-0.1,1.7-0.1c0.7,0,1.2,0,1.7,0.1c0.4,0.1,0.8,0.1,1,0.2
			c0.3,0.1,0.4,0.2,0.5,0.4c0.1,0.2,0.2,0.4,0.2,0.6v3.3c1.6-1.7,3.2-3,4.7-3.9c1.6-0.9,3.2-1.3,4.9-1.3c1.2,0,2.2,0.1,3.2,0.4
			c0.9,0.2,1.8,0.6,2.5,1.1c0.7,0.5,1.4,1,1.9,1.7c0.5,0.6,1,1.4,1.3,2.2c0.9-0.9,1.7-1.7,2.5-2.4c0.8-0.7,1.6-1.2,2.4-1.6
			c0.8-0.4,1.6-0.7,2.4-0.9c0.8-0.2,1.6-0.3,2.5-0.3c1.9,0,3.5,0.3,4.8,1c1.3,0.6,2.4,1.5,3.2,2.6c0.8,1.1,1.4,2.4,1.7,3.9
			c0.3,1.5,0.5,3,0.5,4.7V67.8"/>
		<path id="Fill-6" class="st19" d="M241.7,51.4c0-1.2-0.1-2.4-0.3-3.5c-0.2-1.1-0.5-2.1-0.9-3c-0.4-0.9-1-1.6-1.7-2.1
			c-0.7-0.5-1.6-0.8-2.7-0.8c-0.5,0-1.1,0.1-1.6,0.2c-0.5,0.2-1.1,0.4-1.6,0.8c-0.5,0.4-1.1,0.8-1.7,1.4c-0.6,0.6-1.2,1.3-1.8,2.1
			V56c1.1,1.4,2.2,2.5,3.2,3.3c1,0.8,2.1,1.2,3.2,1.2c1.1,0,2-0.3,2.7-0.8c0.7-0.5,1.3-1.2,1.8-2.1c0.5-0.9,0.8-1.8,1.1-2.9
			C241.6,53.5,241.7,52.4,241.7,51.4z M250.1,50.8c0,2.5-0.3,4.8-0.8,6.9c-0.5,2-1.3,3.8-2.4,5.2c-1.1,1.4-2.4,2.5-3.9,3.3
			c-1.6,0.8-3.3,1.1-5.4,1.1c-0.8,0-1.6-0.1-2.3-0.2c-0.7-0.2-1.4-0.4-2-0.7c-0.6-0.3-1.3-0.7-1.9-1.2c-0.6-0.5-1.3-1.1-2-1.7v13.5
			c0,0.2-0.1,0.4-0.2,0.6c-0.1,0.2-0.3,0.3-0.7,0.4c-0.3,0.1-0.7,0.2-1.2,0.3c-0.5,0.1-1.2,0.1-2,0.1c-0.8,0-1.4,0-1.9-0.1
			c-0.5-0.1-0.9-0.2-1.2-0.3c-0.3-0.1-0.5-0.3-0.7-0.4c-0.1-0.2-0.2-0.4-0.2-0.6v-40c0-0.2,0.1-0.4,0.2-0.6c0.1-0.2,0.3-0.3,0.6-0.4
			c0.3-0.1,0.6-0.2,1.1-0.2c0.4-0.1,1-0.1,1.7-0.1c0.6,0,1.2,0,1.6,0.1c0.4,0.1,0.8,0.1,1,0.2c0.3,0.1,0.5,0.2,0.6,0.4
			c0.1,0.2,0.2,0.4,0.2,0.6v3.4c0.8-0.9,1.7-1.6,2.5-2.3c0.8-0.6,1.6-1.2,2.5-1.6c0.8-0.4,1.7-0.8,2.6-1c0.9-0.2,1.8-0.3,2.8-0.3
			c2.1,0,3.9,0.4,5.4,1.2c1.5,0.8,2.7,1.9,3.6,3.4c0.9,1.4,1.6,3.1,2,5C249.9,46.6,250.1,48.6,250.1,50.8z"/>
		<path id="Fill-7" class="st19" d="M305.6,74.8c0,0.2-0.1,0.4-0.2,0.6c-0.1,0.2-0.3,0.3-0.7,0.4c-0.3,0.1-0.7,0.2-1.2,0.2
			c-0.5,0.1-1.2,0.1-2,0.1c-0.8,0-1.4,0-1.9-0.1c-0.5-0.1-0.9-0.1-1.2-0.2c-0.3-0.1-0.5-0.2-0.7-0.4c-0.1-0.2-0.2-0.4-0.2-0.6V32.6
			c0-0.2,0.1-0.4,0.2-0.6c0.1-0.2,0.3-0.3,0.7-0.4c0.3-0.1,0.7-0.2,1.2-0.3c0.5-0.1,1.2-0.1,1.9-0.1c0.8,0,1.4,0,2,0.1
			c0.5,0.1,0.9,0.2,1.2,0.3c0.3,0.1,0.5,0.3,0.7,0.4c0.1,0.2,0.2,0.4,0.2,0.6V74.8"/>
		<path id="Fill-8" class="st19" d="M374.5,66.6L371,76.7c-0.2,0.5-0.7,0.9-1.6,1.2c-0.9,0.2-2.1,0.3-3.8,0.3c-0.9,0-1.5,0-2-0.1
			c-0.5-0.1-0.9-0.2-1.2-0.4c-0.3-0.2-0.4-0.4-0.4-0.6c0-0.3,0-0.6,0.2-0.9l3.8-9.6c-0.3-0.1-0.5-0.3-0.8-0.6
			c-0.2-0.3-0.4-0.6-0.5-0.9L355,38.8c-0.3-0.8-0.4-1.3-0.4-1.7c0-0.4,0.1-0.7,0.4-0.9c0.3-0.2,0.7-0.4,1.3-0.5
			c0.6-0.1,1.4-0.1,2.4-0.1c0.9,0,1.7,0,2.2,0c0.5,0,1,0.1,1.2,0.2c0.3,0.1,0.5,0.3,0.7,0.6c0.2,0.3,0.3,0.7,0.5,1.1l6.7,19.2h0.1
			l6.2-19.5c0.1-0.5,0.3-0.9,0.5-1.1c0.2-0.2,0.5-0.3,1-0.4c0.5-0.1,1.3-0.1,2.5-0.1c0.9,0,1.7,0,2.3,0.1c0.6,0.1,1.1,0.2,1.3,0.5
			c0.3,0.2,0.4,0.5,0.4,0.9c0,0.4-0.1,0.9-0.3,1.4L374.5,66.6"/>
		<path id="Fill-9" class="st20" d="M10.2,24.7h40.9c4.7,0,8.5,3.8,8.5,8.5v40.9c0,4.7-3.8,8.5-8.5,8.5H10.2c-4.7,0-8.5-3.8-8.5-8.5
			V33.2C1.7,28.5,5.5,24.7,10.2,24.7"/>
		<path id="Fill-10" class="st19" d="M42.7,59.9c0,1.6-0.3,3.1-0.9,4.3c-0.6,1.2-1.5,2.3-2.6,3.1c-1.1,0.8-2.4,1.5-4,1.9
			c-1.5,0.4-3.2,0.6-4.9,0.6c-1.1,0-2.1-0.1-3.1-0.2c-1-0.2-1.8-0.4-2.6-0.6c-0.8-0.3-1.4-0.5-1.9-0.8c-0.5-0.3-0.9-0.5-1.1-0.7
			c-0.2-0.2-0.4-0.6-0.5-1.1c-0.1-0.5-0.2-1.2-0.2-2.1c0-0.6,0-1.1,0.1-1.5c0-0.4,0.1-0.7,0.2-0.9c0.1-0.2,0.2-0.4,0.3-0.4
			c0.1-0.1,0.3-0.1,0.5-0.1c0.2,0,0.6,0.1,1,0.4c0.5,0.3,1,0.6,1.7,0.9c0.7,0.3,1.5,0.6,2.4,0.9c0.9,0.3,1.9,0.4,3.1,0.4
			c0.7,0,1.4-0.1,1.9-0.2c0.6-0.2,1.1-0.4,1.5-0.6c0.4-0.3,0.7-0.6,1-1.1c0.2-0.4,0.3-0.9,0.3-1.5c0-0.6-0.2-1.2-0.6-1.7
			c-0.4-0.5-0.9-0.9-1.6-1.2c-0.6-0.3-1.4-0.7-2.2-1c-0.8-0.3-1.7-0.6-2.5-1c-0.9-0.4-1.7-0.8-2.5-1.2c-0.8-0.5-1.6-1.1-2.2-1.7
			c-0.6-0.7-1.2-1.5-1.6-2.5c-0.4-1-0.6-2.1-0.6-3.5c0-1.4,0.3-2.6,0.8-3.8c0.5-1.1,1.3-2.1,2.3-2.9c1-0.8,2.2-1.4,3.7-1.9
			c1.4-0.5,3.1-0.7,4.9-0.7c0.9,0,1.8,0.1,2.6,0.2c0.8,0.1,1.6,0.3,2.3,0.5c0.7,0.2,1.3,0.4,1.7,0.6c0.5,0.2,0.8,0.4,1,0.6
			c0.2,0.2,0.3,0.3,0.4,0.5c0.1,0.2,0.2,0.4,0.2,0.6c0,0.2,0.1,0.5,0.1,0.8c0,0.3,0.1,0.7,0.1,1.2c0,0.6,0,1.1-0.1,1.4
			c0,0.4-0.1,0.7-0.2,0.9c-0.1,0.2-0.2,0.4-0.3,0.4c-0.1,0.1-0.3,0.1-0.4,0.1c-0.2,0-0.5-0.1-0.9-0.3c-0.4-0.2-0.9-0.5-1.5-0.7
			c-0.6-0.3-1.3-0.5-2.1-0.7c-0.8-0.2-1.7-0.3-2.7-0.3c-0.7,0-1.4,0.1-1.9,0.2c-0.5,0.2-1,0.4-1.3,0.6c-0.4,0.3-0.6,0.6-0.8,1
			c-0.2,0.4-0.2,0.8-0.2,1.2c0,0.7,0.2,1.2,0.6,1.7c0.4,0.4,0.9,0.8,1.6,1.2c0.7,0.3,1.4,0.7,2.3,1c0.8,0.3,1.7,0.6,2.6,1
			c0.9,0.4,1.7,0.8,2.6,1.2c0.8,0.5,1.6,1,2.3,1.7c0.7,0.7,1.2,1.5,1.6,2.5C42.5,57.4,42.7,58.6,42.7,59.9"/>
		<path id="Fill-11" class="st21" d="M77.1,24.7H118c4.7,0,8.5,3.8,8.5,8.5v40.9c0,4.7-3.8,8.5-8.5,8.5H77.1c-4.7,0-8.5-3.8-8.5-8.5
			V33.2C68.6,28.5,72.4,24.7,77.1,24.7"/>
		<path id="Fill-12" class="st19" d="M102.2,33.7c0,1.6-0.3,2.7-1,3.4c-0.7,0.6-1.9,0.9-3.7,0.9c-1.8,0-3-0.3-3.7-0.9
			c-0.6-0.6-1-1.7-1-3.2c0-1.6,0.3-2.7,1-3.4c0.6-0.6,1.9-1,3.7-1c1.8,0,3,0.3,3.7,0.9C101.9,31.1,102.2,32.1,102.2,33.7z
			 M101.6,68.2c0,0.2-0.1,0.4-0.2,0.6c-0.1,0.2-0.3,0.3-0.7,0.4c-0.3,0.1-0.7,0.2-1.2,0.2c-0.5,0.1-1.2,0.1-2,0.1
			c-0.8,0-1.4,0-1.9-0.1c-0.5-0.1-0.9-0.1-1.2-0.2c-0.3-0.1-0.5-0.2-0.7-0.4c-0.1-0.2-0.2-0.4-0.2-0.6V43.5c0-0.2,0.1-0.4,0.2-0.6
			c0.1-0.2,0.3-0.3,0.7-0.4c0.3-0.1,0.7-0.2,1.2-0.3c0.5-0.1,1.2-0.1,1.9-0.1c0.8,0,1.4,0,2,0.1c0.5,0.1,0.9,0.2,1.2,0.3
			c0.3,0.1,0.5,0.3,0.7,0.4c0.1,0.2,0.2,0.3,0.2,0.6V68.2z"/>
	</g>
</g>
</svg>
