<?xml version="1.0" encoding="utf-8"?>
<!-- Generator: Adobe Illustrator 23.0.0, SVG Export Plug-In . SVG Version: 6.00 Build 0)  -->
<svg version="1.1" id="Layer_1" xmlns="http://www.w3.org/2000/svg" xmlns:xlink="http://www.w3.org/1999/xlink" x="0px" y="0px"
	 viewBox="0 0 336.23 103.58" style="enable-background:new 0 0 336.23 103.58;" xml:space="preserve">
<style type="text/css">
	.st0{fill:#FFFFFF;}
</style>
<path class="st0" d="M41.29,98.33c0.38-0.99,0.31-2.13-0.23-3.2c-0.61-1.07-1.6-1.75-2.67-1.9c-1.91-17.44,2.89-34.2,12.27-46.99
	c13.87,8,24.91,21.63,30.17,38.54c-0.84,1.22-0.99,2.82-0.23,4.19c0.08,0.15,0.23,0.38,0.38,0.53c-5.56,4.27-12.04,7.46-19.35,8.99
	c-3.28,0.69-6.55,1.01-9.78,1.01C48.27,99.49,44.74,99.09,41.29,98.33 M9.52,41.73c0.92-0.53,1.6-1.37,1.91-2.28
	c12.42-2.44,24.84-0.46,35.73,4.95c-9.83,13.63-14.63,31.46-12.42,49.96c-0.46,0.46-0.76,1.07-0.91,1.68
	C19.65,90.25,8.45,77.76,5.02,61.69c-1.45-6.93-1.29-13.86,0.15-20.34c0.71,0.58,1.58,0.89,2.46,0.89
	C8.27,42.25,8.92,42.09,9.52,41.73 M88.46,24.98c0.69-0.38,1.22-0.91,1.6-1.6c3.96,5.33,6.86,11.58,8.38,18.43
	c3.35,15.84-1.52,31.46-11.74,42.42c-0.68-0.61-1.52-0.99-2.44-1.07C78.78,65.65,67.35,51.64,53.18,43.1
	c7.85-9.29,18.36-15.99,30.7-18.74c0.75,0.7,1.73,1.09,2.72,1.09C87.23,25.46,87.87,25.3,88.46,24.98 M41.83,5.1
	C58.13,1.67,74.29,7,85.33,17.89c-0.23,0.08-0.38,0.15-0.61,0.23c-0.91,0.53-1.6,1.37-1.83,2.28
	c-13.41,2.97-24.84,10.43-33.22,20.72c-11.96-6.17-25.6-8.45-39.32-5.71c-0.84-0.76-1.9-1.14-3.05-1.07
	C12.95,19.95,25.52,8.53,41.83,5.1 M51.79,0c-3.54,0.01-7.13,0.37-10.73,1.14C13.1,7.08-4.8,34.58,1.14,62.53
	c5.17,24.31,26.64,41.01,50.55,41.05h0.14c3.54,0,7.13-0.37,10.73-1.14C90.52,96.5,108.35,69,102.48,41.05
	C97.31,16.74,75.83,0.03,51.93,0H51.79z"/>
<path class="st0" d="M38.47,23.76c0,4.08,3.31,7.39,7.39,7.39c4.08,0,7.39-3.31,7.39-7.39c0-4.08-3.31-7.39-7.39-7.39
	C41.78,16.37,38.47,19.68,38.47,23.76"/>
<path class="st0" d="M163.85,25.63c-1.24,0.95-2.19,2.47-2.86,4.54L149.2,68.72l-11.53-38.29c-0.67-2.13-1.65-3.7-2.95-4.71
	c-1.29-1.01-2.95-1.51-4.97-1.51c-1.18,0-2.36,0.08-3.54,0.25c-1.18,0.17-2.07,0.37-2.69,0.59l18.94,56.3h12.8l19.19-56.3
	c-2.19-0.56-4.1-0.84-5.72-0.84C166.71,24.2,165.08,24.67,163.85,25.63"/>
<path class="st0" d="M181.87,40.95c-0.84,0.06-1.35,0.11-1.52,0.17v33.66c0,2.41,0.56,4.18,1.68,5.3c1.18,1.12,3.09,1.68,5.72,1.68
	c2.3,0,3.65-0.11,4.04-0.34v-34c0-4.43-2.52-6.65-7.57-6.65C183.5,40.78,182.71,40.83,181.87,40.95 M181.28,23.27
	c-1.12,1.18-1.68,2.64-1.68,4.38c0,1.74,0.56,3.2,1.68,4.38c1.18,1.12,2.67,1.68,4.46,1.68c1.74,0,3.2-0.56,4.38-1.68
	c1.18-1.18,1.77-2.64,1.77-4.38c0-1.74-0.59-3.2-1.77-4.38c-1.18-1.18-2.64-1.77-4.38-1.77C183.95,21.51,182.46,22.09,181.28,23.27"
	/>
<path class="st0" d="M213.49,45.15c-0.62-2.92-3-4.38-7.15-4.38c-0.95,0-1.88,0.06-2.78,0.17l-1.01,0.17v39.81h11.53V53.65
	c0-1.29,0.73-2.36,2.19-3.2c1.46-0.9,3.25-1.35,5.39-1.35c1.52,0,2.69,0.25,3.53,0.76c0.9,0.45,1.52,1.21,1.85,2.27
	c0.39,1.07,0.59,2.92,0.59,5.55v23.23h11.45V57.19c0-3.82-0.22-6.71-0.67-8.67c-0.62-2.92-1.96-5.08-4.04-6.48
	c-2.08-1.4-4.91-2.1-8.5-2.1C220.2,39.93,216.08,41.67,213.49,45.15"/>
<path class="st0" d="M261.6,50.03c1.35-1.63,3.2-2.44,5.55-2.44c4.77,0,7.16,3.03,7.16,9.09h-14.73
	C259.58,53.88,260.25,51.66,261.6,50.03 M257.47,42.38c-2.92,1.63-5.22,3.96-6.9,6.99c-1.63,3.03-2.44,6.68-2.44,10.94
	c0,7.18,1.82,12.65,5.47,16.41c3.7,3.76,8.98,5.64,15.82,5.64c2.58,0,4.99-0.31,7.24-0.92c2.24-0.56,4.04-1.35,5.39-2.36
	c1.4-1.01,2.1-2.13,2.1-3.37c0-0.73-0.34-1.71-1.01-2.95c-0.62-1.29-1.35-2.47-2.19-3.53c-0.67,0.62-1.46,1.29-2.36,2.02
	c-0.9,0.67-2.02,1.26-3.37,1.77c-1.29,0.51-2.86,0.76-4.71,0.76c-3.31,0-5.89-0.93-7.74-2.78c-1.85-1.85-2.89-4.52-3.11-8h24.75
	c0.17-0.78,0.25-2.52,0.25-5.22c0-5.55-1.51-9.9-4.55-13.04c-2.98-3.2-7.21-4.8-12.71-4.8C263.76,39.93,260.45,40.75,257.47,42.38"
	/>
<path class="st0" d="M293.98,28.4l-1.26,0.17v39.05c0,2.97,0.31,5.39,0.93,7.24c1.8,4.88,5.86,7.32,12.2,7.32
	c2.13,0,4.1-0.28,5.89-0.84c1.85-0.51,3.37-1.23,4.55-2.19c1.18-0.95,1.77-1.96,1.77-3.03c0-0.67-0.2-1.43-0.59-2.27
	c-0.34-0.84-1.01-1.99-2.02-3.45c-0.84,0.84-1.85,1.54-3.03,2.1c-1.18,0.56-2.33,0.84-3.45,0.84c-3.2,0-4.8-1.96-4.8-5.89V49.45
	h11.78v-8.58h-11.78v-5.89c0-4.49-2.52-6.73-7.58-6.73C295.86,28.24,294.99,28.29,293.98,28.4"/>
<path class="st0" d="M326.21,40.95c-0.84,0.06-1.35,0.11-1.52,0.17v33.66c0,2.41,0.56,4.18,1.68,5.3c1.18,1.12,3.09,1.68,5.73,1.68
	c2.3,0,3.65-0.11,4.04-0.34v-34c0-4.43-2.53-6.65-7.58-6.65C327.84,40.78,327.06,40.83,326.21,40.95 M325.62,23.27
	c-1.12,1.18-1.68,2.64-1.68,4.38c0,1.74,0.56,3.2,1.68,4.38c1.18,1.12,2.66,1.68,4.46,1.68c1.74,0,3.2-0.56,4.38-1.68
	c1.13-1.13,1.72-2.53,1.76-4.18v-0.4c-0.04-1.65-0.63-3.05-1.76-4.18c-1.18-1.18-2.64-1.77-4.38-1.77
	C328.29,21.51,326.8,22.09,325.62,23.27"/>
</svg>
